<?xml version="1.0" encoding="UTF-8" standalone="no"?>
<svg
   id="Layer_1"
   data-name="Layer 1"
   viewBox="0 0 460 670"
   version="1.1"
   sodipodi:docname="RAK11310_Bottom.svg"
   width="460"
   height="670"
   inkscape:version="1.4.2 (f4327f4, 2025-05-13)"
   xmlns:inkscape="http://www.inkscape.org/namespaces/inkscape"
   xmlns:sodipodi="http://sodipodi.sourceforge.net/DTD/sodipodi-0.dtd"
   xmlns="http://www.w3.org/2000/svg"
   xmlns:svg="http://www.w3.org/2000/svg">
  <sodipodi:namedview
     id="namedview993"
     pagecolor="#505050"
     bordercolor="#eeeeee"
     borderopacity="1"
     inkscape:showpageshadow="0"
     inkscape:pageopacity="0"
     inkscape:pagecheckerboard="0"
     inkscape:deskcolor="#505050"
     inkscape:zoom="1.183922"
     inkscape:cx="761.87453"
     inkscape:cy="318.85547"
     inkscape:window-width="3440"
     inkscape:window-height="1369"
     inkscape:window-x="-8"
     inkscape:window-y="-8"
     inkscape:window-maximized="1"
     inkscape:current-layer="Layer_1" />
  <defs
     id="defs4">
    <style
       id="style1">.cls-1,.cls-16,.cls-8{fill:none;}.cls-2{fill:#1e1e1e;}.cls-3{fill:#027f69;}.cls-4{fill:#fff;}.cls-5{fill:#c8cbcb;}.cls-6{fill:#899a9e;}.cls-7{fill:#bf8e3e;}.cls-16,.cls-8{stroke:#fff;stroke-miterlimit:10;}.cls-8{stroke-width:0.83px;}.cls-9{clip-path:url(#clip-path);}.cls-10{clip-path:url(#clip-path-2);}.cls-11{fill:#b6c2cc;}.cls-12{fill:#ebe4d9;}.cls-13{fill:#deaa54;}.cls-14{clip-path:url(#clip-path-3);}.cls-15{fill:#b1b2b1;}.cls-16{stroke-width:0.88px;}.cls-17{fill:#050609;}.cls-18{fill:#231f20;}.cls-19{fill:#333;}.cls-20{fill:#e4e4e4;}.cls-21{fill:#282828;}.cls-22{fill:#ae773d;}.cls-23{clip-path:url(#clip-path-4);}.cls-24{fill:#ecf3fa;}.cls-25{fill:#383f49;}.cls-26{fill:#272a33;}.cls-27{fill:#b68f4e;}.cls-28{fill:#ff0;}</style>
    <clipPath
       id="clip-path">
      <rect
         class="cls-1"
         x="710.01001"
         y="114.85"
         width="12.38"
         height="12.38"
         id="rect1" />
    </clipPath>
    <clipPath
       id="clip-path-2">
      <rect
         class="cls-1"
         x="481.04001"
         y="501.60999"
         width="61.880001"
         height="83.540001"
         id="rect2" />
    </clipPath>
    <clipPath
       id="clip-path-3">
      <rect
         class="cls-1"
         x="716.20001"
         y="105.56"
         width="64.980003"
         height="86.639999"
         id="rect3" />
    </clipPath>
    <clipPath
       id="clip-path-4">
      <rect
         class="cls-1"
         x="1020"
         y="121.16"
         width="147"
         height="87.25"
         id="rect4" />
    </clipPath>
    <clipPath
       id="clip-path-4-7">
      <rect
         class="cls-1"
         x="1020"
         y="121.16"
         width="147"
         height="87.25"
         id="rect4-1" />
    </clipPath>
    <clipPath
       id="clipPath1">
      <rect
         class="cls-1"
         x="1020"
         y="121.16"
         width="147"
         height="87.25"
         id="rect1-1" />
    </clipPath>
  </defs>
  <path
     class="cls-2"
     d="M 7.312746,663.13376 V 7.1337565 H 452.87275 V 663.13376 Z m 293.270004,-32.4 a 17.12,17.12 0 1 0 -17.29,16.93 h 0.18 a 17,17 0 0 0 17.11,-16.93 m 38.63,16.18 a 16.76,16.76 0 1 0 -16.94,-16.78 16.75,16.75 0 0 0 16.94,16.76 m -98.34,-17.43 c 0.1,-9.34 -8.07,-16.78 -17.47,-14.86 a 14.66,14.66 0 0 0 -11.17,11.31 c -2,9.67 5,18.28 14,18.38 h 0.16 a 14.65,14.65 0 0 0 14.5,-14.83 m -51.56,1.25 a 17.12,17.12 0 1 0 -17.29,16.93 h 0.17 a 17,17 0 0 0 17.12,-16.92 v 0 m -86.08,-17.11 v 30.94 h 30.94 v -30.95 z m -84.760004,3.1 a 28.15,28.15 0 0 0 28.68,28.42 28.44,28.44 0 0 0 27.58,-27 28.15,28.15 0 0 0 -27.83,-29.3 h -0.31 a 28,28 0 0 0 -28.15,27.85 v 0 m 365.070004,0.61 a 24.7,24.7 0 0 0 25.11,25 25,25 0 0 0 24.23,-23.75 24.7,24.7 0 0 0 -24.38,-25.69 25.61,25.61 0 0 0 -4.65,0.38 24.35,24.35 0 0 0 -20.29,24.08 v 0 M 18.502746,47.313747 a 28.09,28.09 0 0 0 28.58,28.39 28.4,28.4 0 0 0 27.59,-27 28.1,28.1 0 0 0 -27.8,-29.17 h -0.31 a 27.93,27.93 0 0 0 -28.09,27.78 v 0 m 365.400004,3.1 a 28.09,28.09 0 0 0 28.58,28.39 28.41,28.41 0 0 0 27.58,-27 28.1,28.1 0 0 0 -27.77,-29.19 h -0.31 a 27.94,27.94 0 0 0 -28.08,27.8"
     id="path758"
     style="fill:#1e1e1e" />
  <path
     class="cls-7"
     d="m 74.782746,616.85376 a 28.86,28.86 0 0 1 -29.37,29.18 29.19,29.19 0 0 1 -28.35,-27.73 28.87,28.87 0 0 1 28.54,-30 h 0.27 a 28.71,28.71 0 0 1 28.87,28.55 m -46.42,1.53 a 17.56,17.56 0 1 0 17.74,-17.36 h -0.19 a 17.46,17.46 0 0 0 -17.55,17.37"
     id="path759"
     style="fill:#bf8e3e" />
  <path
     class="cls-7"
     d="m 74.922746,47.323757 a 28.1,28.1 0 0 1 -28.58,28.38999 28.42,28.42 0 0 1 -27.58,-26.99999 28.1,28.1 0 0 1 27.77,-29.18 h 0.3 a 27.94,27.94 0 0 1 28.09,27.79 m -45.17,1.48 a 17.09,17.09 0 1 0 17.26,-16.9 h -0.14 a 17,17 0 0 0 -17.1,16.9 v 0"
     id="path760"
     style="fill:#bf8e3e" />
  <path
     class="cls-7"
     d="m 440.30275,50.413747 a 28.1,28.1 0 0 1 -28.58,28.4 28.42,28.42 0 0 1 -27.59,-26.99999 28.1,28.1 0 0 1 27.74,-29.19 h 0.31 a 28,28 0 0 1 28.09,27.78999 m -45.17,1.49001 a 17.09,17.09 0 1 0 17.26,-16.9 h -0.18 a 17,17 0 0 0 -17.08,16.9"
     id="path761"
     style="fill:#bf8e3e" />
  <path
     class="cls-7"
     d="m 436.72275,618.64376 a 28.09,28.09 0 0 1 -28.59,28.39 28.42,28.42 0 0 1 -27.58,-27 28.1,28.1 0 0 1 27.78,-29.19 32.33,32.33 0 0 1 3.93,0.22 27.73,27.73 0 0 1 24.46,27.57 v 0 m -45.17,-1.62 a 17.09,17.09 0 1 0 17.32,-16.88 h -0.2 a 17,17 0 0 0 -17.08,16.9"
     id="path762"
     style="fill:#bf8e3e" />
  <path
     class="cls-4"
     d="m 80.522746,47.133757 a 33.18,33.18 0 1 1 -33.52,-32.83 h 0.35 a 33,33 0 0 1 33.17,32.83 z m -63.65,0.55 a 30.48,30.48 0 0 0 31,30.82999 30.82,30.82 0 0 0 29.94,-29.26999 30.49,30.49 0 0 0 -30.12,-31.7 h -0.34 a 30.36,30.36 0 0 0 -30.48,30.14 z"
     id="path763"
     style="fill:#ffffff" />
  <path
     class="cls-4"
     d="m 444.93275,49.683757 a 32.73,32.73 0 1 1 -33.06,-32.38 h 0.34 a 32.58,32.58 0 0 1 32.72,32.38 z m -62.79,0.55 a 30.08,30.08 0 0 0 30.59,30.39999 30.4,30.4 0 0 0 29.52,-28.87999 30.06,30.06 0 0 0 -29.71,-31.25 h -0.33 a 29.94,29.94 0 0 0 -30.07,29.73 z"
     id="path764"
     style="fill:#ffffff" />
  <path
     class="cls-4"
     d="m 78.572746,615.96376 a 33,33 0 1 1 -33.33,-32.66 h 0.34 a 32.86,32.86 0 0 1 32.99,32.66 z m -63.31,0.55 a 30.32,30.32 0 0 0 30.84,30.62 30.65,30.65 0 0 0 29.77,-29.08 30.32,30.32 0 0 0 -30,-31.52 h -0.34 a 30.18,30.18 0 0 0 -30.27,29.98 z"
     id="path765"
     style="fill:#ffffff" />
  <path
     class="cls-4"
     d="m 441.57275,617.96376 a 33,33 0 1 1 -33.33,-32.66 h 0.34 a 32.86,32.86 0 0 1 32.99,32.66 z m -63.31,0.55 a 30.32,30.32 0 0 0 30.84,30.62 30.65,30.65 0 0 0 29.77,-29.08 30.32,30.32 0 0 0 -30,-31.52 h -0.34 a 30.18,30.18 0 0 0 -30.27,29.98 z"
     id="path766"
     style="fill:#ffffff" />
  <path
     class="cls-7"
     d="m 103.23275,644.54376 v -30.94 h 30.94 v 30.94 z m 2.55,-12.93 a 12,12 0 1 0 12.09,-11.82 h -0.12 a 11.88,11.88 0 0 0 -12,11.82"
     id="path767"
     style="fill:#bf8e3e" />
  <path
     class="cls-7"
     d="m 189.87275,630.53376 a 17.12,17.12 0 1 1 -17.29,-16.93 h 0.18 a 17,17 0 0 1 17.11,16.92 v -1.45 m -29.91,0 a 12.53,12.53 0 1 0 12.66,-12.39 h -0.14 a 12.45,12.45 0 0 0 -12.52,12.45"
     id="path768"
     style="fill:#bf8e3e" />
  <path
     class="cls-7"
     d="m 242.01275,629.07376 a 15.65,15.65 0 0 1 -15.39,15.81 15.91,15.91 0 0 1 -15.89,-15.56 15.64,15.64 0 0 1 15.47,-15.72 h 0.26 a 15.47,15.47 0 0 1 15.55,15.47 v 0 m -28.14,0.06 a 12.53,12.53 0 1 0 12.66,-12.39 h -0.13 a 12.46,12.46 0 0 0 -12.53,12.39"
     id="path769"
     style="fill:#bf8e3e" />
  <path
     class="cls-7"
     d="m 300.87275,630.52376 a 17.62,17.62 0 1 1 -17.8,-17.39 h 0.17 a 17.53,17.53 0 0 1 17.63,17.39 v 0 m -31.9,0.34 a 13.86,13.86 0 0 0 17,13.5 13.67,13.67 0 0 0 -3,-27 h -0.1 a 13.72,13.72 0 0 0 -13.88,13.55"
     id="path770"
     style="fill:#bf8e3e" />
  <path
     class="cls-7"
     d="m 356.44275,630.53376 a 17.12,17.12 0 1 1 -17.3,-16.93 h 0.19 a 17,17 0 0 1 17.11,16.93 m -29.63,-1.46 a 12.53,12.53 0 1 0 12.67,-12.37 h -0.15 a 12.45,12.45 0 0 0 -12.52,12.37"
     id="path771"
     style="fill:#bf8e3e" />
  <path
     class="cls-4"
     d="m 117.95275,598.13376 c 0,-2.27 0.75,-2.67 0.75,-2.67 v -0.55 c 0,0 -1.93,-3.88 -4,-4.12 h -0.32 a 3.46,3.46 0 0 0 -3.51,3.34 4.07,4.07 0 0 0 0,0.5 c 0,2.83 2.16,4.12 4.7,4.12 v 2.61 a 6.44,6.44 0 0 1 -7,-5.83 c 0,-0.3 0,-0.6 0,-0.9 0,-3.78 1.82,-6.64 5.85,-6.64 1.9,0.08 4.33,4 4.33,4 h 0.12 c 0,0 2.78,-5.1 5.28,-4.88 a 6.74,6.74 0 0 1 6.7,6.77 c 0,0.25 0,0.5 -0.05,0.74 a 6.58,6.58 0 0 1 -5.83,7.25 c -0.43,0 -0.86,0 -0.05,0 v -2.62 c 1.2,0.21 3.34,-1.6 3.55,-4 0,-0.2 0,-0.4 0,-0.6 a 4.35,4.35 0 0 0 -4,-4.71 h -0.26 a 4.17,4.17 0 0 0 -4.21,4.12 3,3 0 0 0 0,0.52 c 0,0.53 0,1 0.09,3.65 z"
     id="path772"
     style="fill:#ffffff" />
  <path
     class="cls-4"
     d="m 131.08275,574.65376 v 3.28 l -21.66,7.64 v -3.2 l 18.57,-6.12 v -0.06 l -18.57,-6.17 v -3.07 z"
     id="path773"
     style="fill:#ffffff" />
  <path
     class="cls-4"
     d="m 117.95275,561.00376 a 1.61,1.61 0 0 1 0.75,-1.39 v -0.55 c 0,0 -1.93,-3.88 -4,-4.12 a 1.73,1.73 0 0 0 -0.32,0 3.45,3.45 0 0 0 -3.53,3.36 4.67,4.67 0 0 0 0,0.52 c 0,2.82 2.16,4.11 4.7,4.11 v 2.62 a 6.46,6.46 0 0 1 -7,-5.85 8.62,8.62 0 0 1 0,-0.88 c 0,-3.79 1.82,-6.65 5.85,-6.65 1.9,0.08 4.33,2.67 4.33,2.67 h 0.14 c 0,0 2.78,-3.81 5.28,-3.59 a 6.74,6.74 0 0 1 6.7,6.77 c 0,0.25 0,0.5 -0.05,0.74 a 6.57,6.57 0 0 1 -5.84,7.23 c -0.43,0 -0.85,0 0,0 v -2.61 c 1.2,0.21 3.34,-1.6 3.55,-4 0,-0.2 0,-0.4 0,-0.6 a 4.35,4.35 0 0 0 -4,-4.71 h -0.26 a 4.17,4.17 0 0 0 -4.21,4.12 3,3 0 0 0 0,0.52 c 0,0.53 0,1 0.09,2.36 z"
     id="path774"
     style="fill:#ffffff" />
  <path
     class="cls-4"
     d="m 165.12275,601.23376 v -7.44 c 0,-6.67 3.35,-10.4 10.31,-10.4 7.25,0 11.34,3.18 11.34,10.4 v 7.44 z m 21.65,-3.1 v -5.29 c 0,-2.18 -0.6,-8 -9.41,-8 -5.7,0 -9.15,2.11 -9.15,8 v 5.29 z"
     id="path775"
     style="fill:#ffffff" />
  <path
     class="cls-4"
     d="m 165.12275,579.57376 v -3.1 h 21.65 v 3.1 z"
     id="path776"
     style="fill:#ffffff" />
  <path
     class="cls-4"
     d="m 164.81275,561.49376 c 0,-7 5.5,-10.52 11.49,-10.52 5.99,0 11.5,3.53 11.5,10.52 0,6.99 -5.51,10.52 -11.5,10.52 -5.99,0 -11.49,-3.55 -11.49,-10.52 z m 20.53,0 c 0,-5.35 -4.61,-7.6 -9,-7.6 -4.39,0 -9,2.25 -9,7.6 0,5.35 4.61,7.59 9,7.59 4.39,0 9,-2.25 9,-7.59 z"
     id="path777"
     style="fill:#ffffff" />
  <path
     class="cls-4"
     d="m 233.19275,584.92376 c -3.85,0.56 -5.86,3.21 -5.62,6.15 0,5.23 4.3,7.43 8.88,7.43 5,0 9.19,-2.22 9.19,-7.47 0.07,-3.43 -2.65,-6.26 -6.08,-5.28 h -0.19 v -4 a 8.92,8.92 0 0 1 8.75,9 c 0,0.16 0,0.32 0,0.47 0,6.81 -5,10.15 -11.43,10.15 -6.43,0 -11.56,-3.63 -11.56,-10.39 -0.4,-4.42 2.72,-8.39 8.08,-9 z"
     id="path778"
     style="fill:#ffffff" />
  <path
     class="cls-4"
     d="m 227.00275,579.56376 v -3.09 h 18.56 v -12.34 h 3.1 v 15.47 z"
     id="path779"
     style="fill:#ffffff" />
  <path
     class="cls-4"
     d="m 227.00275,561.00376 v -3.09 h 10.8 l -10.8,-11 v -3.72 l 8.74,9.13 12.92,-9.49 v 3.64 l -11,7.83 3.35,3.61 h 7.6 v 3.09 z"
     id="path780"
     style="fill:#ffffff" />
  <path
     class="cls-4"
     d="m 301.56275,585.33376 a 8.89,8.89 0 0 1 3.32,7.17 10.7,10.7 0 0 1 -10.73,10.63 h -0.54 c -6.51,0 -12.15,-3.57 -12.15,-10.65 a 8.67,8.67 0 0 1 7.42,-9.61 v 1.46 a 6,6 0 0 0 -4.9,6.62 c 0,5.41 4.71,7.66 9.47,7.66 a 8,8 0 0 0 8.86,-7.1 c 0,-0.19 0,-0.37 0,-0.56 a 6.71,6.71 0 0 0 -7.28,-7.16 v 0 8.12 h 3.09 v -9.28 h 6.19 v 1.89 z"
     id="path781"
     style="fill:#ffffff" />
  <path
     class="cls-4"
     d="m 282.69275,576.47376 v -2.5 l 18.57,-11.55 v -1.42 h -18.57 v -3.09 h 24.76 v 3.35 l -18.58,12.06 v 0.06 h 15.47 v 3.09 z"
     id="path782"
     style="fill:#ffffff" />
  <path
     class="cls-4"
     d="m 282.69275,554.81376 v -7.43 c 0,-6.67 3.36,-10.4 10.31,-10.4 7.26,0 11.35,3.18 11.35,10.4 v 7.43 z m 21.66,-3.08 v -5.29 c 0,-2.18 -0.6,-8 -9.41,-8 -5.7,0 -9.15,2.12 -9.15,8 v 5.35 z"
     id="path783"
     style="fill:#ffffff" />
  <path
     class="cls-4"
     d="m 338.39275,601.24376 v -9.71 c 0,-3.89 2.18,-6.26 5.67,-6.26 a 5.13,5.13 0 0 1 5.49,3.58 v 0 c 0.48,-2.31 2.37,-2.76 4.47,-3 a 11.77,11.77 0 0 0 6,-1.17 v 2.95 c -0.89,0.75 -3.23,0.34 -5.36,0.73 -2.13,0.39 -3.93,0.75 -3.93,3.31 v 6.46 h 9.29 v 3.1 z m 9.28,-9.9 c 1,-2.7 0.34,-5.06 -2.86,-5.06 a 3.46,3.46 0 0 0 -3.77,3.11 0.71,0.71 0 0 0 0.44,0.79 v 8 h 6.19 z"
     id="path784"
     style="fill:#ffffff" />
  <path
     class="cls-4"
     d="m 344.57275,566.62376 a 4.73,4.73 0 0 0 -4.08,5 3.75,3.75 0 0 0 0.05,0.47 c 0,2.47 0.89,4.92 3.75,4.92 5.41,0 1.59,-14.05 10.23,-14.05 4.67,0 6.55,4.58 6.55,8.57 0,4.92 -2.43,9.07 -7.21,9.07 v -2.77 c 3.16,0 4.76,-3.07 4.76,-6.39 0,-2.64 -0.83,-5.57 -4,-5.57 -6,0 -2.06,14 -10.11,14 -4.43,0 -6.43,-3.94 -6.43,-8 0,-4.49 2.12,-7.93 6.48,-8.09 z"
     id="path785"
     style="fill:#ffffff" />
  <path
     class="cls-4"
     d="m 341.48275,554.81376 v 6.19 h -3.09 v -18.56 h 3.09 v 9.28 h 18.57 v 3.09 z"
     id="path786"
     style="fill:#ffffff" />
  <path
     class="cls-4"
     d="M 51.002746,471.27376 H 187.87275 l -68.45,-140.63 z m 13.15,-21.66 2,-3.29 v 0.2 H 169.84275 l 3.75,2.36 1.16,0.73 z m 112.060004,6.19 2.19,3.1 H 60.452746 l 2.19,-3.1 z m -11.91,-12.38 h -41.67 a 12.16,12.16 0 0 0 4.4,-2.57 c 0.58,-0.54 1.13,-1.11 1.65,-0.52 h 27.67 z m -33.11,-9.29 c 1.13,0.4 2.26,-1.18 3.26,-3.09 h 8.42 l 8,3.09 z m 5.38,-6.19 0.23,-0.35 0.62,0.35 z m -2.48,-1.42 a 88.36,88.36 0 0 1 -9.11,12 c -2.25,2 -4.92,3 -5.7,2.6 -0.29,-0.15 -0.5,-0.93 -0.33,-2.31 0.55,-4.57 5.91,-12.25 8.74,-15.89 z m -22.15,10.69 v 0 a 4.94,4.94 0 0 0 -0.53,-5.11 23.79,23.79 0 0 0 6.19,2.09 27.42,27.42 0 0 0 -1.2,3 z m 13,-15.87 c -0.77,1 -1.85,2.48 -3,4.2 a 15.65,15.65 0 0 0 -7.67,-6.08 c -1.92,-0.86 -3.06,-1.83 -3.38,-2.89 a 3.94,3.94 0 0 1 0.56,-2.88 z m -16.22,-9.21 a 7,7 0 0 0 -0.82,5.32 8.33,8.33 0 0 0 5.09,4.83 11.41,11.41 0 0 1 6.49,5.38 2.6,2.6 0 0 1 -0.2,2.06 l -0.08,0.15 c -1.06,0.64 -6.37,-1.44 -11.3,-4.42 a 29.91,29.91 0 0 1 -3.53,-9.45 20.63,20.63 0 0 1 2.28,-5 z m -4.78,-2.71 a 21.89,21.89 0 0 0 -2.65,6.19 c -0.34,2.74 3.47,11.71 6.69,15.73 1.21,1.52 1.5,2.67 1.25,3.09 -0.25,0.42 -1.05,0.65 -2.5,0.47 -2.7,-0.34 -8.700004,-10.53 -12.250004,-19.42 a 10.26,10.26 0 0 1 2.51,-10 z m -9.680004,-4.77 c -0.41,0.52 -0.79,1.06 -1.15,1.62 h -6.75 l 2.32,-4.77 z m -2.68,4.71 a 5.79,5.79 0 0 0 -0.72,3.09 h -8.2 l 2.19,-3.09 z m -0.11,6.19 a 3.77,3.77 0 0 0 0.13,1.11 c 0,0.06 0.7,1.73 1.8,2 h -14.44 l 2.19,-3.09 z m 3.41,9.28 c 0.72,0.51 1.55,2 2.41,3.09 h -22 l 2.19,-3.09 z m 4.33,6.19 c 1.000004,2.1 2.260004,3.61 3.630004,3.09 H 71.552746 l 2.2,-3.09 z m 16.590004,9.28 c -0.31,0.49 0.32,2.21 1.64,3.09 H 67.872746 l 2.19,-3.09 z m 40,-3 v -0.08 h -0.14 l -67.120004,-38 1.65,-3.4 76.560004,43.31 2.91,6 z m -43.87,-58.87 a 10.38,10.38 0 0 0 -4.3,3.13 c -0.27,0.38 -0.55,0.77 -0.83,0 h -9.330004 l 2.19,-3.09 z m -10.79,-3.1 2.19,-3.09 h 31.71 c -5.36,-0.37 -10.64,1.13 -15.84,3.09 z m 3.73,12.4 c -0.93,-0.33 -1.85,1.22 -2.68,3.09 h -8.420004 l 2.18,-3.09 z m -5.480004,8.08 -3.34,-1.89 h 4.380004 z m 63.860004,35.24 h 1.92 l 0.72,1.49 z m -5.5,-3.1 -7.94,-3.09 h 11.64 l 2.19,3.09 z m -13.43,-9.28 -1.42,1.35 a 10.78,10.78 0 0 0 3.16,-4.44 h 11.68 l 2.19,3.09 z m 3.21,-6.19 a 6.08,6.08 0 0 0 0.63,-3.09 h 5.88 l 2.19,3.09 z m 0.57,-6.18 a 39.19,39.19 0 0 1 1.13,-6.81 l 3.3,6.81 z m -4.59,2 a 11.56,11.56 0 0 1 -5.06,10.06 l -37.87,-21.45 a 148.14,148.14 0 0 1 8.14,-13.52 c 2.53,-3.54 17.2,-7.85 26.65,-9.94 l 10.28,21.12 a 41.21,41.21 0 0 0 -2.14,13.71 z m -38.64,-42.23 2.18,-3.09 h 24.73 l 2.18,3.09 z m 3.71,-6.19 2.19,-3.09 h 17.32 l 2.19,3.09 z m 3.71,-9.28 2.19,-3.09 h 9.9 l 2.18,3.09 z m 3.71,-6.19 3.45,-7.08 3.44,7.08 z m -61.130004,123.77 3,-6.19 H 180.94275 l 3,6.19 z"
     id="path787"
     style="fill:#ffffff" />
  <path
     class="cls-4"
     d="m 348.38275,413.24376 c 1.11,-11.56 2.26,-23.21 3.4,-34.79 h 11.36 v -12.38 h -5 l 7.11,-9.07 -2.34,-2.35 -4.61,4.51 -4.85,4.83 -0.22,0.22 a 1.8,1.8 0 0 1 0,-0.22 c 0.16,-1.62 0.48,-4.11 0.48,-4.11 h 3.22 v -2.39 a 5.76,5.76 0 1 0 -6.64,-8.82 31.22,31.22 0 0 0 -6.87,-3.81 69.57,69.57 0 0 0 -14.34,-3.39 v -3.25 h -21.65 v 2.69 a 95.45,95.45 0 0 0 -12.38,1.58 v -1.17 h -9.28 v 4.25 a 29.39,29.39 0 0 0 -8.59,5.29 1.81,1.81 0 0 0 -0.56,1.51 l 0.13,1.32 h -6.45 v 6.19 h 6.29 l 1,10.28 -7.75,-7.47 -2.32,2.43 10.6,10.27 c 1.33,13.1 2.64,26.26 3.93,39.34 q 1,9.87 2,19.9 l -17.74,17.28 2.18,2.56 16,-15.55 q 1.14,11.65 2.26,23.36 a 2.1,2.1 0 0 0 2.12,1.85 v 7.16 h 9.28 v -9.28 h 28.14 a 14.52,14.52 0 0 0 13.59,9 14.21,14.21 0 0 0 14.54,-13.88 13.87,13.87 0 0 0 -9,-12.84 c 0.1,-1 0.19,-2 0.29,-3 l 13.16,13.05 2.16,-2.52 -15,-14.85 q 1.14,-12.1 2.3,-24 m 7.84,-63.33 a 2.6,2.6 0 0 1 2.7,2.49 2.37,2.37 0 0 1 -0.57,1.54 h -4 l 0.14,-1.39 a 1.9,1.9 0 0 0 -0.53,-1.5 2.68,2.68 0 0 1 2.26,-1.2 m -3.5,19.79 2,-3.32 h 5.33 v 9.28 h -7.94 c 0.21,-1.92 0.41,-3.94 0.62,-6 m -26.72,-28.07 v 3.09 h -15.47 v -3.09 z m -30.93,5 a 88.78,88.78 0 0 1 12.37,-1.65 v 2.8 h 21.65 v -2.52 a 67.61,67.61 0 0 1 13.82,3.06 28.45,28.45 0 0 1 7.32,4.18 l -0.08,1.46 h -55.04 z m -3.11,-2 v 6.19 h -3.05 v -6.19 z m -11.55,8.5 a 29.4,29.4 0 0 1 5.37,-3.34 v 4.12 h -5.3 l -0.08,-0.79 m -0.81,7 h 69.93 c 0,0 -0.31,2.51 -0.5,6.19 h -1.36 v 4 l -12.38,11.48 v 0 h -30.94 v 9.28 h 22.68 l -14.23,14.21 -30.58,-30.51 q -0.72,-7.44 -1.47,-14.85 m 51.45,25 v 1.58 l -1.5,1.61 h -20.16 v -3.09 z m -46.13,28.64 c -1.09,-11.33 -2.21,-22.73 -3.34,-34.08 l 27.74,27.65 -22.83,22.76 q -0.78,-8.22 -1.57,-16.33 m 5.9,58 v -6.06 h 3.1 v 6.18 z m 33.4,-13.27 a 6.7,6.7 0 0 0 0,0.9 h -35 c -0.79,-8.28 -1.57,-16.58 -2.37,-24.83 l 24.92,-24.6 29,28.91 -0.56,5.88 c -0.46,0 -0.91,-0.06 -1.37,-0.06 a 14.2,14.2 0 0 0 -14.52,13.87 m 22.09,-0.22 a 7.41,7.41 0 0 1 -7.57,7.23 7.72,7.72 0 0 1 -5.57,-2.33 7.14,7.14 0 0 1 -2,-4 c 0,-0.3 0,-0.6 0,-0.9 a 7.4,7.4 0 0 1 7.56,-7.23 6.28,6.28 0 0 1 0.75,0 7.69,7.69 0 0 1 4,1.6 7.09,7.09 0 0 1 2.78,5.59 m -3.15,-42.14 q -1.07,11 -2.14,22.23 l -29.11,-29.17 17.81,-17.83 h 4.38 v -4.39 l 12.38,-12.4 v 4.42 h 0.27 c -1.23,12.4 -2.44,24.83 -3.62,37.18"
     id="path788"
     style="fill:#ffffff" />
  <path
     class="cls-4"
     d="m 131.08275,489.84376 v 46.41 h -27.85 v -46.41 z m -3.09,43.29 v -40.2 h -21.66 v 40.2 z"
     id="path789"
     style="fill:#ffffff" />
  <path
     class="cls-4"
     d="m 155.87275,489.84376 v 46.41 h -27.88 v -46.41 z m -3.13,43.29 v -40.2 h -21.66 v 40.2 z"
     id="path790"
     style="fill:#ffffff" />
  <path
     class="cls-4"
     d="m 175.87275,489.84376 v 46.41 h -23.13 v -46.41 z m -2.57,43.29 v -40.2 h -18 v 40.2 z"
     id="path791"
     style="fill:#ffffff" />
  <path
     class="cls-4"
     d="m 199.87275,489.84376 v 46.41 h -27 v -46.41 z m -3,43.29 v -40.2 h -21 v 40.2 z"
     id="path792"
     style="fill:#ffffff" />
  <path
     class="cls-4"
     d="m 227.00275,489.84376 v 46.41 h -27.85 v -46.41 z m -3.13,43.29 v -40.2 h -21.66 v 40.2 z"
     id="path793"
     style="fill:#ffffff" />
  <path
     class="cls-4"
     d="m 251.75275,489.84376 v 46.41 h -27.88 v -46.41 z m -3.09,43.29 v -40.2 h -21.66 v 40.2 z"
     id="path794"
     style="fill:#ffffff" />
  <path
     class="cls-4"
     d="m 276.50275,489.84376 v 46.41 h -27.84 v -46.41 z m -3.09,43.29 v -40.2 h -21.66 v 40.2 z"
     id="path795"
     style="fill:#ffffff" />
  <path
     class="cls-4"
     d="m 366.23275,143.29376 v 46.42 h -27.84 v -46.42 z m -3.09,43.32 v -40.22 h -21.66 v 40.22 z"
     id="path796"
     style="fill:#ffffff" />
  <path
     class="cls-4"
     d="m 366.23275,90.693752 v 46.440008 h -27.84 V 90.693752 Z m -3.09,43.320008 V 93.793752 h -21.66 v 40.220008 z"
     id="path797"
     style="fill:#ffffff" />
  <path
     class="cls-4"
     d="m 329.10275,99.983752 v 27.840008 h -46.41 V 99.983752 Z m -3.09,24.750008 v -21.66 h -40.22 v 21.66 z"
     id="path798"
     style="fill:#ffffff" />
  <path
     class="cls-4"
     d="m 329.10275,65.943747 v 27.850005 h -46.41 V 65.943757 Z m -3.09,24.750005 V 69.033757 h -40.22 v 21.659995 z"
     id="path799"
     style="fill:#ffffff" />
  <polygon
     class="cls-4"
     points="1199.33,22.02 1220.99,22.02 1220.99,74.62 1199.33,74.62 1199.33,71.53 1217.89,71.53 1217.89,25.12 1199.33,25.12 "
     id="polygon799"
     transform="translate(-867.12725,-14.866243)"
     style="fill:#ffffff" />
  <polygon
     class="cls-4"
     points="985.83,22.02 1007.49,22.02 1007.49,25.12 988.93,25.12 988.93,71.53 1007.49,71.53 1007.49,74.62 985.83,74.62 "
     id="polygon800"
     transform="translate(-867.12725,-14.866243)"
     style="fill:#ffffff" />
  <path
     class="cls-4"
     d="m 276.50275,65.943747 v 27.850005 h -46.41 V 65.943757 Z m -3.09,24.750005 V 69.033757 h -40.22 v 21.659995 z"
     id="path800"
     style="fill:#ffffff" />
  <path
     class="cls-20"
     d="m 159.12275,526.37376 v -7.19 c 0,-1.43 1.47,-2.59 3.28,-2.59 h 5.19 c 1.81,0 3.28,1.16 3.28,2.59 v 7.19 c 0,1.44 -1.47,2.6 -3.28,2.6 h -5.19 c -1.81,0 -3.28,-1.16 -3.28,-2.6 z"
     id="path801"
     style="fill:#e4e4e4" />
  <path
     class="cls-20"
     d="m 159.12275,507.81376 v -7.19 c 0,-1.43 1.47,-2.59 3.28,-2.59 h 5.19 c 1.81,0 3.28,1.16 3.28,2.59 v 7.19 c 0,1.43 -1.47,2.59 -3.28,2.59 h -5.19 c -1.81,0 -3.28,-1.16 -3.28,-2.59 z"
     id="path802"
     style="fill:#e4e4e4" />
  <path
     class="cls-20"
     d="m 344.57275,127.72376 v -27.12001 a 3.66,3.66 0 0 1 3.58,-3.719998 h 8 a 3.86,3.86 0 0 1 3.86,3.859998 v 25.85001 a 3.66,3.66 0 0 1 -3.59,3.7 h -8.26 a 3.57,3.57 0 0 1 -3.58,-3.57 v 1"
     id="path803"
     style="fill:#e4e4e4" />
  <rect
     class="cls-21"
     x="344.57269"
     y="109.26375"
     width="18.559999"
     height="18.559999"
     id="rect803"
     style="fill:#282828" />
  <path
     class="cls-20"
     d="m 319.87275,121.63376 h -27.16 a 3.78,3.78 0 0 1 -3.78,-3.78 v -7.9 a 3.79,3.79 0 0 1 3.78,-3.79 h 26.47 a 3.79,3.79 0 0 1 3.79,3.79 v 8.09 a 3.6,3.6 0 0 1 -3.64,3.59 h 0.54"
     id="path804"
     style="fill:#e4e4e4" />
  <rect
     class="cls-21"
     x="298.16281"
     y="106.16375"
     width="15.47"
     height="15.47"
     id="rect804"
     style="fill:#282828" />
  <path
     class="cls-4"
     d="m 345.25275,170.55376 h 14.83 a 1.79,1.79 0 0 1 1.79,1.79 v 10.26 a 1.8,1.8 0 0 1 -1.79,1.8 h -15.81 a 1.8,1.8 0 0 1 -1.79,-1.8 v -10.25 a 1.87,1.87 0 0 1 1.93,-1.8"
     id="path805"
     style="fill:#ffffff" />
  <path
     class="cls-4"
     d="m 345.25275,148.39376 h 14.83 a 1.79,1.79 0 0 1 1.79,1.79 v 10.26 a 1.8,1.8 0 0 1 -1.79,1.8 h -15.81 a 1.8,1.8 0 0 1 -1.79,-1.8 v -10.25 a 1.88,1.88 0 0 1 1.93,-1.81"
     id="path806"
     style="fill:#ffffff" />
  <path
     class="cls-20"
     d="m 345.25275,178.86376 v -24.23 a 3.47,3.47 0 0 1 3.47,-3.47 h 6.9 a 3.47,3.47 0 0 1 3.48,3.47 v 23.5 a 3.48,3.48 0 0 1 -3.47,3.48 h -7.17 a 3.24,3.24 0 0 1 -3.21,-3.26 v 0.49"
     id="path807"
     style="fill:#e4e4e4" />
  <rect
     class="cls-22"
     x="345.25275"
     y="159.47374"
     width="13.85"
     height="13.85"
     id="rect807"
     style="fill:#ae773d" />
  <path
     class="cls-20"
     d="m 132.63275,529.24376 v -30.59 a 4.37,4.37 0 0 1 4.35,-4.36 h 9 a 4.15,4.15 0 0 1 4.07,4.2 v 29.3 a 4.38,4.38 0 0 1 -4.37,4.36 h -9.05 a 4,4 0 0 1 -4,-4 c 0,-0.06 0,1.14 0,1.14"
     id="path808"
     style="fill:#e4e4e4" />
  <rect
     class="cls-21"
     x="132.63278"
     y="503.03378"
     width="17.469999"
     height="17.469999"
     id="rect808"
     style="fill:#282828" />
  <path
     class="cls-20"
     d="m 178.59275,527.97376 v -28.66 a 3.86,3.86 0 0 1 3.78,-3.91 h 8.72 a 3.87,3.87 0 0 1 3.78,3.91 v 27.3 a 4.08,4.08 0 0 1 -4.07,4.07 h -8.43 a 3.76,3.76 0 0 1 -3.78,-3.78 c 0,0 0,1.07 0,1.07"
     id="path809"
     style="fill:#e4e4e4" />
  <rect
     class="cls-21"
     x="178.59274"
     y="503.54373"
     width="16.280001"
     height="16.280001"
     id="rect809"
     style="fill:#282828" />
  <path
     class="cls-20"
     d="m 253.75275,527.82376 v -28.37 a 3.83,3.83 0 0 1 3.74,-3.87 h 8.63 a 3.82,3.82 0 0 1 3.75,3.87 v 27 a 4,4 0 0 1 -4,4 h -8.35 a 3.75,3.75 0 0 1 -3.74,-3.75 v 1.06"
     id="path810"
     style="fill:#e4e4e4" />
  <rect
     class="cls-21"
     x="253.75278"
     y="503.64377"
     width="16.120001"
     height="16.120001"
     id="rect810"
     style="fill:#282828" />
  <path
     class="cls-4"
     d="m 230.87275,517.64376 h 15.19 a 1.84,1.84 0 0 1 1.84,1.84 v 10.52 a 1.84,1.84 0 0 1 -1.84,1.84 h -16.19 a 1.84,1.84 0 0 1 -1.83,-1.84 v -10.51 a 1.91,1.91 0 0 1 2,-1.85"
     id="path811"
     style="fill:#ffffff" />
  <path
     class="cls-4"
     d="m 230.87275,494.93376 h 15.19 a 1.84,1.84 0 0 1 1.84,1.84 v 10.52 a 1.83,1.83 0 0 1 -1.84,1.83 h -16.19 a 1.83,1.83 0 0 1 -1.83,-1.83 v -10.51 a 1.93,1.93 0 0 1 2,-1.86"
     id="path812"
     style="fill:#ffffff" />
  <path
     class="cls-20"
     d="m 230.87275,526.13376 v -24.8 a 3.56,3.56 0 0 1 3.56,-3.56 h 7.07 a 3.56,3.56 0 0 1 3.56,3.56 v 24.11 a 3.56,3.56 0 0 1 -3.56,3.56 h -7.34 a 3.32,3.32 0 0 1 -3.29,-3.35 v 0.48"
     id="path813"
     style="fill:#e4e4e4" />
  <rect
     class="cls-22"
     x="230.74277"
     y="506.04373"
     width="14.25"
     height="14.25"
     id="rect813"
     style="fill:#ae773d" />
  <path
     class="cls-4"
     d="m 205.87275,517.64376 h 15.19 a 1.84,1.84 0 0 1 1.84,1.84 v 10.52 a 1.84,1.84 0 0 1 -1.84,1.84 h -16.19 a 1.84,1.84 0 0 1 -1.83,-1.84 v -10.51 a 1.91,1.91 0 0 1 2,-1.85"
     id="path814"
     style="fill:#ffffff" />
  <path
     class="cls-4"
     d="m 205.87275,494.93376 h 15.19 a 1.84,1.84 0 0 1 1.84,1.84 v 10.52 a 1.83,1.83 0 0 1 -1.84,1.83 h -16.19 a 1.83,1.83 0 0 1 -1.83,-1.83 v -10.51 a 1.93,1.93 0 0 1 2,-1.86"
     id="path815"
     style="fill:#ffffff" />
  <path
     class="cls-20"
     d="m 205.87275,526.13376 v -24.8 a 3.56,3.56 0 0 1 3.56,-3.56 h 7.07 a 3.56,3.56 0 0 1 3.56,3.56 v 24.11 a 3.56,3.56 0 0 1 -3.56,3.56 h -7.34 a 3.32,3.32 0 0 1 -3.29,-3.35 v 0.48"
     id="path816"
     style="fill:#e4e4e4" />
  <rect
     class="cls-22"
     x="205.74277"
     y="506.04373"
     width="14.25"
     height="14.25"
     id="rect816"
     style="fill:#ae773d" />
  <path
     class="cls-4"
     d="m 109.87275,517.64376 h 15.19 a 1.84,1.84 0 0 1 1.84,1.84 v 10.52 a 1.84,1.84 0 0 1 -1.84,1.84 h -16.19 a 1.84,1.84 0 0 1 -1.83,-1.84 v -10.51 a 1.91,1.91 0 0 1 2,-1.85"
     id="path817"
     style="fill:#ffffff" />
  <path
     class="cls-4"
     d="m 109.87275,494.93376 h 15.19 a 1.84,1.84 0 0 1 1.84,1.84 v 10.52 a 1.83,1.83 0 0 1 -1.84,1.83 h -16.19 a 1.83,1.83 0 0 1 -1.83,-1.83 v -10.51 a 1.93,1.93 0 0 1 2,-1.86"
     id="path818"
     style="fill:#ffffff" />
  <path
     class="cls-20"
     d="m 109.87275,526.13376 v -24.8 a 3.56,3.56 0 0 1 3.56,-3.56 h 7.07 a 3.56,3.56 0 0 1 3.56,3.56 v 24.11 a 3.56,3.56 0 0 1 -3.56,3.56 h -7.34 a 3.32,3.32 0 0 1 -3.29,-3.35 v 0.48"
     id="path819"
     style="fill:#e4e4e4" />
  <rect
     class="cls-22"
     x="109.74277"
     y="506.04373"
     width="14.25"
     height="14.25"
     id="rect819"
     style="fill:#ae773d" />
  <path
     class="cls-4"
     d="M 308.35275,87.603752 V 73.813747 a 1.68,1.68 0 0 1 1.68,-1.68 h 9 a 1.68,1.68 0 0 1 1.68,1.67 v 12.130005 a 1.68,1.68 0 0 1 -1.68,1.67 h -9.1 a 1.58,1.58 0 0 1 -1.61,-1.54"
     id="path820"
     style="fill:#ffffff" />
  <path
     class="cls-4"
     d="M 289.79275,87.603752 V 73.813747 a 1.68,1.68 0 0 1 1.67,-1.68 h 9 a 1.67,1.67 0 0 1 1.67,1.67 v 12.130005 a 1.67,1.67 0 0 1 -1.67,1.67 h -9.09 a 1.58,1.58 0 0 1 -1.61,-1.54"
     id="path821"
     style="fill:#ffffff" />
  <path
     class="cls-20"
     d="m 317.63275,87.603752 h -23 c -1.79,0.59 -3.24,-0.86 -1.71,-2.65 v -7.490005 c -1.53,-1.79 -0.08,-3.25 1.71,-5.33 h 22.77 c 1.79,2.09001 3.24,3.54001 3.37,5.33 v 7.490005 c -0.1,1.76 -1.5,3.21 -3.26,2.65 h 0.16"
     id="path822"
     style="fill:#e4e4e4" />
  <rect
     class="cls-22"
     x="295.07272"
     y="72.133751"
     width="12.38"
     height="15.47"
     id="rect822"
     style="fill:#ae773d" />
  <path
     class="cls-4"
     d="M 253.66275,87.603752 V 73.813747 a 1.68,1.68 0 0 1 1.67,-1.68 h 9 a 1.67,1.67 0 0 1 1.67,1.67 v 12.130005 a 1.67,1.67 0 0 1 -1.67,1.67 h -9.09 a 1.58,1.58 0 0 1 -1.61,-1.54"
     id="path823"
     style="fill:#ffffff" />
  <path
     class="cls-4"
     d="M 237.09275,87.603752 V 73.813747 a 1.68,1.68 0 0 1 1.68,-1.68 h 9 a 1.68,1.68 0 0 1 1.68,1.67 v 12.130005 a 1.68,1.68 0 0 1 -1.68,1.67 h -9.08 a 1.59,1.59 0 0 1 -1.62,-1.54"
     id="path824"
     style="fill:#ffffff" />
  <path
     class="cls-20"
     d="m 262.94275,87.603752 h -23.24 c -1.79,0.59 -3.24,-0.86 -1.51,-2.65 v -7.490005 c -1.73,-1.79 -0.28,-3.25 1.51,-5.33 h 22.77 c 1.79,2.09001 3.24,3.54001 3.56,5.33 v 7.490005 c -0.29,1.76 -1.69,3.21 -3.45,2.65 h 0.36"
     id="path825"
     style="fill:#e4e4e4" />
  <rect
     class="cls-22"
     x="244.37277"
     y="72.133751"
     width="12.38"
     height="15.47"
     id="rect825"
     style="fill:#ae773d" />
  <path
     class="cls-4"
     d="m 128.68275,205.22376 h 12 c 5.55,0 8.34,2.54 8.34,6.82 0,4.83 -3.32,6.07 -4.17,6.35 v 0.07 c 1.52,0.18 3.74,1.38 3.74,5.33 0,3 0.43,5.62 1.38,6.64 h -4.73 a 7,7 0 0 1 -0.67,-3.71 c 0,-4.62 -1,-6.67 -5,-6.67 h -6.49 v 10.38 h -4.42 z m 4.42,11.48 h 7.24 c 2.82,0 4.3,-1.35 4.3,-4 0,-3.25 -2.08,-3.85 -4.37,-3.85 h -7.17 z"
     id="path826"
     style="fill:#ffffff" />
  <path
     class="cls-4"
     d="m 160.29275,205.22376 h 4.69 l 9.71,25.21 h -4.73 l -2.37,-6.67 h -10.06 l -2.36,6.67 h -4.56 z m -1.56,15.18 h 7.7 l -3.78,-10.84 h -0.1 z"
     id="path827"
     style="fill:#ffffff" />
  <path
     class="cls-4"
     d="m 177.09275,205.22376 h 4.41 v 11.48 l 11.23,-11.48 h 5.44 l -10.06,10.06 10.76,15.15 h -5.51 l -8.26,-12 -3.61,3.57 v 8.47 h -4.41 z"
     id="path828"
     style="fill:#ffffff" />
  <path
     class="cls-4"
     d="m 200.47275,209.81376 c 3.35,0 6.63,-1.09 7.2,-4.1 h 3.28 v 24.72 h -4.41 v -17.44 h -6.07 z"
     id="path829"
     style="fill:#ffffff" />
  <path
     class="cls-4"
     d="m 220.10275,209.81376 c 3.35,0 6.64,-1.09 7.2,-4.1 h 3.28 v 24.72 h -4.41 v -17.44 h -6.07 z"
     id="path830"
     style="fill:#ffffff" />
  <path
     class="cls-4"
     d="m 245.87275,215.95376 c 2.68,0.11 5.47,-0.84 5.47,-3.88 0,-2.12 -1.59,-3.49 -3.85,-3.49 -2.79,0 -4.2,2.5 -4.09,5 h -4 c 0.18,-4.8 3.25,-8.4 8.19,-8.4 3.85,0 7.81,2.23 7.81,6.6 a 5.16,5.16 0 0 1 -3.5,5.3 v 0.07 c 2.83,0.57 4.48,3 4.48,6.18 0,4.66 -4.06,7.56 -8.75,7.56 -5.72,0 -8.58,-3.43 -8.69,-8.62 h 4 c -0.11,3 1.51,5.26 4.66,5.26 2.68,0 4.73,-1.59 4.73,-4.41 0,-3.85 -3.28,-4.31 -6.46,-4.2 z"
     id="path831"
     style="fill:#ffffff" />
  <path
     class="cls-4"
     d="m 259.36275,209.81376 c 3.35,0 6.64,-1.09 7.2,-4.1 h 3.31 v 24.72 h -4.42 v -17.44 h -6.07 z"
     id="path832"
     style="fill:#ffffff" />
  <path
     class="cls-4"
     d="m 295.48275,218.07376 c 0,5.62 -1.45,12.86 -8.54,12.86 -7.09,0 -8.55,-7.24 -8.55,-12.86 0,-5.62 1.45,-12.85 8.55,-12.85 7.1,0 8.54,7.24 8.54,12.85 z m -4,0 c 0,-5.15 -1,-9.49 -4.52,-9.49 -3.52,0 -4.52,4.34 -4.52,9.49 0,5.15 1,9.5 4.52,9.5 3.52,0 4.5,-4.31 4.5,-9.5 z"
     id="path833"
     style="fill:#ffffff" />
  <path
     class="cls-4"
     d="m 296.75275,234.84376 v -1.71 h 17.66 v 1.76 z"
     id="path834"
     style="fill:#ffffff" />
  <path
     class="cls-4"
     d="m 314.23275,205.22376 h 4.64 l 6.32,19.95 h 0.07 l 6.46,-19.95 h 4.49 l -8.62,25.21 h -4.91 z"
     id="path835"
     style="fill:#ffffff" />
  <path
     class="cls-4"
     d="m 343.47275,205.22376 h 4.69 l 9.71,25.21 h -4.73 l -2.37,-6.67 h -10.06 l -2.36,6.67 h -4.56 z m -1.6,15.18 h 7.7 l -3.7,-10.84 h -0.1 z"
     id="path836"
     style="fill:#ffffff" />
  <g
     id="wisblock-label"
     transform="translate(-867.12725,-14.866243)">
    <g
       class="cls-23"
       clip-path="url(#clip-path-4)"
       id="g845">
      <polygon
         class="cls-4"
         points="1077.2,121.17 1059.53,121.17 1059.53,128.25 1052.53,128.25 1052.53,165.4 1134.47,165.4 1134.47,128.25 1128.24,128.25 1128.24,121.17 1110.15,121.17 1110.15,128.25 1103.5,128.25 1103.5,121.17 1083.84,121.17 1083.84,128.25 1077.2,128.25 "
         id="polygon836"
         style="fill:#ffffff" />
      <g
         class="cls-23"
         clip-path="url(#clip-path-4)"
         id="g844">
        <path
           class="cls-4"
           d="m 1020.17,182.22 h 3.56 l 3.61,15.3 h 0.06 l 4,-15.3 h 3.6 l 3.92,15.3 v 0 l 3.73,-15.3 h 3.56 l -5.52,20 h -3.56 l -4,-15.3 h -0.06 l -4.09,15.3 h -3.62 z"
           id="path837"
           style="fill:#ffffff" />
        <path
           class="cls-4"
           d="m 1048.21,182.22 h 3.19 v 3 h -3.19 z m 0,5.52 h 3.19 v 14.49 h -3.19 z"
           id="path838"
           style="fill:#ffffff" />
        <path
           class="cls-4"
           d="m 1057.28,197.58 c 0.2,1.87 1.57,2.52 3.28,2.52 1.23,0 3.31,-0.25 3.22,-1.91 -0.09,-1.66 -2.41,-1.87 -4.73,-2.41 -2.32,-0.54 -4.65,-1.34 -4.65,-4.28 0,-3.17 3.41,-4.15 6,-4.15 3,0 5.69,1.21 6,4.46 h -3.33 c -0.31,-1.54 -1.52,-1.94 -3,-1.94 -0.92,0 -2.63,0.23 -2.63,1.49 0,1.57 2.35,1.82 4.71,2.32 2.36,0.5 4.68,1.38 4.68,4.23 0,3.45 -3.48,4.71 -6.48,4.71 -3.67,0 -6.33,-1.62 -6.41,-5 z"
           id="path839"
           style="fill:#ffffff" />
        <path
           class="cls-4"
           d="m 1069.66,182.22 h 9.42 c 3.81,0 6.38,1.24 6.38,5 a 4.36,4.36 0 0 1 -2.71,4.18 4.86,4.86 0 0 1 3.67,5.07 c 0,4.06 -3.45,5.8 -7.06,5.8 h -9.7 z m 4.4,8.1 h 4.46 c 1.56,0 2.69,-0.7 2.69,-2.38 0,-1.88 -1.46,-2.3 -3,-2.3 h -4.12 z m 0,8.49 h 4.71 c 1.71,0 3.25,-0.56 3.25,-2.63 0,-2.07 -1.26,-2.86 -3.17,-2.86 h -4.79 z"
           id="path840"
           style="fill:#ffffff" />
        <path
           class="cls-4"
           d="m 1089.38,182.22 h 4.4 v 16.31 h 9.75 v 3.7 h -14.15 z"
           id="path841"
           style="fill:#ffffff" />
        <path
           class="cls-4"
           d="m 1115,181.75 c 6.16,0 9.83,4.62 9.83,10.56 0,5.77 -3.67,10.39 -9.83,10.39 -6.16,0 -9.84,-4.62 -9.84,-10.39 -0.04,-5.94 3.63,-10.56 9.84,-10.56 z m 0,17.26 c 4,0 5.43,-3.37 5.43,-6.7 0,-3.5 -1.48,-6.86 -5.43,-6.86 -3.95,0 -5.44,3.36 -5.44,6.86 -0.04,3.33 1.44,6.69 5.44,6.69 z"
           id="path842"
           style="fill:#ffffff" />
        <path
           class="cls-4"
           d="m 1141.12,189 a 4.36,4.36 0 0 0 -4.37,-3.5 c -4,0 -5.43,3.36 -5.43,6.86 0,3.33 1.48,6.7 5.43,6.7 2.69,0 4.2,-1.83 4.54,-4.49 h 4.26 c -0.45,5 -3.87,8.18 -8.8,8.18 -6.16,0 -9.83,-4.62 -9.83,-10.39 0,-5.94 3.67,-10.56 9.83,-10.56 4.37,0 8.1,2.58 8.63,7.2 z"
           id="path843"
           style="fill:#ffffff" />
        <path
           class="cls-4"
           d="m 1148.54,182.22 h 4.4 v 8.3 l 7.82,-8.3 h 5.49 l -7.82,7.9 8.57,12.11 h -5.52 l -6,-9 -2.52,2.55 v 6.45 h -4.4 z"
           id="path844"
           style="fill:#ffffff" />
      </g>
    </g>
  </g>
  <g
     id="RAK-horizontal"
     transform="translate(-867.12725,-14.866243)">
    <g
       id="Layer_2"
       data-name="Layer 2">
      <g
         id="Layer_1-2-2"
         data-name="Layer 1-2">
        <path
           class="cls-4"
           d="m 1006.68,289.1 a 7.42,7.42 0 0 1 0.56,2.63 c 0,1.16 0.12,4.7 0.14,5.73 1.18,-0.07 2.7,-0.14 3.72,-0.14 1.02,0 4.4,-0.06 9.33,-0.18 h 0.33 a 4.45,4.45 0 0 0 4.66,-4.23 c 0.35,-3.26 -1.44,-4.06 -1.52,-4.09 a 18,18 0 0 0 -7.3,-1.29 c -0.39,0 -0.79,0 -1.2,0 a 46.88,46.88 0 0 0 -8.72,1.55"
           id="path845"
           style="fill:#ffffff" />
        <path
           class="cls-4"
           d="m 1001.12,285.27 a 7,7 0 0 1 2,0.51 7.62,7.62 0 0 1 2.46,1.48 45.05,45.05 0 0 1 9.35,-1.8 c 0.61,0 1.24,-0.07 1.86,-0.07 a 23.05,23.05 0 0 1 6.6,0.9 10.05,10.05 0 0 0 1,-0.94 4.8,4.8 0 0 0 1.24,-2.43 5.35,5.35 0 0 0 -0.53,-3.8 c -0.56,-1.07 -2,-1.63 -4.37,-1.63 -0.32,0 -0.67,0 -1.05,0 -0.38,0 -1,0 -1.55,0 a 22.77,22.77 0 0 0 -8,1.47 27.07,27.07 0 0 0 -9,6.36"
           id="path846"
           style="fill:#ffffff" />
        <path
           class="cls-4"
           d="m 990,285.12 a 6.49,6.49 0 0 1 5.48,2.37 7.32,7.32 0 0 1 0.77,-0.9 5.69,5.69 0 0 1 1.8,-1 c 0.8,-0.88 2.3,-2.51 3.84,-3.91 a 26.41,26.41 0 0 1 9.78,-5.5 23.42,23.42 0 0 1 7,-0.92 35.81,35.81 0 0 1 3.59,0.18 6,6 0 0 0 2.58,-4.35 c -0.05,-3.57 -1.36,-4.41 -7.37,-4.71 a 29.06,29.06 0 0 0 -19.18,6.88 31.65,31.65 0 0 0 -8.3,11.9"
           id="path847"
           style="fill:#ffffff" />
        <path
           class="cls-4"
           d="m 1015.56,299.21 c 0.05,1 0.14,2.65 0.14,3.72 0,1.43 0.11,6.48 0.16,8.63 v 1 a 4.47,4.47 0 0 0 4.23,4.67 7,7 0 0 0 0.79,0 c 2.64,0 3.29,-1.54 3.3,-1.56 a 19.12,19.12 0 0 0 1.26,-8.5 46.88,46.88 0 0 0 -1.55,-8.72 7.45,7.45 0 0 1 -2.63,0.55 c -0.46,0 -1.86,0.07 -5.73,0.15"
           id="path848"
           style="fill:#ffffff" />
        <path
           class="cls-4"
           d="m 1027.34,315.19 a 9,9 0 0 0 0.93,1 4.83,4.83 0 0 0 2.44,1.24 6,6 0 0 0 1.27,0.14 5.3,5.3 0 0 0 2.52,-0.67 c 1.08,-0.57 1.63,-2 1.63,-4.37 0,-0.29 0,-0.6 0,-0.94 v -0.12 a 23,23 0 0 0 -1.43,-9.51 27.27,27.27 0 0 0 -6.36,-9 7.67,7.67 0 0 1 -0.51,2 7.87,7.87 0 0 1 -1.48,2.45 45.62,45.62 0 0 1 1.8,9.34 24.64,24.64 0 0 1 -0.83,8.46"
           id="path849"
           style="fill:#ffffff" />
        <path
           class="cls-4"
           d="m 1037.55,314.13 a 5.88,5.88 0 0 0 4.29,2.57 c 3.63,-0.05 4.47,-1.36 4.77,-7.36 a 29.17,29.17 0 0 0 -6.88,-19.18 31.58,31.58 0 0 0 -11.89,-8.3 8.41,8.41 0 0 1 -0.59,3.17 7.85,7.85 0 0 1 -1.79,2.3 6.62,6.62 0 0 1 0.9,0.78 5.5,5.5 0 0 1 1,1.8 c 0.72,0.65 2.45,2.22 3.91,3.83 a 26.31,26.31 0 0 1 5.5,9.79 29.35,29.35 0 0 1 0.74,10.6"
           id="path850"
           style="fill:#ffffff" />
        <path
           class="cls-4"
           d="m 1013.8,308.47 c -0.89,0 -2.61,0.14 -3.73,0.14 -1.12,0 -4.12,0.06 -9.15,0.17 h -0.5 a 4.46,4.46 0 0 0 -4.67,4.23 c -0.35,3.26 1.44,4.06 1.52,4.09 a 19.12,19.12 0 0 0 8.5,1.26 46.88,46.88 0 0 0 8.72,-1.55 7.35,7.35 0 0 1 -0.55,-2.62 c 0,-0.76 -0.08,-2.68 -0.15,-5.7 z"
           id="path851"
           style="fill:#ffffff" />
        <path
           class="cls-4"
           d="m 997.82,318.56 a 10.05,10.05 0 0 0 -1,0.93 4.86,4.86 0 0 0 -1.24,2.45 5.23,5.23 0 0 0 0.53,3.79 c 0.56,1.08 2,1.63 4.37,1.63 h 1 c 0.52,0 1,0 1.59,0 a 22.65,22.65 0 0 0 8,-1.48 27.06,27.06 0 0 0 9,-6.35 8.44,8.44 0 0 1 -4.44,-2 45.18,45.18 0 0 1 -9.35,1.8 c -0.61,0.05 -1.24,0.07 -1.86,0.07 a 23.29,23.29 0 0 1 -6.59,-0.9"
           id="path852"
           style="fill:#ffffff" />
        <path
           class="cls-4"
           d="m 998.88,329.45 a 6,6 0 0 0 -2.58,4.35 c 0.06,3.58 1.36,4.43 7.37,4.72 h 1.05 a 29.62,29.62 0 0 0 18.13,-6.9 31.72,31.72 0 0 0 8.3,-11.9 8.41,8.41 0 0 1 -3.17,-0.59 7.81,7.81 0 0 1 -2.3,-1.78 7.42,7.42 0 0 1 -0.78,0.89 5.71,5.71 0 0 1 -1.8,1.05 c -0.52,0.58 -2.16,2.38 -3.84,3.91 a 26.37,26.37 0 0 1 -9.77,5.5 23.42,23.42 0 0 1 -7,0.92 c -1.71,0 -3.09,-0.13 -3.59,-0.18"
           id="path853"
           style="fill:#ffffff" />
        <path
           class="cls-4"
           d="m 1000.86,287.61 c -2.61,0 -3.27,1.5 -3.3,1.56 a 19.14,19.14 0 0 0 -1.26,8.5 46.09,46.09 0 0 0 1.56,8.72 7.35,7.35 0 0 1 2.62,-0.55 c 0.56,0 2,-0.07 5.73,-0.14 -0.05,-0.84 -0.14,-2.6 -0.14,-3.73 0,-1.13 -0.06,-4.27 -0.17,-9.33 v -0.32 a 4.62,4.62 0 0 0 -3.65,-4.58 7.19,7.19 0 0 0 -1.39,-0.13"
           id="path854"
           style="fill:#ffffff" />
        <path
           class="cls-4"
           d="m 989.83,287.31 a 5.3,5.3 0 0 0 -2.52,0.67 c -1.08,0.57 -1.63,2 -1.63,4.38 q 0,0.47 0,1.05 a 22.83,22.83 0 0 0 1.44,9.51 27.13,27.13 0 0 0 6.36,9 8.52,8.52 0 0 1 2,-4.44 45.18,45.18 0 0 1 -1.8,-9.35 24.85,24.85 0 0 1 0.83,-8.45 9,9 0 0 0 -0.93,-1 4.9,4.9 0 0 0 -2.43,-1.23 5.53,5.53 0 0 0 -1.28,-0.15"
           id="path855"
           style="fill:#ffffff" />
        <path
           class="cls-4"
           d="m 979.23,287.83 c -3.57,0.06 -4.41,1.37 -4.71,7.38 a 29.24,29.24 0 0 0 6.88,19.18 31.65,31.65 0 0 0 11.9,8.3 6.48,6.48 0 0 1 2.36,-5.47 7.32,7.32 0 0 1 -0.88,-0.78 5.53,5.53 0 0 1 -1,-1.8 c -0.72,-0.65 -2.45,-2.23 -3.91,-3.84 a 26.37,26.37 0 0 1 -5.5,-9.77 29.4,29.4 0 0 1 -0.74,-10.61 5.87,5.87 0 0 0 -4.29,-2.59 z"
           id="path856"
           style="fill:#ffffff" />
        <path
           class="cls-4"
           d="m 1097.15,278.52 a 15.29,15.29 0 0 1 5.86,1.07 13.59,13.59 0 0 1 4.47,2.91 12.47,12.47 0 0 1 2.84,4.28 13.91,13.91 0 0 1 1,5.22 14.93,14.93 0 0 1 -1.8,7.47 11.28,11.28 0 0 1 -5.86,4.79 V 305 a 7.6,7.6 0 0 1 3.1,1.63 9.12,9.12 0 0 1 2,2.6 12.34,12.34 0 0 1 1.13,3.31 31.12,31.12 0 0 1 0.48,3.6 c 0,0.76 0.09,1.64 0.13,2.66 0.04,1.02 0.12,2.06 0.23,3.14 a 22.29,22.29 0 0 0 0.51,3 7.23,7.23 0 0 0 1.08,2.44 h -10.16 a 19.12,19.12 0 0 1 -1,-5.41 c -0.13,-2.09 -0.33,-4.09 -0.58,-6 a 9.7,9.7 0 0 0 -2.2,-5.48 7.42,7.42 0 0 0 -5.5,-1.73 h -10.18 v 18.64 h -11.64 v -48.88 z m -2.5,21 a 8.25,8.25 0 0 0 5.63,-1.67 6.9,6.9 0 0 0 1.87,-5.42 6.62,6.62 0 0 0 -1.87,-5.24 8.31,8.31 0 0 0 -5.63,-1.63 h -12 v 14 z"
           id="path857"
           style="fill:#ffffff" />
        <path
           class="cls-4"
           d="m 1145.63,276.2 19.15,51.2 h -11.41 l -3.95,-11.64 h -19.53 l -4.1,11.64 h -11 l 19.35,-51.2 z m 0.59,32.58 -6.39,-18.62 h -0.15 l -6.6,18.62 z"
           id="path858"
           style="fill:#ffffff" />
        <polygon
           class="cls-4"
           points="1166.48,276.2 1178.12,276.2 1178.12,297.42 1198.8,276.2 1213.34,276.2 1192.65,296.42 1215.33,327.4 1200.73,327.4 1184.8,304.38 1178.12,310.91 1178.12,327.4 1166.48,327.4 "
           id="polygon858"
           style="fill:#ffffff" />
        <path
           class="cls-4"
           d="m 1227,283.81 a 6.73,6.73 0 1 1 -6.91,-6.54 h 0.2 a 6.59,6.59 0 0 1 6.71,6.45 v -0.53 m -10.12,0.63 a 5.08,5.08 0 0 0 4.92,5.23 5.14,5.14 0 0 0 2.36,-0.49 5,5 0 0 0 2.8,-3.88 5.57,5.57 0 0 0 0,-0.82 5.0541592,5.0541592 0 0 0 -10.1,-0.41 v 0.37 m 3.12,4 h -2.32 v -7.12 c 0,0 2.49,-0.21 3.34,-0.2 a 4,4 0 0 1 2.27,0.48 1.8,1.8 0 0 1 0.64,1.43 1.69,1.69 0 0 1 -1.6,1.52 V 284 a 1.84,1.84 0 0 1 1.44,1.6 c 0.07,0.57 0.23,1.12 0.48,2.22 h -1.63 c -0.25,-1.09 -0.42,-1.63 -0.52,-2.19 -0.12,-0.72 -1.35,-0.13 -1.35,-0.13 H 1220 Z m 0,-4.65 h 0.72 c 0.84,0 1.52,-0.28 1.52,-1 0,-0.72 -0.44,-1 -1.4,-1 a 3.42,3.42 0 0 0 -0.84,0.08 z"
           id="path859"
           style="fill:#ffffff" />
      </g>
    </g>
  </g>
  <path
     class="cls-24"
     d="m 340.63275,53.493757 h -2.56 c -2.28,0.06 -4.19,-1.34 -4.26,-3.12 v -33.13 c 0.08,-1.78 2,-3.18 4.26,-3.12 h 2.56 c 2.28,-0.06 4.18,1.34 4.26,3.12 v 33.13 c -0.08,1.78 -2,3.18 -4.26,3.12"
     id="path860"
     style="fill:#ecf3fa" />
  <path
     class="cls-24"
     d="m 134.01275,53.493757 h -2.55 c -2.24,0.07 -4.14,-1.29 -4.24,-3 v -32.36 c 0.1,-1.76 2,-3.12 4.24,-3 h 2.55 c 2.25,-0.07 4.15,1.29 4.25,3 v 32.31 c -0.1,1.76 -2,3.12 -4.25,3"
     id="path861"
     style="fill:#ecf3fa" />
  <path
     class="cls-25"
     d="m 345.87275,25.603757 v -3.06 c 0,-1.63 0.24,-2.95 -2.31,-2.95 h -9.88 c -1.94,0 -1.73,0.78 -2.4,1.87 h -191.41 c -0.67,-1.09 -0.79,-1.87 -2.73,-1.87 h -6.67 c -2.3,-0.16 -4.35,1.15 -4.6,2.95 v 3.06 a 3.52,3.52 0 0 0 3.27,2.82 v 11.8 a 3.52,3.52 0 0 0 -3.27,2.82 v 3.09 c 0.25,1.81 2.3,3.12 4.6,3 h 6.95 c 2,0 2,-0.83 2.61,-2 h 191.34 c 0.62,1.15999 0.43,2 2.44,2 h 7.46 c 2.3,0.15999 4.35,-1.15 4.6,-3 v -3.09001 a 3.32,3.32 0 0 0 -2.86,-2.73999 v -12 a 3.32,3.32 0 0 0 2.86,-2.73001"
     id="path862"
     style="fill:#383f49" />
  <path
     class="cls-26"
     d="m 328.29275,44.403757 h -186 a 2.26,2.26 0 0 1 -2.53,-1.51 v -16.56 a 2.25,2.25 0 0 1 2.53,-1.51 h 186 a 2.26,2.26 0 0 1 2.58,1.51 v 16.56 a 2.27,2.27 0 0 1 -2.53,1.51"
     id="path863"
     style="fill:#272a33" />
  <path
     class="cls-24"
     d="m 156.87275,9.2937565 h -3.51 c -0.58,0.06 -1,0.46 -0.94,0.9200005 v 3 c -0.05,0.44 0.34,0.83 0.89,0.9 v 8 h 3.61 v -7.98 a 0.92,0.92 0 0 0 0.9,-0.9 v -3 c 0,-0.4600005 -0.37,-0.8600005 -1,-0.9200005"
     id="path864"
     style="fill:#ecf3fa" />
  <path
     class="cls-27"
     d="m 156.46275,25.133757 h -4.66 c -0.46,0 -0.8,-0.36 -0.75,-0.72001 v -2.19999 c 0,-0.36 0.29,-0.69 0.75,-0.73 h 4.66 c 0.47,0 0.8,0.37 0.75,0.73 v 2.19999 c 0.05,0.36001 -0.28,0.68001 -0.75,0.72001"
     id="path865"
     style="fill:#b68f4e" />
  <path
     class="cls-24"
     d="m 156.87275,59.923757 h -3.51 c -0.58,-0.05 -1,-0.46001 -0.94,-0.91 v -3 c -0.05,-0.44 0.34,-0.83 0.89,-0.9 v -8 h 3.61 v 8 a 0.92,0.92 0 0 1 0.9,0.9 v 3 c 0,0.44999 -0.37,0.85999 -1,0.91"
     id="path866"
     style="fill:#ecf3fa" />
  <path
     class="cls-27"
     d="m 156.46275,44.133757 h -4.66 c -0.46,0 -0.8,0.36 -0.75,0.71999 v 2.20001 c 0,0.35999 0.29,0.68 0.75,0.72 h 4.66 c 0.46,0 0.8,-0.36001 0.75,-0.72 v -2.22 c 0.05,-0.36 -0.28,-0.68 -0.75,-0.72"
     id="path867"
     style="fill:#b68f4e" />
  <path
     class="cls-24"
     d="m 165.45275,9.2937565 h -3.51 c -0.58,0.06 -1,0.46 -1,0.9200005 v 3 a 0.91,0.91 0 0 0 0.9,0.9 v 8 h 3.61 v -7.98 c 0.55,-0.07 0.94,-0.46 0.89,-0.9 v -3 c 0.06,-0.4600005 -0.36,-0.8600005 -0.94,-0.9200005"
     id="path868"
     style="fill:#ecf3fa" />
  <path
     class="cls-27"
     d="m 165.02275,25.133757 h -4.67 c -0.45,0 -0.79,-0.36 -0.74,-0.72001 v -2.19999 c 0,-0.36 0.28,-0.69 0.74,-0.73 h 4.67 c 0.46,0 0.8,0.37 0.75,0.73 v 2.19999 c 0,0.36001 -0.29,0.68001 -0.75,0.72001"
     id="path869"
     style="fill:#b68f4e" />
  <path
     class="cls-24"
     d="m 165.45275,59.923757 h -3.51 c -0.58,-0.05 -1,-0.46001 -1,-0.91 v -3 a 0.91,0.91 0 0 1 0.9,-0.9 v -8 h 3.61 v 8 c 0.55,0.07 0.94,0.46 0.89,0.9 v 3 c 0.06,0.44999 -0.36,0.85999 -0.94,0.91"
     id="path870"
     style="fill:#ecf3fa" />
  <path
     class="cls-27"
     d="m 165.02275,44.133757 h -4.67 c -0.46,0 -0.79,0.36 -0.74,0.71999 v 2.20001 c 0,0.35999 0.29,0.68 0.74,0.72 h 4.67 c 0.46,0 0.79,-0.36001 0.75,-0.72 v -2.22 c 0,-0.36 -0.29,-0.68 -0.75,-0.72"
     id="path871"
     style="fill:#b68f4e" />
  <path
     class="cls-24"
     d="m 174.52275,9.2937565 h -3.52 c -0.58,0.06 -1,0.46 -0.94,0.9200005 v 3 c 0,0.44 0.34,0.83 0.89,0.9 v 8 h 3.62 v -7.98 c 0.55,-0.07 0.94,-0.46 0.89,-0.9 v -3 c 0.05,-0.4600005 -0.36,-0.8600005 -0.94,-0.9200005"
     id="path872"
     style="fill:#ecf3fa" />
  <path
     class="cls-27"
     d="m 174.09275,25.133757 h -4.67 c -0.46,0 -0.79,-0.36 -0.75,-0.72001 v -2.19999 a 0.74,0.74 0 0 1 0.75,-0.73 h 4.67 a 0.74,0.74 0 0 1 0.75,0.73 v 2.19999 c 0,0.36001 -0.29,0.68001 -0.75,0.72001"
     id="path873"
     style="fill:#b68f4e" />
  <path
     class="cls-24"
     d="m 174.52275,59.923757 h -3.52 a 0.92,0.92 0 0 1 -0.94,-0.91 v -3 c 0,-0.44 0.34,-0.83 0.89,-0.9 v -8 h 3.62 v 8 c 0.55,0.07 0.94,0.46 0.89,0.9 v 3 a 0.92,0.92 0 0 1 -0.94,0.91"
     id="path874"
     style="fill:#ecf3fa" />
  <path
     class="cls-27"
     d="m 174.09275,44.133757 h -4.67 c -0.46,0 -0.79,0.36 -0.75,0.71999 v 2.20001 c 0,0.35999 0.29,0.68 0.75,0.72 h 4.67 c 0.46,0 0.79,-0.36001 0.75,-0.72 v -2.22 c 0,-0.36 -0.29,-0.68 -0.75,-0.72"
     id="path875"
     style="fill:#b68f4e" />
  <path
     class="cls-24"
     d="m 183.38275,9.2937565 h -3.51 c -0.58,0.06 -1,0.46 -1,0.9200005 v 3 a 0.91,0.91 0 0 0 0.89,0.9 v 8 h 3.62 v -7.98 c 0.55,-0.07 0.94,-0.46 0.89,-0.9 v -3 c 0.06,-0.4600005 -0.36,-0.8600005 -0.94,-0.9200005"
     id="path876"
     style="fill:#ecf3fa" />
  <path
     class="cls-27"
     d="m 182.95275,25.133757 h -4.66 c -0.46,0 -0.79,-0.36 -0.75,-0.72001 v -2.19999 a 0.74,0.74 0 0 1 0.75,-0.73 h 4.67 a 0.74,0.74 0 0 1 0.75,0.73 v 2.19999 c 0,0.36001 -0.29,0.68001 -0.75,0.72001"
     id="path877"
     style="fill:#b68f4e" />
  <path
     class="cls-24"
     d="m 183.38275,59.923757 h -3.51 c -0.58,-0.05 -1,-0.46001 -1,-0.91 v -3 a 0.91,0.91 0 0 1 0.89,-0.9 v -8 h 3.62 v 8 c 0.55,0.07 0.94,0.46 0.89,0.9 v 3 c 0.06,0.44999 -0.36,0.85999 -0.94,0.91"
     id="path878"
     style="fill:#ecf3fa" />
  <path
     class="cls-27"
     d="m 182.95275,44.133757 h -4.66 c -0.46,0 -0.79,0.36 -0.75,0.71999 v 2.20001 c 0,0.35999 0.29,0.68 0.75,0.72 h 4.67 c 0.46,0 0.79,-0.36001 0.75,-0.72 v -2.22 c 0,-0.36 -0.29,-0.68 -0.75,-0.72"
     id="path879"
     style="fill:#b68f4e" />
  <path
     class="cls-24"
     d="m 192.01275,9.2937565 h -3.51 c -0.58,0.06 -1,0.46 -0.94,0.9200005 v 3 c 0,0.44 0.34,0.83 0.89,0.9 v 8 h 3.61 v -7.98 a 0.91,0.91 0 0 0 0.9,-0.9 v -3 c 0.05,-0.4600005 -0.37,-0.8600005 -0.95,-0.9200005"
     id="path880"
     style="fill:#ecf3fa" />
  <path
     class="cls-27"
     d="m 191.59275,25.133757 h -4.66 c -0.46,0 -0.8,-0.36 -0.75,-0.72001 v -2.19999 c 0,-0.36 0.28,-0.69 0.75,-0.73 h 4.66 c 0.46,0 0.8,0.37 0.75,0.73 v 2.19999 c 0,0.36001 -0.29,0.68001 -0.75,0.72001"
     id="path881"
     style="fill:#b68f4e" />
  <path
     class="cls-24"
     d="m 192.01275,59.923757 h -3.51 c -0.58,-0.05 -1,-0.46001 -0.94,-0.91 v -3 c 0,-0.44 0.34,-0.83 0.89,-0.9 v -8 h 3.61 v 8 a 0.91,0.91 0 0 1 0.9,0.9 v 3 c 0.05,0.44999 -0.37,0.85999 -0.95,0.91"
     id="path882"
     style="fill:#ecf3fa" />
  <path
     class="cls-27"
     d="m 191.59275,44.133757 h -4.66 c -0.47,0 -0.8,0.36 -0.75,0.71999 v 2.20001 c 0,0.35999 0.29,0.68 0.75,0.72 h 4.66 c 0.46,0 0.79,-0.36001 0.75,-0.72 v -2.22 c 0,-0.36 -0.29,-0.68 -0.75,-0.72"
     id="path883"
     style="fill:#b68f4e" />
  <path
     class="cls-24"
     d="m 200.57275,9.2937565 h -3.51 c -0.58,0.06 -1,0.46 -1,0.9200005 v 3 a 0.91,0.91 0 0 0 0.9,0.9 v 8 h 3.61 v -7.98 c 0.55,-0.07 0.94,-0.46 0.89,-0.9 v -3 c 0.06,-0.4600005 -0.36,-0.8600005 -0.94,-0.9200005"
     id="path884"
     style="fill:#ecf3fa" />
  <path
     class="cls-27"
     d="m 200.14275,25.133757 h -4.67 c -0.46,0 -0.79,-0.36 -0.75,-0.72001 v -2.19999 c 0,-0.36 0.29,-0.69 0.75,-0.73 h 4.67 c 0.46,0 0.79,0.37 0.74,0.73 v 2.19999 c 0,0.36001 -0.28,0.68001 -0.74,0.72001"
     id="path885"
     style="fill:#b68f4e" />
  <path
     class="cls-24"
     d="m 200.57275,59.923757 h -3.51 c -0.58,-0.05 -1,-0.46001 -1,-0.91 v -3 a 0.91,0.91 0 0 1 0.9,-0.9 v -8 h 3.61 v 8 c 0.55,0.07 0.94,0.46 0.89,0.9 v 3 c 0.06,0.44999 -0.36,0.85999 -0.94,0.91"
     id="path886"
     style="fill:#ecf3fa" />
  <path
     class="cls-27"
     d="m 200.14275,44.133757 h -4.67 c -0.46,0 -0.8,0.36 -0.75,0.71999 v 2.20001 c 0,0.35999 0.29,0.68 0.75,0.72 h 4.67 c 0.45,0 0.79,-0.36001 0.74,-0.72 v -2.22 c 0,-0.36 -0.28,-0.68 -0.74,-0.72"
     id="path887"
     style="fill:#b68f4e" />
  <path
     class="cls-24"
     d="m 209.23275,9.2937565 h -3.51 c -0.58,0.06 -1,0.46 -0.95,0.9200005 v 3 c -0.05,0.44 0.34,0.83 0.89,0.9 v 8 h 3.62 v -7.98 a 0.91,0.91 0 0 0 0.89,-0.9 v -3 c 0,-0.4600005 -0.37,-0.8600005 -1,-0.9200005"
     id="path888"
     style="fill:#ecf3fa" />
  <path
     class="cls-27"
     d="m 208.80275,25.133757 h -4.67 c -0.46,0 -0.79,-0.36 -0.75,-0.72001 v -2.19999 a 0.74,0.74 0 0 1 0.75,-0.73 h 4.67 a 0.74,0.74 0 0 1 0.75,0.73 v 2.19999 c 0,0.36001 -0.29,0.68001 -0.75,0.72001"
     id="path889"
     style="fill:#b68f4e" />
  <path
     class="cls-24"
     d="m 209.23275,59.923757 h -3.51 c -0.58,-0.05 -1,-0.46001 -0.95,-0.91 v -3 c -0.05,-0.44 0.34,-0.83 0.89,-0.9 v -8 h 3.62 v 8 a 0.91,0.91 0 0 1 0.89,0.9 v 3 c 0,0.44999 -0.37,0.85999 -1,0.91"
     id="path890"
     style="fill:#ecf3fa" />
  <path
     class="cls-27"
     d="m 208.80275,44.133757 h -4.67 c -0.46,0 -0.79,0.36 -0.75,0.71999 v 2.20001 c 0,0.35999 0.29,0.68 0.75,0.72 h 4.67 c 0.46,0 0.79,-0.36001 0.75,-0.72 v -2.22 c 0,-0.36 -0.29,-0.68 -0.75,-0.72"
     id="path891"
     style="fill:#b68f4e" />
  <path
     class="cls-24"
     d="m 217.99275,9.2937565 h -3.51 c -0.58,0.06 -1,0.46 -0.95,0.9200005 v 3 c -0.05,0.44 0.34,0.83 0.89,0.9 v 8 h 3.62 v -7.98 c 0.55,-0.07 0.94,-0.46 0.89,-0.9 v -3 c 0.06,-0.4600005 -0.36,-0.8600005 -0.94,-0.9200005"
     id="path892"
     style="fill:#ecf3fa" />
  <path
     class="cls-27"
     d="m 217.56275,25.133757 h -4.69 c -0.46,0 -0.79,-0.36 -0.75,-0.72001 v -2.19999 a 0.74,0.74 0 0 1 0.75,-0.73 h 4.67 a 0.74,0.74 0 0 1 0.75,0.73 v 2.19999 c 0,0.36001 -0.29,0.68001 -0.75,0.72001"
     id="path893"
     style="fill:#b68f4e" />
  <path
     class="cls-24"
     d="m 217.99275,59.923757 h -3.51 c -0.58,-0.05 -1,-0.46001 -0.95,-0.91 v -3 a 0.91,0.91 0 0 1 0.89,-0.9 v -8 h 3.62 v 8 c 0.55,0.07 0.94,0.46 0.89,0.9 v 3 c 0.06,0.44999 -0.36,0.85999 -0.94,0.91"
     id="path894"
     style="fill:#ecf3fa" />
  <path
     class="cls-27"
     d="m 217.56275,44.133757 h -4.69 c -0.46,0 -0.79,0.36 -0.75,0.71999 v 2.20001 c 0,0.35999 0.29,0.68 0.75,0.72 h 4.67 c 0.46,0 0.79,-0.36001 0.75,-0.72 v -2.22 c 0,-0.36 -0.29,-0.68 -0.75,-0.72"
     id="path895"
     style="fill:#b68f4e" />
  <path
     class="cls-24"
     d="m 226.75275,9.2937565 h -3.51 c -0.58,0.06 -1,0.46 -0.95,0.9200005 v 3 a 0.91,0.91 0 0 0 0.89,0.9 v 8 h 3.62 v -7.98 c 0.55,-0.07 0.94,-0.46 0.89,-0.9 v -3 c 0.06,-0.4600005 -0.36,-0.8600005 -0.94,-0.9200005"
     id="path896"
     style="fill:#ecf3fa" />
  <path
     class="cls-27"
     d="m 226.32275,25.133757 h -4.67 c -0.46,0 -0.79,-0.36 -0.75,-0.72001 v -2.19999 a 0.74,0.74 0 0 1 0.75,-0.73 h 4.67 c 0.46,0 0.8,0.37 0.75,0.73 v 2.19999 c 0,0.36001 -0.29,0.68001 -0.75,0.72001"
     id="path897"
     style="fill:#b68f4e" />
  <path
     class="cls-24"
     d="m 226.75275,59.923757 h -3.51 c -0.58,-0.05 -1,-0.46001 -0.95,-0.91 v -3 a 0.91,0.91 0 0 1 0.89,-0.9 v -8 h 3.62 v 8 c 0.55,0.07 0.94,0.46 0.89,0.9 v 3 c 0.06,0.44999 -0.36,0.85999 -0.94,0.91"
     id="path898"
     style="fill:#ecf3fa" />
  <path
     class="cls-27"
     d="m 226.32275,44.133757 h -4.67 c -0.46,0 -0.79,0.36 -0.75,0.71999 v 2.20001 c 0,0.35999 0.29,0.68 0.75,0.72 h 4.67 c 0.46,0 0.79,-0.36001 0.75,-0.72 v -2.22 c 0,-0.36 -0.29,-0.68 -0.75,-0.72"
     id="path899"
     style="fill:#b68f4e" />
  <path
     class="cls-24"
     d="m 235.41275,9.2937565 h -3.54 c -0.57,0.06 -1,0.46 -0.94,0.9200005 v 3 c 0,0.44 0.34,0.83 0.89,0.9 v 8 h 3.62 v -7.98 c 0.55,-0.07 0.94,-0.46 0.89,-0.9 v -3 c 0.06,-0.4600005 -0.36,-0.8600005 -0.94,-0.9200005"
     id="path900"
     style="fill:#ecf3fa" />
  <path
     class="cls-27"
     d="m 234.98275,25.133757 h -4.67 c -0.46,0 -0.79,-0.36 -0.75,-0.72001 v -2.19999 a 0.74,0.74 0 0 1 0.75,-0.73 h 4.67 a 0.74,0.74 0 0 1 0.75,0.73 v 2.19999 c 0,0.36001 -0.29,0.68001 -0.75,0.72001"
     id="path901"
     style="fill:#b68f4e" />
  <path
     class="cls-24"
     d="m 235.41275,59.923757 h -3.54 a 0.92,0.92 0 0 1 -0.94,-0.91 v -3 c 0,-0.44 0.34,-0.83 0.89,-0.9 v -8 h 3.62 v 8 c 0.55,0.07 0.94,0.46 0.89,0.9 v 3 c 0.06,0.44999 -0.36,0.85999 -0.94,0.91"
     id="path902"
     style="fill:#ecf3fa" />
  <path
     class="cls-27"
     d="m 234.98275,44.133757 h -4.67 c -0.46,0 -0.79,0.36 -0.75,0.71999 v 2.20001 c 0,0.35999 0.29,0.68 0.75,0.72 h 4.67 c 0.46,0 0.79,-0.36001 0.75,-0.72 v -2.22 c 0,-0.36 -0.29,-0.68 -0.75,-0.72"
     id="path903"
     style="fill:#b68f4e" />
  <path
     class="cls-24"
     d="m 244.37275,9.2937565 h -3.5 c -0.58,0.06 -1,0.46 -0.94,0.9200005 v 3 c 0,0.44 0.34,0.83 0.89,0.9 v 8 h 3.61 v -7.98 a 0.91,0.91 0 0 0 0.9,-0.9 v -3 c 0,-0.4600005 -0.37,-0.8600005 -1,-0.9200005"
     id="path904"
     style="fill:#ecf3fa" />
  <path
     class="cls-27"
     d="m 243.94275,25.133757 h -4.67 c -0.46,0 -0.79,-0.36 -0.74,-0.72001 v -2.19999 c -0.05,-0.36 0.28,-0.69 0.74,-0.73 h 4.67 c 0.46,0 0.8,0.37 0.75,0.73 v 2.19999 c 0,0.36001 -0.29,0.68001 -0.75,0.72001"
     id="path905"
     style="fill:#b68f4e" />
  <path
     class="cls-24"
     d="m 244.37275,59.923757 h -3.5 c -0.58,-0.05 -1,-0.46001 -0.94,-0.91 v -3 c 0,-0.44 0.34,-0.83 0.89,-0.9 v -8 h 3.61 v 8 a 0.91,0.91 0 0 1 0.9,0.9 v 3 c 0,0.44999 -0.37,0.85999 -1,0.91"
     id="path906"
     style="fill:#ecf3fa" />
  <path
     class="cls-27"
     d="m 243.94275,44.133757 h -4.67 c -0.46,0 -0.79,0.36 -0.74,0.71999 v 2.20001 a 0.73,0.73 0 0 0 0.74,0.72 h 4.67 c 0.46,0 0.79,-0.36001 0.75,-0.72 v -2.22 c 0,-0.36 -0.29,-0.68 -0.75,-0.72"
     id="path907"
     style="fill:#b68f4e" />
  <path
     class="cls-24"
     d="m 253.14275,9.2937565 h -3.52 c -0.57,0.06 -1,0.46 -0.94,0.9200005 v 3 c 0,0.44 0.34,0.83 0.89,0.9 v 8 h 3.62 v -7.98 c 0.55,-0.07 0.94,-0.46 0.89,-0.9 v -3 c 0,-0.4600005 -0.36,-0.8600005 -0.94,-0.9200005"
     id="path908"
     style="fill:#ecf3fa" />
  <path
     class="cls-27"
     d="m 252.71275,25.133757 h -4.67 c -0.46,0 -0.79,-0.36 -0.75,-0.72001 v -2.19999 a 0.74,0.74 0 0 1 0.75,-0.73 h 4.67 c 0.46,0 0.79,0.37 0.74,0.73 v 2.19999 c 0.05,0.36001 -0.28,0.68001 -0.74,0.72001"
     id="path909"
     style="fill:#b68f4e" />
  <path
     class="cls-24"
     d="m 253.14275,59.923757 h -3.52 a 0.92,0.92 0 0 1 -0.94,-0.91 v -3 c 0,-0.44 0.34,-0.83 0.89,-0.9 v -8 h 3.62 v 8 c 0.55,0.07 0.94,0.46 0.89,0.9 v 3 a 0.92,0.92 0 0 1 -0.94,0.91"
     id="path910"
     style="fill:#ecf3fa" />
  <path
     class="cls-27"
     d="m 252.71275,44.133757 h -4.67 c -0.46,0 -0.79,0.36 -0.75,0.71999 v 2.20001 c 0,0.35999 0.29,0.68 0.75,0.72 h 4.67 c 0.46,0 0.79,-0.36001 0.74,-0.72 v -2.22 c 0.05,-0.36 -0.28,-0.68 -0.74,-0.72"
     id="path911"
     style="fill:#b68f4e" />
  <path
     class="cls-24"
     d="m 262.10275,9.2937565 h -3.51 c -0.58,0.06 -1,0.46 -0.94,0.9200005 v 3 c 0,0.44 0.34,0.83 0.89,0.9 v 8 h 3.61 v -7.98 c 0.55,-0.07 0.94,-0.46 0.89,-0.9 v -3 c 0.06,-0.4600005 -0.36,-0.8600005 -0.94,-0.9200005"
     id="path912"
     style="fill:#ecf3fa" />
  <path
     class="cls-27"
     d="m 261.68275,25.133757 h -4.67 c -0.46,0 -0.79,-0.36 -0.75,-0.72001 v -2.19999 c -0.05,-0.36 0.29,-0.69 0.75,-0.73 h 4.67 c 0.46,0 0.79,0.37 0.74,0.73 v 2.19999 c 0,0.36001 -0.28,0.68001 -0.74,0.72001"
     id="path913"
     style="fill:#b68f4e" />
  <path
     class="cls-24"
     d="m 262.10275,59.923757 h -3.51 c -0.58,-0.05 -1,-0.46001 -0.94,-0.91 v -3 c 0,-0.44 0.34,-0.83 0.89,-0.9 v -8 h 3.61 v 8 c 0.55,0.07 0.94,0.46 0.89,0.9 v 3 c 0.06,0.44999 -0.36,0.85999 -0.94,0.91"
     id="path914"
     style="fill:#ecf3fa" />
  <path
     class="cls-27"
     d="m 261.68275,44.133757 h -4.67 c -0.46,0 -0.8,0.36 -0.75,0.71999 v 2.20001 c 0,0.35999 0.29,0.68 0.75,0.72 h 4.67 a 0.73,0.73 0 0 0 0.74,-0.72 v -2.22 c 0,-0.36 -0.28,-0.68 -0.74,-0.72"
     id="path915"
     style="fill:#b68f4e" />
  <path
     class="cls-24"
     d="m 270.76275,9.2937565 h -3.51 c -0.58,0.06 -1,0.46 -0.94,0.9200005 v 3 c 0,0.44 0.34,0.83 0.89,0.9 v 8 h 3.61 v -7.98 a 0.91,0.91 0 0 0 0.9,-0.9 v -3 c 0.05,-0.4600005 -0.37,-0.8600005 -0.95,-0.9200005"
     id="path916"
     style="fill:#ecf3fa" />
  <path
     class="cls-27"
     d="m 270.33275,25.133757 h -4.66 c -0.47,0 -0.8,-0.36 -0.75,-0.72001 v -2.19999 c 0,-0.36 0.28,-0.69 0.75,-0.73 h 4.66 c 0.46,0 0.8,0.37 0.75,0.73 v 2.19999 c 0,0.36001 -0.29,0.68001 -0.75,0.72001"
     id="path917"
     style="fill:#b68f4e" />
  <path
     class="cls-24"
     d="m 270.76275,59.923757 h -3.51 c -0.58,-0.05 -1,-0.46001 -0.94,-0.91 v -3 c 0,-0.44 0.34,-0.83 0.89,-0.9 v -8 h 3.61 v 8 a 0.91,0.91 0 0 1 0.9,0.9 v 3 c 0.05,0.44999 -0.37,0.85999 -0.95,0.91"
     id="path918"
     style="fill:#ecf3fa" />
  <path
     class="cls-27"
     d="m 270.33275,44.133757 h -4.66 c -0.47,0 -0.8,0.36 -0.75,0.71999 v 2.20001 c 0,0.35999 0.29,0.68 0.75,0.72 h 4.66 c 0.46,0 0.79,-0.36001 0.75,-0.72 v -2.22 c 0,-0.36 -0.29,-0.68 -0.75,-0.72"
     id="path919"
     style="fill:#b68f4e" />
  <path
     class="cls-24"
     d="m 279.52275,9.2937565 h -3.51 c -0.58,0.06 -1,0.46 -0.94,0.9200005 v 3 c 0,0.44 0.34,0.83 0.89,0.9 v 8 h 3.61 v -7.98 a 0.91,0.91 0 0 0 0.9,-0.9 v -3 c 0.05,-0.4600005 -0.37,-0.8600005 -0.95,-0.9200005"
     id="path920"
     style="fill:#ecf3fa" />
  <path
     class="cls-27"
     d="m 279.09275,25.133757 h -4.67 c -0.46,0 -0.79,-0.36 -0.74,-0.72001 v -2.19999 c 0,-0.36 0.28,-0.69 0.74,-0.73 h 4.67 c 0.46,0 0.8,0.37 0.75,0.73 v 2.19999 c 0,0.36001 -0.29,0.68001 -0.75,0.72001"
     id="path921"
     style="fill:#b68f4e" />
  <path
     class="cls-24"
     d="m 279.52275,59.923757 h -3.51 c -0.58,-0.05 -1,-0.46001 -0.94,-0.91 v -3 c 0,-0.44 0.34,-0.83 0.89,-0.9 v -8 h 3.61 v 8 a 0.91,0.91 0 0 1 0.9,0.9 v 3 c 0.05,0.44999 -0.37,0.85999 -0.95,0.91"
     id="path922"
     style="fill:#ecf3fa" />
  <path
     class="cls-27"
     d="m 279.09275,44.133757 h -4.67 c -0.46,0 -0.79,0.36 -0.74,0.71999 v 2.20001 a 0.73,0.73 0 0 0 0.74,0.72 h 4.67 c 0.46,0 0.79,-0.36001 0.75,-0.72 v -2.22 c 0,-0.36 -0.29,-0.68 -0.75,-0.72"
     id="path923"
     style="fill:#b68f4e" />
  <path
     class="cls-24"
     d="m 288.28275,9.2937565 h -3.51 c -0.58,0.06 -1,0.46 -0.94,0.9200005 v 3 c 0,0.44 0.34,0.83 0.89,0.9 v 8 h 3.61 v -7.98 a 0.91,0.91 0 0 0 0.9,-0.9 v -3 c 0.05,-0.4600005 -0.37,-0.8600005 -0.95,-0.9200005"
     id="path924"
     style="fill:#ecf3fa" />
  <path
     class="cls-27"
     d="m 287.87275,25.133757 h -4.66 c -0.46,0 -0.8,-0.36 -0.75,-0.72001 v -2.19999 c 0,-0.36 0.29,-0.69 0.75,-0.73 h 4.66 c 0.46,0 0.8,0.37 0.75,0.73 v 2.19999 c 0,0.36001 -0.29,0.68001 -0.75,0.72001"
     id="path925"
     style="fill:#b68f4e" />
  <path
     class="cls-24"
     d="m 288.28275,59.923757 h -3.51 c -0.58,-0.05 -1,-0.46001 -0.94,-0.91 v -3 c 0,-0.44 0.34,-0.83 0.89,-0.9 v -8 h 3.61 v 8 a 0.91,0.91 0 0 1 0.9,0.9 v 3 c 0.05,0.44999 -0.37,0.85999 -0.95,0.91"
     id="path926"
     style="fill:#ecf3fa" />
  <path
     class="cls-27"
     d="m 287.87275,44.133757 h -4.66 c -0.46,0 -0.8,0.36 -0.75,0.71999 v 2.20001 c 0,0.35999 0.29,0.68 0.75,0.72 h 4.66 c 0.46,0 0.79,-0.36001 0.75,-0.72 v -2.22 c 0,-0.36 -0.29,-0.68 -0.75,-0.72"
     id="path927"
     style="fill:#b68f4e" />
  <path
     class="cls-24"
     d="m 296.94275,9.2937565 h -3.51 c -0.58,0.06 -1,0.46 -0.94,0.9200005 v 3 c 0,0.44 0.34,0.83 0.89,0.9 v 8 h 3.61 v -7.98 a 0.92,0.92 0 0 0 0.9,-0.9 v -3 c 0,-0.4600005 -0.37,-0.8600005 -1,-0.9200005"
     id="path928"
     style="fill:#ecf3fa" />
  <path
     class="cls-27"
     d="m 296.51275,25.133757 h -4.64 c -0.46,0 -0.8,-0.36 -0.75,-0.72001 v -2.19999 c 0,-0.36 0.29,-0.69 0.75,-0.73 h 4.67 c 0.46,0 0.79,0.37 0.74,0.73 v 2.19999 c 0,0.36001 -0.28,0.68001 -0.74,0.72001"
     id="path929"
     style="fill:#b68f4e" />
  <path
     class="cls-24"
     d="m 296.94275,59.923757 h -3.51 c -0.58,-0.05 -1,-0.46001 -0.94,-0.91 v -3 c 0,-0.44 0.34,-0.83 0.89,-0.9 v -8 h 3.61 v 8 a 0.92,0.92 0 0 1 0.9,0.9 v 3 c 0,0.44999 -0.37,0.85999 -1,0.91"
     id="path930"
     style="fill:#ecf3fa" />
  <path
     class="cls-27"
     d="m 296.51275,44.133757 h -4.64 c -0.46,0 -0.8,0.36 -0.75,0.71999 v 2.20001 c 0,0.35999 0.29,0.68 0.75,0.72 h 4.67 c 0.46,0 0.79,-0.36001 0.74,-0.72 v -2.22 c 0,-0.36 -0.28,-0.68 -0.74,-0.72"
     id="path931"
     style="fill:#b68f4e" />
  <path
     class="cls-24"
     d="m 305.87275,9.2937565 h -3.51 c -0.58,0.06 -1,0.46 -0.94,0.9200005 v 3 c 0,0.44 0.34,0.83 0.89,0.9 v 8 h 3.62 v -7.98 a 0.91,0.91 0 0 0 0.89,-0.9 v -3 c 0,-0.4600005 -0.37,-0.8600005 -1,-0.9200005"
     id="path932"
     style="fill:#ecf3fa" />
  <path
     class="cls-27"
     d="m 305.48275,25.133757 h -4.67 c -0.46,0 -0.79,-0.36 -0.75,-0.72001 v -2.19999 c 0,-0.36 0.29,-0.69 0.75,-0.73 h 4.67 c 0.46,0 0.79,0.37 0.74,0.73 v 2.19999 c 0.05,0.36001 -0.28,0.68001 -0.74,0.72001"
     id="path933"
     style="fill:#b68f4e" />
  <path
     class="cls-24"
     d="m 305.87275,59.923757 h -3.51 c -0.58,-0.05 -1,-0.46001 -0.94,-0.91 v -3 c 0,-0.44 0.34,-0.83 0.89,-0.9 v -8 h 3.62 v 8 a 0.91,0.91 0 0 1 0.89,0.9 v 3 c 0,0.44999 -0.37,0.85999 -1,0.91"
     id="path934"
     style="fill:#ecf3fa" />
  <path
     class="cls-27"
     d="m 305.48275,44.133757 h -4.67 c -0.46,0 -0.8,0.36 -0.75,0.71999 v 2.20001 c 0,0.35999 0.29,0.68 0.75,0.72 h 4.67 c 0.46,0 0.79,-0.36001 0.74,-0.72 v -2.22 c 0.05,-0.36 -0.28,-0.68 -0.74,-0.72"
     id="path935"
     style="fill:#b68f4e" />
  <path
     class="cls-24"
     d="m 314.67275,9.2937565 h -3.51 c -0.58,0.06 -1,0.46 -1,0.9200005 v 3 a 0.91,0.91 0 0 0 0.89,0.9 v 8 h 3.62 v -7.98 c 0.55,-0.07 0.94,-0.46 0.89,-0.9 v -3 c 0.06,-0.4600005 -0.36,-0.8600005 -0.94,-0.9200005"
     id="path936"
     style="fill:#ecf3fa" />
  <path
     class="cls-27"
     d="m 314.24275,25.133757 h -4.67 c -0.46,0 -0.79,-0.36 -0.74,-0.72001 v -2.19999 c 0,-0.36 0.28,-0.69 0.74,-0.73 h 4.67 c 0.46,0 0.8,0.37 0.75,0.73 v 2.19999 c 0.05,0.36001 -0.29,0.68001 -0.75,0.72001"
     id="path937"
     style="fill:#b68f4e" />
  <path
     class="cls-24"
     d="m 314.67275,59.923757 h -3.51 c -0.58,-0.05 -1,-0.46001 -1,-0.91 v -3 a 0.91,0.91 0 0 1 0.89,-0.9 v -8 h 3.62 v 8 c 0.55,0.07 0.94,0.46 0.89,0.9 v 3 c 0.06,0.44999 -0.36,0.85999 -0.94,0.91"
     id="path938"
     style="fill:#ecf3fa" />
  <path
     class="cls-27"
     d="m 314.24275,44.133757 h -4.67 c -0.46,0 -0.79,0.36 -0.74,0.71999 v 2.20001 c 0,0.35999 0.28,0.68 0.74,0.72 h 4.67 c 0.46,0 0.79,-0.36001 0.75,-0.72 v -2.22 c 0.05,-0.36 -0.29,-0.68 -0.75,-0.72"
     id="path939"
     style="fill:#b68f4e" />
  <path
     class="cls-24"
     d="m 323.92275,9.2937565 h -3.52 c -0.58,0.06 -1,0.46 -0.94,0.9200005 v 3 c 0,0.44 0.34,0.83 0.89,0.9 v 8 h 3.62 v -7.98 c 0.55,-0.07 0.94,-0.46 0.89,-0.9 v -3 c 0,-0.4600005 -0.37,-0.8600005 -0.94,-0.9200005"
     id="path940"
     style="fill:#ecf3fa" />
  <path
     class="cls-27"
     d="m 323.49275,25.133757 h -4.62 c -0.46,0 -0.8,-0.36 -0.75,-0.72001 v -2.19999 c 0,-0.36 0.29,-0.69 0.75,-0.73 h 4.67 c 0.46,0 0.79,0.37 0.74,0.73 v 2.19999 c 0.05,0.36001 -0.28,0.68001 -0.74,0.72001"
     id="path941"
     style="fill:#b68f4e" />
  <path
     class="cls-24"
     d="m 323.92275,59.923757 h -3.52 c -0.58,-0.05 -1,-0.46001 -0.94,-0.91 v -3 c 0,-0.44 0.34,-0.83 0.89,-0.9 v -8 h 3.62 v 8 c 0.55,0.07 0.94,0.46 0.89,0.9 v 3 a 0.92,0.92 0 0 1 -0.94,0.91"
     id="path942"
     style="fill:#ecf3fa" />
  <path
     class="cls-27"
     d="m 323.49275,44.133757 h -4.62 c -0.46,0 -0.8,0.36 -0.75,0.71999 v 2.20001 c 0,0.35999 0.29,0.68 0.75,0.72 h 4.67 c 0.46,0 0.79,-0.36001 0.74,-0.72 v -2.22 c 0.05,-0.36 -0.28,-0.68 -0.74,-0.72"
     id="path943"
     style="fill:#b68f4e" />
  <path
     class="cls-27"
     d="m 335.23275,23.763757 c 0,-1.27 1.45,-2.3 4.42,-2.3 2.97,0 4.47,1 4.47,2.3 0,1.3 -1.5,2.29 -4.47,2.29 -2.97,0 -4.42,-1 -4.42,-2.29"
     id="path944"
     style="fill:#b68f4e" />
  <path
     class="cls-27"
     d="m 335.23275,44.773757 c 0,-1.27 1.45,-2.3 4.42,-2.3 2.97,0 4.47,1 4.47,2.3 0,1.3 -1.5,2.29 -4.47,2.29 -2.97,0 -4.42,-1 -4.42,-2.29"
     id="path945"
     style="fill:#b68f4e" />
  <path
     class="cls-27"
     d="m 128.01275,23.763757 c 0,-1.27 1.46,-2.3 4.43,-2.3 2.97,0 4.46,1 4.46,2.3 0,1.3 -1.49,2.29 -4.46,2.29 -2.97,0 -4.43,-1 -4.43,-2.29"
     id="path946"
     style="fill:#b68f4e" />
  <path
     class="cls-27"
     d="m 128.01275,44.773757 c 0,-1.27 1.46,-2.3 4.43,-2.3 2.97,0 4.46,1 4.46,2.3 0,1.3 -1.49,2.29 -4.46,2.29 -2.97,0 -4.43,-1 -4.43,-2.29"
     id="path947"
     style="fill:#b68f4e" />
</svg>
