<?xml version="1.0" encoding="UTF-8" standalone="no"?>
<svg
   id="Layer_2"
   viewBox="0 0 620 870.00002"
   version="1.1"
   sodipodi:docname="rak19012-pinout.svg"
   width="620"
   height="870"
   inkscape:version="1.4.2 (f4327f4, 2025-05-13)"
   xmlns:inkscape="http://www.inkscape.org/namespaces/inkscape"
   xmlns:sodipodi="http://sodipodi.sourceforge.net/DTD/sodipodi-0.dtd"
   xmlns="http://www.w3.org/2000/svg"
   xmlns:svg="http://www.w3.org/2000/svg">
  <sodipodi:namedview
     id="namedview549"
     pagecolor="#505050"
     bordercolor="#eeeeee"
     borderopacity="1"
     inkscape:showpageshadow="0"
     inkscape:pageopacity="0"
     inkscape:pagecheckerboard="0"
     inkscape:deskcolor="#505050"
     inkscape:zoom="1.1451955"
     inkscape:cx="-165.91054"
     inkscape:cy="445.77541"
     inkscape:window-width="3440"
     inkscape:window-height="1369"
     inkscape:window-x="-8"
     inkscape:window-y="-8"
     inkscape:window-maximized="1"
     inkscape:current-layer="g549" />
  <defs
     id="defs1">
    <style
       id="style1">.cls-1{fill:#222630;}.cls-2{fill:#262626;}.cls-3{fill:#b4b4b1;}.cls-4{fill:#fff;}.cls-5{fill:#46342c;}.cls-6{fill:#323d49;}.cls-7,.cls-8,.cls-9,.cls-10{opacity:.5;}.cls-11{fill:#363896;}.cls-12,.cls-10{fill:#deaa53;}.cls-13{fill:#eb2627;}.cls-14{fill:#0a0a0a;}.cls-8,.cls-15{fill:#303132;}.cls-16{fill:#796e59;}.cls-17{fill:#333;}.cls-18{fill:#eaf4fc;}.cls-19{fill:#282828;}.cls-20{fill:#b8b5ab;}.cls-9{fill:#0f0f0f;}.cls-21{fill:#eaeaea;}.cls-22{fill:#e4e4e4;}.cls-23{fill:#7f8080;}.cls-24{fill:#a4a9b8;}.cls-25{fill:#b51a00;}.cls-26{fill:#292929;}.cls-27{fill:#b3b3b3;}.cls-28{fill:#bcc1d2;}.cls-29{fill:#008ca0;}.cls-30{fill:#eeefeb;}.cls-31{fill:#d2d2d2;}.cls-32{fill:#be8e3f;}.cls-33{fill:#ec2024;}</style>
  </defs>
  <g
     id="RAK19012">
    <g
       id="g549">
      <g
         class="cls-7"
         id="g278"
         style="opacity:1"
         transform="matrix(0,-3.5299401,3.5299401,0,-93.26467,864.3996)">
        <path
           class="cls-26"
           d="m 234.8,102.22 h -37.08 c -4.34,0 -7.85,-3.52 -7.85,-7.85 V 41.09 c 0,-4.34 -3.52,-7.85 -7.85,-7.85 H 60.63 c -4.34,0 -7.85,3.52 -7.85,7.85 v 53.28 c 0,4.34 -3.52,7.85 -7.85,7.85 H 7.85 c -4.34,0 -7.85,3.52 -7.85,7.85 v 77.52 c 0,4.34 3.52,7.85 7.85,7.85 h 57.69 c 3.29,-0.16 3.73,-2.71 3.73,-2.71 1.02,-4.06 5.33,-4.27 5.33,-4.27 h 15.18 c 4.33,0 6.81,5.48 6.81,5.48 0.46,1.28 1.25,1.48 1.59,1.5 H 234.8 c 4.34,0 7.85,-3.52 7.85,-7.85 v -77.52 c 0,-4.34 -3.52,-7.85 -7.85,-7.85 z m -170.83,2.26 c -3.51,0 -6.36,-2.85 -6.36,-6.36 0,-3.51 2.85,-6.36 6.36,-6.36 3.51,0 6.36,2.85 6.36,6.36 0,3.51 -2.85,6.36 -6.36,6.36 z m 0,-48.68 c -3.51,0 -6.36,-2.85 -6.36,-6.36 0,-3.51 2.85,-6.36 6.36,-6.36 3.51,0 6.36,2.85 6.36,6.36 0,3.51 -2.85,6.36 -6.36,6.36 z m 113.91,48.68 c -3.51,0 -6.36,-2.85 -6.36,-6.36 0,-3.51 2.85,-6.36 6.36,-6.36 3.51,0 6.36,2.85 6.36,6.36 0,3.51 -2.85,6.36 -6.36,6.36 z m 0,-48.68 c -3.51,0 -6.36,-2.85 -6.36,-6.36 0,-3.51 2.85,-6.36 6.36,-6.36 3.51,0 6.36,2.85 6.36,6.36 0,3.51 -2.85,6.36 -6.36,6.36 z"
           id="path274" />
        <path
           class="cls-12"
           d="m 63.97,38.79 c -5.87,0 -10.64,4.76 -10.64,10.64 0,5.88 4.76,10.64 10.64,10.64 5.88,0 10.64,-4.76 10.64,-10.64 0,-5.88 -4.76,-10.64 -10.64,-10.64 z m 0,17 c -3.51,0 -6.36,-2.85 -6.36,-6.36 0,-3.51 2.85,-6.36 6.36,-6.36 3.51,0 6.36,2.85 6.36,6.36 0,3.51 -2.85,6.36 -6.36,6.36 z"
           id="path275" />
        <path
           class="cls-12"
           d="m 177.88,38.85 c -5.84,0 -10.58,4.74 -10.58,10.58 0,5.84 4.74,10.58 10.58,10.58 5.84,0 10.58,-4.74 10.58,-10.58 0,-5.84 -4.74,-10.58 -10.58,-10.58 z m 0,16.95 c -3.51,0 -6.36,-2.85 -6.36,-6.36 0,-3.51 2.85,-6.36 6.36,-6.36 3.51,0 6.36,2.85 6.36,6.36 0,3.51 -2.85,6.36 -6.36,6.36 z"
           id="path276" />
        <path
           class="cls-12"
           d="m 63.97,87.57 c -5.83,0 -10.55,4.72 -10.55,10.55 0,5.83 4.72,10.55 10.55,10.55 5.83,0 10.55,-4.72 10.55,-10.55 0,-5.83 -4.72,-10.55 -10.55,-10.55 z m 0,16.91 c -3.51,0 -6.36,-2.85 -6.36,-6.36 0,-3.51 2.85,-6.36 6.36,-6.36 3.51,0 6.36,2.85 6.36,6.36 0,3.51 -2.85,6.36 -6.36,6.36 z"
           id="path277" />
        <path
           class="cls-12"
           d="m 177.88,87.62 c -5.8,0 -10.49,4.7 -10.49,10.49 0,5.79 4.7,10.49 10.49,10.49 5.79,0 10.49,-4.7 10.49,-10.49 0,-5.79 -4.7,-10.49 -10.49,-10.49 z m 0,16.86 c -3.51,0 -6.36,-2.85 -6.36,-6.36 0,-3.51 2.85,-6.36 6.36,-6.36 3.51,0 6.36,2.85 6.36,6.36 0,3.51 -2.85,6.36 -6.36,6.36 z"
           id="path278" />
      </g>
      <g
         id="g395"
         transform="matrix(0,-3.5299401,3.5299401,0,-93.26467,864.3996)">
        <g
           id="g285">
          <path
             class="cls-31"
             d="m 57.89,79.63 v -8.96 h 1.23 v 8.85 c 0,2.42 1.3,3.41 3.6,3.41 2.3,0 3.58,-0.99 3.58,-3.41 v -8.85 h 1.23 v 8.96 c 0,3.05 -2.02,4.37 -4.86,4.37 -2.84,0 -4.77,-1.36 -4.77,-4.37 z"
             id="path279" />
          <path
             class="cls-31"
             d="m 69.42,79.53 h 1.23 c 0.13,2.22 1.63,3.47 4.09,3.47 1.93,0 3.36,-0.97 3.36,-2.75 0,-1.78 -1.23,-2.29 -4.04,-2.86 -2.42,-0.48 -4.13,-1.21 -4.13,-3.51 0,-2.09 1.76,-3.47 4.39,-3.47 2.92,0 4.39,1.58 4.63,3.84 h -1.19 c -0.22,-1.85 -1.54,-2.81 -3.41,-2.81 -2,0 -3.21,0.95 -3.21,2.4 0,1.56 1.21,2.04 3.56,2.48 2.55,0.5 4.66,1.12 4.66,3.87 0,2.33 -1.87,3.84 -4.63,3.84 -3.45,0 -5.16,-1.95 -5.3,-4.5 z"
             id="path280" />
          <path
             class="cls-31"
             d="m 81.53,70.67 h 5.45 c 1.17,0 2.13,0.33 2.79,0.96 0.61,0.55 0.95,1.36 0.95,2.35 0,1.49 -0.68,2.39 -2,2.84 v 0.06 c 1.5,0.42 2.55,1.49 2.55,3.23 0,1.06 -0.33,1.93 -0.95,2.57 -0.68,0.7 -1.74,1.12 -3.1,1.12 H 81.53 V 70.68 Z m 5.43,5.76 c 1.6,0 2.51,-0.94 2.51,-2.37 0,-1.43 -0.95,-2.31 -2.48,-2.31 h -4.24 v 4.68 h 4.2 z m 0.18,6.24 c 1.01,0 1.74,-0.29 2.22,-0.75 0.42,-0.42 0.66,-1.03 0.66,-1.8 0,-1.67 -1.16,-2.62 -2.88,-2.62 h -4.39 v 5.18 h 4.39 z"
             id="path281" />
          <path
             class="cls-31"
             d="m 99.58,70.67 h 1.23 v 11.99 h 6.99 V 83.8 H 99.58 V 70.68 Z"
             id="path282" />
          <path
             class="cls-31"
             d="m 109.61,70.67 h 1.14 v 1.62 h -1.14 z m 0,3.63 h 1.14 v 9.49 h -1.14 z"
             id="path283" />
          <path
             class="cls-31"
             d="m 113.26,70.67 h 5.16 c 1.43,0 2.39,0.4 3.08,1.14 0.59,0.62 0.92,1.45 0.92,2.53 0,2.42 -1.41,3.74 -4.17,3.74 h -3.76 v 5.71 h -1.23 z m 4.9,6.37 c 2.13,0 3.01,-1.01 3.01,-2.66 0,-1.65 -1.01,-2.62 -2.9,-2.62 h -3.78 v 5.29 h 3.67 z"
             id="path284" />
          <path
             class="cls-31"
             d="m 123.21,79.06 c 0,-2.83 1.67,-4.97 4.41,-4.97 2.74,0 4.37,2.15 4.37,4.97 0,2.82 -1.63,4.97 -4.37,4.97 -2.74,0 -4.41,-2.15 -4.41,-4.97 z m 7.62,0 c 0,-2.22 -1.1,-4.02 -3.21,-4.02 -2.11,0 -3.23,1.8 -3.23,4.02 0,2.22 1.1,4.02 3.23,4.02 2.13,0 3.21,-1.8 3.21,-4.02 z"
             id="path285" />
        </g>
        <g
           id="g293">
          <path
             class="cls-31"
             d="m 129.72,115.06 h 5.86 c 2.37,0 3.73,1.36 3.73,3.54 0,1.62 -0.7,2.68 -2.2,3.16 v 0.06 c 1.36,0.46 1.8,1.45 1.89,3.49 0.09,2.11 0.33,2.64 0.57,2.81 v 0.07 h -1.32 c -0.29,-0.2 -0.37,-0.7 -0.48,-2.94 -0.11,-2.28 -0.9,-2.92 -2.81,-2.92 h -4 v 5.86 h -1.23 v -13.12 z m 5.43,6.22 c 1.91,0 2.88,-0.94 2.88,-2.57 0,-1.63 -0.73,-2.57 -2.72,-2.57 h -4.37 v 5.14 h 4.2 z"
             id="path286" />
          <path
             class="cls-31"
             d="m 145.6,115.06 h 1.4 l 4.99,13.12 h -1.32 l -1.52,-4.13 h -5.71 l -1.54,4.13 h -1.25 l 4.96,-13.12 z m 3.18,7.99 -1.8,-4.9 c -0.28,-0.73 -0.66,-1.91 -0.66,-1.91 h -0.04 c 0,0 -0.35,1.12 -0.64,1.91 l -1.84,4.9 h 4.97 z"
             id="path287" />
          <path
             class="cls-31"
             d="m 153.68,115.06 h 1.23 v 6.99 l 7.09,-6.99 h 1.6 l -5.49,5.34 5.82,7.78 h -1.47 l -5.19,-6.94 -2.35,2.31 v 4.63 h -1.23 v -13.12 z"
             id="path288" />
          <path
             class="cls-31"
             d="m 167.59,118.73 h -2.64 v -0.81 c 1.85,-0.09 2.72,-0.51 2.94,-2.39 h 0.9 v 12.65 h -1.19 v -9.45 z"
             id="path289" />
          <path
             class="cls-31"
             d="m 171.58,125.1 h 1.21 c 0.11,1.4 1.08,2.31 2.59,2.31 0.94,0 1.65,-0.28 2.17,-0.83 0.92,-0.94 1.28,-2.57 1.3,-4.86 h -0.04 c -0.72,1.25 -1.93,1.96 -3.43,1.96 -2.31,0 -4,-1.74 -4,-4.09 -0.02,-2.39 1.71,-4.26 4.11,-4.26 1.21,0 2.09,0.39 2.81,0.99 1.3,1.07 1.71,2.94 1.71,5.64 0,2.35 -0.48,4.22 -1.65,5.38 -0.73,0.72 -1.74,1.1 -2.94,1.1 -2.2,0 -3.71,-1.32 -3.84,-3.34 z m 6.98,-5.56 c 0,-1.93 -1.27,-3.21 -3.05,-3.21 -1.78,0 -2.97,1.36 -2.97,3.23 0,1.87 1.19,3.14 2.94,3.14 1.75,0 3.08,-1.3 3.08,-3.16 z"
             id="path290" />
          <path
             class="cls-31"
             d="m 181.75,121.89 c 0,-4.08 1.82,-6.55 4.66,-6.55 2.84,0 4.64,2.44 4.64,6.55 0,4.11 -1.65,6.55 -4.66,6.55 -3.01,0 -4.64,-2.55 -4.64,-6.55 z m 8.08,0 c 0,-3.38 -1.19,-5.54 -3.41,-5.54 -2.22,0 -3.43,2.09 -3.43,5.54 0,3.45 1.19,5.53 3.43,5.53 2.24,0 3.41,-2.07 3.41,-5.53 z"
             id="path291" />
          <path
             class="cls-31"
             d="m 195.09,118.73 h -2.64 v -0.81 c 1.85,-0.09 2.72,-0.51 2.94,-2.39 h 0.9 v 12.65 h -1.19 v -9.45 z"
             id="path292" />
          <path
             class="cls-31"
             d="m 203.03,122.53 c 1.71,-1.03 2.88,-1.65 2.88,-3.49 0,-1.69 -1.06,-2.68 -2.72,-2.68 -0.88,0 -1.6,0.28 -2.09,0.81 -0.5,0.55 -0.77,1.32 -0.79,2.48 h -1.21 c 0,-1.41 0.4,-2.44 1.12,-3.16 0.75,-0.75 1.85,-1.14 3.05,-1.14 2.37,0 3.85,1.58 3.85,3.65 0,2.51 -1.8,3.4 -3.65,4.5 -1.45,0.86 -3.05,1.84 -3.3,3.58 h 6.79 v 1.1 h -8.15 c 0.06,-3.23 2.24,-4.46 4.22,-5.65 z"
             id="path293" />
        </g>
        <g
           id="g295">
          <path
             class="cls-31"
             d="m 218.22,115.06 h 1.28 l 3.4,9.69 c 0.29,0.81 0.7,2.17 0.7,2.17 h 0.04 c 0,0 0.42,-1.41 0.72,-2.22 l 3.41,-9.64 h 1.25 l -4.75,13.12 h -1.34 l -4.7,-13.12 z"
             id="path294" />
          <path
             class="cls-31"
             d="m 230.7,115.06 h 5.45 c 1.17,0 2.13,0.33 2.79,0.96 0.61,0.55 0.95,1.36 0.95,2.35 0,1.49 -0.68,2.39 -2,2.84 v 0.06 c 1.5,0.42 2.55,1.49 2.55,3.23 0,1.06 -0.33,1.93 -0.95,2.57 -0.68,0.7 -1.74,1.12 -3.1,1.12 h -5.69 v -13.12 z m 5.43,5.76 c 1.6,0 2.51,-0.94 2.51,-2.37 0,-1.43 -0.95,-2.31 -2.48,-2.31 h -4.24 v 4.68 h 4.2 z m 0.18,6.24 c 1.01,0 1.74,-0.29 2.22,-0.75 0.42,-0.42 0.66,-1.03 0.66,-1.8 0,-1.67 -1.16,-2.62 -2.88,-2.62 h -4.39 v 5.18 h 4.39 z"
             id="path295" />
        </g>
        <g
           id="g300">
          <path
             class="cls-31"
             d="m 144.61,79.53 h 1.23 c 0.13,2.22 1.63,3.47 4.09,3.47 1.93,0 3.36,-0.97 3.36,-2.75 0,-1.78 -1.23,-2.29 -4.04,-2.86 -2.42,-0.48 -4.13,-1.21 -4.13,-3.51 0,-2.09 1.76,-3.47 4.39,-3.47 2.92,0 4.39,1.58 4.63,3.84 h -1.19 c -0.22,-1.85 -1.54,-2.81 -3.41,-2.81 -2,0 -3.21,0.95 -3.21,2.4 0,1.56 1.21,2.04 3.56,2.48 2.55,0.5 4.66,1.12 4.66,3.87 0,2.33 -1.87,3.84 -4.63,3.84 -3.45,0 -5.16,-1.95 -5.3,-4.5 z"
             id="path296" />
          <path
             class="cls-31"
             d="m 156.01,79.06 c 0,-2.83 1.67,-4.97 4.41,-4.97 2.74,0 4.37,2.15 4.37,4.97 0,2.82 -1.63,4.97 -4.37,4.97 -2.74,0 -4.41,-2.15 -4.41,-4.97 z m 7.62,0 c 0,-2.22 -1.1,-4.02 -3.21,-4.02 -2.11,0 -3.23,1.8 -3.23,4.02 0,2.22 1.1,4.02 3.23,4.02 2.13,0 3.21,-1.8 3.21,-4.02 z"
             id="path297" />
          <path
             class="cls-31"
             d="m 166.64,70.67 h 1.14 v 13.12 h -1.14 z"
             id="path298" />
          <path
             class="cls-31"
             d="m 169.58,81.37 c 0,-2.26 1.76,-2.72 3.91,-2.97 1.87,-0.22 2.55,-0.33 2.55,-1.29 v -0.18 c 0,-1.29 -0.81,-1.91 -2.28,-1.91 -1.69,0 -2.57,0.7 -2.66,2.11 h -1.12 c 0.13,-1.84 1.34,-3.03 3.78,-3.03 2.07,0 3.36,0.86 3.36,2.94 v 5.16 c 0,0.57 0.22,0.81 0.62,0.83 0.13,0 0.26,-0.04 0.42,-0.07 h 0.05 v 0.83 c -0.17,0.07 -0.4,0.15 -0.77,0.15 -0.83,0 -1.34,-0.42 -1.4,-1.34 v -0.2 h -0.06 c -0.53,0.75 -1.5,1.63 -3.32,1.63 -1.82,0 -3.1,-0.88 -3.1,-2.64 z m 6.48,-1.01 v -1.71 c -0.61,0.33 -1.54,0.5 -2.46,0.62 -1.6,0.22 -2.83,0.46 -2.83,2.09 0,1.32 0.99,1.73 2.11,1.73 2.07,0 3.18,-1.43 3.18,-2.74 z"
             id="path299" />
          <path
             class="cls-31"
             d="m 179.64,74.3 h 1.14 v 1.76 h 0.04 c 0.59,-1.1 1.58,-1.84 2.9,-1.84 0.15,0 0.24,0.02 0.31,0.04 v 1.12 c -0.68,-0.11 -1.43,0.04 -2.02,0.46 -0.73,0.55 -1.23,1.43 -1.23,2.55 v 5.4 h -1.14 z"
             id="path300" />
        </g>
        <path
           class="cls-31"
           d="m 42.2,120.84 1.42,-3.69 h 0.51 l 1.22,3.61 c 0,0 0.22,0.4 0.85,0.46 l 4.96,0.04 c 0,0 1.41,-0.48 1.12,-2.26 l -2.32,-6.43 c 0,0 -0.34,-1.1 -1.03,-1.1 h -1.31 c 0,0 -0.97,-0.05 -0.44,0.95 l 2.05,5.05 c 0,0 0.56,1.14 -0.31,1.15 H 47.9 c 0,0 -0.39,0.09 -0.64,-0.53 l -2.18,-5.52 c 0,0 -0.32,-1.1 -0.87,-1.1 h -7.04 c 0,0 -1.06,-0.12 -0.85,0.95 l 1.45,4.06 c 0,0 0.31,0.53 1.02,0.67 l 1.93,0.04 c 0,0 0.37,0.06 0.06,0.48 l -1.46,2.8 c 0,0 -0.32,0.75 0.37,0.83 h 1.68 c 0,0 0.55,0 0.82,-0.47 z m 0.14,-5.55 h -1.55 c -0.83,0 -0.94,-0.3 -1.17,-0.93 -0.14,-0.48 -0.34,-0.93 0.17,-0.93 h 3.19 c 0,0 0.2,-0.05 0.32,0.22 l 0.43,1.34 c 0,0 0.14,0.3 -0.14,0.3 h -1.24 z"
           id="path301" />
        <path
           class="cls-31"
           d="m 57.45,113.31 c 0.05,1.81 -1.38,3.31 -3.18,3.36 -1.81,0.05 -3.31,-1.38 -3.36,-3.18 -0.05,-1.81 1.38,-3.31 3.18,-3.36 0.03,0 0.07,0 0.1,0 1.77,-0.03 3.23,1.37 3.26,3.14 v 0.05 m -5.73,0 c -0.04,1.36 1.03,2.5 2.39,2.54 0.03,0 0.06,0 0.1,0 1.35,0 2.43,-1.1 2.43,-2.45 0,-0.03 0,-0.05 0,-0.08 0.05,-1.36 -1.01,-2.5 -2.36,-2.55 -1.36,-0.05 -2.5,1.01 -2.55,2.36 0,0.05 0,0.11 0,0.16 m 1.96,1.67 h -0.74 v -3.18 c 0.4,-0.07 0.81,-0.1 1.22,-0.1 0.39,-0.03 0.77,0.05 1.11,0.23 0.2,0.17 0.32,0.43 0.31,0.7 -0.03,0.37 -0.3,0.67 -0.66,0.74 v 0.04 c 0.32,0.13 0.55,0.43 0.58,0.78 0.03,0.28 0.11,0.55 0.23,0.8 h -0.8 c -0.12,-0.24 -0.21,-0.51 -0.25,-0.78 -0.06,-0.35 -0.25,-0.5 -0.66,-0.5 h -0.35 v 1.28 z m 0.01,-1.81 h 0.35 c 0.41,0 0.74,-0.14 0.74,-0.47 0,-0.29 -0.21,-0.49 -0.68,-0.49 -0.14,0 -0.27,0.01 -0.41,0.04 v 0.91 z"
           id="path302" />
        <path
           class="cls-31"
           d="m 17.47,147.44 c 0.11,0.59 0.56,1.08 1.17,1.08 1.29,0 1.61,-1.69 1.67,-2.65 l -0.02,-0.02 c -0.49,0.7 -1.12,0.97 -1.97,0.97 -0.75,0 -1.51,-0.35 -2,-0.9 -0.46,-0.53 -0.67,-1.24 -0.67,-1.94 0,-1.78 1.22,-3.19 3.05,-3.19 2.64,0 3.35,2.3 3.35,4.51 0,2.21 -0.95,4.55 -3.42,4.55 -1.51,0 -2.63,-0.87 -2.82,-2.41 h 1.68 z m 2.68,-3.57 c 0,-0.81 -0.51,-1.62 -1.41,-1.62 -0.85,0 -1.33,0.8 -1.33,1.59 0,0.79 0.42,1.64 1.33,1.64 0.91,0 1.41,-0.76 1.41,-1.62 z"
           id="path303" />
        <path
           class="cls-31"
           d="M 26.18,147.67 H 22.5 v -1.62 l 3.78,-5.08 h 1.58 v 5.24 h 1.16 v 1.46 h -1.16 v 2.02 h -1.68 z m 0,-4.48 h -0.04 l -2.25,3.02 h 2.29 z"
           id="path304" />
        <path
           class="cls-31"
           d="M 34.2,149.68 H 32 l -2.89,-8.89 h 2.02 l 1.98,6.25 h 0.03 l 2,-6.25 h 2.02 l -2.95,8.89 z"
           id="path305" />
        <path
           class="cls-31"
           d="m 37.71,145.53 h 3.75 v 1.52 h -3.75 z"
           id="path306" />
        <path
           class="cls-31"
           d="m 45.57,140.8 c 1.74,0 3.21,1.1 3.21,4.49 0,3.39 -1.47,4.57 -3.21,4.57 -1.74,0 -3.19,-1.1 -3.19,-4.57 0,-3.47 1.46,-4.49 3.19,-4.49 z m 0,7.6 c 1.44,0 1.44,-2.13 1.44,-3.11 0,-0.91 0,-3.04 -1.44,-3.04 -1.44,0 -1.42,2.13 -1.42,3.04 0,0.98 0,3.11 1.42,3.11 z"
           id="path307" />
        <path
           class="cls-31"
           d="m 14.58,146.52 c 0.39,0 0.08,-0.39 -0.03,-0.54 l -2.92,-3.96 c -0.13,-0.18 -0.34,-0.18 -0.47,0 l -2.92,3.96 c -0.11,0.15 -0.35,0.54 -0.03,0.54 z"
           id="path308" />
        <path
           class="cls-31"
           d="m 25.69,167.78 c -0.28,0 -0.05,0.39 0.02,0.54 l 2.06,3.96 c 0.09,0.18 0.24,0.18 0.33,0 l 2.06,-3.96 c 0.08,-0.15 0.25,-0.54 0.02,-0.54 h -4.5 z"
           id="path309" />
        <path
           class="cls-31"
           d="m 54.62,167.78 c -0.28,0 -0.05,0.39 0.02,0.54 l 2.06,3.96 c 0.09,0.18 0.24,0.18 0.33,0 l 2.06,-3.96 c 0.08,-0.15 0.25,-0.54 0.02,-0.54 h -4.5 z"
           id="path310" />
        <path
           class="cls-31"
           d="M 8.38,117.02 C 8.17,117.02 8,116.85 8,116.64 v -2.27 c 0,-0.21 0.17,-0.38 0.38,-0.38 0.21,0 0.38,0.17 0.38,0.38 v 2.27 c 0,0.21 -0.17,0.38 -0.38,0.38 z"
           id="path311" />
        <path
           class="cls-31"
           d="m 2.77,121.79 c -0.21,0 -0.38,-0.17 -0.38,-0.38 v -2.27 c 0,-0.21 0.17,-0.38 0.38,-0.38 0.21,0 0.38,0.17 0.38,0.38 v 2.27 c 0,0.21 -0.17,0.38 -0.38,0.38 z"
           id="path312" />
        <g
           id="g315">
          <path
             class="cls-31"
             d="M 6.71,113.49 H 4.44 c -0.21,0 -0.38,-0.17 -0.38,-0.38 0,-0.21 0.17,-0.38 0.38,-0.38 h 2.27 c 0.21,0 0.38,0.17 0.38,0.38 0,0.21 -0.17,0.38 -0.38,0.38 z"
             id="path313" />
          <path
             class="cls-31"
             d="M 6.71,118.27 H 4.44 c -0.21,0 -0.38,-0.17 -0.38,-0.38 0,-0.21 0.17,-0.38 0.38,-0.38 h 2.27 c 0.21,0 0.38,0.17 0.38,0.38 0,0.21 -0.17,0.38 -0.38,0.38 z"
             id="path314" />
          <path
             class="cls-31"
             d="M 6.71,123.04 H 4.44 c -0.21,0 -0.38,-0.17 -0.38,-0.38 0,-0.21 0.17,-0.38 0.38,-0.38 h 2.27 c 0.21,0 0.38,0.17 0.38,0.38 0,0.21 -0.17,0.38 -0.38,0.38 z"
             id="path315" />
        </g>
        <path
           class="cls-31"
           d="m 16.85,117.02 c -0.21,0 -0.38,-0.17 -0.38,-0.38 v -2.27 c 0,-0.21 0.17,-0.38 0.38,-0.38 0.21,0 0.38,0.17 0.38,0.38 v 2.27 c 0,0.21 -0.17,0.38 -0.38,0.38 z"
           id="path316" />
        <path
           class="cls-31"
           d="m 19.47,117.02 c -0.21,0 -0.38,-0.17 -0.38,-0.38 v -2.27 c 0,-0.21 0.17,-0.38 0.38,-0.38 0.21,0 0.38,0.17 0.38,0.38 v 2.27 c 0,0.21 -0.17,0.38 -0.38,0.38 z"
           id="path317" />
        <path
           class="cls-31"
           d="m 11.25,121.79 c -0.21,0 -0.38,-0.17 -0.38,-0.38 v -2.27 c 0,-0.21 0.17,-0.38 0.38,-0.38 0.21,0 0.38,0.17 0.38,0.38 v 2.27 c 0,0.21 -0.17,0.38 -0.38,0.38 z"
           id="path318" />
        <path
           class="cls-31"
           d="m 19.47,121.79 c -0.21,0 -0.38,-0.17 -0.38,-0.38 v -2.27 c 0,-0.21 0.17,-0.38 0.38,-0.38 0.21,0 0.38,0.17 0.38,0.38 v 2.27 c 0,0.21 -0.17,0.38 -0.38,0.38 z"
           id="path319" />
        <path
           class="cls-31"
           d="m 24.98,117.02 c -0.21,0 -0.38,-0.17 -0.38,-0.38 v -2.27 c 0,-0.21 0.17,-0.38 0.38,-0.38 0.21,0 0.38,0.17 0.38,0.38 v 2.27 c 0,0.21 -0.17,0.38 -0.38,0.38 z"
           id="path320" />
        <path
           class="cls-31"
           d="m 27.4,117.02 c -0.21,0 -0.38,-0.17 -0.38,-0.38 v -2.27 c 0,-0.21 0.17,-0.38 0.38,-0.38 0.21,0 0.38,0.17 0.38,0.38 v 2.27 c 0,0.21 -0.17,0.38 -0.38,0.38 z"
           id="path321" />
        <path
           class="cls-31"
           d="m 24.98,121.79 c -0.21,0 -0.38,-0.17 -0.38,-0.38 v -2.27 c 0,-0.21 0.17,-0.38 0.38,-0.38 0.21,0 0.38,0.17 0.38,0.38 v 2.27 c 0,0.21 -0.17,0.38 -0.38,0.38 z"
           id="path322" />
        <path
           class="cls-31"
           d="m 33.3,117.02 c -0.21,0 -0.38,-0.17 -0.38,-0.38 v -2.27 c 0,-0.21 0.17,-0.38 0.38,-0.38 0.21,0 0.38,0.17 0.38,0.38 v 2.27 c 0,0.21 -0.17,0.38 -0.38,0.38 z"
           id="path323" />
        <path
           class="cls-31"
           d="m 33.3,121.79 c -0.21,0 -0.38,-0.17 -0.38,-0.38 v -2.27 c 0,-0.21 0.17,-0.38 0.38,-0.38 0.21,0 0.38,0.17 0.38,0.38 v 2.27 c 0,0.21 -0.17,0.38 -0.38,0.38 z"
           id="path324" />
        <path
           class="cls-31"
           d="m 15.19,113.49 h -2.27 c -0.21,0 -0.38,-0.17 -0.38,-0.38 0,-0.21 0.17,-0.38 0.38,-0.38 h 2.27 c 0.21,0 0.38,0.17 0.38,0.38 0,0.21 -0.17,0.38 -0.38,0.38 z"
           id="path325" />
        <path
           class="cls-31"
           d="m 15.19,118.27 h -2.27 c -0.21,0 -0.38,-0.17 -0.38,-0.38 0,-0.21 0.17,-0.38 0.38,-0.38 h 2.27 c 0.21,0 0.38,0.17 0.38,0.38 0,0.21 -0.17,0.38 -0.38,0.38 z"
           id="path326" />
        <path
           class="cls-31"
           d="m 15.19,123.04 h -2.27 c -0.21,0 -0.38,-0.17 -0.38,-0.38 0,-0.21 0.17,-0.38 0.38,-0.38 h 2.27 c 0.21,0 0.38,0.17 0.38,0.38 0,0.21 -0.17,0.38 -0.38,0.38 z"
           id="path327" />
        <path
           class="cls-31"
           d="m 31.42,113.49 h -2.27 c -0.21,0 -0.38,-0.17 -0.38,-0.38 0,-0.21 0.17,-0.38 0.38,-0.38 h 2.27 c 0.21,0 0.38,0.17 0.38,0.38 0,0.21 -0.17,0.38 -0.38,0.38 z"
           id="path328" />
        <path
           class="cls-31"
           d="m 31.42,118.27 h -2.27 c -0.21,0 -0.38,-0.17 -0.38,-0.38 0,-0.21 0.17,-0.38 0.38,-0.38 h 2.27 c 0.21,0 0.38,0.17 0.38,0.38 0,0.21 -0.17,0.38 -0.38,0.38 z"
           id="path329" />
        <path
           class="cls-31"
           d="m 31.42,123.04 h -2.27 c -0.21,0 -0.38,-0.17 -0.38,-0.38 0,-0.21 0.17,-0.38 0.38,-0.38 h 2.27 c 0.21,0 0.38,0.17 0.38,0.38 0,0.21 -0.17,0.38 -0.38,0.38 z"
           id="path330" />
        <path
           class="cls-31"
           d="m 23.3,113.49 h -2.27 c -0.21,0 -0.38,-0.17 -0.38,-0.38 0,-0.21 0.17,-0.38 0.38,-0.38 h 2.27 c 0.21,0 0.38,0.17 0.38,0.38 0,0.21 -0.17,0.38 -0.38,0.38 z"
           id="path331" />
        <path
           class="cls-31"
           d="m 23.3,123.04 h -2.27 c -0.21,0 -0.38,-0.17 -0.38,-0.38 0,-0.21 0.17,-0.38 0.38,-0.38 h 2.27 c 0.21,0 0.38,0.17 0.38,0.38 0,0.21 -0.17,0.38 -0.38,0.38 z"
           id="path332" />
        <g
           id="g339">
          <path
             class="cls-31"
             d="m 11.77,152.61 h 1.31 v 2.01 h 1.86 v -2.01 h 1.31 v 5.29 h -1.31 v -2.21 h -1.86 v 2.21 h -1.31 z"
             id="path333" />
          <path
             class="cls-31"
             d="m 20.7,157.69 c -0.38,0.21 -0.82,0.33 -1.33,0.33 -1.6,0 -2.6,-1.18 -2.6,-2.76 0,-1.58 1.01,-2.76 2.6,-2.76 1.59,0 2.61,1.18 2.61,2.76 0,0.73 -0.21,1.38 -0.61,1.86 l 0.6,0.56 -0.61,0.64 -0.67,-0.64 z m -0.85,-0.82 -0.48,-0.47 0.61,-0.63 0.49,0.47 c 0.13,-0.27 0.19,-0.61 0.19,-0.98 0,-0.96 -0.41,-1.7 -1.27,-1.7 -0.86,0 -1.28,0.74 -1.28,1.7 0,0.96 0.43,1.7 1.28,1.7 0.18,0 0.33,-0.03 0.47,-0.09 z"
             id="path334" />
          <path
             class="cls-31"
             d="m 22.49,152.61 h 2.38 c 0.64,0 1.12,0.18 1.44,0.49 0.34,0.32 0.53,0.77 0.53,1.3 0,1.01 -0.7,1.73 -1.79,1.73 h -1.24 v 1.77 h -1.33 v -5.29 z m 2.3,2.49 c 0.47,0 0.74,-0.28 0.74,-0.7 0,-0.42 -0.27,-0.68 -0.74,-0.68 h -0.97 v 1.38 z"
             id="path335" />
          <path
             class="cls-31"
             d="m 27.18,155.27 c 0,-1.58 1.03,-2.77 2.6,-2.77 0.61,0 1.13,0.18 1.51,0.47 0.46,0.35 0.73,0.87 0.79,1.46 h -1.31 c -0.07,-0.47 -0.44,-0.84 -1,-0.84 -0.86,0 -1.27,0.72 -1.27,1.68 0,0.96 0.49,1.67 1.27,1.67 0.58,0 0.97,-0.37 1.03,-0.88 h 1.31 c -0.04,0.53 -0.27,1.01 -0.64,1.35 -0.41,0.39 -0.95,0.6 -1.69,0.6 -1.55,0 -2.61,-1.16 -2.61,-2.75 z"
             id="path336" />
          <path
             class="cls-31"
             d="m 32.59,152.61 h 2.55 c 0.55,0 0.95,0.13 1.24,0.36 0.3,0.25 0.46,0.59 0.46,1.01 0,0.53 -0.27,0.86 -0.74,1.04 v 0.02 c 0.58,0.18 0.95,0.67 0.95,1.29 0,0.53 -0.19,0.92 -0.54,1.18 -0.31,0.24 -0.75,0.38 -1.3,0.38 H 32.6 v -5.29 z m 2.36,2.09 c 0.38,0 0.64,-0.18 0.64,-0.53 0,-0.35 -0.24,-0.53 -0.63,-0.53 h -1.07 v 1.06 h 1.07 z m 0.1,2.15 c 0.43,0 0.7,-0.24 0.7,-0.62 0,-0.42 -0.31,-0.64 -0.71,-0.64 h -1.15 v 1.26 h 1.17 z"
             id="path337" />
          <path
             class="cls-31"
             d="m 37.54,155.52 h 2.01 v 1.04 h -2.01 z"
             id="path338" />
          <path
             class="cls-31"
             d="m 40.65,154.66 h -1.09 v -0.84 c 0.67,-0.02 1.22,-0.34 1.35,-1.03 h 0.99 v 5.11 h -1.25 z"
             id="path339" />
        </g>
        <g
           id="g346">
          <path
             class="cls-31"
             d="m 9.94,159.83 h 4.8 v 1.29 H 11.5 v 1.13 h 2.77 v 1.22 H 11.5 v 1.36 h 3.29 v 1.33 H 9.93 v -6.34 z"
             id="path340" />
          <path
             class="cls-31"
             d="m 18.09,164.82 h -2.83 v -1.37 l 2.81,-3.41 h 1.47 v 3.65 h 0.88 v 1.13 h -0.88 v 1.35 h -1.45 z m 0,-1.13 v -2.08 h -0.02 l -1.68,2.07 v 0.02 h 1.7 z"
             id="path341" />
          <path
             class="cls-31"
             d="m 20.8,163.18 c 0,-0.99 0.21,-1.84 0.74,-2.43 0.43,-0.5 1.05,-0.78 1.92,-0.78 1.26,0 2.06,0.64 2.24,1.62 h -1.43 c -0.09,-0.3 -0.3,-0.56 -0.8,-0.56 -0.74,0 -1.15,0.56 -1.2,1.53 h 0.02 c 0.33,-0.35 0.74,-0.58 1.39,-0.58 1.17,0 2.19,0.85 2.19,2.15 0,1.3 -1.02,2.16 -2.41,2.16 -1.78,0 -2.66,-1.32 -2.67,-3.13 z m 3.66,0.97 c 0,-0.6 -0.43,-1.06 -1.05,-1.06 -0.65,0 -1.06,0.45 -1.06,1.06 0,0.61 0.43,1.04 1.06,1.04 0.63,0 1.05,-0.44 1.05,-1.04 z"
             id="path342" />
          <path
             class="cls-31"
             d="m 26.39,164.66 h 1.42 c 0.09,0.3 0.35,0.58 0.85,0.58 0.34,0 0.6,-0.11 0.79,-0.35 0.21,-0.26 0.33,-0.67 0.35,-1.21 h -0.02 c -0.31,0.34 -0.73,0.59 -1.36,0.59 -1.22,0 -2.22,-0.84 -2.22,-2.15 0,-1.31 1.03,-2.16 2.45,-2.16 0.75,0 1.4,0.25 1.83,0.68 0.54,0.52 0.8,1.33 0.8,2.44 0,0.94 -0.2,1.79 -0.63,2.36 -0.43,0.56 -1.06,0.86 -1.95,0.86 -1.31,0 -2.14,-0.67 -2.3,-1.65 z m 3.38,-2.53 c 0,-0.61 -0.45,-1.05 -1.08,-1.05 -0.63,0 -1.06,0.45 -1.06,1.05 0,0.6 0.41,1.06 1.06,1.06 0.62,0 1.08,-0.43 1.08,-1.05 z"
             id="path343" />
          <path
             class="cls-31"
             d="m 34.43,161.38 v -0.02 H 31.5 v -1.27 h 4.49 v 1.15 c -1.06,1.07 -2.03,2.84 -2.09,4.92 h -1.56 c 0.08,-2.21 1.22,-3.91 2.08,-4.79 z"
             id="path344" />
          <path
             class="cls-31"
             d="m 38.71,164.82 h -2.83 v -1.37 l 2.81,-3.41 h 1.47 v 3.65 h 0.88 v 1.13 h -0.88 v 1.35 h -1.45 z m 0,-1.13 v -2.08 h -0.02 l -1.68,2.07 v 0.02 h 1.7 z"
             id="path345" />
          <path
             class="cls-31"
             d="m 44.1,161.38 v -0.02 h -2.93 v -1.27 h 4.49 v 1.15 c -1.06,1.07 -2.03,2.84 -2.09,4.92 h -1.56 c 0.08,-2.21 1.22,-3.91 2.08,-4.79 z"
             id="path346" />
        </g>
        <g
           id="g372">
          <path
             class="cls-31"
             d="m 215.09,141.47 23.18,47.65 h -46.36 z m 0,-2.6 -25,51.38 h 50 z"
             id="path347" />
          <rect
             class="cls-31"
             x="218.47"
             y="153.14999"
             width="1.14"
             height="32.91"
             transform="rotate(-60.48,219.05853,169.61062)"
             id="rect347" />
          <rect
             class="cls-31"
             x="218.89"
             y="154.53"
             width="1.14"
             height="36.41"
             transform="rotate(-60.48,219.46248,172.74204)"
             id="rect348" />
          <path
             class="cls-31"
             d="m 208.48,163.61 -1.01,-0.53 c 0.08,-0.14 1.86,-3.52 3.32,-5.56 1.54,-2.15 9.91,-3.98 10.86,-4.18 l 0.23,1.11 c -3.42,0.72 -9.21,2.38 -10.17,3.73 -1.41,1.98 -3.22,5.39 -3.23,5.43"
             id="path348" />
          <path
             class="cls-31"
             d="m 222.88,172.12 -0.57,-0.98 c 1.17,-0.68 2.27,-2.22 2.11,-3.85 -0.2,-2.04 0.81,-5.11 0.85,-5.24 l 1.08,0.36 c 0,0 -0.98,2.96 -0.8,4.76 0.22,2.21 -1.23,4.11 -2.67,4.95"
             id="path349" />
          <path
             class="cls-31"
             d="m 210.75,178.19 c -0.14,0 -0.29,0 -0.44,-0.03 -2.36,-0.3 -5.36,-7.73 -5.39,-7.8 -1.1,-2.75 1.36,-5.11 1.47,-5.21 l 0.78,0.83 c 0,0 -2,1.94 -1.2,3.96 1.3,3.25 3.49,6.97 4.48,7.1 0.53,0.06 0.84,-0.04 0.91,-0.17 0.09,-0.16 -0.02,-0.58 -0.46,-1.14 -1.18,-1.47 -2.57,-4.74 -2.44,-5.75 0.11,-0.85 1.07,-2.46 1.27,-2.77 l 0.97,0.6 c -0.43,0.69 -1.05,1.87 -1.11,2.31 -0.06,0.54 1.07,3.48 2.2,4.9 0.98,1.22 0.77,2.03 0.56,2.4 -0.28,0.5 -0.86,0.77 -1.61,0.77"
             id="path350" />
          <path
             class="cls-31"
             d="m 215.2,180.44 c -0.24,0 -0.48,-0.05 -0.69,-0.16 -0.41,-0.21 -0.87,-0.74 -0.72,-1.98 0.31,-2.56 3.6,-6.6 3.74,-6.77 l 0.88,0.72 c -0.9,1.09 -3.27,4.33 -3.49,6.18 -0.06,0.51 0.01,0.79 0.12,0.84 0.29,0.15 1.26,-0.23 2.08,-0.95 0.94,-0.83 2.96,-3.8 3.66,-4.88 l 0.95,0.62 c -0.11,0.17 -2.61,4.01 -3.86,5.12 -0.61,0.53 -1.72,1.26 -2.67,1.26"
             id="path351" />
          <path
             class="cls-31"
             d="m 214.84,176.35 c -1.53,0 -4.14,-1.55 -4.68,-1.89 l 0.59,-0.97 c 1.84,1.13 3.88,1.94 4.26,1.69 0.15,-0.25 0.19,-0.52 0.1,-0.81 -0.21,-0.66 -1.07,-1.38 -2.38,-1.96 -1.02,-0.45 -1.64,-1.05 -1.86,-1.77 -0.31,-1.02 0.29,-1.95 0.6,-2.45 l 0.96,0.61 c -0.31,0.49 -0.62,1.04 -0.48,1.52 0.12,0.39 0.53,0.74 1.24,1.06 1.65,0.74 2.68,1.66 2.99,2.66 0.19,0.6 0.11,1.2 -0.23,1.75 -0.11,0.18 -0.33,0.42 -0.73,0.51 -0.12,0.03 -0.26,0.04 -0.4,0.04"
             id="path352" />
          <rect
             class="cls-31"
             x="212.92"
             y="144.06"
             width="4.5700002"
             height="1.14"
             id="rect352" />
          <rect
             class="cls-31"
             x="211.57001"
             y="146.84"
             width="7.04"
             height="1.14"
             id="rect353" />
          <rect
             class="cls-31"
             x="210.22"
             y="149.62"
             width="9.7399998"
             height="1.14"
             id="rect354" />
          <rect
             class="cls-31"
             x="208.87"
             y="152.39999"
             width="12.45"
             height="1.14"
             id="rect355" />
          <rect
             class="cls-31"
             x="207.75"
             y="155.17999"
             width="7.3800001"
             height="1.14"
             id="rect356" />
          <rect
             class="cls-31"
             x="206.16"
             y="157.96001"
             width="4.6300001"
             height="1.14"
             id="rect357" />
          <rect
             class="cls-31"
             x="205.06"
             y="160.74001"
             width="3.9400001"
             height="1.14"
             id="rect358" />
          <rect
             class="cls-31"
             x="202.10001"
             y="166.3"
             width="3.6900001"
             height="1.14"
             id="rect359" />
          <rect
             class="cls-31"
             x="225.13"
             y="166.3"
             width="2.95"
             height="1.14"
             id="rect360" />
          <rect
             class="cls-31"
             x="200.75"
             y="169.08"
             width="4.6999998"
             height="1.14"
             id="rect361" />
          <rect
             class="cls-31"
             x="224.62"
             y="169.08"
             width="4.6999998"
             height="1.14"
             id="rect362" />
          <rect
             class="cls-31"
             x="199.66"
             y="171.86"
             width="6.8200002"
             height="1.14"
             id="rect363" />
          <rect
             class="cls-31"
             x="224.02"
             y="171.86"
             width="6.77"
             height="1.14"
             id="rect364" />
          <rect
             class="cls-31"
             x="198.02"
             y="174.64"
             width="9.9899998"
             height="1.14"
             id="rect365" />
          <rect
             class="cls-31"
             x="220.28"
             y="174.64"
             width="3.5699999"
             height="1.14"
             id="rect366" />
          <rect
             class="cls-31"
             x="228.92999"
             y="174.64"
             width="3.04"
             height="1.14"
             id="rect367" />
          <rect
             class="cls-31"
             x="196.69"
             y="177.42"
             width="17.629999"
             height="1.14"
             id="rect368" />
          <rect
             class="cls-31"
             x="218.21001"
             y="177.42"
             width="10.72"
             height="1.14"
             id="rect369" />
          <rect
             class="cls-31"
             x="195.77"
             y="180.2"
             width="37.73"
             height="1.14"
             id="rect370" />
          <rect
             class="cls-31"
             x="193.99001"
             y="182.98"
             width="42.209999"
             height="1.14"
             id="rect371" />
          <rect
             class="cls-31"
             x="192.50999"
             y="185.75999"
             width="44.990002"
             height="1.14"
             id="rect372" />
        </g>
        <g
           id="g373">
          <path
             class="cls-31"
             d="m 82.43,155.4 c -0.06,0 -0.12,0 -0.18,0 -0.96,0 -1.73,0.77 -1.73,1.73 0,0.96 0,0.22 0.03,0.33 0.15,0.8 0.86,1.41 1.7,1.41 0.58,0 1.09,-0.28 1.4,-0.72 0.21,-0.28 0.33,-0.63 0.33,-1.02 0,-0.27 -0.06,-0.52 -0.17,-0.75 -0.25,-0.53 -0.77,-0.91 -1.38,-0.97 m -0.18,2.12 c -0.09,0 -0.17,-0.03 -0.23,-0.07 -0.11,-0.07 -0.17,-0.19 -0.17,-0.33 0,-0.14 0.18,-0.4 0.4,-0.4 0.02,0 0.04,0 0.06,0 0.19,0.03 0.34,0.19 0.34,0.4 0,0.22 -0.18,0.4 -0.4,0.4"
             id="path372" />
          <path
             class="cls-31"
             d="m 84.17,152.42 c 0.03,-0.37 0.07,-0.74 0.1,-1.11 l 7.39,7.72 v -1.71 l -7.24,-7.56 c 0.27,-2.95 0.54,-5.89 0.81,-8.8 0.39,-4.23 0.79,-8.49 1.19,-12.73 h 3.72 v -5.44 h -1.49 l 3.03,-3.16 v -1.71 l -2.97,3.1 -1.69,1.77 -0.08,0.08 c 0,0 0,-0.05 0,-0.08 0.05,-0.6 0.11,-1.18 0.17,-1.77 h 1.6 v -0.87 c 0.79,-0.3 1.36,-1.06 1.36,-1.95 0,-1.15 -0.93,-2.09 -2.08,-2.09 -0.69,0 -1.3,0.33 -1.67,0.85 -0.81,-0.6 -1.79,-1.13 -2.48,-1.38 -1.77,-0.65 -3.63,-1.02 -5.17,-1.23 v -1.18 h -7.84 v 0.95 c -1,0.07 -2.51,0.21 -4.17,0.56 v -0.66 h -3.41 v 1.63 c -0.96,0.39 -2.37,1.23 -3.16,2.03 -0.15,0.15 -0.23,0.37 -0.21,0.58 0.02,0.17 0.03,0.34 0.05,0.51 H 58 v 2.25 h 2.14 c 0.12,1.24 0.23,2.49 0.35,3.74 l -3.97,-4.14 v 1.71 l 4.15,4.33 c 0.45,4.77 0.9,9.55 1.34,14.31 0.22,2.39 0.44,4.81 0.66,7.24 l -6.15,6.42 v 1.71 l 6.29,-6.57 c 0.26,2.82 0.51,5.66 0.77,8.49 0.03,0.37 0.35,0.66 0.73,0.66 v 3.64 h 2.99 v -3.64 h 10.22 c 0.72,1.92 2.58,3.29 4.75,3.29 2.8,0 5.08,-2.27 5.08,-5.08 0,-2.13 -1.31,-3.95 -3.16,-4.7 m 3.79,-35.15 c 0.51,0 0.93,0.42 0.93,0.93 0,0.22 -0.08,0.41 -0.2,0.57 h -1.38 c 0.02,-0.17 0.03,-0.34 0.05,-0.51 0.02,-0.2 -0.05,-0.4 -0.19,-0.55 0.17,-0.26 0.46,-0.44 0.79,-0.44 m -1.22,7.49 0.7,-0.73 h 1.35 v 2.95 h -2.26 c 0.07,-0.74 0.14,-1.48 0.21,-2.22 m -2.98,16.06 c -0.23,2.49 -0.46,5 -0.69,7.53 l -9.46,-9.88 5.8,-6.05 h 1.42 v -1.49 l 4.02,-4.2 v 1.49 h 0.09 c -0.4,4.2 -0.79,8.41 -1.18,12.6 m -4.8,-9.65 h -7.17 v -1.06 h 7.7 v 0.51 z m -6.82,-16.75 h 5.16 v 1.07 h -5.16 z m -5.51,1.76 c 1.67,-0.36 3.22,-0.52 4.17,-0.58 v 1.14 h 7.84 v -0.91 c 1.41,0.2 3.1,0.54 4.67,1.12 0.71,0.26 1.85,0.92 2.56,1.53 -0.01,0.1 -0.02,0.19 -0.03,0.29 H 66.65 Z m -2.08,-0.91 h 0.74 v 2.26 h -0.74 z m -3.21,3.21 c 0.51,-0.44 1.24,-0.9 1.87,-1.22 v 1.51 h -1.85 c 0,-0.1 -0.02,-0.19 -0.03,-0.29 m 0.24,2.54 h 24.04 c -0.06,0.59 -0.11,1.18 -0.17,1.77 h -0.6 v 2.23 l -4.02,4.2 v -0.37 H 70.46 v 3.57 h 7.31 l -4.98,5.2 -10.69,-11.16 c -0.17,-1.82 -0.34,-3.63 -0.51,-5.44 m 1.86,19.81 c -0.39,-4.15 -0.78,-8.32 -1.17,-12.47 l 9.7,10.12 -7.98,8.33 c -0.18,-2.01 -0.37,-4 -0.55,-5.98 m 2.67,20.74 h -0.65 v -1.77 h 0.65 z m 11.07,-4.45 c 0,0.11 0,0.22 0.01,0.33 H 64.97 c -0.27,-3.03 -0.55,-6.07 -0.83,-9.08 l 8.65,-9.04 10.14,10.58 c -0.07,0.72 -0.13,1.44 -0.2,2.16 -0.16,-0.02 -0.32,-0.02 -0.48,-0.02 -2.8,0 -5.08,2.27 -5.08,5.07 m 5.08,2.65 c -0.77,0 -1.46,-0.33 -1.95,-0.85 -0.36,-0.39 -0.61,-0.9 -0.68,-1.46 -0.02,-0.11 -0.02,-0.21 -0.02,-0.33 0,-1.46 1.18,-2.65 2.65,-2.65 0.09,0 0.18,0 0.26,0.01 0.53,0.05 1.02,0.26 1.41,0.59 0.59,0.49 0.97,1.22 0.97,2.05 0,1.46 -1.18,2.65 -2.65,2.65"
             id="path373" />
        </g>
        <g
           id="g382">
          <polygon
             class="cls-31"
             points="164.06,141.19 161.59,141.19 161.59,138.38 154.4,138.38 154.4,141.19 151.76,141.19 151.76,138.38 143.95,138.38 143.95,141.19 141.33,141.19 141.33,138.38 134.32,138.38 134.32,141.19 131.53,141.19 131.53,155.94 164.06,155.94 "
             id="polygon373" />
          <g
             id="g381">
            <path
               class="cls-31"
               d="m 119.62,171.45 h 1.37 l 1.43,5.99 v 0 l 1.57,-5.99 h 1.43 l 1.51,5.99 v 0 l 1.45,-5.99 h 1.4 l -2.01,7.83 h -1.4 l -1.57,-5.99 v 0 l -1.59,5.99 h -1.43 l -2.15,-7.83 z"
               id="path374" />
            <path
               class="cls-31"
               d="m 130.55,171.45 h 1.23 v 1.17 h -1.23 z m 0,2.15 h 1.23 v 5.59 h -1.23 z"
               id="path375" />
            <path
               class="cls-31"
               d="m 134.11,177.46 c 0,0.73 0.62,0.98 1.29,0.98 0.67,0 1.31,0 1.26,-0.76 -0.05,-0.76 -0.92,-0.73 -1.85,-0.95 -0.92,-0.22 -1.82,-0.5 -1.82,-1.65 0,-1.15 1.34,-1.65 2.38,-1.65 1.04,0 2.21,0.48 2.35,1.76 h -1.29 c 0,-0.62 -0.59,-0.76 -1.15,-0.76 -0.56,0 -1.04,0 -1.04,0.59 0,0.59 0.92,0.7 1.85,0.9 0.92,0.2 1.82,0.53 1.82,1.65 0,1.12 -1.34,1.85 -2.52,1.85 -1.18,0 -2.49,-0.64 -2.52,-1.96 h 1.23 z"
               id="path376" />
            <path
               class="cls-31"
               d="m 138.95,171.45 h 3.69 c 1.51,0 2.52,0.48 2.52,1.93 0.01,0.71 -0.41,1.37 -1.06,1.65 0.89,0.23 1.5,1.07 1.43,1.99 0,1.57 -1.34,2.27 -2.8,2.27 h -3.78 v -7.83 z m 1.73,3.16 h 1.73 c 0.62,0 1.06,-0.28 1.06,-0.92 0,-0.64 -0.56,-0.92 -1.17,-0.92 h -1.62 v 1.85 z m 0,3.33 h 1.85 c 0.67,0 1.26,-0.22 1.26,-1.04 0,-0.82 -0.48,-1.12 -1.23,-1.12 h -1.87 v 2.15 z"
               id="path377" />
            <path
               class="cls-31"
               d="m 146.67,171.45 h 1.73 v 6.52 h 3.8 v 1.45 h -5.59 z"
               id="path378" />
            <path
               class="cls-31"
               d="m 156.68,171.25 c 2.1,-0.02 3.82,1.66 3.85,3.76 0,0.13 0,0.25 -0.01,0.38 0.18,2.12 -1.39,3.99 -3.52,4.17 -2.12,0.18 -3.99,-1.39 -4.17,-3.52 -0.02,-0.22 -0.02,-0.44 0,-0.66 -0.19,-2.09 1.36,-3.94 3.45,-4.13 0.14,-0.01 0.27,-0.02 0.41,-0.01 z m 0,6.77 c 1.54,0 2.13,-1.31 2.13,-2.63 0,-1.32 -0.59,-2.8 -2.13,-2.8 -1.54,0 -2.13,1.31 -2.13,2.8 0,1.49 0.56,2.57 2.13,2.57 z"
               id="path379" />
            <path
               class="cls-31"
               d="m 166.92,174.08 c -0.16,-0.81 -0.88,-1.39 -1.71,-1.37 -1.54,0 -2.13,1.31 -2.13,2.8 0,1.49 0.59,2.63 2.13,2.63 0.98,0 1.78,-0.78 1.79,-1.76 h 1.65 c -0.04,1.81 -1.54,3.24 -3.35,3.19 -0.03,0 -0.06,0 -0.09,0 -2.07,0.09 -3.82,-1.51 -3.91,-3.58 0,-0.2 0,-0.39 0.02,-0.59 -0.19,-2.09 1.36,-3.94 3.45,-4.13 0.13,-0.01 0.25,-0.02 0.38,-0.01 1.69,-0.12 3.18,1.11 3.38,2.8 l -1.62,0.03 z"
               id="path380" />
            <path
               class="cls-31"
               d="m 169.72,171.45 h 1.71 v 3.25 l 3.08,-3.25 h 2.15 l -3.08,3.08 3.36,4.76 h -2.15 l -2.27,-3.52 -1.01,0.98 v 2.55 h -1.79 v -7.83 z"
               id="path381" />
          </g>
        </g>
        <path
           class="cls-31"
           d="m 130.28,96.54 h -14.67 c -0.49,0 -0.88,-0.4 -0.88,-0.88 V 88.2 c 0,-0.49 0.4,-0.88 0.88,-0.88 h 14.67 c 0.49,0 0.88,0.4 0.88,0.88 v 7.46 c 0,0.49 -0.4,0.88 -0.88,0.88 z m -14.67,-8.72 c -0.21,0 -0.38,0.17 -0.38,0.38 v 7.46 c 0,0.21 0.17,0.38 0.38,0.38 h 14.67 c 0.21,0 0.38,-0.17 0.38,-0.38 V 88.2 c 0,-0.21 -0.17,-0.38 -0.38,-0.38 z"
           id="path382" />
        <path
           class="cls-31"
           d="M 15.14,193.1 H 7.68 c -0.49,0 -0.88,-0.4 -0.88,-0.88 v -14.67 c 0,-0.49 0.4,-0.88 0.88,-0.88 h 7.46 c 0.49,0 0.88,0.4 0.88,0.88 v 14.67 c 0,0.49 -0.4,0.88 -0.88,0.88 z M 7.68,177.17 c -0.21,0 -0.38,0.17 -0.38,0.38 v 14.67 c 0,0.21 0.17,0.38 0.38,0.38 h 7.46 c 0.21,0 0.38,-0.17 0.38,-0.38 v -14.67 c 0,-0.21 -0.17,-0.38 -0.38,-0.38 z"
           id="path383" />
        <path
           class="cls-31"
           d="m 43.22,193.1 h -7.46 c -0.49,0 -0.88,-0.4 -0.88,-0.88 v -14.67 c 0,-0.49 0.4,-0.88 0.88,-0.88 h 7.46 c 0.49,0 0.88,0.4 0.88,0.88 v 14.67 c 0,0.49 -0.4,0.88 -0.88,0.88 z m -7.46,-15.93 c -0.21,0 -0.38,0.17 -0.38,0.38 v 14.67 c 0,0.21 0.17,0.38 0.38,0.38 h 7.46 c 0.21,0 0.38,-0.17 0.38,-0.38 v -14.67 c 0,-0.21 -0.17,-0.38 -0.38,-0.38 z"
           id="path384" />
        <path
           class="cls-31"
           d="m 143.38,102.13 h -7.46 c -0.49,0 -0.88,-0.4 -0.88,-0.88 V 86.58 c 0,-0.49 0.4,-0.88 0.88,-0.88 h 7.46 c 0.49,0 0.88,0.4 0.88,0.88 v 14.67 c 0,0.49 -0.4,0.88 -0.88,0.88 z M 135.92,86.2 c -0.21,0 -0.38,0.17 -0.38,0.38 v 14.67 c 0,0.21 0.17,0.38 0.38,0.38 h 7.46 c 0.21,0 0.38,-0.17 0.38,-0.38 V 86.58 c 0,-0.21 -0.17,-0.38 -0.38,-0.38 z"
           id="path385" />
        <path
           class="cls-31"
           d="m 134.79,112.69 h -21.45 c -0.59,0 -1.07,-0.48 -1.07,-1.07 v -8.57 c 0,-0.59 0.48,-1.07 1.07,-1.07 h 21.45 c 0.59,0 1.07,0.48 1.07,1.07 v 8.57 c 0,0.59 -0.48,1.07 -1.07,1.07 z m -21.45,-10.21 c -0.32,0 -0.57,0.26 -0.57,0.57 v 8.57 c 0,0.32 0.26,0.57 0.57,0.57 h 21.45 c 0.32,0 0.57,-0.26 0.57,-0.57 v -8.57 c 0,-0.32 -0.26,-0.57 -0.57,-0.57 z"
           id="path386" />
        <path
           class="cls-31"
           d="M 124.99,128.44 H 96.66 c -0.36,0 -0.65,-0.29 -0.65,-0.65 v -13.56 c 0,-0.36 0.29,-0.65 0.65,-0.65 h 28.33 c 0.36,0 0.65,0.29 0.65,0.65 v 13.56 c 0,0.36 -0.29,0.65 -0.65,0.65 z M 96.66,114.08 c -0.08,0 -0.15,0.07 -0.15,0.15 v 13.56 c 0,0.08 0.07,0.15 0.15,0.15 h 28.33 c 0.08,0 0.15,-0.07 0.15,-0.15 v -13.56 c 0,-0.08 -0.07,-0.15 -0.15,-0.15 z"
           id="path387" />
        <path
           class="cls-31"
           d="M 112.52,111.71 H 97.1 c -0.48,0 -0.87,-0.39 -0.87,-0.87 v -7.03 c 0,-0.48 0.39,-0.87 0.87,-0.87 h 15.42 c 0.14,0 0.25,0.11 0.25,0.25 v 8.26 c 0,0.14 -0.11,0.25 -0.25,0.25 z M 97.1,103.45 c -0.2,0 -0.37,0.17 -0.37,0.37 v 7.03 c 0,0.2 0.16,0.37 0.37,0.37 h 15.17 v -7.76 H 97.1 Z"
           id="path388" />
        <path
           class="cls-31"
           d="m 153.84,102.13 h -7.46 c -0.49,0 -0.88,-0.4 -0.88,-0.88 V 86.58 c 0,-0.49 0.4,-0.88 0.88,-0.88 h 7.46 c 0.49,0 0.88,0.4 0.88,0.88 v 14.67 c 0,0.49 -0.4,0.88 -0.88,0.88 z M 146.38,86.2 c -0.21,0 -0.38,0.17 -0.38,0.38 v 14.67 c 0,0.21 0.17,0.38 0.38,0.38 h 7.46 c 0.21,0 0.38,-0.17 0.38,-0.38 V 86.58 c 0,-0.21 -0.17,-0.38 -0.38,-0.38 z"
           id="path389" />
        <path
           class="cls-31"
           d="m 20.46,186.86 h -3.13 c -0.14,0 -0.25,-0.11 -0.25,-0.25 v -5.09 c 0,-0.14 0.11,-0.25 0.25,-0.25 0.14,0 0.25,0.11 0.25,0.25 v 4.84 h 2.88 c 0.14,0 0.25,0.11 0.25,0.25 0,0.14 -0.11,0.25 -0.25,0.25 z"
           id="path390" />
        <path
           class="cls-31"
           d="m 31.04,186.86 h -3.13 c -0.14,0 -0.25,-0.11 -0.25,-0.25 0,-0.14 0.11,-0.25 0.25,-0.25 h 2.88 v -4.84 c 0,-0.14 0.11,-0.25 0.25,-0.25 0.14,0 0.25,0.11 0.25,0.25 v 5.09 c 0,0.14 -0.11,0.25 -0.25,0.25 z"
           id="path391" />
        <path
           class="cls-31"
           d="m 48.5,186.86 h -3.13 c -0.14,0 -0.25,-0.11 -0.25,-0.25 v -5.09 c 0,-0.14 0.11,-0.25 0.25,-0.25 0.14,0 0.25,0.11 0.25,0.25 v 4.84 h 2.88 c 0.14,0 0.25,0.11 0.25,0.25 0,0.14 -0.11,0.25 -0.25,0.25 z"
           id="path392" />
        <path
           class="cls-31"
           d="m 59.07,186.86 h -3.13 c -0.14,0 -0.25,-0.11 -0.25,-0.25 0,-0.14 0.11,-0.25 0.25,-0.25 h 2.88 v -4.84 c 0,-0.14 0.11,-0.25 0.25,-0.25 0.14,0 0.25,0.11 0.25,0.25 v 5.09 c 0,0.14 -0.11,0.25 -0.25,0.25 z"
           id="path393" />
        <path
           class="cls-31"
           d="m 87.81,66.16 h -8.08 c -0.14,0 -0.25,-0.11 -0.25,-0.25 v -17.7 c 0,-0.14 0.11,-0.25 0.25,-0.25 h 8.08 c 0.14,0 0.25,0.11 0.25,0.25 0,0.14 -0.11,0.25 -0.25,0.25 h -7.83 v 17.2 h 7.83 c 0.14,0 0.25,0.11 0.25,0.25 0,0.14 -0.11,0.25 -0.25,0.25 z"
           id="path394" />
        <path
           class="cls-31"
           d="m 163.18,66.16 h -8.08 c -0.14,0 -0.25,-0.11 -0.25,-0.25 0,-0.14 0.11,-0.25 0.25,-0.25 h 7.83 v -17.2 h -7.83 c -0.14,0 -0.25,-0.11 -0.25,-0.25 0,-0.14 0.11,-0.25 0.25,-0.25 h 8.08 c 0.14,0 0.25,0.11 0.25,0.25 v 17.7 c 0,0.14 -0.11,0.25 -0.25,0.25 z"
           id="path395" />
        <circle
           class="cls-31"
           cx="152.86"
           cy="43.779999"
           r="1.84"
           id="circle395" />
      </g>
      <g
         id="g483"
         transform="matrix(0,-3.5299401,3.5299401,0,-93.26467,864.3996)">
        <path
           class="cls-18"
           d="m 158.96,50 h 0.69 c 0.63,0.02 1.13,0.53 1.13,1.16 v 12.15 c 0,0.62 -0.51,1.13 -1.13,1.13 h -0.69 c -0.62,0.02 -1.14,-0.48 -1.16,-1.1 V 51.16 c 0,-0.64 0.52,-1.16 1.16,-1.16 v 0"
           id="path396" />
        <path
           class="cls-18"
           d="m 83.08,50 h 0.69 c 0.64,0 1.16,0.52 1.16,1.16 v 0 12.15 c 0,0.62 -0.5,1.13 -1.13,1.13 0,0 -0.02,0 -0.03,0 h -0.69 c -0.61,0.02 -1.11,-0.46 -1.13,-1.07 0,-0.02 0,-0.04 0,-0.06 V 51.16 c -0.02,-0.62 0.48,-1.14 1.1,-1.16 0,0 0.02,0 0.03,0"
           id="path397" />
        <path
           class="cls-6"
           d="m 81.22,60.62 v 1.16 c 0,0.62 0.51,1.13 1.13,1.13 h 2.37 c 0.46,-0.02 0.88,-0.3 1.07,-0.72 h 71.23 c 0.17,0.44 0.6,0.73 1.07,0.72 h 2.37 c 0.61,0.02 1.11,-0.46 1.13,-1.07 0,-0.02 0,-0.04 0,-0.06 v -1.16 c 0,-0.5 -0.33,-0.95 -0.81,-1.1 v -4.69 c 0.48,-0.15 0.81,-0.6 0.81,-1.1 v -1.19 c 0.02,-0.62 -0.48,-1.14 -1.1,-1.16 0,0 -0.02,0 -0.03,0 h -2.37 c -0.49,0.01 -0.91,0.32 -1.07,0.78 H 85.8 C 85.64,51.7 85.21,51.39 84.73,51.38 h -2.37 c -0.62,0 -1.13,0.5 -1.13,1.13 v 1.33 c 0.03,0.43 0.3,0.81 0.69,0.98 v 4.72 c -0.43,0.18 -0.71,0.6 -0.69,1.07 z"
           id="path398" />
        <path
           class="cls-1"
           d="m 87.56,53.32 h 67.87 c 0.52,0 0.95,0.26 0.95,0.58 v 6.42 c 0,0.32 -0.43,0.58 -0.95,0.58 H 87.56 c -0.55,0 -0.95,-0.26 -0.95,-0.58 V 53.9 c 0,-0.32 0.41,-0.58 0.95,-0.58"
           id="path399" />
        <path
           class="cls-18"
           d="m 152.05,66.92 h 1.3 c 0.19,0 0.35,-0.16 0.35,-0.35 v 0 -1.16 c 0.02,-0.18 -0.11,-0.33 -0.29,-0.35 -0.01,0 -0.02,0 -0.03,0 v -3.12 h -1.36 v 3.12 c -0.19,0 -0.35,0.16 -0.35,0.35 v 0 1.16 c 0,0.19 0.15,0.35 0.35,0.35 0.01,0 0.02,0 0.03,0"
           id="path400" />
        <path
           class="cls-32"
           d="m 152.19,60.79 h 1.76 c 0.15,0.01 0.26,0.14 0.26,0.29 v 0.87 c 0,0.14 -0.12,0.26 -0.26,0.26 h -1.76 c -0.15,0 -0.27,-0.11 -0.29,-0.26 v -0.87 c 0.01,-0.15 0.14,-0.28 0.29,-0.29"
           id="path401" />
        <path
           class="cls-18"
           d="m 152.05,47.31 h 1.3 c 0.19,0 0.35,0.16 0.35,0.35 v 0 1.16 c -0.04,0.15 -0.19,0.25 -0.35,0.23 v 3.24 h -1.36 v -3.24 c -0.19,0 -0.35,-0.16 -0.35,-0.35 v 0 -1.16 c 0,-0.19 0.15,-0.35 0.35,-0.35 0.01,0 0.02,0 0.03,0"
           id="path402" />
        <path
           class="cls-32"
           d="m 152.19,53.44 h 1.76 c 0.15,-0.01 0.26,-0.14 0.26,-0.29 v -0.84 c 0.02,-0.14 -0.09,-0.27 -0.23,-0.29 -0.01,0 -0.02,0 -0.03,0 h -1.76 c -0.16,0 -0.29,0.13 -0.29,0.29 v 0.84 c 0.01,0.15 0.14,0.28 0.29,0.29"
           id="path403" />
        <path
           class="cls-18"
           d="m 148.84,66.92 h 1.3 c 0.19,0 0.35,-0.16 0.35,-0.35 v 0 -1.16 c 0.02,-0.18 -0.11,-0.33 -0.29,-0.35 -0.01,0 -0.02,0 -0.03,0 v -3.12 h -1.36 v 3.12 c -0.19,0 -0.35,0.16 -0.35,0.35 v 0 1.16 c 0,0.19 0.15,0.35 0.35,0.35 0.01,0 0.02,0 0.03,0"
           id="path404" />
        <path
           class="cls-32"
           d="m 148.98,60.79 h 1.76 c 0.15,0.01 0.26,0.14 0.26,0.29 v 0.87 c 0,0.14 -0.12,0.26 -0.26,0.26 h -1.76 c -0.14,0 -0.26,-0.12 -0.26,-0.26 v -0.87 c 0,-0.15 0.11,-0.27 0.26,-0.29"
           id="path405" />
        <path
           class="cls-18"
           d="m 148.84,47.31 h 1.3 c 0.18,0.02 0.32,0.17 0.32,0.35 v 1.16 c -0.04,0.13 -0.15,0.22 -0.29,0.23 v 3.24 h -1.36 v -3.24 c -0.19,0 -0.35,-0.16 -0.35,-0.35 v 0 -1.16 c 0,-0.19 0.15,-0.35 0.35,-0.35 0.01,0 0.02,0 0.03,0"
           id="path406" />
        <path
           class="cls-32"
           d="m 148.98,53.44 h 1.76 C 150.89,53.43 151,53.3 151,53.15 v -0.84 c 0.02,-0.14 -0.09,-0.27 -0.23,-0.29 -0.01,0 -0.02,0 -0.03,0 h -1.76 c -0.14,0 -0.26,0.11 -0.26,0.26 0,0.01 0,0.02 0,0.03 v 0.84 c 0,0.15 0.11,0.27 0.26,0.29"
           id="path407" />
        <path
           class="cls-18"
           d="m 145.42,66.92 h 1.33 c 0.19,0 0.35,-0.16 0.35,-0.35 v 0 -1.16 c 0,-0.19 -0.16,-0.35 -0.35,-0.35 v 0 -3.12 h -1.36 v 3.12 c -0.18,0 -0.32,0.14 -0.32,0.32 0,0.01 0,0.02 0,0.03 v 1.16 c 0,0.19 0.16,0.35 0.35,0.35 v 0"
           id="path408" />
        <path
           class="cls-32"
           d="m 145.6,60.79 h 1.74 c 0.16,0 0.29,0.13 0.29,0.29 v 0.87 c 0,0.14 -0.11,0.26 -0.26,0.26 -0.01,0 -0.02,0 -0.03,0 h -1.74 c -0.14,0.02 -0.27,-0.09 -0.29,-0.23 0,-0.01 0,-0.02 0,-0.03 v -0.87 c 0,-0.16 0.13,-0.29 0.29,-0.29"
           id="path409" />
        <path
           class="cls-18"
           d="m 145.42,47.31 h 1.33 c 0.19,0 0.35,0.16 0.35,0.35 v 0 1.16 c -0.05,0.15 -0.19,0.24 -0.35,0.23 v 3.24 h -1.36 v -3.24 c -0.18,0 -0.32,-0.14 -0.32,-0.32 0,-0.01 0,-0.02 0,-0.03 v -1.16 c 0,-0.19 0.16,-0.35 0.35,-0.35 v 0"
           id="path410" />
        <path
           class="cls-32"
           d="m 145.6,53.44 h 1.74 c 0.16,0 0.29,-0.13 0.29,-0.29 v -0.84 c 0.02,-0.14 -0.09,-0.27 -0.23,-0.29 -0.02,0 -0.04,0 -0.06,0 h -1.74 c -0.14,-0.02 -0.27,0.09 -0.29,0.23 0,0.02 0,0.04 0,0.06 v 0.84 c 0,0.16 0.13,0.29 0.29,0.29"
           id="path411" />
        <path
           class="cls-18"
           d="m 142.1,66.92 h 1.33 c 0.19,0 0.35,-0.16 0.35,-0.35 v 0 -1.16 c 0,-0.19 -0.16,-0.35 -0.35,-0.35 v 0 -3.12 h -1.36 v 3.12 c -0.18,0.02 -0.3,0.17 -0.29,0.34 v 0 1.16 c 0,0.19 0.16,0.35 0.35,0.35 v 0"
           id="path412" />
        <path
           class="cls-32"
           d="m 142.27,60.79 h 1.74 c 0.16,0 0.29,0.13 0.29,0.29 v 0.87 c 0,0.14 -0.11,0.26 -0.26,0.26 -0.01,0 -0.02,0 -0.03,0 h -1.74 c -0.14,0.02 -0.27,-0.09 -0.29,-0.23 0,-0.01 0,-0.02 0,-0.03 v -0.87 c 0,-0.16 0.13,-0.29 0.29,-0.29"
           id="path413" />
        <path
           class="cls-18"
           d="m 142.1,47.31 h 1.33 c 0.19,0 0.35,0.16 0.35,0.35 v 0 1.16 c -0.05,0.15 -0.19,0.24 -0.35,0.23 v 3.24 h -1.36 v -3.24 c -0.18,0 -0.32,-0.14 -0.32,-0.32 0,-0.01 0,-0.02 0,-0.03 v -1.16 c 0,-0.19 0.16,-0.35 0.35,-0.35 v 0"
           id="path414" />
        <path
           class="cls-32"
           d="m 142.27,53.44 h 1.74 c 0.16,0 0.29,-0.13 0.29,-0.29 v -0.84 c 0.02,-0.14 -0.09,-0.27 -0.23,-0.29 -0.02,0 -0.04,0 -0.06,0 h -1.74 c -0.14,-0.02 -0.27,0.09 -0.29,0.23 0,0.02 0,0.04 0,0.06 v 0.84 c 0,0.16 0.13,0.29 0.29,0.29"
           id="path415" />
        <path
           class="cls-18"
           d="m 138.89,66.92 h 1.33 c 0.19,0 0.35,-0.16 0.35,-0.35 v 0 -1.16 c 0,-0.19 -0.16,-0.35 -0.35,-0.35 v 0 -3.12 h -1.33 v 3.12 c -0.19,0 -0.35,0.16 -0.35,0.35 v 0 1.16 c 0,0.19 0.16,0.35 0.35,0.35 v 0"
           id="path416" />
        <path
           class="cls-32"
           d="m 138.89,60.79 h 1.74 c 0.16,0 0.29,0.13 0.29,0.29 v 0.87 c 0,0.14 -0.11,0.26 -0.26,0.26 -0.01,0 -0.02,0 -0.03,0 h -1.74 c -0.14,0.02 -0.27,-0.09 -0.29,-0.23 0,-0.01 0,-0.02 0,-0.03 v -0.87 c 0,-0.16 0.13,-0.29 0.29,-0.29"
           id="path417" />
        <path
           class="cls-18"
           d="m 138.89,47.31 h 1.33 c 0.19,0 0.35,0.16 0.35,0.35 v 0 1.16 c -0.05,0.16 -0.21,0.25 -0.38,0.23 v 3.24 h -1.3 v -3.24 c -0.19,0 -0.35,-0.16 -0.35,-0.35 v 0 -1.16 c 0.05,-0.15 0.19,-0.24 0.35,-0.23"
           id="path418" />
        <path
           class="cls-32"
           d="m 138.89,53.44 h 1.74 c 0.16,0 0.29,-0.13 0.29,-0.29 v -0.84 c 0.02,-0.14 -0.09,-0.27 -0.23,-0.29 -0.02,0 -0.04,0 -0.06,0 h -1.74 c -0.14,-0.02 -0.27,0.09 -0.29,0.23 0,0.02 0,0.04 0,0.06 v 0.84 c 0,0.16 0.13,0.29 0.29,0.29"
           id="path419" />
        <path
           class="cls-18"
           d="m 135.65,66.92 h 1.33 c 0.19,0 0.35,-0.16 0.35,-0.35 v 0 -1.16 c 0,-0.19 -0.16,-0.35 -0.35,-0.35 v 0 -3.12 h -1.33 v 3.12 c -0.19,0 -0.35,0.16 -0.35,0.35 v 0 1.16 c 0,0.19 0.16,0.35 0.35,0.35 v 0"
           id="path420" />
        <path
           class="cls-32"
           d="m 135.82,60.79 h 1.74 c 0.16,0 0.29,0.13 0.29,0.29 v 0.87 c 0,0.14 -0.11,0.26 -0.26,0.26 -0.01,0 -0.02,0 -0.03,0 h -1.74 c -0.14,0.02 -0.27,-0.09 -0.29,-0.23 0,-0.01 0,-0.02 0,-0.03 v -0.87 c 0,-0.16 0.13,-0.29 0.29,-0.29"
           id="path421" />
        <path
           class="cls-18"
           d="m 135.65,47.31 h 1.33 c 0.19,0 0.35,0.16 0.35,0.35 v 0 1.16 c -0.05,0.15 -0.19,0.24 -0.35,0.23 v 3.24 h -1.33 v -3.24 c -0.19,0 -0.35,-0.16 -0.35,-0.35 v 0 -1.16 c 0,-0.19 0.16,-0.35 0.35,-0.35 v 0"
           id="path422" />
        <path
           class="cls-32"
           d="m 135.82,53.44 h 1.74 c 0.16,0 0.29,-0.13 0.29,-0.29 v -0.84 c 0.02,-0.14 -0.09,-0.27 -0.23,-0.29 -0.02,0 -0.04,0 -0.06,0 h -1.74 c -0.14,-0.02 -0.27,0.09 -0.29,0.23 0,0.02 0,0.04 0,0.06 v 0.84 c 0,0.16 0.13,0.29 0.29,0.29"
           id="path423" />
        <path
           class="cls-18"
           d="m 132.4,66.92 h 1.33 c 0.19,0 0.35,-0.16 0.35,-0.35 v 0 -1.16 c 0,-0.19 -0.16,-0.35 -0.35,-0.35 v 0 -3.12 h -1.36 v 3.12 c -0.18,0 -0.32,0.14 -0.32,0.32 0,0.01 0,0.02 0,0.03 v 1.16 c 0,0.19 0.16,0.35 0.35,0.35 v 0"
           id="path424" />
        <path
           class="cls-32"
           d="m 132.55,60.79 h 1.76 c 0.15,0.01 0.28,0.14 0.29,0.29 v 0.87 c -0.01,0.15 -0.14,0.26 -0.29,0.26 h -1.76 c -0.14,0 -0.26,-0.12 -0.26,-0.26 v -0.87 c 0,-0.15 0.11,-0.27 0.26,-0.29"
           id="path425" />
        <path
           class="cls-18"
           d="m 132.4,47.31 h 1.33 c 0.19,0 0.35,0.16 0.35,0.35 v 0 1.16 c -0.05,0.15 -0.19,0.24 -0.35,0.23 v 3.24 h -1.36 v -3.24 c -0.18,0 -0.32,-0.14 -0.32,-0.32 0,-0.01 0,-0.02 0,-0.03 v -1.16 c 0,-0.19 0.16,-0.35 0.35,-0.35 v 0"
           id="path426" />
        <path
           class="cls-32"
           d="m 132.55,53.44 h 1.76 c 0.15,-0.01 0.28,-0.14 0.29,-0.29 v -0.84 c 0,-0.16 -0.13,-0.29 -0.29,-0.29 h -1.76 c -0.14,0 -0.26,0.11 -0.26,0.26 0,0.01 0,0.02 0,0.03 v 0.84 c 0,0.15 0.11,0.27 0.26,0.29"
           id="path427" />
        <path
           class="cls-18"
           d="m 129.11,66.92 h 1.33 c 0.19,0 0.35,-0.16 0.35,-0.35 v 0 -1.16 c 0.02,-0.18 -0.11,-0.33 -0.29,-0.35 -0.01,0 -0.02,0 -0.03,0 v -3.12 h -1.36 v 3.12 c -0.19,0 -0.35,0.16 -0.35,0.35 v 0 1.16 c 0,0.19 0.16,0.35 0.35,0.35 v 0"
           id="path428" />
        <path
           class="cls-32"
           d="m 129.28,60.79 h 1.74 c 0.16,0 0.29,0.13 0.29,0.29 v 0.87 c 0,0.14 -0.11,0.26 -0.26,0.26 -0.01,0 -0.02,0 -0.03,0 h -1.74 c -0.15,0 -0.27,-0.11 -0.29,-0.26 v -0.87 c 0.01,-0.15 0.14,-0.28 0.29,-0.29"
           id="path429" />
        <path
           class="cls-18"
           d="m 129.11,47.31 h 1.33 c 0.19,0 0.35,0.16 0.35,0.35 v 0 1.16 c -0.04,0.14 -0.17,0.24 -0.32,0.23 v 3.24 h -1.36 v -3.24 c -0.19,0 -0.35,-0.16 -0.35,-0.35 v 0 -1.16 c 0,-0.19 0.16,-0.35 0.35,-0.35 v 0"
           id="path430" />
        <path
           class="cls-32"
           d="m 129.28,53.44 h 1.74 c 0.16,0 0.29,-0.13 0.29,-0.29 v -0.84 c 0.02,-0.14 -0.09,-0.27 -0.23,-0.29 -0.02,0 -0.04,0 -0.06,0 h -1.74 c -0.16,0 -0.29,0.13 -0.29,0.29 v 0.84 c 0.01,0.15 0.14,0.28 0.29,0.29"
           id="path431" />
        <path
           class="cls-18"
           d="m 125.84,66.92 h 1.3 c 0.19,0.02 0.36,-0.13 0.37,-0.32 0,-0.01 0,-0.02 0,-0.03 v -1.16 c 0,-0.19 -0.16,-0.35 -0.35,-0.35 v 0 -3.12 h -1.36 v 3.12 c -0.19,0 -0.35,0.16 -0.35,0.35 v 0 1.16 c 0,0.19 0.15,0.35 0.35,0.35 0.01,0 0.02,0 0.03,0"
           id="path432" />
        <path
           class="cls-32"
           d="m 125.98,60.79 h 1.76 c 0.15,0.01 0.28,0.14 0.29,0.29 v 0.87 c -0.01,0.15 -0.14,0.26 -0.29,0.26 h -1.76 c -0.14,0 -0.26,-0.12 -0.26,-0.26 v -0.87 c 0,-0.15 0.11,-0.27 0.26,-0.29"
           id="path433" />
        <path
           class="cls-18"
           d="m 125.84,47.31 h 1.3 c 0.19,-0.02 0.36,0.13 0.37,0.32 0,0.01 0,0.02 0,0.03 v 1.16 c -0.05,0.15 -0.19,0.24 -0.35,0.23 v 3.24 h -1.36 v -3.24 c -0.19,0 -0.35,-0.16 -0.35,-0.35 v 0 -1.16 c 0,-0.19 0.15,-0.35 0.35,-0.35 0.01,0 0.02,0 0.03,0"
           id="path434" />
        <path
           class="cls-32"
           d="m 125.98,53.44 h 1.76 c 0.15,-0.01 0.28,-0.14 0.29,-0.29 v -0.84 c 0,-0.16 -0.13,-0.29 -0.29,-0.29 h -1.76 c -0.14,0 -0.26,0.11 -0.26,0.26 0,0.01 0,0.02 0,0.03 v 0.84 c 0,0.15 0.11,0.27 0.26,0.29"
           id="path435" />
        <path
           class="cls-18"
           d="m 122.57,66.92 h 1.33 c 0.19,0 0.35,-0.16 0.35,-0.35 v 0 -1.16 c 0.02,-0.18 -0.11,-0.33 -0.29,-0.35 -0.01,0 -0.02,0 -0.03,0 v -3.12 h -1.36 v 3.12 c -0.19,0 -0.35,0.16 -0.35,0.35 v 0 1.16 c 0,0.19 0.16,0.35 0.35,0.35 v 0"
           id="path436" />
        <path
           class="cls-32"
           d="m 122.74,60.79 h 1.68 c 0.15,0.01 0.26,0.14 0.26,0.29 v 0.87 c 0,0.14 -0.12,0.26 -0.26,0.26 h -1.76 c -0.15,0 -0.27,-0.11 -0.29,-0.26 v -0.87 c 0.01,-0.15 0.14,-0.28 0.29,-0.29"
           id="path437" />
        <path
           class="cls-18"
           d="m 122.57,47.31 h 1.33 c 0.19,0 0.35,0.16 0.35,0.35 v 0 1.16 c -0.04,0.14 -0.17,0.24 -0.32,0.23 v 3.24 h -1.36 v -3.24 c -0.19,0 -0.35,-0.16 -0.35,-0.35 v 0 -1.16 c 0,-0.19 0.16,-0.35 0.35,-0.35 v 0"
           id="path438" />
        <path
           class="cls-32"
           d="m 122.74,53.44 h 1.68 c 0.15,-0.01 0.26,-0.14 0.26,-0.29 v -0.84 c 0.06,-0.13 0.01,-0.28 -0.12,-0.35 -0.04,-0.02 -0.1,-0.03 -0.15,-0.03 h -1.76 c -0.16,0 -0.29,0.13 -0.29,0.29 v 0.93 c 0.01,0.15 0.14,0.28 0.29,0.29"
           id="path439" />
        <path
           class="cls-18"
           d="m 119.21,66.92 h 1.33 c 0.19,0 0.35,-0.16 0.35,-0.35 v 0 -1.16 c 0,-0.19 -0.16,-0.35 -0.35,-0.35 v 0 -3.12 h -1.33 v 3.12 c -0.19,0 -0.35,0.16 -0.35,0.35 v 0 1.16 c 0,0.19 0.16,0.35 0.35,0.35 v 0"
           id="path440" />
        <path
           class="cls-32"
           d="m 119.39,60.79 h 1.74 c 0.16,0 0.29,0.13 0.29,0.29 v 0.87 c 0,0.14 -0.11,0.26 -0.26,0.26 -0.01,0 -0.02,0 -0.03,0 h -1.74 c -0.14,0.02 -0.27,-0.09 -0.29,-0.23 0,-0.01 0,-0.02 0,-0.03 v -0.87 c 0,-0.16 0.13,-0.29 0.29,-0.29"
           id="path441" />
        <path
           class="cls-18"
           d="m 119.21,47.31 h 1.33 c 0.19,0 0.35,0.16 0.35,0.35 v 0 1.16 c -0.05,0.15 -0.19,0.24 -0.35,0.23 v 3.24 h -1.33 v -3.24 c -0.19,0 -0.35,-0.16 -0.35,-0.35 v 0 -1.16 c 0,-0.19 0.16,-0.35 0.35,-0.35 v 0"
           id="path442" />
        <path
           class="cls-32"
           d="m 119.39,53.44 h 1.74 c 0.16,0 0.29,-0.13 0.29,-0.29 v -0.84 c 0.02,-0.14 -0.09,-0.27 -0.23,-0.29 -0.02,0 -0.04,0 -0.06,0 h -1.74 c -0.14,-0.02 -0.27,0.09 -0.29,0.23 0,0.02 0,0.04 0,0.06 v 0.84 c 0,0.16 0.13,0.29 0.29,0.29"
           id="path443" />
        <path
           class="cls-18"
           d="m 115.94,66.92 h 1.3 c 0.19,0 0.35,-0.16 0.35,-0.35 v 0 -1.16 c 0.02,-0.18 -0.11,-0.33 -0.29,-0.35 -0.01,0 -0.02,0 -0.03,0 v -3.12 h -1.36 v 3.12 c -0.19,0 -0.35,0.16 -0.35,0.35 v 0 1.16 c 0,0.19 0.15,0.35 0.35,0.35 0.01,0 0.02,0 0.03,0"
           id="path444" />
        <path
           class="cls-32"
           d="m 116.09,60.79 h 1.76 c 0.15,0.01 0.26,0.14 0.26,0.29 v 0.87 c 0,0.14 -0.12,0.26 -0.26,0.26 h -1.76 c -0.15,0 -0.27,-0.11 -0.29,-0.26 v -0.87 c 0.01,-0.15 0.14,-0.28 0.29,-0.29"
           id="path445" />
        <path
           class="cls-18"
           d="m 115.94,47.31 h 1.3 c 0.19,0 0.35,0.16 0.35,0.35 v 0 1.16 c -0.04,0.14 -0.17,0.24 -0.32,0.23 v 3.24 h -1.36 v -3.24 c -0.19,0 -0.35,-0.16 -0.35,-0.35 v 0 -1.16 c 0,-0.19 0.15,-0.35 0.35,-0.35 0.01,0 0.02,0 0.03,0"
           id="path446" />
        <path
           class="cls-32"
           d="m 116.09,53.44 h 1.76 c 0.15,-0.01 0.26,-0.14 0.26,-0.29 v -0.84 c 0.02,-0.14 -0.09,-0.27 -0.23,-0.29 -0.01,0 -0.02,0 -0.03,0 h -1.76 c -0.16,0 -0.29,0.13 -0.29,0.29 v 0.84 c 0.01,0.15 0.14,0.28 0.29,0.29"
           id="path447" />
        <path
           class="cls-18"
           d="m 112.36,66.92 h 1.33 c 0.19,0 0.35,-0.16 0.35,-0.35 v 0 -1.16 c 0,-0.19 -0.16,-0.35 -0.35,-0.35 v 0 -3.12 h -1.36 v 3.12 c -0.18,0 -0.32,0.14 -0.32,0.32 0,0.01 0,0.02 0,0.03 v 1.16 c 0,0.19 0.16,0.35 0.35,0.35 v 0"
           id="path448" />
        <path
           class="cls-32"
           d="m 112.53,60.79 h 1.74 c 0.15,0.01 0.28,0.14 0.29,0.29 v 0.87 c -0.01,0.15 -0.14,0.26 -0.29,0.26 h -1.74 c -0.14,0.02 -0.27,-0.09 -0.29,-0.23 0,-0.01 0,-0.02 0,-0.03 v -0.87 c 0,-0.16 0.13,-0.29 0.29,-0.29"
           id="path449" />
        <path
           class="cls-18"
           d="m 112.36,47.31 h 1.33 c 0.19,0 0.35,0.16 0.35,0.35 v 0 1.16 c -0.05,0.15 -0.19,0.24 -0.35,0.23 v 3.24 h -1.36 v -3.24 c -0.18,0 -0.32,-0.14 -0.32,-0.32 0,-0.01 0,-0.02 0,-0.03 v -1.16 c 0,-0.19 0.16,-0.35 0.35,-0.35 v 0"
           id="path450" />
        <path
           class="cls-32"
           d="m 112.53,53.44 h 1.74 c 0.15,-0.01 0.28,-0.14 0.29,-0.29 v -0.84 c 0,-0.16 -0.13,-0.29 -0.29,-0.29 h -1.74 c -0.14,-0.02 -0.27,0.09 -0.29,0.23 0,0.02 0,0.04 0,0.06 v 0.84 c 0,0.16 0.13,0.29 0.29,0.29"
           id="path451" />
        <path
           class="cls-18"
           d="m 109.14,66.92 h 1.33 c 0.19,0 0.35,-0.16 0.35,-0.35 v 0 -1.16 c 0,-0.19 -0.16,-0.35 -0.35,-0.35 v 0 -3.12 h -1.36 v 3.12 c -0.18,0 -0.32,0.14 -0.32,0.32 0,0.01 0,0.02 0,0.03 v 1.16 c 0,0.19 0.16,0.35 0.35,0.35 v 0"
           id="path452" />
        <path
           class="cls-32"
           d="m 109.32,60.79 h 1.74 c 0.15,0.01 0.28,0.14 0.29,0.29 v 0.87 c -0.01,0.15 -0.14,0.26 -0.29,0.26 h -1.74 c -0.14,0.02 -0.27,-0.09 -0.29,-0.23 0,-0.01 0,-0.02 0,-0.03 v -0.87 c 0,-0.16 0.13,-0.29 0.29,-0.29"
           id="path453" />
        <path
           class="cls-18"
           d="m 109.14,47.31 h 1.33 c 0.19,0 0.35,0.16 0.35,0.35 v 0 1.16 c -0.05,0.15 -0.19,0.24 -0.35,0.23 v 3.24 h -1.36 v -3.24 c -0.18,0 -0.32,-0.14 -0.32,-0.32 0,-0.01 0,-0.02 0,-0.03 v -1.16 c 0,-0.19 0.16,-0.35 0.35,-0.35 v 0"
           id="path454" />
        <path
           class="cls-32"
           d="m 109.32,53.44 h 1.74 c 0.15,-0.01 0.28,-0.14 0.29,-0.29 v -0.84 c 0,-0.16 -0.13,-0.29 -0.29,-0.29 h -1.74 c -0.14,-0.02 -0.27,0.09 -0.29,0.23 0,0.02 0,0.04 0,0.06 v 0.84 c 0,0.16 0.13,0.29 0.29,0.29"
           id="path455" />
        <path
           class="cls-18"
           d="m 105.9,66.92 h 1.16 c 0.19,0.02 0.36,-0.13 0.37,-0.32 0,-0.01 0,-0.02 0,-0.03 v -1.16 c 0,-0.19 -0.16,-0.35 -0.35,-0.35 v 0 -3.12 h -1.36 v 3.12 c -0.18,0 -0.32,0.14 -0.32,0.32 0,0.01 0,0.02 0,0.03 v 1.16 c 0,0.19 0.16,0.35 0.35,0.35 v 0"
           id="path456" />
        <path
           class="cls-32"
           d="m 106.05,60.79 h 1.76 c 0.15,0.01 0.28,0.14 0.29,0.29 v 0.87 c -0.01,0.15 -0.14,0.26 -0.29,0.26 h -1.76 c -0.14,0 -0.26,-0.12 -0.26,-0.26 v -0.87 c 0,-0.15 0.11,-0.27 0.26,-0.29"
           id="path457" />
        <path
           class="cls-18"
           d="m 105.9,47.31 h 1.16 c 0.19,-0.02 0.36,0.13 0.37,0.32 0,0.01 0,0.02 0,0.03 v 1.16 c -0.03,0.1 -0.1,0.19 -0.2,0.23 v 3.24 h -1.36 v -3.24 c -0.18,0 -0.32,-0.14 -0.32,-0.32 0,-0.01 0,-0.02 0,-0.03 v -1.16 c 0,-0.19 0.16,-0.35 0.35,-0.35 v 0"
           id="path458" />
        <path
           class="cls-32"
           d="m 106.05,53.44 h 1.76 c 0.15,-0.01 0.28,-0.14 0.29,-0.29 v -0.84 c 0,-0.16 -0.13,-0.29 -0.29,-0.29 h -1.76 c -0.14,0 -0.26,0.11 -0.26,0.26 0,0.01 0,0.02 0,0.03 v 0.84 c 0,0.15 0.11,0.27 0.26,0.29"
           id="path459" />
        <path
           class="cls-18"
           d="m 102.6,66.92 h 1.33 c 0.19,0 0.35,-0.16 0.35,-0.35 v 0 -1.16 c 0,-0.19 -0.16,-0.35 -0.35,-0.35 v 0 -3.12 h -1.36 v 3.12 c -0.18,0 -0.32,0.14 -0.32,0.32 0,0.01 0,0.02 0,0.03 v 1.16 c 0,0.19 0.16,0.35 0.35,0.35 v 0"
           id="path460" />
        <path
           class="cls-32"
           d="m 102.78,60.79 h 1.74 c 0.16,0 0.29,0.13 0.29,0.29 v 0.87 c 0,0.14 -0.11,0.26 -0.26,0.26 -0.01,0 -0.02,0 -0.03,0 h -1.74 c -0.14,0.02 -0.27,-0.09 -0.29,-0.23 0,-0.01 0,-0.02 0,-0.03 v -0.87 c 0,-0.16 0.13,-0.29 0.29,-0.29"
           id="path461" />
        <path
           class="cls-18"
           d="m 102.6,47.31 h 1.33 c 0.15,0.05 0.24,0.19 0.23,0.35 v 1.16 c -0.03,0.11 -0.12,0.2 -0.23,0.23 v 3.24 h -1.36 v -3.24 c -0.18,0 -0.32,-0.14 -0.32,-0.32 0,-0.01 0,-0.02 0,-0.03 v -1.16 c 0,-0.19 0.16,-0.35 0.35,-0.35 v 0"
           id="path462" />
        <path
           class="cls-32"
           d="m 102.78,53.44 h 1.74 c 0.16,0 0.29,-0.13 0.29,-0.29 v -0.84 c 0.02,-0.14 -0.09,-0.27 -0.23,-0.29 -0.02,0 -0.04,0 -0.06,0 h -1.74 c -0.14,-0.02 -0.27,0.09 -0.29,0.23 0,0.02 0,0.04 0,0.06 v 0.84 c 0,0.16 0.13,0.29 0.29,0.29"
           id="path463" />
        <path
           class="cls-18"
           d="m 99.34,66.92 h 1.3 c 0.19,0 0.35,-0.16 0.35,-0.35 v 0 -1.16 c 0.02,-0.18 -0.11,-0.33 -0.29,-0.35 -0.01,0 -0.02,0 -0.03,0 v -3.12 h -1.36 v 3.12 c -0.19,0 -0.35,0.16 -0.35,0.35 v 0 1.16 c 0,0.19 0.15,0.35 0.35,0.35 0.01,0 0.02,0 0.03,0"
           id="path464" />
        <path
           class="cls-32"
           d="m 99.48,60.79 h 1.79 c 0.15,0.01 0.26,0.14 0.26,0.29 v 0.87 c 0,0.14 -0.12,0.26 -0.26,0.26 h -1.76 c -0.15,0 -0.27,-0.11 -0.29,-0.26 v -0.87 c 0.01,-0.15 0.14,-0.28 0.29,-0.29"
           id="path465" />
        <path
           class="cls-18"
           d="m 99.34,47.31 h 1.3 c 0.19,0 0.35,0.16 0.35,0.35 v 0 1.16 c -0.04,0.14 -0.17,0.24 -0.32,0.23 v 3.24 h -1.36 v -3.24 c -0.19,0 -0.35,-0.16 -0.35,-0.35 v 0 -1.16 c 0,-0.19 0.15,-0.35 0.35,-0.35 0.01,0 0.02,0 0.03,0"
           id="path466" />
        <path
           class="cls-32"
           d="m 99.48,53.44 h 1.79 c 0.15,-0.01 0.26,-0.14 0.26,-0.29 v -0.84 c 0.06,-0.13 0.01,-0.28 -0.12,-0.35 -0.04,-0.02 -0.1,-0.03 -0.15,-0.03 H 99.5 c -0.16,0 -0.29,0.13 -0.29,0.29 v 0.93 c 0.01,0.15 0.14,0.28 0.29,0.29"
           id="path467" />
        <path
           class="cls-18"
           d="m 96.07,66.92 h 1.33 c 0.19,0 0.35,-0.16 0.35,-0.35 v 0 -1.16 c 0,-0.19 -0.16,-0.35 -0.35,-0.35 v 0 -3.12 h -1.33 v 3.12 c -0.19,0 -0.35,0.16 -0.35,0.35 v 0 1.16 c 0,0.19 0.16,0.35 0.35,0.35 v 0"
           id="path468" />
        <path
           class="cls-32"
           d="m 96.24,60.79 h 1.74 c 0.16,0 0.29,0.13 0.29,0.29 v 0.87 c 0,0.14 -0.11,0.26 -0.26,0.26 -0.01,0 -0.02,0 -0.03,0 h -1.74 c -0.14,0.02 -0.27,-0.09 -0.29,-0.23 0,-0.01 0,-0.02 0,-0.03 v -0.87 c 0,-0.16 0.13,-0.29 0.29,-0.29"
           id="path469" />
        <path
           class="cls-18"
           d="m 96.07,47.31 h 1.33 c 0.19,0 0.35,0.16 0.35,0.35 v 0 1.16 c -0.05,0.15 -0.19,0.24 -0.35,0.23 v 3.24 h -1.33 v -3.24 c -0.19,0 -0.35,-0.16 -0.35,-0.35 v 0 -1.16 c 0,-0.19 0.16,-0.35 0.35,-0.35 v 0"
           id="path470" />
        <path
           class="cls-32"
           d="m 96.24,53.44 h 1.74 c 0.16,0 0.29,-0.13 0.29,-0.29 v -0.84 c 0.02,-0.14 -0.09,-0.27 -0.23,-0.29 -0.02,0 -0.04,0 -0.06,0 h -1.74 c -0.14,-0.02 -0.27,0.09 -0.29,0.23 0,0.02 0,0.04 0,0.06 v 0.84 c 0,0.16 0.13,0.29 0.29,0.29"
           id="path471" />
        <path
           class="cls-18"
           d="m 92.59,66.92 h 1.45 c 0.19,0 0.35,-0.16 0.35,-0.35 v 0 -1.16 c 0,-0.19 -0.16,-0.35 -0.35,-0.35 v 0 -3.12 h -1.45 v 3.12 c -0.18,0 -0.32,0.14 -0.32,0.32 0,0.01 0,0.02 0,0.03 v 1.16 c 0,0.18 0.14,0.33 0.32,0.35"
           id="path472" />
        <path
           class="cls-32"
           d="m 92.88,60.79 h 1.74 c 0.15,0.01 0.28,0.14 0.29,0.29 v 0.87 c -0.01,0.15 -0.14,0.26 -0.29,0.26 h -1.74 c -0.14,0.02 -0.27,-0.09 -0.29,-0.23 0,-0.01 0,-0.02 0,-0.03 v -0.87 c 0,-0.16 0.13,-0.29 0.29,-0.29"
           id="path473" />
        <path
           class="cls-18"
           d="m 92.59,47.31 h 1.45 c 0.19,0 0.35,0.16 0.35,0.35 v 0 1.16 c -0.05,0.15 -0.19,0.24 -0.35,0.23 v 3.24 h -1.45 v -3.24 c -0.18,0 -0.32,-0.14 -0.32,-0.32 0,-0.01 0,-0.02 0,-0.03 v -1.16 c 0.05,-0.14 0.17,-0.23 0.32,-0.23"
           id="path474" />
        <path
           class="cls-32"
           d="m 92.88,53.44 h 1.74 c 0.15,-0.01 0.28,-0.14 0.29,-0.29 v -0.84 c 0,-0.16 -0.13,-0.29 -0.29,-0.29 h -1.74 c -0.14,-0.02 -0.27,0.09 -0.29,0.23 0,0.02 0,0.04 0,0.06 v 0.84 c 0,0.16 0.13,0.29 0.29,0.29"
           id="path475" />
        <path
           class="cls-18"
           d="m 89.41,66.92 h 1.33 c 0.19,0 0.35,-0.16 0.35,-0.35 v 0 -1.16 c 0.02,-0.18 -0.11,-0.33 -0.29,-0.35 -0.01,0 -0.02,0 -0.03,0 v -3.12 h -1.36 v 3.12 c -0.19,0 -0.35,0.16 -0.35,0.35 v 0 1.16 c 0,0.19 0.16,0.35 0.35,0.35 v 0"
           id="path476" />
        <path
           class="cls-32"
           d="m 89.7,60.79 h 1.74 c 0.16,0 0.29,0.13 0.29,0.29 v 0.87 c 0,0.14 -0.11,0.26 -0.26,0.26 -0.01,0 -0.02,0 -0.03,0 H 89.7 c -0.15,0 -0.27,-0.11 -0.29,-0.26 v -0.87 c 0.01,-0.15 0.14,-0.28 0.29,-0.29"
           id="path477" />
        <path
           class="cls-18"
           d="m 89.41,47.31 h 1.33 c 0.19,0 0.35,0.16 0.35,0.35 v 0 1.16 c -0.04,0.14 -0.17,0.24 -0.32,0.23 v 3.24 h -1.36 v -3.24 c -0.19,0 -0.35,-0.16 -0.35,-0.35 v 0 -1.16 c 0,-0.19 0.16,-0.35 0.35,-0.35 v 0"
           id="path478" />
        <path
           class="cls-32"
           d="m 89.7,53.44 h 1.74 c 0.16,0 0.29,-0.13 0.29,-0.29 v -0.84 c 0.02,-0.14 -0.09,-0.27 -0.23,-0.29 -0.02,0 -0.04,0 -0.06,0 H 89.7 c -0.16,0 -0.29,0.13 -0.29,0.29 v 0.84 c 0.01,0.15 0.14,0.28 0.29,0.29"
           id="path479" />
        <path
           class="cls-32"
           d="m 160.79,61.51 c 0,0.38 -0.55,0.69 -1.22,0.69 -0.67,0 -1.19,-0.32 -1.19,-0.69 0,-0.37 0.52,-0.72 1.19,-0.72 0.67,0 1.22,0.32 1.22,0.72"
           id="path480" />
        <path
           class="cls-32"
           d="m 160.79,52.83 c 0,0.41 -0.55,0.72 -1.22,0.72 -0.67,0 -1.19,-0.32 -1.19,-0.72 0,-0.4 0.52,-0.69 1.19,-0.69 0.67,0 1.22,0.32 1.22,0.69"
           id="path481" />
        <path
           class="cls-32"
           d="m 84.64,61.51 c 0,0.38 -0.55,0.69 -1.22,0.69 -0.67,0 -1.22,-0.32 -1.22,-0.69 0,-0.37 0.55,-0.72 1.22,-0.72 0.67,0 1.22,0.32 1.22,0.72"
           id="path482" />
        <path
           class="cls-32"
           d="m 84.64,52.83 c 0,0.41 -0.55,0.72 -1.22,0.72 -0.67,0 -1.22,-0.32 -1.22,-0.72 0,-0.4 0.55,-0.69 1.22,-0.69 0.67,0 1.22,0.32 1.22,0.69"
           id="path483" />
      </g>
      <g
         class="cls-7"
         id="g486"
         style="opacity:1"
         transform="matrix(0,-3.5299401,3.5299401,0,-93.26467,864.3996)">
        <rect
           class="cls-21"
           x="106.26"
           y="108.04"
           width="9.1199999"
           height="26.120001"
           rx="0.64999998"
           ry="0.64999998"
           transform="rotate(-90,110.825,121.105)"
           id="rect483" />
        <g
           id="g485">
          <rect
             class="cls-14"
             x="105.37"
             y="111.51"
             width="10.91"
             height="19.190001"
             rx="0.56999999"
             ry="0.56999999"
             transform="rotate(-90,110.825,121.105)"
             id="rect484" />
          <rect
             class="cls-2"
             x="105.56"
             y="111.85"
             width="10.53"
             height="18.51"
             rx="0.55000001"
             ry="0.55000001"
             transform="rotate(-90,110.825,121.105)"
             id="rect485" />
          <path
             class="cls-4"
             d="m 113.25,123.43 h -4.66 v -4.66 h 4.66 z m -4.16,-0.5 h 3.67 v -3.67 h -3.67 z"
             id="path485" />
        </g>
      </g>
      <g
         class="cls-7"
         id="g489"
         style="opacity:1"
         transform="matrix(0,-3.5299401,3.5299401,0,-93.26467,864.3996)">
        <rect
           class="cls-21"
           x="120.65"
           y="97.519997"
           width="6.8499999"
           height="19.620001"
           rx="0.49000001"
           ry="0.49000001"
           transform="rotate(-90,124.07,107.33)"
           id="rect486" />
        <g
           id="g488">
          <rect
             class="cls-14"
             x="119.97"
             y="100.13"
             width="8.1999998"
             height="14.41"
             rx="0.43000001"
             ry="0.43000001"
             transform="rotate(-90,124.07,107.33)"
             id="rect487" />
          <rect
             class="cls-2"
             x="120.12"
             y="100.38"
             width="7.9099998"
             height="13.9"
             rx="0.41"
             ry="0.41"
             transform="rotate(-90,124.07,107.33)"
             id="rect488" />
        </g>
      </g>
      <g
         class="cls-7"
         id="g492"
         style="opacity:1"
         transform="matrix(0,-3.5299401,3.5299401,0,-93.26467,864.3996)">
        <path
           class="cls-22"
           d="m 46.31,181.02 v -3.62 c 0,-0.36 0.36,-0.65 0.81,-0.65 h 2.44 c 0.45,0 0.81,0.29 0.81,0.65 v 3.62 c 0,0.36 -0.36,0.65 -0.81,0.65 h -2.44 c -0.45,0 -0.81,-0.29 -0.81,-0.65 z"
           id="path489" />
        <path
           class="cls-22"
           d="m 53.93,181.02 v -3.62 c 0,-0.36 0.36,-0.65 0.81,-0.65 h 2.44 c 0.45,0 0.81,0.29 0.81,0.65 v 3.62 c 0,0.36 -0.36,0.65 -0.81,0.65 h -2.44 c -0.45,0 -0.81,-0.29 -0.81,-0.65 z"
           id="path490" />
        <path
           class="cls-22"
           d="m 49.87,189.7 v -3.62 c 0,-0.36 0.36,-0.65 0.81,-0.65 h 2.44 c 0.45,0 0.81,0.29 0.81,0.65 v 3.62 c 0,0.36 -0.36,0.65 -0.81,0.65 h -2.44 c -0.45,0 -0.81,-0.29 -0.81,-0.65 z"
           id="path491" />
        <path
           class="cls-19"
           d="m 46.2,185.71 v -4.9 c 0,0 0.03,-0.06 0.08,-0.06 h 11.88 c 0,0 0.08,0.03 0.08,0.06 v 4.9 c 0,0 -0.03,0.06 -0.08,0.06 H 46.28 c 0,0 -0.08,-0.03 -0.08,-0.06 z"
           id="path492" />
      </g>
      <g
         class="cls-7"
         id="g496"
         style="opacity:1"
         transform="matrix(0,-3.5299401,3.5299401,0,-93.26467,864.3996)">
        <path
           class="cls-22"
           d="m 18.37,181.02 v -3.62 c 0,-0.36 0.36,-0.65 0.81,-0.65 h 2.44 c 0.45,0 0.81,0.29 0.81,0.65 v 3.62 c 0,0.36 -0.36,0.65 -0.81,0.65 h -2.44 c -0.45,0 -0.81,-0.29 -0.81,-0.65 z"
           id="path493" />
        <path
           class="cls-22"
           d="m 25.99,181.02 v -3.62 c 0,-0.36 0.36,-0.65 0.81,-0.65 h 2.44 c 0.45,0 0.81,0.29 0.81,0.65 v 3.62 c 0,0.36 -0.36,0.65 -0.81,0.65 H 26.8 c -0.45,0 -0.81,-0.29 -0.81,-0.65 z"
           id="path494" />
        <path
           class="cls-22"
           d="m 21.92,189.7 v -3.62 c 0,-0.36 0.36,-0.65 0.81,-0.65 h 2.44 c 0.45,0 0.81,0.29 0.81,0.65 v 3.62 c 0,0.36 -0.36,0.65 -0.81,0.65 h -2.44 c -0.45,0 -0.81,-0.29 -0.81,-0.65 z"
           id="path495" />
        <path
           class="cls-19"
           d="m 18.26,185.71 v -4.9 c 0,0 0.03,-0.06 0.08,-0.06 h 11.88 c 0,0 0.08,0.03 0.08,0.06 v 4.9 c 0,0 -0.03,0.06 -0.08,0.06 H 18.34 c 0,0 -0.08,-0.03 -0.08,-0.06 z"
           id="path496" />
      </g>
      <g
         class="cls-7"
         id="g499"
         style="opacity:1"
         transform="matrix(0,-3.5299401,3.5299401,0,-93.26467,864.3996)">
        <path
           class="cls-28"
           d="m 140.59,100.05 h -2.08 c -0.72,0 -1.3,-0.45 -1.3,-1.01 v -9.86 c 0,-0.56 0.58,-1.01 1.3,-1.01 h 2.08 c 0.72,0 1.3,0.45 1.3,1.01 v 9.86 c 0,0.56 -0.58,1.01 -1.3,1.01"
           id="path497" />
        <path
           class="cls-24"
           d="m 140.76,98.79 h -2.42 c -0.62,0 -1.13,-0.39 -1.13,-0.87 v -7.17 c 0,-0.48 0.5,-0.87 1.13,-0.87 h 2.42 c 0.62,0 1.13,0.39 1.13,0.87 v 7.17 c 0,0.48 -0.5,0.87 -1.13,0.87"
           id="path498" />
        <path
           class="cls-30"
           d="m 141.37,98.19 h -3.63 c -0.42,0 -0.76,-0.26 -0.76,-0.59 v -6.67 c 0,-0.33 0.34,-0.59 0.76,-0.59 h 3.63 c 0.42,0 0.76,0.26 0.76,0.59 v 6.67 c 0,0.32 -0.34,0.59 -0.76,0.59"
           id="path499" />
        <rect
           class="cls-12"
           x="136.97"
           y="91.870003"
           width="5.1500001"
           height="4.5100002"
           id="rect499" />
      </g>
      <g
         class="cls-7"
         id="g502"
         style="opacity:1"
         transform="matrix(0,-3.5299401,3.5299401,0,-93.26467,864.3996)">
        <path
           class="cls-28"
           d="m 149.1,88.33 h 2.03 c 0.7,0 1.27,0.44 1.27,0.98 v 9.61 c 0,0.54 -0.57,0.98 -1.27,0.98 h -2.03 c -0.7,0 -1.27,-0.44 -1.27,-0.98 v -9.61 c 0,-0.54 0.57,-0.98 1.27,-0.98"
           id="path500" />
        <path
           class="cls-24"
           d="m 148.93,89.56 h 2.36 c 0.61,0 1.1,0.38 1.1,0.85 v 6.99 c 0,0.47 -0.49,0.85 -1.1,0.85 h -2.36 c -0.61,0 -1.1,-0.38 -1.1,-0.85 v -6.99 c 0,-0.47 0.49,-0.85 1.1,-0.85"
           id="path501" />
        <path
           class="cls-30"
           d="m 148.34,90.15 h 3.54 c 0.41,0 0.74,0.26 0.74,0.57 v 6.5 c 0,0.32 -0.33,0.57 -0.74,0.57 h -3.54 c -0.41,0 -0.74,-0.26 -0.74,-0.57 v -6.5 c 0,-0.32 0.33,-0.57 0.74,-0.57"
           id="path502" />
        <rect
           class="cls-14"
           x="147.60001"
           y="91.900002"
           width="5.02"
           height="4.4000001"
           id="rect502" />
      </g>
      <g
         class="cls-7"
         id="g505"
         style="opacity:1"
         transform="matrix(0,-3.5299401,3.5299401,0,-93.26467,864.3996)">
        <path
           class="cls-28"
           d="m 117.16,92.94 v -2.03 c 0,-0.7 0.44,-1.27 0.98,-1.27 h 9.61 c 0.54,0 0.98,0.57 0.98,1.27 v 2.03 c 0,0.7 -0.44,1.27 -0.98,1.27 h -9.61 c -0.54,0 -0.98,-0.57 -0.98,-1.27"
           id="path503" />
        <path
           class="cls-24"
           d="m 118.39,93.11 v -2.36 c 0,-0.61 0.38,-1.1 0.85,-1.1 h 6.99 c 0.47,0 0.85,0.49 0.85,1.1 v 2.36 c 0,0.61 -0.38,1.1 -0.85,1.1 h -6.99 c -0.47,0 -0.85,-0.49 -0.85,-1.1"
           id="path504" />
        <path
           class="cls-30"
           d="m 118.98,93.7 v -3.54 c 0,-0.41 0.26,-0.74 0.57,-0.74 h 6.5 c 0.32,0 0.57,0.33 0.57,0.74 v 3.54 c 0,0.41 -0.26,0.74 -0.57,0.74 h -6.5 c -0.32,0 -0.57,-0.33 -0.57,-0.74"
           id="path505" />
        <rect
           class="cls-14"
           x="120.74"
           y="89.419998"
           width="4.4000001"
           height="5.02"
           id="rect505" />
      </g>
      <g
         class="cls-7"
         id="g508"
         style="opacity:1"
         transform="matrix(0,-3.5299401,3.5299401,0,-93.26467,864.3996)">
        <path
           class="cls-28"
           d="m 98.48,108.35 v -2.03 c 0,-0.7 0.44,-1.27 0.98,-1.27 h 9.61 c 0.54,0 0.98,0.57 0.98,1.27 v 2.03 c 0,0.7 -0.44,1.27 -0.98,1.27 h -9.61 c -0.54,0 -0.98,-0.57 -0.98,-1.27"
           id="path506" />
        <path
           class="cls-24"
           d="m 99.71,108.51 v -2.36 c 0,-0.61 0.38,-1.1 0.85,-1.1 h 6.99 c 0.47,0 0.85,0.49 0.85,1.1 v 2.36 c 0,0.61 -0.38,1.1 -0.85,1.1 h -6.99 c -0.47,0 -0.85,-0.49 -0.85,-1.1"
           id="path507" />
        <path
           class="cls-30"
           d="m 100.3,109.1 v -3.54 c 0,-0.41 0.26,-0.74 0.57,-0.74 h 6.5 c 0.32,0 0.57,0.33 0.57,0.74 v 3.54 c 0,0.41 -0.26,0.74 -0.57,0.74 h -6.5 c -0.32,0 -0.57,-0.33 -0.57,-0.74"
           id="path508" />
        <rect
           class="cls-14"
           x="102.06"
           y="104.82"
           width="4.4000001"
           height="5.02"
           id="rect508" />
      </g>
      <g
         class="cls-7"
         id="g511"
         style="opacity:1"
         transform="matrix(0,-3.5299401,3.5299401,0,-93.26467,864.3996)">
        <path
           class="cls-28"
           d="m 40.5,190.67 h -2.03 c -0.7,0 -1.27,-0.44 -1.27,-0.98 v -9.61 c 0,-0.54 0.57,-0.98 1.27,-0.98 h 2.03 c 0.7,0 1.27,0.44 1.27,0.98 v 9.61 c 0,0.54 -0.57,0.98 -1.27,0.98"
           id="path509" />
        <path
           class="cls-24"
           d="m 40.67,189.44 h -2.36 c -0.61,0 -1.1,-0.38 -1.1,-0.85 v -6.99 c 0,-0.47 0.49,-0.85 1.1,-0.85 h 2.36 c 0.61,0 1.1,0.38 1.1,0.85 v 6.99 c 0,0.47 -0.49,0.85 -1.1,0.85"
           id="path510" />
        <path
           class="cls-30"
           d="m 41.26,188.85 h -3.54 c -0.41,0 -0.74,-0.26 -0.74,-0.57 v -6.5 c 0,-0.32 0.33,-0.57 0.74,-0.57 h 3.54 c 0.41,0 0.74,0.26 0.74,0.57 v 6.5 c 0,0.32 -0.33,0.57 -0.74,0.57"
           id="path511" />
        <rect
           class="cls-14"
           x="36.98"
           y="182.69"
           width="5.02"
           height="4.4000001"
           id="rect511" />
      </g>
      <g
         class="cls-7"
         id="g514"
         style="opacity:1"
         transform="matrix(0,-3.5299401,3.5299401,0,-93.26467,864.3996)">
        <path
           class="cls-28"
           d="m 12.24,190.67 h -2.03 c -0.7,0 -1.27,-0.44 -1.27,-0.98 v -9.61 c 0,-0.54 0.57,-0.98 1.27,-0.98 h 2.03 c 0.7,0 1.27,0.44 1.27,0.98 v 9.61 c 0,0.54 -0.57,0.98 -1.27,0.98"
           id="path512" />
        <path
           class="cls-24"
           d="m 12.41,189.44 h -2.36 c -0.61,0 -1.1,-0.38 -1.1,-0.85 v -6.99 c 0,-0.47 0.49,-0.85 1.1,-0.85 h 2.36 c 0.61,0 1.1,0.38 1.1,0.85 v 6.99 c 0,0.47 -0.49,0.85 -1.1,0.85"
           id="path513" />
        <path
           class="cls-30"
           d="M 13,188.85 H 9.46 c -0.41,0 -0.74,-0.26 -0.74,-0.57 v -6.5 c 0,-0.32 0.33,-0.57 0.74,-0.57 H 13 c 0.41,0 0.74,0.26 0.74,0.57 v 6.5 c 0,0.32 -0.33,0.57 -0.74,0.57"
           id="path514" />
        <rect
           class="cls-14"
           x="8.7200003"
           y="182.69"
           width="5.02"
           height="4.4000001"
           id="rect514" />
      </g>
      <circle
         class="cls-31"
         cx="-824.75836"
         cy="382.5007"
         r="15.567035"
         id="circle514"
         transform="rotate(-90)"
         style="stroke-width:3.52994" />
      <circle
         class="cls-31"
         cx="-824.75836"
         cy="382.5007"
         r="6.7774854"
         id="circle515"
         transform="rotate(-90)"
         style="stroke-width:3.52994" />
      <circle
         class="cls-4"
         cx="-824.75836"
         cy="382.5007"
         r="4.6948209"
         id="circle516"
         transform="rotate(-90)"
         style="stroke-width:3.52994" />
      <rect
         class="cls-31"
         x="-795.67163"
         y="365.30991"
         width="30.180988"
         height="30.180988"
         rx="0.70598805"
         ry="0.70598805"
         id="rect516"
         transform="rotate(-90)"
         style="stroke-width:3.52994" />
      <circle
         class="cls-3"
         cx="-780.59875"
         cy="380.38269"
         r="6.7774854"
         id="circle517"
         transform="rotate(-90)"
         style="stroke-width:3.52994" />
      <circle
         class="cls-31"
         cx="-780.59875"
         cy="380.38269"
         r="4.6948209"
         id="circle518"
         transform="rotate(-90)"
         style="stroke-width:3.52994" />
      <circle
         class="cls-31"
         cx="-128.44237"
         cy="382.5007"
         r="15.567035"
         id="circle519"
         transform="rotate(-90)"
         style="stroke-width:3.52994" />
      <circle
         class="cls-31"
         cx="-128.44237"
         cy="382.5007"
         r="6.7774854"
         id="circle520"
         transform="rotate(-90)"
         style="stroke-width:3.52994" />
      <circle
         class="cls-4"
         cx="-128.44237"
         cy="382.5007"
         r="4.6948209"
         id="circle521"
         transform="rotate(-90)"
         style="stroke-width:3.52994" />
      <rect
         class="cls-31"
         x="-87.600975"
         y="365.30991"
         width="36.49958"
         height="36.49958"
         rx="0.84718567"
         ry="0.84718567"
         id="rect521"
         transform="rotate(-90)"
         style="stroke-width:3.52994" />
      <circle
         class="cls-3"
         cx="-69.351189"
         cy="383.52441"
         r="8.1894617"
         id="circle522"
         transform="rotate(-90)"
         style="stroke-width:3.52994" />
      <circle
         class="cls-31"
         cx="-69.351189"
         cy="383.52441"
         r="5.6479044"
         id="circle523"
         transform="rotate(-90)"
         style="stroke-width:3.52994" />
      <g
         class="cls-7"
         id="g524"
         style="opacity:1"
         transform="matrix(0,-3.5299401,3.5299401,0,-93.26467,864.3996)">
        <path
           class="cls-12"
           d="m 117.54,141.97 v -3.25 c 0,-2.77 -2.27,-5.04 -5.04,-5.04 -2.77,0 -5.04,2.27 -5.04,5.04 V 147 c 0,2.77 2.27,5.04 5.04,5.04 0.23,0 0.46,-0.04 0.69,-0.07 0.23,0.03 0.45,0.07 0.69,0.07 h 3.58 c 2.77,0 5.04,-2.27 5.04,-5.04 0,-2.77 -2.22,-4.98 -4.95,-5.03 z"
           id="path523" />
        <path
           class="cls-4"
           d="m 116.91,142.34 v -2.9 c 0,-2.47 -2.02,-4.49 -4.49,-4.49 -2.47,0 -4.49,2.02 -4.49,4.49 v 7.39 c 0,2.47 2.02,4.49 4.49,4.49 0.21,0 0.41,-0.03 0.61,-0.06 0.2,0.03 0.4,0.06 0.61,0.06 h 3.19 c 2.47,0 4.49,-2.02 4.49,-4.49 0,-2.47 -1.98,-4.44 -4.42,-4.49 z"
           id="path524" />
      </g>
      <g
         class="cls-7"
         id="g526"
         style="opacity:1"
         transform="matrix(0,-3.5299401,3.5299401,0,-93.26467,864.3996)">
        <path
           class="cls-12"
           d="m 177.55,141.97 v -3.25 c 0,-2.77 2.27,-5.04 5.04,-5.04 2.77,0 5.04,2.27 5.04,5.04 V 147 c 0,2.77 -2.27,5.04 -5.04,5.04 -0.23,0 -0.46,-0.04 -0.69,-0.07 -0.23,0.03 -0.45,0.07 -0.69,0.07 h -3.58 c -2.77,0 -5.04,-2.27 -5.04,-5.04 0,-2.77 2.22,-4.98 4.95,-5.03 z"
           id="path525" />
        <path
           class="cls-4"
           d="m 178.18,142.34 v -2.9 c 0,-2.47 2.02,-4.49 4.49,-4.49 2.47,0 4.49,2.02 4.49,4.49 v 7.39 c 0,2.47 -2.02,4.49 -4.49,4.49 -0.21,0 -0.41,-0.03 -0.61,-0.06 -0.2,0.03 -0.4,0.06 -0.61,0.06 h -3.19 c -2.47,0 -4.49,-2.02 -4.49,-4.49 0,-2.47 1.98,-4.44 4.42,-4.49 z"
           id="path526" />
      </g>
      <g
         class="cls-7"
         id="g527"
         style="opacity:1"
         transform="matrix(0,-3.5299401,3.5299401,0,-93.26467,864.3996)">
        <rect
           class="cls-12"
           x="107.47"
           y="170.25999"
           width="10.08"
           height="20"
           rx="2.23"
           ry="2.23"
           id="rect526" />
        <rect
           class="cls-4"
           x="108.04"
           y="171.39999"
           width="8.9300003"
           height="17.719999"
           rx="1.98"
           ry="1.98"
           id="rect527" />
      </g>
      <g
         class="cls-7"
         id="g529"
         style="opacity:1"
         transform="matrix(0,-3.5299401,3.5299401,0,-93.26467,864.3996)">
        <rect
           class="cls-12"
           x="177.88"
           y="170.25999"
           width="10.08"
           height="20"
           rx="2.23"
           ry="2.23"
           id="rect528" />
        <rect
           class="cls-4"
           x="178.45"
           y="171.39999"
           width="8.9300003"
           height="17.719999"
           rx="1.98"
           ry="1.98"
           id="rect529" />
      </g>
      <g
         class="cls-7"
         id="g530"
         style="opacity:1"
         transform="matrix(0,-3.5299401,3.5299401,0,-93.26467,864.3996)">
        <circle
           class="cls-10"
           cx="120.13"
           cy="154.14"
           r="2.48"
           id="circle529" />
        <circle
           class="cls-9"
           cx="120.13"
           cy="154.14"
           r="2.0599999"
           id="circle530" />
      </g>
      <g
         class="cls-7"
         id="g532"
         style="opacity:1"
         transform="matrix(0,-3.5299401,3.5299401,0,-93.26467,864.3996)">
        <circle
           class="cls-12"
           cx="175.07001"
           cy="154.14"
           r="2.48"
           id="circle531" />
        <circle
           class="cls-9"
           cx="175.07001"
           cy="154.14"
           r="2.0599999"
           id="circle532" />
      </g>
      <g
         class="cls-7"
         id="g537"
         style="opacity:1"
         transform="matrix(0,-3.5299401,3.5299401,0,-93.26467,864.3996)">
        <circle
           class="cls-16"
           cx="89.220001"
           cy="177.52"
           r="5.1999998"
           id="circle533" />
        <circle
           class="cls-15"
           cx="89.220001"
           cy="177.52"
           r="5.0900002"
           id="circle534" />
        <circle
           class="cls-16"
           cx="89.220001"
           cy="177.52"
           r="3.1199999"
           id="circle535" />
        <circle
           class="cls-5"
           cx="89.220001"
           cy="177.52"
           r="2.8299999"
           id="circle536" />
        <circle
           class="cls-20"
           cx="89.220001"
           cy="177.52"
           r="2.3199999"
           id="circle537" />
      </g>
      <g
         class="cls-7"
         id="g542"
         style="opacity:1"
         transform="matrix(0,-3.5299401,3.5299401,0,-93.26467,864.3996)">
        <circle
           class="cls-16"
           cx="75.629997"
           cy="177.52"
           r="5.1999998"
           id="circle538" />
        <circle
           class="cls-15"
           cx="75.629997"
           cy="177.52"
           r="5.0900002"
           id="circle539" />
        <circle
           class="cls-16"
           cx="75.629997"
           cy="177.52"
           r="3.1199999"
           id="circle540" />
        <circle
           class="cls-5"
           cx="75.629997"
           cy="177.52"
           r="2.8299999"
           id="circle541" />
        <circle
           class="cls-20"
           cx="75.629997"
           cy="177.52"
           r="2.3199999"
           id="circle542" />
      </g>
      <path
         class="cls-8"
         d="m 572.09378,598.13625 v -50.90174 h 15.14345 c 0.56479,0 1.05898,0.45889 1.05898,1.05898 v 48.81907 c 0,0.5648 -0.45889,1.05898 -1.05898,1.05898 h -15.14345 v 0 z"
         id="path542"
         style="opacity:1;stroke-width:3.52994" />
    </g>
  </g>
</svg>
