<?xml version="1.0" encoding="UTF-8" standalone="no"?>
<!-- Generator: Adobe Illustrator 26.3.1, SVG Export Plug-In . SVG Version: 6.00 Build 0)  -->

<svg
   version="1.1"
   id="Layer_2_00000067229134723050422920000002097820957626201749_"
   x="0px"
   y="0px"
   viewBox="0 0 165 246"
   xml:space="preserve"
   sodipodi:docname="RAK19013_Bottom.svg"
   width="165"
   height="246"
   inkscape:version="1.4.2 (f4327f4, 2025-05-13)"
   xmlns:inkscape="http://www.inkscape.org/namespaces/inkscape"
   xmlns:sodipodi="http://sodipodi.sourceforge.net/DTD/sodipodi-0.dtd"
   xmlns="http://www.w3.org/2000/svg"
   xmlns:svg="http://www.w3.org/2000/svg"><defs
   id="defs490" /><sodipodi:namedview
   id="namedview490"
   pagecolor="#505050"
   bordercolor="#eeeeee"
   borderopacity="1"
   inkscape:showpageshadow="0"
   inkscape:pageopacity="0"
   inkscape:pagecheckerboard="0"
   inkscape:deskcolor="#505050"
   inkscape:zoom="12.954374"
   inkscape:cx="98.962716"
   inkscape:cy="209.77471"
   inkscape:window-width="3440"
   inkscape:window-height="1369"
   inkscape:window-x="-8"
   inkscape:window-y="-8"
   inkscape:window-maximized="1"
   inkscape:current-layer="Layer_2_00000067229134723050422920000002097820957626201749_" />
<style
   type="text/css"
   id="style1">
	.st0{fill:#7F8080;}
	.st1{fill:#333333;}
	.st2{fill:#B3B3B3;}
	.st3{fill:#EB2627;}
	.st4{fill:#363896;}
	.st5{fill:#008CA0;}
	.st6{fill:#B51A00;}
	.st7{fill:#FFFFFF;}
	.st8{opacity:0.5;}
	.st9{fill:#292929;}
	.st10{fill:#DEAA53;}
	.st11{enable-background:new    ;}
	.st12{fill:#D2D2D2;}
	.st13{fill:#EAF4FC;}
	.st14{fill:#323D49;}
	.st15{fill:#222630;}
	.st16{fill:#BE8E3F;}
	.st17{fill:#BCC1D2;}
	.st18{fill:#A4A9B8;}
	.st19{fill:#EEEFEB;}
	.st20{fill:#0A0A0A;}
	.st21{fill:#EAEAEA;}
	.st22{fill:#262626;}
	.st23{fill:#E4E4E4;}
	.st24{fill:#282828;}
	.st25{opacity:0.5;fill:#303132;enable-background:new    ;}
	.st26{fill:#796E59;}
	.st27{fill:#303132;}
	.st28{fill:#46342C;}
	.st29{fill:#B8B5AB;}
	.st30{fill:#EC2024;}
</style>
<g
   id="RAK19013">
	<g
   id="g490">
		
		<g
   class="st8"
   id="g271"
   style="opacity:1"
   transform="rotate(90,97.941801,100.46997)">
			<path
   class="st9"
   d="m 234.1,103.6 h -37 c -4.3,0 -7.8,-3.5 -7.8,-7.8 V 42.6 c 0,-4.3 -3.5,-7.8 -7.8,-7.8 h -121 c -4.3,0 -7.8,3.5 -7.8,7.8 v 53.1 c 0,4.3 -3.5,7.8 -7.8,7.8 h -37 c -4.3,0 -7.8,3.5 -7.8,7.8 v 77.3 c 0,4.3 3.5,7.8 7.8,7.8 h 58.5 c 1,-0.1 2.6,-0.6 2.6,-2.8 v -1.3 c 0,0 0.2,-3.1 3.2,-3.1 h 19.7 c 0,0 2.9,-0.1 3.4,3.3 v 1.4 c 0,0 0.3,2.5 3.1,2.5 h 135.9 c 4.3,0 7.8,-3.5 7.8,-7.8 v -77.3 c -0.1,-4.2 -3.6,-7.7 -8,-7.7 z m -170.3,2.2 c -3.5,0 -6.3,-2.8 -6.3,-6.3 0,-3.5 2.8,-6.3 6.3,-6.3 3.5,0 6.3,2.8 6.3,6.3 0,3.5 -2.8,6.3 -6.3,6.3 z m 0,-48.5 c -3.5,0 -6.3,-2.8 -6.3,-6.3 0,-3.5 2.8,-6.3 6.3,-6.3 3.5,0 6.3,2.8 6.3,6.3 0,3.5 -2.8,6.3 -6.3,6.3 z m 113.6,48.5 c -3.5,0 -6.4,-2.8 -6.4,-6.3 0,-3.5 2.8,-6.3 6.4,-6.3 3.6,0 6.4,2.8 6.4,6.3 0,3.5 -2.9,6.3 -6.4,6.3 z m 0,-48.5 c -3.5,0 -6.4,-2.8 -6.4,-6.3 0,-3.5 2.8,-6.3 6.4,-6.3 3.6,0 6.4,2.8 6.4,6.3 0,3.5 -2.9,6.3 -6.4,6.3 z"
   id="path267" />
			<path
   class="st10"
   d="m 63.8,40.3 c -5.9,0 -10.6,4.8 -10.6,10.6 0,5.8 4.8,10.6 10.6,10.6 5.8,0 10.6,-4.8 10.6,-10.6 0,-5.8 -4.7,-10.6 -10.6,-10.6 z m 0,17 c -3.5,0 -6.3,-2.8 -6.3,-6.3 0,-3.5 2.8,-6.3 6.3,-6.3 3.5,0 6.3,2.8 6.3,6.3 0,3.5 -2.8,6.3 -6.3,6.3 z"
   id="path268" />
			<path
   class="st10"
   d="m 177.4,40.4 c -5.8,0 -10.6,4.7 -10.6,10.5 0,5.8 4.7,10.5 10.6,10.5 5.9,0 10.6,-4.7 10.6,-10.5 0,-5.8 -4.8,-10.5 -10.6,-10.5 z m 0,16.9 c -3.5,0 -6.4,-2.8 -6.4,-6.3 0,-3.5 2.8,-6.3 6.4,-6.3 3.6,0 6.4,2.8 6.4,6.3 0,3.5 -2.9,6.3 -6.4,6.3 z"
   id="path269" />
			<path
   class="st10"
   d="m 63.8,89 c -5.8,0 -10.5,4.7 -10.5,10.5 0,5.8 4.7,10.5 10.5,10.5 5.8,0 10.5,-4.7 10.5,-10.5 C 74.3,93.7 69.6,89 63.8,89 Z m 0,16.8 c -3.5,0 -6.3,-2.8 -6.3,-6.3 0,-3.5 2.8,-6.3 6.3,-6.3 3.5,0 6.3,2.8 6.3,6.3 0,3.5 -2.8,6.3 -6.3,6.3 z"
   id="path270" />
			<path
   class="st10"
   d="m 177.4,89 c -5.8,0 -10.5,4.7 -10.5,10.5 0,5.8 4.7,10.5 10.5,10.5 5.8,0 10.5,-4.7 10.5,-10.5 0,-5.8 -4.7,-10.5 -10.5,-10.5 z m 0,16.8 c -3.5,0 -6.4,-2.8 -6.4,-6.3 0,-3.5 2.8,-6.3 6.4,-6.3 3.6,0 6.4,2.8 6.4,6.3 0,3.5 -2.9,6.3 -6.4,6.3 z"
   id="path271" />
		</g>
		<g
   id="g343"
   transform="rotate(90,97.941801,100.46997)">
			<g
   class="st11"
   id="g273">
				<path
   class="st12"
   d="m 75.5,73.9 h 1.2 v 12 h 7 V 87 h -8.2 z"
   id="path272" />
				<path
   class="st12"
   d="m 87.7,73.9 h 1.1 v 1.6 h -1.1 z m 0,3.6 h 1.1 V 87 h -1.1 z"
   id="path273" />
			</g>
			<g
   class="st11"
   id="g274">
				<path
   class="st12"
   d="m 93.6,73.9 h 5.2 c 1.4,0 2.4,0.4 3.1,1.1 0.6,0.6 0.9,1.5 0.9,2.5 0,2.4 -1.4,3.8 -4.2,3.8 H 94.8 V 87 h -1.2 z m 4.9,6.4 c 2.1,0 3,-1 3,-2.7 0,-1.7 -1,-2.6 -2.9,-2.6 h -3.8 v 5.3 z"
   id="path274" />
			</g>
			<g
   class="st11"
   id="g275">
				<path
   class="st12"
   d="m 105.8,82.3 c 0,-2.8 1.7,-5 4.4,-5 2.7,0 4.4,2.2 4.4,5 0,2.8 -1.6,5 -4.4,5 -2.8,0 -4.4,-2.2 -4.4,-5 z m 7.6,0 c 0,-2.2 -1.1,-4 -3.2,-4 -2.1,0 -3.2,1.8 -3.2,4 0,2.2 1.1,4 3.2,4 2.1,0 3.2,-1.8 3.2,-4 z"
   id="path275" />
			</g>
			<g
   class="st11"
   id="g280">
				<path
   class="st12"
   d="m 123,82.8 h 1.2 c 0.1,2.2 1.6,3.5 4.1,3.5 1.9,0 3.4,-1 3.4,-2.8 0,-1.9 -1.2,-2.3 -4,-2.9 -2.4,-0.5 -4.1,-1.2 -4.1,-3.5 0,-2.1 1.8,-3.5 4.4,-3.5 2.9,0 4.4,1.6 4.6,3.8 h -1.2 c -0.2,-1.9 -1.5,-2.8 -3.4,-2.8 -2,0 -3.2,1 -3.2,2.4 0,1.6 1.2,2 3.6,2.5 2.6,0.5 4.7,1.1 4.7,3.9 0,2.3 -1.9,3.8 -4.6,3.8 -3.7,0.1 -5.4,-1.9 -5.5,-4.4 z"
   id="path276" />
				<path
   class="st12"
   d="m 136.2,82.3 c 0,-2.8 1.7,-5 4.4,-5 2.7,0 4.4,2.2 4.4,5 0,2.8 -1.6,5 -4.4,5 -2.8,0 -4.4,-2.2 -4.4,-5 z m 7.7,0 c 0,-2.2 -1.1,-4 -3.2,-4 -2.1,0 -3.2,1.8 -3.2,4 0,2.2 1.1,4 3.2,4 2.1,0 3.2,-1.8 3.2,-4 z"
   id="path277" />
				<path
   class="st12"
   d="m 148.7,73.9 h 1.1 V 87 h -1.1 z"
   id="path278" />
				<path
   class="st12"
   d="m 153.5,84.6 c 0,-2.3 1.8,-2.7 3.9,-3 1.9,-0.2 2.6,-0.3 2.6,-1.3 v -0.2 c 0,-1.3 -0.8,-1.9 -2.3,-1.9 -1.7,0 -2.6,0.7 -2.7,2.1 h -1.1 c 0.1,-1.8 1.3,-3 3.8,-3 2.1,0 3.4,0.9 3.4,2.9 v 5.2 c 0,0.6 0.2,0.8 0.6,0.8 0.1,0 0.3,0 0.4,-0.1 h 0.1 V 87 c -0.2,0.1 -0.4,0.1 -0.8,0.1 -0.8,0 -1.3,-0.4 -1.4,-1.3 v -0.2 h -0.1 c -0.5,0.8 -1.5,1.6 -3.3,1.6 -1.8,0.1 -3.1,-0.8 -3.1,-2.6 z m 6.5,-1 v -1.7 c -0.6,0.3 -1.5,0.5 -2.5,0.6 -1.6,0.2 -2.8,0.5 -2.8,2.1 0,1.3 1,1.7 2.1,1.7 2.1,0 3.2,-1.4 3.2,-2.7 z"
   id="path279" />
				<path
   class="st12"
   d="m 165.4,77.5 h 1.1 v 1.8 0 c 0.6,-1.1 1.6,-1.8 2.9,-1.8 0.1,0 0.2,0 0.3,0 v 1.1 c -0.7,-0.1 -1.4,0 -2,0.5 -0.7,0.6 -1.2,1.4 -1.2,2.6 V 87 h -1.1 z"
   id="path280" />
			</g>
			<path
   class="st12"
   d="m 86,68.6 h -7.3 c -0.1,0 -0.2,-0.1 -0.2,-0.2 V 50.9 c 0,-0.1 0.1,-0.2 0.2,-0.2 H 86 c 0.1,0 0.2,0.1 0.2,0.2 0,0.1 -0.1,0.2 -0.2,0.2 h -7 v 17 h 7 c 0.1,0 0.2,0.1 0.2,0.2 0,0.1 0,0.3 -0.2,0.3 z"
   id="path281" />
			<path
   class="st12"
   d="m 161.2,68.6 h -7.3 c -0.1,0 -0.2,-0.1 -0.2,-0.2 0,-0.1 0.1,-0.2 0.2,-0.2 h 7.1 v -17 h -7.1 c -0.1,0 -0.2,-0.1 -0.2,-0.2 0,-0.1 0.1,-0.2 0.2,-0.2 h 7.3 c 0.1,0 0.2,0.1 0.2,0.2 v 17.5 c 0.1,0 0,0.1 -0.2,0.1 z"
   id="path282" />
			<g
   class="st11"
   id="g287">
				<path
   class="st12"
   d="m 127.8,116.9 h 5.9 c 2.4,0 3.7,1.4 3.7,3.5 0,1.6 -0.7,2.7 -2.2,3.2 v 0.1 c 1.4,0.5 1.8,1.5 1.9,3.5 0.1,2.1 0.3,2.6 0.6,2.8 v 0.1 h -1.3 c -0.3,-0.2 -0.4,-0.7 -0.5,-2.9 -0.1,-2.3 -0.9,-2.9 -2.8,-2.9 h -4 v 5.9 h -1.2 v -13.3 z m 5.4,6.2 c 1.9,0 2.9,-0.9 2.9,-2.6 0,-1.6 -0.7,-2.6 -2.7,-2.6 H 129 v 5.1 h 4.2 z"
   id="path283" />
				<path
   class="st12"
   d="m 143.7,116.9 h 1.4 l 5,13.1 h -1.3 l -1.5,-4.1 h -5.7 L 140,130 h -1.3 z m 3.2,8 -1.8,-4.9 c -0.3,-0.7 -0.7,-1.9 -0.7,-1.9 v 0 c 0,0 -0.3,1.1 -0.6,1.9 l -1.8,4.9 z"
   id="path284" />
				<path
   class="st12"
   d="m 151.8,116.9 h 1.2 v 7 l 7.1,-7 h 1.6 l -5.5,5.4 5.8,7.8 h -1.5 l -5.2,-7 -2.4,2.3 v 4.6 h -1.2 v -13.1 z"
   id="path285" />
				<path
   class="st12"
   d="m 165.7,120.6 h -2.6 v -0.8 c 1.9,-0.1 2.7,-0.5 2.9,-2.4 h 0.9 V 130 h -1.2 z"
   id="path286" />
				<path
   class="st12"
   d="m 169.7,126.9 h 1.2 c 0.1,1.4 1.1,2.3 2.6,2.3 0.9,0 1.7,-0.3 2.2,-0.8 0.9,-0.9 1.3,-2.6 1.3,-4.9 v 0 c -0.7,1.3 -1.9,2 -3.4,2 -2.3,0 -4,-1.7 -4,-4.1 0,-2.4 1.7,-4.3 4.1,-4.3 1.2,0 2.1,0.4 2.8,1 1.3,1.1 1.7,2.9 1.7,5.6 0,2.4 -0.5,4.2 -1.7,5.4 -0.7,0.7 -1.7,1.1 -2.9,1.1 -2.3,0.1 -3.8,-1.2 -3.9,-3.3 z m 7,-5.5 c 0,-1.9 -1.3,-3.2 -3.1,-3.2 -1.8,0 -3,1.4 -3,3.2 0,1.9 1.2,3.1 2.9,3.1 1.9,0 3.2,-1.3 3.2,-3.1 z"
   id="path287" />
			</g>
			<g
   class="st11"
   id="g288">
				<path
   class="st12"
   d="m 179.9,123.7 c 0,-4.1 1.8,-6.6 4.7,-6.6 2.8,0 4.7,2.4 4.7,6.6 0,4 -1.7,6.6 -4.7,6.6 -3.1,0 -4.7,-2.6 -4.7,-6.6 z m 8.1,0 c 0,-3.4 -1.2,-5.6 -3.4,-5.6 -2.2,0 -3.4,2.1 -3.4,5.6 0,3.4 1.2,5.5 3.4,5.5 2.2,0.1 3.4,-2 3.4,-5.5 z"
   id="path288" />
			</g>
			<g
   class="st11"
   id="g290">
				<path
   class="st12"
   d="m 193.2,120.6 h -2.6 v -0.8 c 1.9,-0.1 2.7,-0.5 2.9,-2.4 h 0.9 V 130 h -1.2 z"
   id="path289" />
				<path
   class="st12"
   d="m 196.8,126.1 h 1.2 c 0.1,2 1.4,3.1 3.3,3.1 1.9,0 3,-1 3,-2.8 0,-1.7 -1.1,-2.6 -3.1,-2.6 h -0.9 v -1 h 0.9 c 1.7,0 2.7,-0.9 2.7,-2.3 0,-1.5 -1.1,-2.4 -2.6,-2.4 -1.8,0 -2.8,1.3 -2.8,3 h -1.2 c 0,-2.3 1.5,-4 4.1,-4 2.1,0 3.8,1.3 3.8,3.4 0,1.4 -0.8,2.3 -1.9,2.7 v 0.1 c 1.6,0.5 2.4,1.6 2.4,3.3 0,2.3 -1.7,3.7 -4.2,3.7 -2.8,0 -4.7,-1.6 -4.7,-4.2 z"
   id="path290" />
			</g>
			<g
   class="st11"
   id="g291">
				<path
   class="st12"
   d="m 215.3,116.9 h 1.3 l 3.4,9.7 c 0.3,0.8 0.7,2.2 0.7,2.2 v 0 c 0,0 0.4,-1.4 0.7,-2.2 l 3.4,-9.7 h 1.3 L 221.3,130 H 220 Z"
   id="path291" />
			</g>
			<g
   class="st11"
   id="g292">
				<path
   class="st12"
   d="m 230.3,116.9 h 1.4 l 5,13.1 h -1.3 l -1.5,-4.1 h -5.7 l -1.5,4.1 h -1.2 z m 3.1,8 -1.8,-4.9 c -0.3,-0.7 -0.7,-1.9 -0.7,-1.9 v 0 c 0,0 -0.3,1.1 -0.6,1.9 l -1.8,4.9 z"
   id="path292" />
			</g>
			<path
   class="st12"
   d="m 129.1,99.2 h -14.4 c -0.4,0 -0.8,-0.4 -0.8,-0.8 v -7.8 c 0,-0.4 0.4,-0.8 0.8,-0.8 h 14.4 c 0.4,0 0.8,0.4 0.8,0.8 v 7.8 c 0,0.4 -0.3,0.8 -0.8,0.8 z m -14.3,-8.9 c -0.2,0 -0.3,0.1 -0.3,0.3 v 7.8 c 0,0.2 0.1,0.3 0.3,0.3 h 14.4 c 0.2,0 0.3,-0.1 0.3,-0.3 v -7.8 c 0,-0.2 -0.1,-0.3 -0.3,-0.3 z"
   id="path293" />
			<path
   class="st12"
   d="M 110.8,114.6 H 96.4 c -0.4,0 -0.8,-0.4 -0.8,-0.8 V 106 c 0,-0.4 0.4,-0.8 0.8,-0.8 h 14.4 c 0.4,0 0.8,0.4 0.8,0.8 v 7.8 c 0,0.5 -0.4,0.8 -0.8,0.8 z m -14.4,-8.9 c -0.2,0 -0.3,0.1 -0.3,0.3 v 7.8 c 0,0.2 0.1,0.3 0.3,0.3 h 14.4 c 0.2,0 0.3,-0.1 0.3,-0.3 V 106 c 0,-0.2 -0.1,-0.3 -0.3,-0.3 z"
   id="path294" />
			<path
   class="st12"
   d="M 15.7,194.2 H 7.8 C 7.4,194.2 7,193.8 7,193.4 V 179 c 0,-0.4 0.4,-0.8 0.8,-0.8 h 7.8 c 0.5,0 0.8,0.4 0.8,0.8 v 14.4 c 0.1,0.5 -0.3,0.8 -0.7,0.8 z M 7.8,178.8 c -0.2,0 -0.3,0.1 -0.3,0.3 v 14.4 c 0,0.2 0.1,0.3 0.3,0.3 h 7.8 c 0.2,0 0.3,-0.1 0.3,-0.3 v -14.4 c 0,-0.2 -0.1,-0.3 -0.3,-0.3 z"
   id="path295" />
			<path
   class="st12"
   d="M 123,130.5 H 96.6 c -0.7,0 -1.2,-0.6 -1.2,-1.2 v -12.7 c 0,-0.7 0.6,-1.2 1.2,-1.2 H 123 c 0.7,0 1.2,0.6 1.2,1.2 v 12.7 c 0,0.7 -0.5,1.2 -1.2,1.2 z M 96.6,115.9 c -0.4,0 -0.7,0.3 -0.7,0.7 v 12.7 c 0,0.4 0.3,0.7 0.7,0.7 H 123 c 0.4,0 0.7,-0.3 0.7,-0.7 v -12.7 c 0,-0.4 -0.3,-0.7 -0.7,-0.7 z"
   id="path296" />
			<path
   class="st12"
   d="m 133.9,115.9 h -21.5 c -0.6,0 -1,-0.5 -1,-1 V 105 c 0,-0.6 0.5,-1 1,-1 h 21.5 c 0.6,0 1,0.5 1,1 v 9.9 c 0,0.6 -0.5,1 -1,1 z m -21.5,-11.5 c -0.3,0 -0.5,0.2 -0.5,0.5 v 9.9 c 0,0.3 0.2,0.5 0.5,0.5 h 21.5 c 0.3,0 0.5,-0.2 0.5,-0.5 v -9.9 c 0,-0.3 -0.2,-0.5 -0.5,-0.5 z"
   id="path297" />
			<path
   class="st12"
   d="m 142.1,104.4 h -7.8 c -0.4,0 -0.8,-0.4 -0.8,-0.8 V 89.2 c 0,-0.4 0.4,-0.8 0.8,-0.8 h 7.8 c 0.4,0 0.8,0.4 0.8,0.8 v 14.4 c 0,0.5 -0.4,0.8 -0.8,0.8 z m -7.8,-15.5 c -0.2,0 -0.3,0.1 -0.3,0.3 v 14.4 c 0,0.2 0.1,0.3 0.3,0.3 h 7.8 c 0.2,0 0.3,-0.1 0.3,-0.3 V 89.2 c 0,-0.2 -0.1,-0.3 -0.3,-0.3 z"
   id="path298" />
			<path
   class="st12"
   d="m 159.6,96.7 h -14.4 c -0.4,0 -0.8,-0.4 -0.8,-0.8 v -7.8 c 0,-0.4 0.4,-0.8 0.8,-0.8 h 14.4 c 0.4,0 0.8,0.4 0.8,0.8 v 7.8 c 0,0.4 -0.3,0.8 -0.8,0.8 z m -14.4,-9 c -0.2,0 -0.3,0.1 -0.3,0.3 v 7.8 c 0,0.2 0.1,0.3 0.3,0.3 h 14.4 c 0.2,0 0.3,-0.1 0.3,-0.3 V 88 c 0,-0.2 -0.1,-0.3 -0.3,-0.3 z"
   id="path299" />
			<path
   class="st12"
   d="m 160.1,111.9 h -14 c -0.5,0 -1,-0.4 -1,-1 V 97.2 c 0,-0.5 0.4,-1 1,-1 h 14 c 0.5,0 1,0.4 1,1 v 13.7 c 0,0.5 -0.4,1 -1,1 z m -14,-15.2 c -0.3,0 -0.5,0.2 -0.5,0.5 v 13.7 c 0,0.3 0.2,0.5 0.5,0.5 h 14 c 0.3,0 0.5,-0.2 0.5,-0.5 V 97.2 c 0,-0.3 -0.2,-0.5 -0.5,-0.5 z"
   id="path300" />
			<path
   class="st12"
   d="m 43.8,194.2 c -0.1,0 -0.2,-0.1 -0.2,-0.2 V 179.9 H 35.3 V 194 c 0,0.1 -0.1,0.2 -0.2,0.2 -0.1,0 -0.2,-0.1 -0.2,-0.2 v -14.4 c 0,-0.1 0.1,-0.2 0.2,-0.2 h 8.8 c 0.1,0 0.2,0.1 0.2,0.2 V 194 c -0.1,0.1 -0.2,0.2 -0.3,0.2 z"
   id="path301" />
			<path
   class="st12"
   d="m 20.2,189.1 h -3.3 c -0.1,0 -0.2,-0.1 -0.2,-0.2 v -5.6 c 0,-0.1 0.1,-0.2 0.2,-0.2 0.1,0 0.2,0.1 0.2,0.2 v 5.4 h 3 c 0.1,0 0.2,0.1 0.2,0.2 0,0.1 0,0.2 -0.1,0.2 z"
   id="path302" />
			<path
   class="st12"
   d="m 30.8,189.1 h -3.3 c -0.1,0 -0.2,-0.1 -0.2,-0.2 0,-0.1 0.1,-0.2 0.2,-0.2 h 3 v -5.4 c 0,-0.1 0.1,-0.2 0.2,-0.2 0.1,0 0.2,0.1 0.2,0.2 v 5.6 c 0.2,0.1 0.1,0.2 -0.1,0.2 z"
   id="path303" />
			<path
   class="st12"
   d="m 49.1,189.1 h -3.3 c -0.1,0 -0.2,-0.1 -0.2,-0.2 v -5.6 c 0,-0.1 0.1,-0.2 0.2,-0.2 0.1,0 0.2,0.1 0.2,0.2 v 5.4 h 3 c 0.1,0 0.2,0.1 0.2,0.2 0,0.1 0.1,0.2 -0.1,0.2 z"
   id="path304" />
			<path
   class="st12"
   d="m 59.7,189.1 h -3.3 c -0.1,0 -0.2,-0.1 -0.2,-0.2 0,-0.1 0.1,-0.2 0.2,-0.2 h 3 v -5.4 c 0,-0.1 0.1,-0.2 0.2,-0.2 0.1,0 0.2,0.1 0.2,0.2 v 5.6 c 0.2,0.1 0.1,0.2 -0.1,0.2 z"
   id="path305" />
			<path
   class="st12"
   d="m 25.7,168.3 c -0.3,0 -0.1,0.4 0,0.6 l 2.2,4.6 c 0.1,0.2 0.3,0.2 0.4,0 l 2.2,-4.6 c 0.1,-0.2 0.3,-0.6 0,-0.6 z"
   id="path306" />
			<path
   class="st12"
   d="m 54.4,168.3 c -0.3,0 -0.1,0.4 0,0.6 l 2.2,4.6 c 0.1,0.2 0.3,0.2 0.4,0 l 2.2,-4.6 c 0.1,-0.2 0.3,-0.6 0,-0.6 z"
   id="path307" />
			<g
   id="g316">
				<polygon
   class="st12"
   points="153.2,143.1 150.5,143.1 150.5,140.3 142.7,140.3 142.7,143.1 140.1,143.1 140.1,140.3 133.1,140.3 133.1,143.1 130.3,143.1 130.3,157.9 162.9,157.9 162.9,143.1 160.4,143.1 160.4,140.3 153.2,140.3 "
   id="polygon307" />
				<g
   id="g315">
					<path
   class="st12"
   d="m 118.4,173.4 h 1.4 l 1.4,6 v 0 l 1.6,-6 h 1.4 l 1.5,6 v 0 l 1.5,-6 h 1.4 l -2,7.8 h -1.4 l -1.6,-6 v 0 l -1.6,6 h -1.4 z"
   id="path308" />
					<path
   class="st12"
   d="m 129.3,173.4 h 1.2 v 1.2 h -1.2 z m 0,2.2 h 1.2 v 5.6 h -1.2 z"
   id="path309" />
					<path
   class="st12"
   d="m 132.9,179.4 c 0,0.7 0.6,1 1.3,1 0.7,0 1.3,0 1.3,-0.8 0,-0.8 -0.9,-0.7 -1.9,-0.9 -0.9,-0.2 -1.8,-0.5 -1.8,-1.6 0,-1.1 1.3,-1.6 2.4,-1.6 1.1,0 2.2,0.5 2.4,1.8 h -1.3 c 0,-0.6 -0.6,-0.8 -1.1,-0.8 -0.5,0 -1,0 -1,0.6 0,0.6 0.9,0.7 1.9,0.9 0.9,0.2 1.8,0.5 1.8,1.6 0,1.1 -1.3,1.9 -2.5,1.9 -1.2,0 -2.5,-0.6 -2.5,-2 h 1 z"
   id="path310" />
					<path
   class="st12"
   d="m 137.7,173.4 h 3.7 c 1.5,0 2.5,0.5 2.5,1.9 0,0.7 -0.4,1.4 -1.1,1.6 0.9,0.2 1.5,1.1 1.4,2 0,1.6 -1.3,2.3 -2.8,2.3 h -3.8 z m 1.8,3.2 h 1.7 c 0.6,0 1.1,-0.3 1.1,-0.9 0,-0.6 -0.6,-0.9 -1.2,-0.9 h -1.6 z m 0,3.3 h 1.9 c 0.7,0 1.3,-0.2 1.3,-1 0,-0.8 -0.5,-1.1 -1.2,-1.1 h -1.9 v 2.1 z"
   id="path311" />
					<path
   class="st12"
   d="m 145.4,173.4 h 1.7 v 6.5 h 3.8 v 1.5 h -5.6 z"
   id="path312" />
					<path
   class="st12"
   d="m 155.5,173.2 c 2.1,0 3.8,1.7 3.9,3.8 0,0.1 0,0.2 0,0.4 0.2,2.1 -1.4,4 -3.5,4.2 -2.1,0.2 -4,-1.4 -4.2,-3.5 0,-0.2 0,-0.4 0,-0.7 -0.2,-2.1 1.4,-3.9 3.5,-4.1 0,-0.1 0.1,-0.1 0.3,-0.1 z m 0,6.8 c 1.5,0 2.1,-1.3 2.1,-2.6 0,-1.3 -0.6,-2.8 -2.1,-2.8 -1.5,0 -2.1,1.3 -2.1,2.8 0,1.5 0.5,2.6 2.1,2.6 z"
   id="path313" />
					<path
   class="st12"
   d="m 165.7,176.1 c -0.2,-0.8 -0.9,-1.4 -1.7,-1.4 -1.5,0 -2.1,1.3 -2.1,2.8 0,1.5 0.6,2.6 2.1,2.6 1,0 1.8,-0.8 1.8,-1.8 h 1.6 c 0,1.8 -1.6,3.2 -3.4,3.2 0,0 -0.1,0 -0.1,0 -2.1,0.1 -3.8,-1.5 -3.9,-3.6 0,-0.2 0,-0.4 0,-0.6 -0.2,-2.1 1.4,-3.9 3.5,-4.1 0.1,0 0.2,0 0.4,0 1.7,-0.1 3.2,1.1 3.4,2.8 z"
   id="path314" />
					<path
   class="st12"
   d="m 168.5,173.4 h 1.7 v 3.2 l 3.1,-3.2 h 2.2 l -3.1,3.1 3.4,4.8 h -2.2 l -2.3,-3.5 -1,1 v 2.6 h -1.8 z"
   id="path315" />
				</g>
			</g>
			<g
   id="g341">
				<path
   class="st12"
   d="m 213.4,142.8 23.2,47.7 h -46.4 z m 0,-2.6 -25,51.4 h 50.1 z"
   id="path316" />
				
					<rect
   x="216.8"
   y="154.5"
   transform="matrix(0.4927,-0.8702,0.8702,0.4927,-38.5254,275.9099)"
   class="st12"
   width="1.1"
   height="32.900002"
   id="rect316" />
				
					<rect
   x="217.2"
   y="155.89999"
   transform="matrix(0.4927,-0.8702,0.8702,0.4927,-41.0328,277.862)"
   class="st12"
   width="1.1"
   height="36.400002"
   id="rect317" />
				<path
   class="st12"
   d="m 206.8,165 -1,-0.5 c 0.1,-0.1 1.9,-3.5 3.3,-5.6 1.5,-2.1 9.9,-4 10.9,-4.2 l 0.2,1.1 c -3.4,0.7 -9.2,2.4 -10.2,3.7 -1.3,2 -3.2,5.4 -3.2,5.5"
   id="path317" />
				<path
   class="st12"
   d="m 221.2,173.5 -0.6,-1 c 1.2,-0.7 2.3,-2.2 2.1,-3.9 -0.2,-2.1 0.8,-5.1 0.9,-5.2 l 1.1,0.4 c 0,0 -1,3 -0.8,4.8 0.2,2.2 -1.2,4 -2.7,4.9"
   id="path318" />
				<path
   class="st12"
   d="m 209.1,179.6 c -0.1,0 -0.3,0 -0.4,0 -2.4,-0.3 -5.4,-7.7 -5.4,-7.8 -1.1,-2.8 1.4,-5.1 1.5,-5.2 l 0.8,0.8 c 0,0 -2,1.9 -1.2,4 1.3,3.2 3.5,7 4.5,7.1 0.5,0.1 0.8,0 0.9,-0.2 0.1,-0.2 0,-0.6 -0.5,-1.1 -1.2,-1.5 -2.6,-4.8 -2.4,-5.8 0.1,-0.9 1.1,-2.5 1.3,-2.8 l 1,0.6 c -0.4,0.7 -1.1,1.9 -1.1,2.3 -0.1,0.5 1.1,3.5 2.2,4.9 1,1.2 0.8,2 0.6,2.4 -0.5,0.5 -1.1,0.8 -1.8,0.8"
   id="path319" />
				<path
   class="st12"
   d="m 213.5,181.8 c -0.2,0 -0.5,-0.1 -0.7,-0.2 -0.4,-0.2 -0.9,-0.7 -0.7,-2 0.3,-2.6 3.6,-6.6 3.8,-6.8 l 0.9,0.7 c -0.9,1.1 -3.3,4.3 -3.5,6.2 -0.1,0.5 0,0.8 0.1,0.8 0.3,0.1 1.3,-0.2 2.1,-0.9 0.9,-0.8 3,-3.8 3.7,-4.9 l 0.9,0.6 c -0.1,0.2 -2.6,4 -3.9,5.1 -0.6,0.7 -1.7,1.4 -2.7,1.4"
   id="path320" />
				<path
   class="st12"
   d="m 213.2,177.7 c -1.5,0 -4.1,-1.6 -4.7,-1.9 l 0.6,-1 c 1.8,1.1 3.9,1.9 4.3,1.7 0.1,-0.2 0.2,-0.5 0.1,-0.8 -0.2,-0.7 -1.1,-1.4 -2.4,-2 -1,-0.4 -1.6,-1.1 -1.9,-1.8 -0.3,-1 0.3,-1.9 0.6,-2.5 l 1,0.6 c -0.3,0.5 -0.6,1 -0.5,1.5 0.1,0.4 0.5,0.7 1.2,1.1 1.6,0.7 2.7,1.7 3,2.7 0.2,0.6 0.1,1.2 -0.2,1.8 -0.1,0.2 -0.3,0.4 -0.7,0.5 -0.1,0.1 -0.3,0.1 -0.4,0.1"
   id="path321" />
				<rect
   x="211.3"
   y="145.39999"
   class="st12"
   width="4.5999999"
   height="1.1"
   id="rect321" />
				<rect
   x="209.89999"
   y="148.2"
   class="st12"
   width="7.0999999"
   height="1.1"
   id="rect322" />
				<rect
   x="208.60001"
   y="151"
   class="st12"
   width="9.8000002"
   height="1.1"
   id="rect323" />
				<rect
   x="207.2"
   y="153.8"
   class="st12"
   width="12.5"
   height="1.1"
   id="rect324" />
				<rect
   x="206.10001"
   y="156.5"
   class="st12"
   width="7.4000001"
   height="1.1"
   id="rect325" />
				<rect
   x="204.5"
   y="159.3"
   class="st12"
   width="4.5999999"
   height="1.1"
   id="rect326" />
				<rect
   x="203.39999"
   y="162.10001"
   class="st12"
   width="3.9000001"
   height="1.1"
   id="rect327" />
				<rect
   x="200.39999"
   y="167.7"
   class="st12"
   width="3.7"
   height="1.1"
   id="rect328" />
				<rect
   x="223.5"
   y="167.7"
   class="st12"
   width="3"
   height="1.1"
   id="rect329" />
				<rect
   x="199.10001"
   y="170.39999"
   class="st12"
   width="4.6999998"
   height="1.1"
   id="rect330" />
				<rect
   x="223"
   y="170.39999"
   class="st12"
   width="4.6999998"
   height="1.1"
   id="rect331" />
				<rect
   x="198"
   y="173.2"
   class="st12"
   width="6.8000002"
   height="1.1"
   id="rect332" />
				<rect
   x="222.39999"
   y="173.2"
   class="st12"
   width="6.8000002"
   height="1.1"
   id="rect333" />
				<rect
   x="196.39999"
   y="176"
   class="st12"
   width="10"
   height="1.1"
   id="rect334" />
				<rect
   x="218.60001"
   y="176"
   class="st12"
   width="3.5999999"
   height="1.1"
   id="rect335" />
				<rect
   x="227.3"
   y="176"
   class="st12"
   width="3"
   height="1.1"
   id="rect336" />
				<rect
   x="195"
   y="178.8"
   class="st12"
   width="17.6"
   height="1.1"
   id="rect337" />
				<rect
   x="216.60001"
   y="178.8"
   class="st12"
   width="10.7"
   height="1.1"
   id="rect338" />
				<rect
   x="194.10001"
   y="181.60001"
   class="st12"
   width="37.799999"
   height="1.1"
   id="rect339" />
				<rect
   x="192.3"
   y="184.39999"
   class="st12"
   width="42.200001"
   height="1.1"
   id="rect340" />
				<rect
   x="190.8"
   y="187.10001"
   class="st12"
   width="45"
   height="1.1"
   id="rect341" />
			</g>
			<g
   id="g342">
				<path
   class="st12"
   d="m 80.6,156.8 c -0.1,0 -0.1,0 -0.2,0 -1,0 -1.7,0.8 -1.7,1.7 0,0.9 0,0.2 0,0.3 0.2,0.8 0.9,1.4 1.7,1.4 0.6,0 1.1,-0.3 1.4,-0.7 0.2,-0.3 0.3,-0.6 0.3,-1 0,-0.3 -0.1,-0.5 -0.2,-0.8 -0.1,-0.5 -0.7,-0.9 -1.3,-0.9 m -0.1,2.1 c -0.1,0 -0.2,0 -0.2,-0.1 -0.1,-0.1 -0.2,-0.2 -0.2,-0.3 0,-0.1 0.2,-0.4 0.4,-0.4 0,0 0,0 0.1,0 0.2,0 0.3,0.2 0.3,0.4 -0.1,0.2 -0.2,0.4 -0.4,0.4"
   id="path341" />
				<path
   class="st12"
   d="m 82.4,153.8 c 0,-0.4 0.1,-0.7 0.1,-1.1 l 7.4,7.7 v -1.7 l -7.2,-7.6 c 0.3,-3 0.5,-5.9 0.8,-8.8 0.4,-4.2 0.8,-8.5 1.2,-12.8 h 3.7 v -5.4 h -1.5 l 3,-3.2 v -1.7 l -3,3.1 -1.7,1.8 -0.1,0.1 c 0,0 0,-0.1 0,-0.1 0.1,-0.6 0.1,-1.2 0.2,-1.8 h 1.6 v -0.9 c 0.8,-0.3 1.4,-1.1 1.4,-2 0,-1.2 -0.9,-2.1 -2.1,-2.1 -0.7,0 -1.3,0.3 -1.7,0.8 -0.8,-0.6 -1.8,-1.1 -2.5,-1.4 -1.8,-0.7 -3.6,-1 -5.2,-1.2 v -1.2 H 69 v 0.9 c -1,0.1 -2.5,0.2 -4.2,0.6 v -0.7 h -3.4 v 1.6 c -1,0.4 -2.4,1.2 -3.2,2 -0.2,0.2 -0.2,0.4 -0.2,0.6 0,0.2 0,0.3 0,0.5 h -1.9 v 2.2 h 2.2 c 0.1,1.2 0.2,2.5 0.4,3.7 l -4,-4.2 v 1.7 l 4.2,4.3 c 0.5,4.8 0.9,9.6 1.3,14.3 0.2,2.4 0.4,4.8 0.7,7.2 l -6.2,6.4 v 1.7 l 6.3,-6.6 c 0.3,2.8 0.5,5.7 0.8,8.5 0,0.4 0.3,0.7 0.7,0.7 v 3.6 h 3 v -3.6 h 10.2 c 0.7,1.9 2.6,3.3 4.8,3.3 2.8,0 5.1,-2.3 5.1,-5.1 0,-1.5 -1.4,-3.4 -3.2,-4.1 m 3.8,-35.2 c 0.5,0 0.9,0.4 0.9,0.9 0,0.2 -0.1,0.4 -0.2,0.6 h -1.4 c 0,-0.2 0,-0.3 0.1,-0.5 0,-0.2 -0.1,-0.4 -0.2,-0.6 0.2,-0.2 0.5,-0.4 0.8,-0.4 m -1.2,7.5 0.7,-0.7 H 87 v 2.9 h -2.3 c 0.1,-0.7 0.2,-1.5 0.3,-2.2 m -3,16.1 c -0.2,2.5 -0.5,5 -0.7,7.5 l -9.5,-9.9 5.8,-6.1 H 79 v -1.5 l 4,-4.2 v 1.5 h 0.1 c -0.3,4.3 -0.7,8.5 -1.1,12.7 m -4.8,-9.7 H 70 v -1.1 h 7.7 v 0.5 z m -6.9,-16.7 h 5.2 v 1.1 h -5.2 z m -5.5,1.7 c 1.7,-0.4 3.2,-0.5 4.2,-0.6 v 1.1 h 7.8 v -0.9 c 1.4,0.2 3.1,0.5 4.7,1.1 0.7,0.3 1.8,0.9 2.6,1.5 0,0.1 0,0.2 0,0.3 H 64.8 Z m -2,-0.9 h 0.7 v 2.3 h -0.7 z m -3.3,3.2 c 0.5,-0.4 1.2,-0.9 1.9,-1.2 v 1.5 h -1.8 c 0,-0.1 -0.1,-0.2 -0.1,-0.3 m 0.3,2.6 h 24.1 c -0.1,0.6 -0.1,1.2 -0.2,1.8 h -0.6 v 2.2 l -4,4.2 v -0.4 H 68.7 v 3.6 H 76 L 71,139 60.3,127.8 c -0.2,-1.8 -0.4,-3.6 -0.5,-5.4 m 1.8,19.8 c -0.4,-4.1 -0.8,-8.3 -1.2,-12.5 l 9.7,10.1 -8,8.3 c -0.1,-1.9 -0.3,-3.9 -0.5,-5.9 m 2.7,20.7 h -0.7 v -1.8 h 0.7 z m 11.1,-4.4 c 0,0.1 0,0.2 0,0.3 H 63.2 c -0.3,-3 -0.5,-6.1 -0.8,-9.1 l 8.7,-9.1 10.2,10.6 c -0.1,0.7 -0.1,1.4 -0.2,2.2 -0.2,0 -0.3,0 -0.5,0 -3,0 -5.2,2.3 -5.2,5.1 m 5.1,2.7 c -0.8,0 -1.5,-0.3 -1.9,-0.9 -0.4,-0.4 -0.6,-0.9 -0.7,-1.5 0,-0.1 0,-0.2 0,-0.3 0,-0.1 1.2,-2.6 2.7,-2.6 0.1,0 0.2,0 0.3,0 0.5,0.1 1,0.3 1.4,0.6 0.6,0.5 1,1.2 1,2.1 -0.2,1.4 -1.4,2.6 -2.8,2.6"
   id="path342" />
			</g>
			<circle
   class="st12"
   cx="151.2"
   cy="46.099998"
   r="2.3"
   id="circle342" />
		</g>
		<g
   id="g430"
   transform="rotate(90,97.941801,100.46997)">
			<path
   class="st13"
   d="m 156.9,52.7 h 0.7 c 0.6,0 1.1,0.5 1.1,1.1 v 12 c 0,0.6 -0.5,1.1 -1.1,1.1 h -0.7 c -0.6,0 -1.1,-0.5 -1.1,-1.1 v -12 c 0,-0.6 0.5,-1.1 1.1,-1.1 v 0"
   id="path343" />
			<path
   class="st13"
   d="m 82,52.7 h 0.7 c 0.6,0 1.1,0.5 1.1,1.1 v 0 12 c 0,0.6 -0.5,1.1 -1.1,1.1 0,0 0,0 0,0 H 82 c -0.6,0 -1.1,-0.5 -1.1,-1.1 0,0 0,0 0,-0.1 v -12 c -0.1,-0.5 0.4,-1 1.1,-1 -0.1,0 0,0 0,0"
   id="path344" />
			<path
   class="st14"
   d="m 80.1,63.2 v 1.1 c 0,0.6 0.5,1.1 1.1,1.1 h 2.3 c 0.5,0 0.9,-0.3 1.1,-0.7 H 155 c 0.2,0.4 0.6,0.7 1.1,0.7 h 2.3 c 0.6,0 1.1,-0.5 1.1,-1.1 0,0 0,0 0,-0.1 v -1.1 c 0,-0.5 -0.3,-0.9 -0.8,-1.1 v -4.6 c 0.5,-0.2 0.8,-0.6 0.8,-1.1 v -1.2 c 0,-0.6 -0.5,-1.1 -1.1,-1.1 0,0 0,0 0,0 h -2.3 c -0.5,0 -0.9,0.3 -1.1,0.8 H 84.7 C 84.5,54.3 84.1,54 83.6,54 h -2.3 c -0.6,0 -1.1,0.5 -1.1,1.1 v 1.3 c 0,0.4 0.3,0.8 0.7,1 v 4.7 c -0.5,0.2 -0.8,0.6 -0.8,1.1 z"
   id="path345" />
			<path
   class="st15"
   d="m 86.4,56 h 67.1 c 0.5,0 0.9,0.3 0.9,0.6 v 6.3 c 0,0.3 -0.4,0.6 -0.9,0.6 H 86.4 c -0.5,0 -0.9,-0.3 -0.9,-0.6 V 56.6 C 85.4,56.2 85.8,56 86.4,56"
   id="path346" />
			<path
   class="st13"
   d="m 150.1,69.4 h 1.3 c 0.2,0 0.3,-0.2 0.3,-0.3 v 0 -1.1 c 0,-0.2 -0.1,-0.3 -0.3,-0.3 0,0 0,0 0,0 v -3.1 h -1.3 v 3.1 c -0.2,0 -0.3,0.2 -0.3,0.3 v 0 1.1 c 0,0.2 0.1,0.3 0.3,0.3 0,0 0,0 0,0"
   id="path347" />
			<path
   class="st16"
   d="m 150.3,63.3 h 1.7 c 0.1,0 0.3,0.1 0.3,0.3 v 0.9 c 0,0.1 -0.1,0.3 -0.3,0.3 h -1.7 c -0.1,0 -0.3,-0.1 -0.3,-0.3 v -0.9 c 0,-0.1 0.1,-0.2 0.3,-0.3"
   id="path348" />
			<path
   class="st13"
   d="m 150.1,50 h 1.3 c 0.2,0 0.3,0.2 0.3,0.3 v 0 1.1 c 0,0.2 -0.2,0.2 -0.3,0.2 v 3.2 h -1.3 v -3.2 c -0.2,0 -0.3,-0.2 -0.3,-0.3 v 0 -1.1 c 0,-0.2 0.1,-0.3 0.3,-0.3 0,0 0,0 0,0"
   id="path349" />
			<path
   class="st16"
   d="m 150.3,56.1 h 1.7 c 0.1,0 0.3,-0.1 0.3,-0.3 V 55 c 0,-0.1 -0.1,-0.3 -0.2,-0.3 0,0 0,0 0,0 h -1.7 c -0.2,0 -0.3,0.1 -0.3,0.3 v 0.8 c -0.1,0.2 0,0.3 0.2,0.3"
   id="path350" />
			<path
   class="st13"
   d="m 146.9,69.4 h 1.3 c 0.2,0 0.3,-0.2 0.3,-0.3 v 0 -1.1 c 0,-0.2 -0.1,-0.3 -0.3,-0.3 0,0 0,0 0,0 v -3.1 h -1.3 v 3.1 c -0.2,0 -0.3,0.2 -0.3,0.3 v 0 1.1 c 0,0.2 0.1,0.3 0.3,0.3 0,0 0,0 0,0"
   id="path351" />
			<path
   class="st16"
   d="m 147.1,63.3 h 1.7 c 0.1,0 0.3,0.1 0.3,0.3 v 0.9 c 0,0.1 -0.1,0.3 -0.3,0.3 h -1.7 c -0.1,0 -0.3,-0.1 -0.3,-0.3 v -0.9 c 0,-0.1 0.1,-0.2 0.3,-0.3"
   id="path352" />
			<path
   class="st13"
   d="m 146.9,50 h 1.3 c 0.2,0 0.3,0.2 0.3,0.3 v 1.1 c 0,0.1 -0.1,0.2 -0.3,0.2 v 3.2 h -1.3 v -3.2 c -0.2,0 -0.3,-0.2 -0.3,-0.3 v 0 -1.1 c 0,-0.2 0.1,-0.3 0.3,-0.3 0,0 0,0 0,0"
   id="path353" />
			<path
   class="st16"
   d="m 147.1,56.1 h 1.7 c 0.1,0 0.3,-0.1 0.3,-0.3 V 55 c 0,-0.1 -0.1,-0.3 -0.2,-0.3 0,0 0,0 0,0 h -1.7 c -0.1,0 -0.3,0.1 -0.3,0.3 0,0 0,0 0,0 v 0.8 c -0.1,0.2 0,0.3 0.2,0.3"
   id="path354" />
			<path
   class="st13"
   d="m 143.6,69.4 h 1.3 c 0.2,0 0.3,-0.2 0.3,-0.3 v 0 -1.1 c 0,-0.2 -0.1,-0.3 -0.3,-0.3 v 0 -3.1 h -1.3 v 3.1 c -0.2,0 -0.3,0.1 -0.3,0.3 0,0 0,0 0,0 v 1.1 c -0.1,0.2 0.1,0.3 0.3,0.3 v 0"
   id="path355" />
			<path
   class="st16"
   d="m 143.7,63.3 h 1.7 c 0.2,0 0.3,0.1 0.3,0.3 v 0.9 c 0,0.1 -0.1,0.3 -0.3,0.3 0,0 0,0 0,0 h -1.7 c -0.1,0 -0.3,-0.1 -0.3,-0.2 0,0 0,0 0,0 v -0.9 c 0.1,-0.2 0.2,-0.4 0.3,-0.4"
   id="path356" />
			<path
   class="st13"
   d="m 143.6,50 h 1.3 c 0.2,0 0.3,0.2 0.3,0.3 v 0 1.1 c -0.1,0.1 -0.2,0.2 -0.3,0.2 v 3.2 h -1.3 v -3.2 c -0.2,0 -0.3,-0.1 -0.3,-0.3 0,0 0,0 0,0 v -1.1 c 0,-0.2 0.1,-0.3 0.3,-0.3 v 0"
   id="path357" />
			<path
   class="st16"
   d="m 143.7,56.1 h 1.7 c 0.2,0 0.3,-0.1 0.3,-0.3 V 55 c 0,-0.1 -0.1,-0.3 -0.2,-0.3 0,0 0,0 -0.1,0 h -1.7 c -0.1,0 -0.3,0.1 -0.3,0.2 0,0 0,0 0,0.1 v 0.8 c 0.1,0.2 0.2,0.3 0.3,0.3"
   id="path358" />
			<path
   class="st13"
   d="m 140.3,69.4 h 1.3 c 0.2,0 0.3,-0.2 0.3,-0.3 v 0 -1.1 c 0,-0.2 -0.1,-0.3 -0.3,-0.3 v 0 -3.1 h -1.3 v 3.1 c -0.2,0 -0.3,0.2 -0.3,0.3 v 0 1.2 c 0,0.1 0.1,0.2 0.3,0.2 v 0"
   id="path359" />
			<path
   class="st16"
   d="m 140.4,63.3 h 1.7 c 0.2,0 0.3,0.1 0.3,0.3 v 0.9 c 0,0.1 -0.1,0.3 -0.3,0.3 0,0 0,0 0,0 h -1.7 c -0.1,0 -0.3,-0.1 -0.3,-0.2 0,0 0,0 0,0 v -0.9 c 0.1,-0.2 0.2,-0.4 0.3,-0.4"
   id="path360" />
			<path
   class="st13"
   d="m 140.3,50 h 1.3 c 0.2,0 0.3,0.2 0.3,0.3 v 0 1.1 c -0.1,0.1 -0.2,0.2 -0.3,0.2 v 3.2 h -1.3 v -3.2 c -0.2,0 -0.3,-0.1 -0.3,-0.3 0,0 0,0 0,0 v -1.1 c 0,-0.2 0.1,-0.3 0.3,-0.3 v 0"
   id="path361" />
			<path
   class="st16"
   d="m 140.4,56.1 h 1.7 c 0.2,0 0.3,-0.1 0.3,-0.3 V 55 c 0,-0.1 -0.1,-0.3 -0.2,-0.3 0,0 0,0 -0.1,0 h -1.7 c -0.1,0 -0.3,0.1 -0.3,0.2 0,0 0,0 0,0.1 v 0.8 c 0.1,0.2 0.2,0.3 0.3,0.3"
   id="path362" />
			<path
   class="st13"
   d="m 137.1,69.4 h 1.3 c 0.2,0 0.3,-0.2 0.3,-0.3 v 0 -1.1 c 0,-0.2 -0.1,-0.3 -0.3,-0.3 v 0 -3.1 h -1.3 v 3.1 c -0.2,0 -0.3,0.2 -0.3,0.3 v 0 1.1 c 0,0.2 0.1,0.3 0.3,0.3 v 0"
   id="path363" />
			<path
   class="st16"
   d="m 137.1,63.3 h 1.7 c 0.2,0 0.3,0.1 0.3,0.3 v 0.9 c 0,0.1 -0.1,0.3 -0.3,0.3 0,0 0,0 0,0 h -1.7 c -0.1,0 -0.3,-0.1 -0.3,-0.2 0,0 0,0 0,0 v -0.9 c 0,-0.2 0.2,-0.4 0.3,-0.4"
   id="path364" />
			<path
   class="st13"
   d="m 137.1,50 h 1.3 c 0.2,0 0.3,0.2 0.3,0.3 v 0 1.1 c -0.1,0.2 -0.2,0.2 -0.4,0.2 v 3.2 H 137 v -3.2 c -0.2,0 -0.3,-0.2 -0.3,-0.3 v 0 -1.1 c 0.1,-0.1 0.3,-0.2 0.4,-0.2"
   id="path365" />
			<path
   class="st16"
   d="m 137.1,56.1 h 1.7 c 0.2,0 0.3,-0.1 0.3,-0.3 V 55 c 0,-0.1 -0.1,-0.3 -0.2,-0.3 0,0 0,0 -0.1,0 h -1.7 c -0.1,0 -0.3,0.1 -0.3,0.2 0,0 0,0 0,0.1 v 0.8 c 0,0.2 0.2,0.3 0.3,0.3"
   id="path366" />
			<path
   class="st13"
   d="m 133.9,69.4 h 1.3 c 0.2,0 0.3,-0.2 0.3,-0.3 v 0 -1.1 c 0,-0.2 -0.1,-0.3 -0.3,-0.3 v 0 -3.1 h -1.3 v 3.1 c -0.2,0 -0.3,0.2 -0.3,0.3 v 0 1.1 c 0,0.2 0.1,0.3 0.3,0.3 v 0"
   id="path367" />
			<path
   class="st16"
   d="m 134.1,63.3 h 1.7 c 0.2,0 0.3,0.1 0.3,0.3 v 0.9 c 0,0.1 -0.1,0.3 -0.3,0.3 0,0 0,0 0,0 h -1.7 c -0.1,0 -0.3,-0.1 -0.3,-0.2 0,0 0,0 0,0 v -0.9 c 0,-0.2 0.1,-0.4 0.3,-0.4"
   id="path368" />
			<path
   class="st13"
   d="m 133.9,50 h 1.3 c 0.2,0 0.3,0.2 0.3,0.3 v 0 1.1 c -0.1,0.1 -0.2,0.2 -0.3,0.2 v 3.2 h -1.3 v -3.2 c -0.2,0 -0.3,-0.2 -0.3,-0.3 v 0 -1.1 c 0,-0.2 0.1,-0.3 0.3,-0.3 v 0"
   id="path369" />
			<path
   class="st16"
   d="m 134.1,56.1 h 1.7 c 0.2,0 0.3,-0.1 0.3,-0.3 V 55 c 0,-0.1 -0.1,-0.3 -0.2,-0.3 0,0 0,0 -0.1,0 h -1.7 c -0.1,0 -0.3,0.1 -0.3,0.2 0,0 0,0 0,0.1 v 0.8 c 0,0.2 0.1,0.3 0.3,0.3"
   id="path370" />
			<path
   class="st13"
   d="m 130.7,69.4 h 1.3 c 0.2,0 0.3,-0.2 0.3,-0.3 v 0 -1.1 c 0,-0.2 -0.1,-0.3 -0.3,-0.3 v 0 -3.1 h -1.3 v 3.1 c -0.2,0 -0.3,0.1 -0.3,0.3 0,0 0,0 0,0 v 1.1 c 0,0.2 0.1,0.3 0.3,0.3 v 0"
   id="path371" />
			<path
   class="st16"
   d="m 130.8,63.3 h 1.7 c 0.1,0 0.3,0.1 0.3,0.3 v 0.9 c 0,0.2 -0.1,0.3 -0.3,0.3 h -1.7 c -0.1,0 -0.3,-0.1 -0.3,-0.3 v -0.9 c 0.1,-0.1 0.2,-0.2 0.3,-0.3"
   id="path372" />
			<path
   class="st13"
   d="m 130.7,50 h 1.3 c 0.2,0 0.3,0.2 0.3,0.3 v 0 1.1 c -0.1,0.1 -0.2,0.2 -0.3,0.2 v 3.2 h -1.3 v -3.2 c -0.2,0 -0.3,-0.1 -0.3,-0.3 0,0 0,0 0,0 v -1.1 c 0,-0.2 0.1,-0.3 0.3,-0.3 v 0"
   id="path373" />
			<path
   class="st16"
   d="m 130.8,56.1 h 1.7 c 0.1,0 0.3,-0.1 0.3,-0.3 V 55 c 0,-0.2 -0.1,-0.3 -0.3,-0.3 h -1.7 c -0.1,0 -0.3,0.1 -0.3,0.3 0,0 0,0 0,0 v 0.8 c 0.1,0.1 0.2,0.3 0.3,0.3"
   id="path374" />
			<path
   class="st13"
   d="m 127.4,69.4 h 1.3 c 0.2,0 0.3,-0.2 0.3,-0.3 v 0 -1.1 c 0,-0.2 -0.1,-0.3 -0.3,-0.3 0,0 0,0 0,0 v -3.1 h -1.3 v 3.1 c -0.2,0 -0.3,0.2 -0.3,0.3 v 0 1.1 c 0,0.2 0.2,0.3 0.3,0.3 v 0"
   id="path375" />
			<path
   class="st16"
   d="m 127.6,63.3 h 1.7 c 0.2,0 0.3,0.1 0.3,0.3 v 0.9 c 0,0.1 -0.1,0.3 -0.3,0.3 0,0 0,0 0,0 h -1.7 c -0.2,0 -0.3,-0.1 -0.3,-0.3 v -0.9 c 0,-0.1 0.1,-0.2 0.3,-0.3"
   id="path376" />
			<path
   class="st13"
   d="m 127.4,50 h 1.3 c 0.2,0 0.3,0.2 0.3,0.3 v 0 1.1 c 0,0.1 -0.2,0.2 -0.3,0.2 v 3.2 h -1.3 v -3.2 c -0.2,0 -0.3,-0.2 -0.3,-0.3 v 0 -1.1 c 0,-0.2 0.2,-0.3 0.3,-0.3 v 0"
   id="path377" />
			<path
   class="st16"
   d="m 127.6,56.1 h 1.7 c 0.2,0 0.3,-0.1 0.3,-0.3 V 55 c 0,-0.1 -0.1,-0.3 -0.2,-0.3 0,0 0,0 -0.1,0 h -1.7 c -0.2,0 -0.3,0.1 -0.3,0.3 v 0.8 c 0,0.2 0.1,0.3 0.3,0.3"
   id="path378" />
			<path
   class="st13"
   d="m 124.2,69.4 h 1.3 c 0.2,0 0.3,-0.1 0.4,-0.3 0,0 0,0 0,0 V 68 c 0,-0.2 -0.2,-0.3 -0.3,-0.3 v 0 -3.1 h -1.3 v 3.1 c -0.2,0 -0.3,0.2 -0.3,0.3 v 0 1.1 c -0.1,0.2 0,0.3 0.2,0.3 0,0 0,0 0,0"
   id="path379" />
			<path
   class="st16"
   d="m 124.3,63.3 h 1.7 c 0.2,0 0.3,0.1 0.3,0.3 v 0.9 c 0,0.2 -0.1,0.3 -0.3,0.3 h -1.7 c -0.1,0 -0.3,-0.1 -0.3,-0.3 v -0.9 c 0.1,-0.1 0.2,-0.2 0.3,-0.3"
   id="path380" />
			<path
   class="st13"
   d="m 124.2,50 h 1.3 c 0.2,0 0.3,0.1 0.4,0.3 0,0 0,0 0,0 v 1.1 c -0.1,0.1 -0.2,0.2 -0.3,0.2 v 3.2 h -1.3 v -3.2 c -0.2,0 -0.3,-0.2 -0.3,-0.3 v 0 -1.1 c 0,-0.2 0.2,-0.3 0.3,-0.3 0,0 0,0 0,0"
   id="path381" />
			<path
   class="st16"
   d="m 124.3,56.1 h 1.7 c 0.2,0 0.3,-0.1 0.3,-0.3 V 55 c 0,-0.2 -0.1,-0.3 -0.3,-0.3 h -1.7 c -0.1,0 -0.3,0.1 -0.3,0.3 0,0 0,0 0,0 v 0.8 c 0.1,0.1 0.2,0.3 0.3,0.3"
   id="path382" />
			<path
   class="st13"
   d="m 121,69.4 h 1.3 c 0.2,0 0.3,-0.2 0.3,-0.3 v 0 -1.1 c 0,-0.2 -0.1,-0.3 -0.3,-0.3 0,0 0,0 0,0 V 64.6 H 121 v 3.1 c -0.2,0 -0.3,0.2 -0.3,0.3 v 0 1.1 c 0,0.2 0.1,0.3 0.3,0.3 v 0"
   id="path383" />
			<path
   class="st16"
   d="m 121.2,63.3 h 1.7 c 0.2,0 0.3,0.1 0.3,0.3 v 0.9 c 0,0.1 -0.1,0.3 -0.3,0.3 h -1.7 c -0.2,0 -0.3,-0.1 -0.3,-0.3 v -0.9 c -0.1,-0.1 0,-0.2 0.3,-0.3"
   id="path384" />
			<path
   class="st13"
   d="m 121,50 h 1.3 c 0.2,0 0.3,0.2 0.3,0.3 v 0 1.1 c 0,0.1 -0.2,0.2 -0.3,0.2 v 3.2 H 121 v -3.2 c -0.2,0 -0.3,-0.2 -0.3,-0.3 v 0 -1.1 c 0,-0.2 0.2,-0.3 0.3,-0.3 v 0"
   id="path385" />
			<path
   class="st16"
   d="m 121.2,56.1 h 1.7 c 0.2,0 0.3,-0.1 0.3,-0.3 V 55 c 0.1,-0.1 0,-0.3 -0.1,-0.3 0,0 -0.1,0 -0.1,0 h -1.7 c -0.2,0 -0.3,0.1 -0.3,0.3 v 0.9 c -0.2,0 -0.1,0.2 0.2,0.2"
   id="path386" />
			<path
   class="st13"
   d="m 117.7,69.4 h 1.3 c 0.2,0 0.3,-0.2 0.3,-0.3 v 0 -1.1 c 0,-0.2 -0.2,-0.3 -0.3,-0.3 v 0 -3.1 h -1.3 v 3.1 c -0.2,0 -0.3,0.2 -0.3,0.3 v 0 1.1 c -0.1,0.2 0.1,0.3 0.3,0.3 v 0"
   id="path387" />
			<path
   class="st16"
   d="m 117.8,63.3 h 1.7 c 0.2,0 0.3,0.1 0.3,0.3 v 0.9 c 0,0.1 -0.1,0.3 -0.3,0.3 0,0 0,0 0,0 h -1.7 c -0.1,0 -0.3,-0.1 -0.3,-0.2 0,0 0,0 0,0 v -0.9 c 0.1,-0.2 0.2,-0.4 0.3,-0.4"
   id="path388" />
			<path
   class="st13"
   d="m 117.7,50 h 1.3 c 0.2,0 0.3,0.2 0.3,0.3 v 0 1.1 c -0.1,0.1 -0.2,0.2 -0.3,0.2 v 3.2 h -1.3 v -3.2 c -0.2,0 -0.3,-0.2 -0.3,-0.3 v 0 -1.1 c 0,-0.2 0.2,-0.3 0.3,-0.3 v 0"
   id="path389" />
			<path
   class="st16"
   d="m 117.8,56.1 h 1.7 c 0.2,0 0.3,-0.1 0.3,-0.3 V 55 c 0,-0.1 -0.1,-0.3 -0.2,-0.3 0,0 0,0 -0.1,0 h -1.7 c -0.1,0 -0.3,0.1 -0.3,0.2 0,0 0,0 0,0.1 v 0.8 c 0,0.2 0.2,0.3 0.3,0.3"
   id="path390" />
			<path
   class="st13"
   d="m 114.4,69.4 h 1.3 c 0.2,0 0.3,-0.2 0.3,-0.3 v 0 -1.1 c 0,-0.2 -0.1,-0.3 -0.3,-0.3 0,0 0,0 0,0 v -3.1 h -1.3 v 3.1 c -0.2,0 -0.3,0.2 -0.3,0.3 v 0 1.1 c 0,0.2 0.1,0.3 0.3,0.3 0,0 0,0 0,0"
   id="path391" />
			<path
   class="st16"
   d="m 114.6,63.3 h 1.7 c 0.2,0 0.3,0.1 0.3,0.3 v 0.9 c 0,0.1 -0.1,0.3 -0.3,0.3 h -1.7 c -0.2,0 -0.3,-0.1 -0.3,-0.3 v -0.9 c 0,-0.1 0.1,-0.2 0.3,-0.3"
   id="path392" />
			<path
   class="st13"
   d="m 114.4,50 h 1.3 c 0.2,0 0.3,0.2 0.3,0.3 v 0 1.1 c 0,0.1 -0.2,0.2 -0.3,0.2 v 3.2 h -1.3 v -3.2 c -0.2,0 -0.3,-0.2 -0.3,-0.3 v 0 -1.1 c 0,-0.2 0.2,-0.3 0.3,-0.3 0,0 0,0 0,0"
   id="path393" />
			<path
   class="st16"
   d="m 114.6,56.1 h 1.7 c 0.2,0 0.3,-0.1 0.3,-0.3 V 55 c 0,-0.1 -0.1,-0.3 -0.2,-0.3 0,0 0,0 0,0 h -1.7 c -0.2,0 -0.3,0.1 -0.3,0.3 v 0.8 c -0.1,0.2 0,0.3 0.2,0.3"
   id="path394" />
			<path
   class="st13"
   d="m 110.9,69.4 h 1.3 c 0.2,0 0.3,-0.2 0.3,-0.3 v 0 -1.1 c 0,-0.2 -0.2,-0.3 -0.3,-0.3 v 0 -3.1 h -1.3 v 3.1 c -0.2,0 -0.3,0.1 -0.3,0.3 0,0 0,0 0,0 v 1.1 c 0,0.2 0.1,0.3 0.3,0.3 v 0"
   id="path395" />
			<path
   class="st16"
   d="m 111.1,63.3 h 1.7 c 0.2,0 0.3,0.1 0.3,0.3 v 0.9 c 0,0.2 -0.1,0.3 -0.3,0.3 h -1.7 c -0.1,0 -0.3,-0.1 -0.3,-0.2 0,0 0,0 0,0 v -0.9 c 0,-0.2 0.1,-0.4 0.3,-0.4"
   id="path396" />
			<path
   class="st13"
   d="m 110.9,50 h 1.3 c 0.2,0 0.3,0.2 0.3,0.3 v 0 1.1 c -0.1,0.1 -0.2,0.2 -0.3,0.2 v 3.2 h -1.3 v -3.2 c -0.2,0 -0.3,-0.1 -0.3,-0.3 0,0 0,0 0,0 v -1.1 c 0,-0.2 0.2,-0.3 0.3,-0.3 v 0"
   id="path397" />
			<path
   class="st16"
   d="m 111.1,56.1 h 1.7 c 0.2,0 0.3,-0.1 0.3,-0.3 V 55 c 0,-0.2 -0.1,-0.3 -0.3,-0.3 h -1.7 c -0.1,0 -0.3,0.1 -0.3,0.2 0,0 0,0 0,0.1 v 0.8 c 0,0.2 0.1,0.3 0.3,0.3"
   id="path398" />
			<path
   class="st13"
   d="m 107.7,69.4 h 1.3 c 0.2,0 0.3,-0.2 0.3,-0.3 v 0 -1.1 c 0,-0.2 -0.2,-0.3 -0.3,-0.3 v 0 -3.1 h -1.3 v 3.1 c -0.2,0 -0.3,0.1 -0.3,0.3 0,0 0,0 0,0 v 1.1 c 0,0.2 0.1,0.3 0.3,0.3 v 0"
   id="path399" />
			<path
   class="st16"
   d="m 107.9,63.3 h 1.7 c 0.2,0 0.3,0.1 0.3,0.3 v 0.9 c 0,0.2 -0.1,0.3 -0.3,0.3 h -1.7 c -0.1,0 -0.3,-0.1 -0.3,-0.2 0,0 0,0 0,0 v -0.9 c 0,-0.2 0.1,-0.4 0.3,-0.4"
   id="path400" />
			<path
   class="st13"
   d="m 107.7,50 h 1.3 c 0.2,0 0.3,0.2 0.3,0.3 v 0 1.1 c -0.1,0.1 -0.2,0.2 -0.3,0.2 v 3.2 h -1.3 v -3.2 c -0.2,0 -0.3,-0.1 -0.3,-0.3 0,0 0,0 0,0 v -1.1 c 0,-0.2 0.2,-0.3 0.3,-0.3 v 0"
   id="path401" />
			<path
   class="st16"
   d="m 107.9,56.1 h 1.7 c 0.2,0 0.3,-0.1 0.3,-0.3 V 55 c 0,-0.2 -0.1,-0.3 -0.3,-0.3 h -1.7 c -0.1,0 -0.3,0.1 -0.3,0.2 0,0 0,0 0,0.1 v 0.8 c 0,0.2 0.1,0.3 0.3,0.3"
   id="path402" />
			<path
   class="st13"
   d="m 104.5,69.4 h 1.1 c 0.2,0 0.3,-0.1 0.4,-0.3 0,0 0,0 0,0 V 68 c 0,-0.2 -0.2,-0.3 -0.3,-0.3 v 0 -3.1 h -1.3 v 3.1 c -0.2,0 -0.3,0.1 -0.3,0.3 0,0 0,0 0,0 v 1.1 c 0,0.2 0.2,0.3 0.3,0.3 v 0"
   id="path403" />
			<path
   class="st16"
   d="m 104.7,63.3 h 1.7 c 0.2,0 0.3,0.1 0.3,0.3 v 0.9 c 0,0.2 -0.1,0.3 -0.3,0.3 h -1.7 c -0.1,0 -0.3,-0.1 -0.3,-0.3 v -0.9 c 0,-0.1 0.1,-0.2 0.3,-0.3"
   id="path404" />
			<path
   class="st13"
   d="m 104.5,50 h 1.1 c 0.2,0 0.3,0.1 0.4,0.3 0,0 0,0 0,0 v 1.1 c 0,0.1 -0.1,0.2 -0.2,0.2 v 3.2 h -1.3 v -3.2 c -0.2,0 -0.3,-0.1 -0.3,-0.3 0,0 0,0 0,0 v -1.1 c 0,-0.2 0.2,-0.3 0.3,-0.3 v 0"
   id="path405" />
			<path
   class="st16"
   d="m 104.7,56.1 h 1.7 c 0.2,0 0.3,-0.1 0.3,-0.3 V 55 c 0,-0.2 -0.1,-0.3 -0.3,-0.3 h -1.7 c -0.1,0 -0.3,0.1 -0.3,0.3 0,0 0,0 0,0 v 0.8 c 0,0.1 0.1,0.3 0.3,0.3"
   id="path406" />
			<path
   class="st13"
   d="m 101.3,69.4 h 1.3 c 0.2,0 0.3,-0.2 0.3,-0.3 v 0 -1.1 c 0,-0.2 -0.2,-0.3 -0.3,-0.3 v 0 -3.1 h -1.3 v 3.1 c -0.2,0 -0.3,0.1 -0.3,0.3 0,0 0,0 0,0 v 1.1 c -0.1,0.2 0.1,0.3 0.3,0.3 v 0"
   id="path407" />
			<path
   class="st16"
   d="m 101.4,63.3 h 1.7 c 0.2,0 0.3,0.1 0.3,0.3 v 0.9 c 0,0.1 -0.1,0.3 -0.3,0.3 0,0 0,0 0,0 h -1.7 c -0.1,0 -0.3,-0.1 -0.3,-0.2 0,0 0,0 0,0 v -0.9 c 0.1,-0.2 0.2,-0.4 0.3,-0.4"
   id="path408" />
			<path
   class="st13"
   d="m 101.3,50 h 1.3 c 0.1,0 0.2,0.2 0.2,0.3 v 1.1 c 0,0.1 -0.1,0.2 -0.2,0.2 v 3.2 h -1.3 v -3.2 c -0.2,0 -0.3,-0.1 -0.3,-0.3 0,0 0,0 0,0 v -1.1 c 0,-0.2 0.2,-0.3 0.3,-0.3 v 0"
   id="path409" />
			<path
   class="st16"
   d="m 101.4,56.1 h 1.7 c 0.2,0 0.3,-0.1 0.3,-0.3 V 55 c 0,-0.1 -0.1,-0.3 -0.2,-0.3 0,0 0,0 -0.1,0 h -1.7 c -0.1,0 -0.3,0.1 -0.3,0.2 0,0 0,0 0,0.1 v 0.8 c 0,0.2 0.2,0.3 0.3,0.3"
   id="path410" />
			<path
   class="st13"
   d="m 98,69.4 h 1.3 c 0.2,0 0.3,-0.2 0.3,-0.3 v 0 -1.1 c 0,-0.2 -0.1,-0.3 -0.3,-0.3 0,0 0,0 0,0 V 64.6 H 98 v 3.1 c -0.2,0 -0.3,0.2 -0.3,0.3 v 0 1.1 c 0,0.2 0.1,0.3 0.3,0.3 0,0 0,0 0,0"
   id="path411" />
			<path
   class="st16"
   d="m 98.2,63.3 h 1.8 c 0.2,0 0.3,0.1 0.3,0.3 v 0.9 c 0,0.1 -0.1,0.3 -0.3,0.3 H 98.3 C 98.1,64.8 98,64.7 98,64.5 v -0.9 c -0.1,-0.1 0,-0.2 0.2,-0.3"
   id="path412" />
			<path
   class="st13"
   d="m 98,50 h 1.3 c 0.2,0 0.3,0.2 0.3,0.3 v 0 1.1 c 0,0.1 -0.2,0.2 -0.3,0.2 v 3.2 H 98 v -3.2 c -0.2,0 -0.3,-0.2 -0.3,-0.3 v 0 -1.1 c 0,-0.2 0.2,-0.3 0.3,-0.3 0,0 0,0 0,0"
   id="path413" />
			<path
   class="st16"
   d="m 98.2,56.1 h 1.8 c 0.2,0 0.3,-0.1 0.3,-0.3 V 55 c 0.1,-0.1 0,-0.3 -0.1,-0.3 0,0 -0.1,0 -0.1,0 h -1.7 c -0.2,0 -0.3,0.1 -0.3,0.3 v 0.9 c -0.2,0 -0.1,0.2 0.1,0.2"
   id="path414" />
			<path
   class="st13"
   d="m 94.8,69.4 h 1.3 c 0.2,0 0.3,-0.2 0.3,-0.3 v 0 -1.1 c 0,-0.2 -0.2,-0.3 -0.3,-0.3 v 0 -3.1 h -1.3 v 3.1 c -0.2,0 -0.3,0.2 -0.3,0.3 v 0 1.1 c 0,0.2 0.1,0.3 0.3,0.3 v 0"
   id="path415" />
			<path
   class="st16"
   d="m 95,63.3 h 1.7 c 0.2,0 0.3,0.1 0.3,0.3 v 0.9 c 0,0.1 -0.1,0.3 -0.3,0.3 0,0 0,0 0,0 H 95 c -0.1,0 -0.3,-0.1 -0.3,-0.2 0,0 0,0 0,0 v -0.9 c 0,-0.2 0.1,-0.4 0.3,-0.4"
   id="path416" />
			<path
   class="st13"
   d="m 94.8,50 h 1.3 c 0.2,0 0.3,0.2 0.3,0.3 v 0 1.1 c -0.1,0.1 -0.2,0.2 -0.3,0.2 v 3.2 h -1.3 v -3.2 c -0.2,0 -0.3,-0.2 -0.3,-0.3 v 0 -1.1 c 0,-0.2 0.2,-0.3 0.3,-0.3 v 0"
   id="path417" />
			<path
   class="st16"
   d="m 95,56.1 h 1.7 C 96.9,56.1 97,56 97,55.8 V 55 c 0,-0.1 -0.1,-0.3 -0.2,-0.3 0,0 0,0 -0.1,0 H 95 c -0.1,0 -0.3,0.1 -0.3,0.2 0,0 0,0 0,0.1 v 0.8 c 0,0.2 0.1,0.3 0.3,0.3"
   id="path418" />
			<path
   class="st13"
   d="m 91.4,69.4 h 1.4 c 0.2,0 0.3,-0.2 0.3,-0.3 v 0 -1.1 c 0,-0.2 -0.2,-0.3 -0.3,-0.3 v 0 -3.1 h -1.4 v 3.1 c -0.2,0 -0.3,0.1 -0.3,0.3 0,0 0,0 0,0 v 1.1 c -0.1,0.2 0.1,0.3 0.3,0.3"
   id="path419" />
			<path
   class="st16"
   d="m 91.7,63.3 h 1.7 c 0.2,0 0.3,0.1 0.3,0.3 v 0.9 c 0,0.2 -0.1,0.3 -0.3,0.3 h -1.7 c -0.1,0 -0.3,-0.1 -0.3,-0.2 0,0 0,0 0,0 v -0.9 c 0,-0.2 0.1,-0.4 0.3,-0.4"
   id="path420" />
			<path
   class="st13"
   d="m 91.4,50 h 1.4 c 0.2,0 0.3,0.2 0.3,0.3 v 0 1.1 c -0.1,0.1 -0.2,0.2 -0.3,0.2 v 3.2 h -1.4 v -3.2 c -0.2,0 -0.3,-0.1 -0.3,-0.3 0,0 0,0 0,0 v -1.1 c 0,-0.1 0.1,-0.2 0.3,-0.2"
   id="path421" />
			<path
   class="st16"
   d="m 91.7,56.1 h 1.7 c 0.2,0 0.3,-0.1 0.3,-0.3 V 55 c 0,-0.2 -0.1,-0.3 -0.3,-0.3 h -1.7 c -0.1,0 -0.3,0.1 -0.3,0.2 0,0 0,0 0,0.1 v 0.8 c 0,0.2 0.1,0.3 0.3,0.3"
   id="path422" />
			<path
   class="st13"
   d="m 88.2,69.4 h 1.3 c 0.2,0 0.3,-0.2 0.3,-0.3 v 0 -1.1 c 0,-0.2 -0.1,-0.3 -0.3,-0.3 0,0 0,0 0,0 v -3.1 h -1.3 v 3.1 c -0.2,0 -0.3,0.2 -0.3,0.3 v 0 1.1 c 0,0.2 0.1,0.3 0.3,0.3 v 0"
   id="path423" />
			<path
   class="st16"
   d="m 88.5,63.3 h 1.7 c 0.2,0 0.3,0.1 0.3,0.3 v 0.9 c 0,0.1 -0.1,0.3 -0.3,0.3 0,0 0,0 0,0 h -1.7 c -0.2,0 -0.3,-0.1 -0.3,-0.3 v -0.9 c 0,-0.1 0.1,-0.2 0.3,-0.3"
   id="path424" />
			<path
   class="st13"
   d="m 88.2,50 h 1.3 c 0.2,0 0.3,0.2 0.3,0.3 v 0 1.1 c 0,0.1 -0.2,0.2 -0.3,0.2 v 3.2 h -1.3 v -3.2 c -0.2,0 -0.3,-0.2 -0.3,-0.3 v 0 -1.1 c 0,-0.2 0.2,-0.3 0.3,-0.3 v 0"
   id="path425" />
			<path
   class="st16"
   d="m 88.5,56.1 h 1.7 c 0.2,0 0.3,-0.1 0.3,-0.3 V 55 c 0,-0.1 -0.1,-0.3 -0.2,-0.3 0,0 0,0 -0.1,0 h -1.7 c -0.2,0 -0.3,0.1 -0.3,0.3 v 0.8 c 0,0.2 0.1,0.3 0.3,0.3"
   id="path426" />
			<path
   class="st16"
   d="m 158.8,64.1 c 0,0.4 -0.5,0.7 -1.2,0.7 -0.7,0 -1.2,-0.3 -1.2,-0.7 0,-0.4 0.5,-0.7 1.2,-0.7 0.7,0 1.2,0.3 1.2,0.7"
   id="path427" />
			<path
   class="st16"
   d="m 158.8,55.5 c 0,0.4 -0.5,0.7 -1.2,0.7 -0.7,0 -1.2,-0.3 -1.2,-0.7 0,-0.4 0.5,-0.7 1.2,-0.7 0.7,0 1.2,0.3 1.2,0.7"
   id="path428" />
			<path
   class="st16"
   d="m 83.5,64.1 c 0,0.4 -0.5,0.7 -1.2,0.7 -0.7,0 -1.2,-0.3 -1.2,-0.7 0,-0.4 0.5,-0.7 1.2,-0.7 0.7,0 1.2,0.3 1.2,0.7"
   id="path429" />
			<path
   class="st16"
   d="m 83.5,55.5 c 0,0.4 -0.5,0.7 -1.2,0.7 -0.7,0 -1.2,-0.3 -1.2,-0.7 0,-0.4 0.5,-0.7 1.2,-0.7 0.7,0 1.2,0.3 1.2,0.7"
   id="path430" />
		</g>
		<g
   id="g489"
   transform="rotate(90,97.941801,100.46997)">
			<g
   class="st8"
   id="g433">
				<path
   class="st17"
   d="m 136.8,90.5 h 2.1 c 0.7,0 1.3,0.4 1.3,1 v 9.9 c 0,0.6 -0.6,1 -1.3,1 h -2.1 c -0.7,0 -1.3,-0.4 -1.3,-1 v -9.9 c 0,-0.6 0.6,-1 1.3,-1"
   id="path431" />
				<path
   class="st18"
   d="m 136.6,91.7 h 2.4 c 0.6,0 1.1,0.4 1.1,0.9 v 7.2 c 0,0.5 -0.5,0.9 -1.1,0.9 h -2.4 c -0.6,0 -1.1,-0.4 -1.1,-0.9 v -7.2 c 0,-0.5 0.5,-0.9 1.1,-0.9"
   id="path432" />
				<path
   class="st19"
   d="m 136,92.3 h 3.6 c 0.4,0 0.8,0.3 0.8,0.6 v 6.7 c 0,0.3 -0.3,0.6 -0.8,0.6 H 136 c -0.4,0 -0.8,-0.3 -0.8,-0.6 v -6.7 c 0.1,-0.3 0.4,-0.6 0.8,-0.6"
   id="path433" />
				<rect
   x="135.3"
   y="94.199997"
   class="st10"
   width="5.1999998"
   height="4.5"
   id="rect433" />
			</g>
			<g
   class="st8"
   id="g436">
				<path
   class="st17"
   d="m 148.2,97.8 h 2.1 c 0.7,0 1.3,0.4 1.3,1 v 9.9 c 0,0.6 -0.6,1 -1.3,1 h -2.1 c -0.7,0 -1.3,-0.4 -1.3,-1 v -9.9 c 0,-0.6 0.6,-1 1.3,-1"
   id="path434" />
				<path
   class="st18"
   d="m 148.1,99 h 2.4 c 0.6,0 1.1,0.4 1.1,0.9 v 7.2 c 0,0.5 -0.5,0.9 -1.1,0.9 h -2.4 c -0.6,0 -1.1,-0.4 -1.1,-0.9 v -7.2 c -0.1,-0.5 0.4,-0.9 1.1,-0.9"
   id="path435" />
				<path
   class="st19"
   d="m 147.4,99.6 h 3.6 c 0.4,0 0.8,0.3 0.8,0.6 v 6.7 c 0,0.3 -0.3,0.6 -0.8,0.6 h -3.6 c -0.4,0 -0.8,-0.3 -0.8,-0.6 v -6.7 c 0.1,-0.3 0.4,-0.6 0.8,-0.6"
   id="path436" />
				<rect
   x="146.7"
   y="101.4"
   class="st10"
   width="5.1999998"
   height="4.5"
   id="rect436" />
			</g>
			<g
   class="st8"
   id="g439">
				<path
   class="st17"
   d="m 155.3,97.8 h 2.1 c 0.7,0 1.3,0.4 1.3,1 v 9.9 c 0,0.6 -0.6,1 -1.3,1 h -2.1 c -0.7,0 -1.3,-0.4 -1.3,-1 v -9.9 c 0,-0.6 0.6,-1 1.3,-1"
   id="path437" />
				<path
   class="st18"
   d="m 155.1,99 h 2.4 c 0.6,0 1.1,0.4 1.1,0.9 v 7.2 c 0,0.5 -0.5,0.9 -1.1,0.9 h -2.4 c -0.6,0 -1.1,-0.4 -1.1,-0.9 v -7.2 c 0,-0.5 0.5,-0.9 1.1,-0.9"
   id="path438" />
				<path
   class="st19"
   d="m 154.5,99.6 h 3.6 c 0.4,0 0.8,0.3 0.8,0.6 v 6.7 c 0,0.3 -0.3,0.6 -0.8,0.6 h -3.6 c -0.4,0 -0.8,-0.3 -0.8,-0.6 v -6.7 c 0,-0.3 0.4,-0.6 0.8,-0.6"
   id="path439" />
				<rect
   x="153.7"
   y="101.4"
   class="st10"
   width="5.1999998"
   height="4.5"
   id="rect439" />
			</g>
			<g
   class="st8"
   id="g442">
				<path
   class="st17"
   d="m 115.9,95.5 v -2.1 c 0,-0.7 0.5,-1.3 1,-1.3 h 10 c 0.6,0 1,0.6 1,1.3 v 2.1 c 0,0.7 -0.5,1.3 -1,1.3 h -10 c -0.5,0.1 -1,-0.5 -1,-1.3"
   id="path440" />
				<path
   class="st18"
   d="m 117.2,95.7 v -2.5 c 0,-0.6 0.4,-1.1 0.9,-1.1 h 7.3 c 0.5,0 0.9,0.5 0.9,1.1 v 2.5 c 0,0.6 -0.4,1.1 -0.9,1.1 h -7.3 c -0.5,0 -0.9,-0.5 -0.9,-1.1"
   id="path441" />
				<path
   class="st19"
   d="m 117.8,96.3 v -3.7 c 0,-0.4 0.3,-0.8 0.6,-0.8 h 6.8 c 0.3,0 0.6,0.3 0.6,0.8 v 3.7 c 0,0.4 -0.3,0.8 -0.6,0.8 h -6.8 c -0.3,0 -0.6,-0.3 -0.6,-0.8"
   id="path442" />
				<rect
   x="119.7"
   y="91.900002"
   class="st20"
   width="4.5999999"
   height="5.1999998"
   id="rect442" />
			</g>
			<g
   class="st8"
   id="g445">
				<path
   class="st17"
   d="m 97.6,111 v -2.1 c 0,-0.7 0.5,-1.3 1,-1.3 h 10 c 0.6,0 1,0.6 1,1.3 v 2.1 c 0,0.7 -0.5,1.3 -1,1.3 h -10 c -0.6,0 -1,-0.6 -1,-1.3"
   id="path443" />
				<path
   class="st18"
   d="m 98.8,111.1 v -2.5 c 0,-0.6 0.4,-1.1 0.9,-1.1 h 7.3 c 0.5,0 0.9,0.5 0.9,1.1 v 2.5 c 0,0.6 -0.4,1.1 -0.9,1.1 h -7.3 c -0.5,0.1 -0.9,-0.4 -0.9,-1.1"
   id="path444" />
				<path
   class="st19"
   d="m 99.4,111.8 v -3.7 c 0,-0.4 0.3,-0.8 0.6,-0.8 h 6.8 c 0.3,0 0.6,0.3 0.6,0.8 v 3.7 c 0,0.4 -0.3,0.8 -0.6,0.8 H 100 c -0.3,-0.1 -0.6,-0.4 -0.6,-0.8"
   id="path445" />
				<rect
   x="101.3"
   y="107.3"
   class="st20"
   width="4.5999999"
   height="5.1999998"
   id="rect445" />
			</g>
			<g
   class="st8"
   id="g448">
				<path
   class="st17"
   d="m 146.4,93.2 v -2.1 c 0,-0.7 0.5,-1.3 1,-1.3 h 10 c 0.6,0 1,0.6 1,1.3 v 2.1 c 0,0.7 -0.5,1.3 -1,1.3 h -10 c -0.5,0 -1,-0.6 -1,-1.3"
   id="path446" />
				<path
   class="st18"
   d="m 147.7,93.3 v -2.5 c 0,-0.6 0.4,-1.1 0.9,-1.1 h 7.3 c 0.5,0 0.9,0.5 0.9,1.1 v 2.5 c 0,0.6 -0.4,1.1 -0.9,1.1 h -7.3 c -0.5,0.1 -0.9,-0.4 -0.9,-1.1"
   id="path447" />
				<path
   class="st19"
   d="m 148.3,94 v -3.7 c 0,-0.4 0.3,-0.8 0.6,-0.8 h 6.8 c 0.3,0 0.6,0.3 0.6,0.8 V 94 c 0,0.4 -0.3,0.8 -0.6,0.8 h -6.8 c -0.3,-0.1 -0.6,-0.4 -0.6,-0.8"
   id="path448" />
				<rect
   x="150.10001"
   y="89.5"
   class="st20"
   width="4.5999999"
   height="5.1999998"
   id="rect448" />
			</g>
			<g
   class="st8"
   id="g456">
				<path
   class="st21"
   d="m 113.2,112.7 v -5.6 c 0,-0.3 0.2,-0.5 0.5,-0.5 h 17.9 c 0.3,0 0.5,0.2 0.5,0.5 v 5.6 c 0,0.3 -0.2,0.5 -0.5,0.5 h -17.9 c -0.3,0 -0.5,-0.2 -0.5,-0.5 z"
   id="path449" />
				<g
   id="g455">
					<path
   class="st20"
   d="m 115.7,113.4 v -7 c 0,-0.2 0.2,-0.4 0.4,-0.4 h 13 c 0.2,0 0.4,0.2 0.4,0.4 v 7 c 0,0.2 -0.2,0.4 -0.4,0.4 h -13 c -0.2,0 -0.4,-0.1 -0.4,-0.4 z"
   id="path450" />
					<path
   class="st22"
   d="m 116,113.3 v -6.8 c 0,-0.2 0.2,-0.4 0.4,-0.4 h 12.5 c 0.2,0 0.4,0.2 0.4,0.4 v 6.8 c 0,0.2 -0.2,0.4 -0.4,0.4 h -12.5 c -0.3,0 -0.4,-0.2 -0.4,-0.4 z"
   id="path451" />
					<g
   id="g454">
						<path
   class="st7"
   d="m 118.4,111.7 c -0.3,-0.3 -0.5,-0.7 -0.5,-1.2 h 1 c 0,0.4 0.2,0.8 0.8,0.8 0.4,0 0.7,-0.2 0.7,-0.6 0,-0.4 -0.3,-0.6 -0.7,-0.6 h -0.2 v -0.7 h 0.2 c 0.4,0 0.7,-0.2 0.7,-0.5 0,-0.3 -0.2,-0.5 -0.6,-0.5 -0.4,0 -0.6,0.3 -0.7,0.6 h -1 c 0,-0.8 0.6,-1.4 1.6,-1.4 0.9,0 1.6,0.4 1.6,1.2 0,0.4 -0.3,0.7 -0.6,0.8 v 0 c 0.5,0.2 0.8,0.5 0.8,1 0,0.9 -0.8,1.3 -1.7,1.3 -0.7,0.2 -1.1,0 -1.4,-0.2 z"
   id="path452" />
						<path
   class="st7"
   d="m 121.6,110.8 c 0,-0.5 0.3,-0.8 0.7,-1.1 v 0 c -0.4,-0.2 -0.6,-0.5 -0.6,-0.8 0,-0.7 0.6,-1.2 1.6,-1.2 1,0 1.6,0.4 1.6,1.2 0,0.4 -0.2,0.7 -0.6,0.8 v 0 c 0.5,0.2 0.7,0.6 0.7,1.1 0,0.8 -0.7,1.3 -1.8,1.3 -1.1,0 -1.6,-0.5 -1.6,-1.3 z m 2.5,-0.1 c 0,-0.4 -0.3,-0.6 -0.7,-0.6 -0.4,0 -0.7,0.2 -0.7,0.6 0,0.4 0.3,0.6 0.7,0.6 0.4,0 0.7,-0.2 0.7,-0.6 z m -0.1,-1.8 c 0,-0.3 -0.2,-0.5 -0.6,-0.5 -0.4,0 -0.6,0.2 -0.6,0.5 0,0.3 0.2,0.5 0.6,0.5 0.4,0 0.6,-0.2 0.6,-0.5 z"
   id="path453" />
						<path
   class="st7"
   d="m 126.3,109.3 h -0.9 v -0.7 c 0.6,0 1,-0.3 1.1,-0.8 h 0.8 v 4.2 h -1 z"
   id="path454" />
					</g>
				</g>
			</g>
			<g
   class="st8"
   id="g460">
				<path
   class="st21"
   d="m 97.1,126.7 v -7.6 c 0,-0.3 0.3,-0.6 0.6,-0.6 h 24 c 0.3,0 0.6,0.3 0.6,0.6 v 7.6 c 0,0.3 -0.3,0.6 -0.6,0.6 h -24 c -0.3,0.1 -0.6,-0.2 -0.6,-0.6 z"
   id="path456" />
				<g
   id="g459">
					<path
   class="st20"
   d="m 100.5,127.7 v -9.4 c 0,-0.3 0.2,-0.6 0.6,-0.6 h 17.4 c 0.3,0 0.6,0.2 0.6,0.6 v 9.4 c 0,0.3 -0.2,0.5 -0.6,0.5 H 101 c -0.3,0 -0.5,-0.2 -0.5,-0.5 z"
   id="path457" />
					<path
   class="st22"
   d="m 100.8,127.5 v -9.1 c 0,-0.3 0.2,-0.5 0.5,-0.5 h 16.8 c 0.3,0 0.5,0.2 0.5,0.5 v 9.1 c 0,0.3 -0.2,0.5 -0.5,0.5 h -16.8 c -0.2,0.1 -0.5,-0.2 -0.5,-0.5 z"
   id="path458" />
					<path
   class="st7"
   d="m 112.1,125.2 h -4.5 v -4.5 h 4.5 z m -4,-0.4 h 3.6 v -3.6 h -3.6 z"
   id="path459" />
				</g>
			</g>
			<g
   class="st8"
   id="g463">
				<path
   class="st23"
   d="m 46.8,182.8 v -3.6 c 0,-0.4 0.4,-0.6 0.8,-0.6 h 2.5 c 0.5,0 0.8,0.3 0.8,0.6 v 3.6 c 0,0.4 -0.4,0.6 -0.8,0.6 h -2.5 c -0.4,0 -0.8,-0.3 -0.8,-0.6 z"
   id="path460" />
				<path
   class="st23"
   d="m 54.5,182.8 v -3.6 c 0,-0.4 0.4,-0.6 0.8,-0.6 h 2.5 c 0.5,0 0.8,0.3 0.8,0.6 v 3.6 c 0,0.4 -0.4,0.6 -0.8,0.6 h -2.5 c -0.5,0 -0.8,-0.3 -0.8,-0.6 z"
   id="path461" />
				<path
   class="st23"
   d="m 50.4,191.5 v -3.6 c 0,-0.4 0.4,-0.6 0.8,-0.6 h 2.5 c 0.5,0 0.8,0.3 0.8,0.6 v 3.6 c 0,0.4 -0.4,0.6 -0.8,0.6 h -2.5 c -0.5,0 -0.8,-0.3 -0.8,-0.6 z"
   id="path462" />
				<path
   class="st24"
   d="m 46.7,187.5 v -4.9 c 0,0 0,-0.1 0.1,-0.1 h 11.9 c 0,0 0.1,0 0.1,0.1 v 4.9 c 0,0 0,0.1 -0.1,0.1 l -12,-0.1 c 0.1,0 0,0 0,0 z"
   id="path463" />
			</g>
			<g
   class="st8"
   id="g467">
				<path
   class="st23"
   d="m 18,182.8 v -3.6 c 0,-0.4 0.4,-0.6 0.8,-0.6 h 2.5 c 0.5,0 0.8,0.3 0.8,0.6 v 3.6 c 0,0.4 -0.4,0.6 -0.8,0.6 h -2.5 c -0.4,0 -0.8,-0.3 -0.8,-0.6 z"
   id="path464" />
				<path
   class="st23"
   d="m 25.6,182.8 v -3.6 c 0,-0.4 0.4,-0.6 0.8,-0.6 h 2.5 c 0.5,0 0.8,0.3 0.8,0.6 v 3.6 c 0,0.4 -0.4,0.6 -0.8,0.6 h -2.5 c -0.4,0 -0.8,-0.3 -0.8,-0.6 z"
   id="path465" />
				<path
   class="st23"
   d="m 21.6,191.5 v -3.6 c 0,-0.4 0.4,-0.6 0.8,-0.6 h 2.5 c 0.5,0 0.8,0.3 0.8,0.6 v 3.6 c 0,0.4 -0.4,0.6 -0.8,0.6 h -2.5 c -0.5,0 -0.8,-0.3 -0.8,-0.6 z"
   id="path466" />
				<path
   class="st24"
   d="m 17.9,187.5 v -4.9 c 0,0 0,-0.1 0.1,-0.1 h 11.9 c 0,0 0.1,0 0.1,0.1 v 4.9 c 0,0 0,0.1 -0.1,0.1 l -12,-0.1 c 0.1,0 0,0 0,0 z"
   id="path467" />
			</g>
			<g
   class="st8"
   id="g470">
				<path
   class="st17"
   d="m 40.4,193 h -2 c -0.7,0 -1.3,-0.4 -1.3,-1 v -9.6 c 0,-0.5 0.6,-1 1.3,-1 h 2 c 0.7,0 1.3,0.4 1.3,1 v 9.6 c 0,0.5 -0.6,1 -1.3,1"
   id="path468" />
				<path
   class="st18"
   d="m 40.5,191.8 h -2.4 c -0.6,0 -1.1,-0.4 -1.1,-0.9 v -7 c 0,-0.5 0.5,-0.9 1.1,-0.9 h 2.4 c 0.6,0 1.1,0.4 1.1,0.9 v 7 c 0,0.5 -0.4,0.9 -1.1,0.9"
   id="path469" />
				<path
   class="st19"
   d="m 41.1,191.2 h -3.5 c -0.4,0 -0.7,-0.3 -0.7,-0.6 v -6.5 c 0,-0.3 0.3,-0.6 0.7,-0.6 h 3.5 c 0.4,0 0.7,0.3 0.7,0.6 v 6.5 c 0.1,0.3 -0.3,0.6 -0.7,0.6"
   id="path470" />
				<rect
   x="36.900002"
   y="185"
   class="st20"
   width="5"
   height="4.4000001"
   id="rect470" />
			</g>
			<g
   class="st8"
   id="g473">
				<path
   class="st17"
   d="m 12.7,192 h -2 c -0.7,0 -1.3,-0.4 -1.3,-1 v -9.6 c 0,-0.5 0.6,-1 1.3,-1 h 2 c 0.7,0 1.3,0.4 1.3,1 v 9.6 c 0,0.6 -0.6,1 -1.3,1"
   id="path471" />
				<path
   class="st18"
   d="m 12.9,190.8 h -2.4 c -0.6,0 -1.1,-0.4 -1.1,-0.9 v -7 c 0,-0.5 0.5,-0.9 1.1,-0.9 h 2.4 c 0.6,0 1.1,0.4 1.1,0.9 v 7 c 0,0.5 -0.5,0.9 -1.1,0.9"
   id="path472" />
				<path
   class="st19"
   d="M 13.5,190.2 H 9.9 c -0.4,0 -0.7,-0.3 -0.7,-0.6 v -6.5 c 0,-0.3 0.3,-0.6 0.7,-0.6 h 3.6 c 0.4,0 0.7,0.3 0.7,0.6 v 6.5 c 0,0.4 -0.3,0.6 -0.7,0.6"
   id="path473" />
				<rect
   x="9.1999998"
   y="184.10001"
   class="st20"
   width="5"
   height="4.4000001"
   id="rect473" />
			</g>
			<path
   class="st25"
   d="M 75.6,189.3 H 90 v 4.3 c 0,0.2 -0.1,0.3 -0.3,0.3 H 75.9 c -0.2,0 -0.3,-0.1 -0.3,-0.3 z"
   id="path474" />
			<g
   class="st8"
   id="g478">
				<circle
   class="st26"
   cx="89"
   cy="178.89999"
   r="5.1999998"
   id="circle474" />
				<circle
   class="st27"
   cx="89"
   cy="178.89999"
   r="5.0999999"
   id="circle475" />
				<circle
   class="st26"
   cx="89"
   cy="178.89999"
   r="3.0999999"
   id="circle476" />
				<circle
   class="st28"
   cx="89"
   cy="178.89999"
   r="2.8"
   id="circle477" />
				<circle
   class="st29"
   cx="89"
   cy="178.89999"
   r="2.3"
   id="circle478" />
			</g>
			<g
   class="st8"
   id="g483">
				<circle
   class="st26"
   cx="75.400002"
   cy="178.89999"
   r="5.1999998"
   id="circle479" />
				<circle
   class="st27"
   cx="75.400002"
   cy="178.89999"
   r="5.0999999"
   id="circle480" />
				<circle
   class="st26"
   cx="75.400002"
   cy="178.89999"
   r="3.0999999"
   id="circle481" />
				<circle
   class="st28"
   cx="75.400002"
   cy="178.89999"
   r="2.8"
   id="circle482" />
				<circle
   class="st29"
   cx="75.400002"
   cy="178.89999"
   r="2.3"
   id="circle483" />
			</g>
			<path
   class="st30"
   d="m 155.4,49.4 h -0.6 v -1.9 h -0.7 V 47 c 0.4,0 0.8,-0.1 0.9,-0.6 h 0.5 z"
   id="path483" />
			<path
   class="st30"
   d="m 154.1,70.9 c 0,-0.7 0.4,-1.2 1.1,-1.2 0.5,0 1,0.3 1,0.9 0,0.9 -0.9,1 -1.4,1.6 h 1.4 v 0.5 H 154 c 0,-0.7 0.4,-1 0.9,-1.3 0.3,-0.2 0.6,-0.4 0.6,-0.7 0,-0.3 -0.2,-0.4 -0.4,-0.4 -0.4,0 -0.5,0.4 -0.5,0.7 z"
   id="path484" />
			<g
   id="g486">
				<path
   class="st30"
   d="m 83,47.6 c 0.3,0 0.6,0 0.6,-0.4 0,-0.2 -0.2,-0.4 -0.4,-0.4 -0.3,0 -0.5,0.2 -0.4,0.5 h -0.6 c 0,-0.6 0.4,-1 1,-1 0.5,0 1,0.3 1,0.8 0,0.3 -0.1,0.5 -0.4,0.6 v 0 c 0.3,0.1 0.5,0.3 0.5,0.7 0,0.6 -0.5,1 -1.1,1 -0.7,0 -1.1,-0.4 -1.1,-1.1 h 0.6 c 0,0.3 0.2,0.6 0.5,0.6 0.3,0 0.5,-0.2 0.5,-0.5 C 83.7,48 83.3,48 83,48 Z"
   id="path485" />
				<path
   class="st30"
   d="m 85.1,48.6 c 0,0.2 0.2,0.4 0.4,0.4 0.4,0 0.5,-0.6 0.6,-0.9 v 0 c -0.2,0.2 -0.4,0.3 -0.7,0.3 -0.2,0 -0.5,-0.1 -0.7,-0.3 -0.2,-0.2 -0.2,-0.4 -0.2,-0.7 0,-0.6 0.4,-1.1 1,-1.1 0.9,0 1.1,0.8 1.1,1.5 0,0.7 -0.3,1.5 -1.2,1.5 -0.5,0 -0.9,-0.3 -0.9,-0.8 z M 86,47.4 c 0,-0.3 -0.2,-0.5 -0.5,-0.5 -0.3,0 -0.4,0.3 -0.4,0.5 0,0.2 0.1,0.5 0.4,0.5 0.3,0 0.5,-0.2 0.5,-0.5 z"
   id="path486" />
			</g>
			<g
   id="g488">
				<path
   class="st30"
   d="m 83.3,72.3 h -1.2 v -0.5 l 1.3,-1.7 h 0.5 v 1.8 h 0.4 v 0.5 H 83.9 V 73 h -0.6 z m 0,-1.5 v 0 l -0.8,1 h 0.8 z"
   id="path487" />
				<path
   class="st30"
   d="m 85.5,70 c 0.6,0 1.1,0.4 1.1,1.5 0,1.1 -0.5,1.5 -1.1,1.5 -0.6,0 -1.1,-0.4 -1.1,-1.5 0,-1.1 0.6,-1.5 1.1,-1.5 z m 0,2.6 c 0.5,0 0.5,-0.7 0.5,-1.1 0,-0.3 0,-1 -0.5,-1 -0.5,0 -0.5,0.7 -0.5,1 0.1,0.3 0.1,1.1 0.5,1.1 z"
   id="path488" />
			</g>
		</g>
	</g>
</g>
</svg>
