<?xml version="1.0" encoding="UTF-8" standalone="no"?>
<svg
   id="Layer_2"
   viewBox="0 0 234.99999 529.99998"
   version="1.1"
   sodipodi:docname="RAK12033-Bottom.svg"
   inkscape:version="1.4.2 (f4327f4, 2025-05-13)"
   width="235"
   height="530"
   xmlns:inkscape="http://www.inkscape.org/namespaces/inkscape"
   xmlns:sodipodi="http://sodipodi.sourceforge.net/DTD/sodipodi-0.dtd"
   xmlns="http://www.w3.org/2000/svg"
   xmlns:svg="http://www.w3.org/2000/svg">
  <sodipodi:namedview
     id="namedview273"
     pagecolor="#505050"
     bordercolor="#eeeeee"
     borderopacity="1"
     inkscape:showpageshadow="0"
     inkscape:pageopacity="0"
     inkscape:pagecheckerboard="0"
     inkscape:deskcolor="#505050"
     inkscape:zoom="1.8334066"
     inkscape:cx="23.453608"
     inkscape:cy="264.26217"
     inkscape:window-width="3440"
     inkscape:window-height="1369"
     inkscape:window-x="-8"
     inkscape:window-y="-8"
     inkscape:window-maximized="1"
     inkscape:current-layer="g157" />
  <defs
     id="defs2">
    <style
       id="style1">.cls-1{fill:#222630;}.cls-2{fill:#b85c00;}.cls-3{fill:#fff;}.cls-4{fill:#323d49;}.cls-5{opacity:.5;}.cls-6{fill:#deaa53;}.cls-7{fill:#b2b2b2;}.cls-8{fill:#333;}.cls-9{clip-path:url(#clippath-1);}.cls-10{fill:#eaf4fc;}.cls-11{fill:#242424;}.cls-12{fill:#013a5b;}.cls-13{clip-path:url(#clippath);}.cls-14{fill:none;}.cls-15{fill:#00cd01;}.cls-16{fill:#7f7f7f;}.cls-17{fill:#d2d2d2;}.cls-18{fill:#be8e3f;}.cls-19{fill:#ec2024;}</style>
    <clipPath
       id="clippath">
      <rect
         class="cls-14"
         x="211.02"
         y="41.040001"
         width="25.4"
         height="69.099998"
         id="rect1" />
    </clipPath>
    <clipPath
       id="clippath-1">
      <rect
         class="cls-14"
         x="211.02"
         y="41.040001"
         width="25.4"
         height="69.099998"
         id="rect2" />
    </clipPath>
  </defs>
  <g
     id="RAK12033"
     inkscape:label="RAK12033_Bottom">
    <g
       id="g273">
      <g
         class="cls-5"
         id="g157"
         style="opacity:1">
        <path
           class="cls-11"
           d="M 6.1425172,523.74792 H 59.352048 V 493.5016 c 0,-1.3281 0.02142,-2.63478 0.08568,-3.94145 h 37.786479 c 0.04284,1.30667 0.08568,2.61335 0.08568,3.94145 v 30.24632 H 228.59863 V 5.0835146 H 6.1425172 Z M 149.91964,415.91507 c 8.24705,0 14.97321,6.74759 14.97321,14.97322 v 8.24704 c 0,8.24705 -6.74758,14.97322 -14.97321,14.97322 H 43.928996 c -8.24705,0 -14.973214,-6.74759 -14.973214,-14.97322 v -8.24704 c 0,-8.24705 6.747585,-14.97322 14.973214,-14.97322 H 149.94106 Z"
           id="path156"
           style="stroke-width:2.14209" />
        <path
           class="cls-6"
           d="m 78.829472,478.91396 h -2.034987 c -16.129941,0 -29.218115,13.49517 -29.218115,30.13921 v 14.69475 h 12.359863 v -13.73081 c 0,-10.79613 8.504099,-19.5787 18.978922,-19.5787 10.474824,0 18.978924,8.76114 18.978924,19.5787 v 13.73081 H 108.069 v -14.69475 c 0,-16.64404 -13.088164,-30.13921 -29.218107,-30.13921"
           id="path157"
           style="opacity:1;fill:#ffb232;fill-opacity:1;stroke-width:2.14209" />
      </g>
      <g
         id="g209"
         transform="matrix(0,-2.1420906,2.1420906,0,-52.371487,522.57956)">
        <path
           class="cls-17"
           d="m 235.45,113.5 h -23.47 c -0.13,0 -0.24,-0.11 -0.24,-0.24 v -10 c 0,-0.13 0.11,-0.24 0.24,-0.24 0.13,0 0.24,0.11 0.24,0.24 v 9.76 h 22.98 v -9.76 c 0,-0.13 0.11,-0.24 0.24,-0.24 0.13,0 0.24,0.11 0.24,0.24 v 10 c 0,0.13 -0.11,0.24 -0.24,0.24 z"
           id="path158" />
        <path
           class="cls-17"
           d="m 235.45,49.55 c -0.13,0 -0.24,-0.11 -0.24,-0.24 v -9.76 h -22.98 v 9.76 c 0,0.13 -0.11,0.24 -0.24,0.24 -0.13,0 -0.24,-0.11 -0.24,-0.24 v -10 c 0,-0.13 0.11,-0.24 0.24,-0.24 h 23.47 c 0.13,0 0.24,0.11 0.24,0.24 v 10 c 0,0.13 -0.11,0.24 -0.24,0.24 z"
           id="path159" />
        <g
           id="g169"
           style="fill:#ffffff;fill-opacity:1">
          <path
             class="cls-17"
             d="m 58.92,27.66 h 7.47 c 3.02,0 4.75,1.73 4.75,4.52 0,2.06 -0.89,3.42 -2.81,4.03 v 0.07 c 1.73,0.58 2.29,1.85 2.41,4.45 0.12,2.69 0.42,3.37 0.73,3.58 v 0.09 h -1.69 c -0.37,-0.26 -0.47,-0.89 -0.61,-3.75 -0.14,-2.9 -1.15,-3.72 -3.58,-3.72 h -5.1 v 7.47 h -1.57 z m 6.93,7.94 c 2.43,0 3.67,-1.19 3.67,-3.28 0,-2.09 -0.94,-3.28 -3.46,-3.28 h -5.57 v 6.55 h 5.36 z"
             id="path160"
             style="fill:#ffffff;fill-opacity:1" />
          <path
             class="cls-17"
             d="m 78.7,27.66 h 1.78 l 6.37,16.74 h -1.69 l -1.94,-5.27 h -7.28 l -1.97,5.27 h -1.59 z m 4.05,10.18 -2.29,-6.25 c -0.35,-0.94 -0.84,-2.43 -0.84,-2.43 h -0.05 c 0,0 -0.44,1.43 -0.82,2.43 l -2.34,6.25 z"
             id="path161"
             style="fill:#ffffff;fill-opacity:1" />
          <path
             class="cls-17"
             d="m 88.53,27.66 h 1.57 v 8.92 l 9.04,-8.92 h 2.04 l -7,6.81 7.42,9.92 h -1.87 l -6.62,-8.85 -3,2.95 v 5.9 H 88.54 V 27.66 Z"
             id="path162"
             style="fill:#ffffff;fill-opacity:1" />
          <path
             class="cls-17"
             d="m 105.81,32.34 h -3.37 v -1.03 c 2.36,-0.12 3.46,-0.66 3.75,-3.04 h 1.15 V 44.4 h -1.52 V 32.35 Z"
             id="path163"
             style="fill:#ffffff;fill-opacity:1" />
          <path
             class="cls-17"
             d="m 115.46,37.18 c 2.18,-1.31 3.67,-2.11 3.67,-4.45 0,-2.15 -1.36,-3.42 -3.46,-3.42 -1.12,0 -2.04,0.35 -2.67,1.03 -0.63,0.7 -0.98,1.69 -1.01,3.16 h -1.54 c 0,-1.8 0.52,-3.11 1.43,-4.03 0.96,-0.96 2.36,-1.45 3.89,-1.45 3.02,0 4.92,2.01 4.92,4.66 0,3.21 -2.29,4.33 -4.66,5.73 -1.85,1.1 -3.89,2.34 -4.21,4.56 h 8.66 v 1.4 h -10.39 c 0.07,-4.12 2.86,-5.69 5.38,-7.21 z"
             id="path164"
             style="fill:#ffffff;fill-opacity:1" />
          <path
             class="cls-17"
             d="m 122.39,36.37 c 0,-5.2 2.32,-8.36 5.95,-8.36 3.63,0 5.92,3.11 5.92,8.36 0,5.25 -2.11,8.36 -5.95,8.36 -3.84,0 -5.92,-3.25 -5.92,-8.36 z m 10.3,0 c 0,-4.31 -1.52,-7.07 -4.35,-7.07 -2.83,0 -4.38,2.67 -4.38,7.07 0,4.4 1.52,7.05 4.38,7.05 2.86,0 4.35,-2.65 4.35,-7.05 z"
             id="path165"
             style="fill:#ffffff;fill-opacity:1" />
          <path
             class="cls-17"
             d="m 135.71,39.43 h 1.52 c 0.09,2.57 1.73,3.96 4.14,3.96 2.41,0 3.84,-1.33 3.84,-3.51 0,-2.18 -1.45,-3.37 -3.96,-3.37 h -1.12 v -1.24 h 1.1 c 2.2,0 3.44,-1.17 3.44,-2.97 0,-1.94 -1.43,-3.04 -3.32,-3.04 -2.32,0 -3.63,1.66 -3.63,3.84 h -1.5 c 0.02,-2.95 1.92,-5.08 5.17,-5.08 2.69,0 4.78,1.61 4.78,4.28 0,1.83 -0.98,2.93 -2.41,3.49 v 0.07 c 2.04,0.66 3,2.08 3,4.14 0,2.93 -2.2,4.73 -5.36,4.73 -3.16,0 -5.66,-1.99 -5.69,-5.29 z"
             id="path166"
             style="fill:#ffffff;fill-opacity:1" />
          <path
             class="cls-17"
             d="m 148.1,39.43 h 1.52 c 0.09,2.57 1.73,3.96 4.14,3.96 2.41,0 3.84,-1.33 3.84,-3.51 0,-2.18 -1.45,-3.37 -3.96,-3.37 h -1.12 v -1.24 h 1.1 c 2.2,0 3.44,-1.17 3.44,-2.97 0,-1.94 -1.43,-3.04 -3.32,-3.04 -2.32,0 -3.63,1.66 -3.63,3.84 h -1.5 c 0.02,-2.95 1.92,-5.08 5.17,-5.08 2.69,0 4.78,1.61 4.78,4.28 0,1.83 -0.98,2.93 -2.41,3.49 v 0.07 c 2.04,0.66 3,2.08 3,4.14 0,2.93 -2.2,4.73 -5.36,4.73 -3.16,0 -5.66,-1.99 -5.69,-5.29 z"
             id="path167"
             style="fill:#ffffff;fill-opacity:1" />
          <path
             class="cls-17"
             d="m 170.64,27.66 h 1.64 l 4.33,12.36 c 0.37,1.03 0.89,2.76 0.89,2.76 h 0.05 c 0,0 0.54,-1.8 0.91,-2.83 l 4.35,-12.29 h 1.59 l -6.06,16.74 h -1.71 z"
             id="path168"
             style="fill:#ffffff;fill-opacity:1" />
          <path
             class="cls-17"
             d="m 186.09,27.66 h 6.95 c 1.5,0 2.72,0.42 3.56,1.22 0.77,0.7 1.22,1.73 1.22,3 0,1.9 -0.87,3.04 -2.55,3.63 v 0.07 c 1.92,0.54 3.25,1.9 3.25,4.12 0,1.36 -0.42,2.46 -1.22,3.28 -0.87,0.89 -2.22,1.43 -3.96,1.43 h -7.26 V 27.66 Z m 6.93,7.35 c 2.04,0 3.21,-1.19 3.21,-3.02 0,-1.83 -1.22,-2.95 -3.16,-2.95 h -5.41 v 5.97 z m 0.23,7.96 c 1.29,0 2.22,-0.37 2.83,-0.96 0.54,-0.54 0.84,-1.31 0.84,-2.29 0,-2.13 -1.47,-3.35 -3.67,-3.35 h -5.59 v 6.6 z"
             id="path169"
             style="fill:#ffffff;fill-opacity:1" />
        </g>
        <g
           id="g175"
           style="fill:#ffffff;fill-opacity:1">
          <path
             class="cls-17"
             d="m 188.44,52.35 c 1.43,-1.59 3.77,-2.15 7.09,-2.15 4.78,0 8.26,2.04 8.26,5.97 0,2.81 -1.85,4.35 -4.17,4.61 v -1.52 c 1.64,-0.14 2.86,-1.26 2.86,-3.07 0,-3.14 -2.93,-4.52 -7.35,-4.49 v 0.05 c 1.66,0.96 2.6,2.46 2.6,4.38 0,2.95 -2.22,5.08 -5.22,5.08 -3.04,0.02 -5.43,-2.11 -5.43,-5.13 0,-1.64 0.52,-2.79 1.36,-3.72 z m 4.03,7.37 c 2.39,0 4,-1.52 4,-3.7 0,-2.18 -1.66,-3.93 -4.05,-3.93 -2.39,0 -4.07,1.61 -4.07,3.93 0,2.32 1.73,3.7 4.12,3.7 z"
             id="path170"
             style="fill:#ffffff;fill-opacity:1" />
          <path
             class="cls-17"
             d="m 194.62,65.2 v 5.99 h -1.31 V 65.2 Z"
             id="path171"
             style="fill:#ffffff;fill-opacity:1" />
          <path
             class="cls-17"
             d="m 204.15,80.28 v 1.78 l -16.74,6.37 v -1.69 l 5.27,-1.94 v -7.28 l -5.27,-1.97 v -1.59 z m -10.18,4.05 6.25,-2.29 c 0.94,-0.35 2.43,-0.84 2.43,-0.84 v -0.05 c 0,0 -1.43,-0.44 -2.43,-0.82 l -6.25,-2.34 z"
             id="path172"
             style="fill:#ffffff;fill-opacity:1" />
          <path
             class="cls-17"
             d="m 193.8,95.69 5.71,-4.05 v 1.69 l -4.66,3.16 v 0.05 l 4.66,3.16 v 1.64 l -5.59,-3.93 -6.51,4.63 v -1.71 l 5.45,-3.77 v -0.05 l -5.45,-3.72 v -1.64 z"
             id="path173"
             style="fill:#ffffff;fill-opacity:1" />
          <path
             class="cls-17"
             d="m 199.51,105.82 v 1.45 h -12.1 v -1.45 z m 4.63,0 v 1.45 h -2.06 v -1.45 z"
             id="path174"
             style="fill:#ffffff;fill-opacity:1" />
          <path
             class="cls-17"
             d="m 191.18,111.3 v 1.47 c -2.04,0.21 -2.86,1.62 -2.86,3.56 0,1.94 0.94,3.07 2.34,3.07 1.4,0 1.78,-0.75 2.34,-3.23 0.56,-2.46 1.15,-4.42 3.49,-4.42 2.01,0 3.28,1.73 3.28,4.21 0,2.88 -1.45,4.21 -3.58,4.49 V 119 c 1.57,-0.16 2.39,-1.24 2.39,-3.04 0,-1.8 -0.89,-2.76 -2.01,-2.76 -1.38,0 -1.71,1.15 -2.25,3.46 -0.52,2.43 -1.12,4.19 -3.63,4.19 -2.15,0 -3.6,-1.73 -3.6,-4.54 0,-3.23 1.76,-4.87 4.1,-5.01 z"
             id="path175"
             style="fill:#ffffff;fill-opacity:1" />
        </g>
        <g
           id="g201"
           style="fill:#ffffff;fill-opacity:1">
          <path
             class="cls-17"
             d="M 121.44,87.43 59.64,117.5 V 57.36 Z m 3.37,0 L 58.17,55 v 64.86 l 66.65,-32.43 z"
             id="path176"
             style="fill:#ffffff;fill-opacity:1" />
          <rect
             class="cls-17"
             x="63.599998"
             y="91.809998"
             width="42.689999"
             height="1.47"
             transform="rotate(-60.48,84.959757,92.552592)"
             id="rect176"
             style="fill:#ffffff;fill-opacity:1" />
          <rect
             class="cls-17"
             x="57.27"
             y="92.360001"
             width="47.23"
             height="1.47"
             transform="rotate(-60.48,80.898629,93.092593)"
             id="rect177"
             style="fill:#ffffff;fill-opacity:1" />
          <path
             class="cls-17"
             d="m 92.72,78.86 0.69,-1.31 c 0.19,0.1 4.56,2.41 7.21,4.3 2.79,1.99 5.16,12.86 5.42,14.09 l -1.44,0.3 C 103.66,91.8 101.52,84.3 99.77,83.05 97.21,81.22 92.78,78.88 92.73,78.85"
             id="path177"
             style="fill:#ffffff;fill-opacity:1" />
          <path
             class="cls-17"
             d="m 81.69,97.54 1.28,-0.74 c 0.88,1.52 2.88,2.95 4.99,2.74 2.65,-0.26 6.62,1.05 6.79,1.11 l -0.47,1.4 c 0,0 -3.84,-1.27 -6.18,-1.04 -2.86,0.28 -5.33,-1.6 -6.41,-3.47"
             id="path178"
             style="fill:#ffffff;fill-opacity:1" />
          <path
             class="cls-17"
             d="m 73.82,81.8 c 0,-0.18 0.01,-0.37 0.04,-0.57 0.38,-3.07 10.02,-6.96 10.12,-6.99 3.56,-1.43 6.63,1.77 6.76,1.91 l -1.07,1.01 c 0,0 -2.51,-2.6 -5.14,-1.55 -4.21,1.69 -9.05,4.53 -9.21,5.81 -0.08,0.68 0.05,1.09 0.22,1.18 0.21,0.12 0.75,-0.02 1.47,-0.59 1.91,-1.53 6.15,-3.33 7.45,-3.17 1.11,0.14 3.19,1.39 3.59,1.64 l -0.77,1.26 c -0.9,-0.55 -2.42,-1.37 -3,-1.44 -0.7,-0.08 -4.51,1.39 -6.35,2.86 -1.58,1.26 -2.63,1 -3.11,0.73 -0.65,-0.36 -1,-1.11 -1,-2.09"
             id="path179"
             style="fill:#ffffff;fill-opacity:1" />
          <path
             class="cls-17"
             d="m 70.89,87.57 c 0,-0.32 0.06,-0.62 0.21,-0.9 0.28,-0.53 0.95,-1.13 2.57,-0.93 3.32,0.4 8.56,4.67 8.78,4.85 l -0.93,1.14 C 80.1,90.57 75.9,87.49 73.5,87.2 c -0.66,-0.08 -1.02,0.02 -1.09,0.15 -0.19,0.38 0.3,1.64 1.23,2.7 1.08,1.22 4.93,3.84 6.33,4.75 l -0.8,1.24 C 78.96,95.9 73.96,92.65 72.53,91.03 71.84,90.24 70.89,88.8 70.89,87.56"
             id="path180"
             style="fill:#ffffff;fill-opacity:1" />
          <path
             class="cls-17"
             d="m 76.21,87.11 c 0,-1.99 2.01,-5.36 2.45,-6.07 l 1.26,0.77 c -1.47,2.39 -2.52,5.03 -2.19,5.53 0.33,0.19 0.68,0.24 1.05,0.13 0.86,-0.27 1.79,-1.39 2.55,-3.08 0.59,-1.32 1.36,-2.13 2.29,-2.41 1.32,-0.4 2.53,0.37 3.18,0.78 L 86.01,84 c -0.63,-0.4 -1.35,-0.8 -1.97,-0.62 -0.5,0.15 -0.96,0.69 -1.37,1.6 -0.96,2.14 -2.15,3.48 -3.46,3.88 C 78.43,89.1 77.65,89 76.94,88.57 76.71,88.43 76.4,88.15 76.27,87.62 76.23,87.46 76.21,87.29 76.21,87.1"
             id="path181"
             style="fill:#ffffff;fill-opacity:1" />
          <rect
             class="cls-17"
             x="116.62"
             y="84.620003"
             width="1.47"
             height="5.9200001"
             id="rect181"
             style="fill:#ffffff;fill-opacity:1" />
          <rect
             class="cls-17"
             x="113.01"
             y="82.870003"
             width="1.47"
             height="9.1300001"
             id="rect182"
             style="fill:#ffffff;fill-opacity:1" />
          <rect
             class="cls-17"
             x="109.4"
             y="81.110001"
             width="1.47"
             height="12.64"
             id="rect183"
             style="fill:#ffffff;fill-opacity:1" />
          <rect
             class="cls-17"
             x="105.8"
             y="79.360001"
             width="1.47"
             height="16.15"
             id="rect184"
             style="fill:#ffffff;fill-opacity:1" />
          <rect
             class="cls-17"
             x="102.19"
             y="77.910004"
             width="1.47"
             height="9.5699997"
             id="rect185"
             style="fill:#ffffff;fill-opacity:1" />
          <rect
             class="cls-17"
             x="98.580002"
             y="75.849998"
             width="1.47"
             height="6.0100002"
             id="rect186"
             style="fill:#ffffff;fill-opacity:1" />
          <rect
             class="cls-17"
             x="94.980003"
             y="74.419998"
             width="1.47"
             height="5.1100001"
             id="rect187"
             style="fill:#ffffff;fill-opacity:1" />
          <rect
             class="cls-17"
             x="87.769997"
             y="70.589996"
             width="1.48"
             height="4.79"
             id="rect188"
             style="fill:#ffffff;fill-opacity:1" />
          <rect
             class="cls-17"
             x="87.769997"
             y="100.45"
             width="1.48"
             height="3.8299999"
             id="rect189"
             style="fill:#ffffff;fill-opacity:1" />
          <rect
             class="cls-17"
             x="84.160004"
             y="68.830002"
             width="1.47"
             height="6.0999999"
             id="rect190"
             style="fill:#ffffff;fill-opacity:1" />
          <rect
             class="cls-17"
             x="84.160004"
             y="99.800003"
             width="1.47"
             height="6.0999999"
             id="rect191"
             style="fill:#ffffff;fill-opacity:1" />
          <rect
             class="cls-17"
             x="80.550003"
             y="67.410004"
             width="1.48"
             height="8.8400002"
             id="rect192"
             style="fill:#ffffff;fill-opacity:1" />
          <rect
             class="cls-17"
             x="80.550003"
             y="99.010002"
             width="1.48"
             height="8.7799997"
             id="rect193"
             style="fill:#ffffff;fill-opacity:1" />
          <rect
             class="cls-17"
             x="76.949997"
             y="65.300003"
             width="1.47"
             height="12.95"
             id="rect194"
             style="fill:#ffffff;fill-opacity:1" />
          <rect
             class="cls-17"
             x="76.949997"
             y="94.169998"
             width="1.47"
             height="4.6399999"
             id="rect195"
             style="fill:#ffffff;fill-opacity:1" />
          <rect
             class="cls-17"
             x="76.949997"
             y="105.38"
             width="1.47"
             height="3.9400001"
             id="rect196"
             style="fill:#ffffff;fill-opacity:1" />
          <rect
             class="cls-17"
             x="73.339996"
             y="63.57"
             width="1.48"
             height="22.870001"
             id="rect197"
             style="fill:#ffffff;fill-opacity:1" />
          <rect
             class="cls-17"
             x="73.339996"
             y="91.480003"
             width="1.48"
             height="13.91"
             id="rect198"
             style="fill:#ffffff;fill-opacity:1" />
          <rect
             class="cls-17"
             x="69.739998"
             y="62.380001"
             width="1.47"
             height="48.950001"
             id="rect199"
             style="fill:#ffffff;fill-opacity:1" />
          <rect
             class="cls-17"
             x="66.129997"
             y="60.060001"
             width="1.47"
             height="54.75"
             id="rect200"
             style="fill:#ffffff;fill-opacity:1" />
          <rect
             class="cls-17"
             x="62.52"
             y="58.139999"
             width="1.47"
             height="58.360001"
             id="rect201"
             style="fill:#ffffff;fill-opacity:1" />
        </g>
        <g
           id="g208"
           style="fill:#ffffff;fill-opacity:1">
          <polygon
             class="cls-17"
             points="172.03,92.13 176.36,92.13 176.36,80.1 172.03,80.1 172.03,76.08 176.36,76.08 176.36,65.29 172.03,65.29 172.03,61 149.35,61 149.35,111.06 172.03,111.06 172.03,107.25 176.36,107.25 176.36,96.19 172.03,96.19 "
             id="polygon201"
             style="fill:#ffffff;fill-opacity:1" />
          <path
             class="cls-17"
             d="m 145.54,50.31 v 1.74 l -7.61,1.81 v 0 l 7.61,1.99 v 1.81 l -7.61,1.92 v 0 l 7.61,1.85 v 1.78 l -9.96,-2.56 v -1.78 l 7.61,-1.99 v 0 l -7.61,-2.03 v -1.81 l 9.96,-2.74 z"
             id="path201"
             style="fill:#ffffff;fill-opacity:1" />
          <path
             class="cls-17"
             d="m 145.54,64.21 v 1.56 h -1.49 v -1.56 z m -2.74,0 v 1.56 h -7.11 v -1.56 z"
             id="path202"
             style="fill:#ffffff;fill-opacity:1" />
          <path
             class="cls-17"
             d="m 137.9,68.73 c -0.92,0 -1.24,0.78 -1.24,1.64 0,0.86 0,1.67 0.96,1.6 0.96,-0.07 0.92,-1.17 1.21,-2.35 0.28,-1.17 0.64,-2.31 2.1,-2.31 1.46,0 2.1,1.71 2.1,3.02 0,1.31 -0.6,2.81 -2.24,2.99 v -1.64 c 0.78,0 0.96,-0.75 0.96,-1.46 0,-0.71 0,-1.32 -0.75,-1.32 -0.75,0 -0.89,1.17 -1.14,2.35 -0.25,1.17 -0.68,2.31 -2.1,2.31 -1.42,0 -2.35,-1.71 -2.35,-3.2 0,-1.49 0.82,-3.16 2.49,-3.2 v 1.56 z"
             id="path203"
             style="fill:#ffffff;fill-opacity:1" />
          <path
             class="cls-17"
             d="m 145.54,74.88 v 4.69 c 0,1.92 -0.6,3.2 -2.45,3.2 -0.91,0.02 -1.74,-0.52 -2.1,-1.35 -0.29,1.14 -1.35,1.9 -2.52,1.81 -1.99,0 -2.88,-1.71 -2.88,-3.56 v -4.8 h 9.96 z m -4.02,2.2 v 2.2 c 0,0.78 0.36,1.35 1.17,1.35 0.81,0 1.17,-0.71 1.17,-1.49 v -2.06 h -2.35 z m -4.23,0 v 2.35 c 0,0.85 0.28,1.6 1.32,1.6 1.04,0 1.42,-0.6 1.42,-1.56 v -2.38 h -2.74 z"
             id="path204"
             style="fill:#ffffff;fill-opacity:1" />
          <path
             class="cls-17"
             d="m 145.54,84.69 v 2.2 h -8.29 v 4.84 h -1.85 v -7.11 l 10.13,0.07 z"
             id="path205"
             style="fill:#ffffff;fill-opacity:1" />
          <path
             class="cls-17"
             d="m 145.79,97.42 c 0.03,2.67 -2.11,4.86 -4.78,4.89 -0.16,0 -0.32,0 -0.48,-0.02 -2.7,0.23 -5.08,-1.77 -5.31,-4.47 -0.23,-2.7 1.77,-5.08 4.47,-5.31 0.28,-0.02 0.56,-0.02 0.83,0 2.66,-0.24 5.01,1.73 5.24,4.39 0.02,0.17 0.02,0.34 0.02,0.52 z m -8.61,0 c 0,1.96 1.67,2.7 3.34,2.7 1.67,0 3.56,-0.75 3.56,-2.7 0,-1.95 -1.67,-2.7 -3.56,-2.7 -1.89,0 -3.27,0.71 -3.27,2.7 z"
             id="path206"
             style="fill:#ffffff;fill-opacity:1" />
          <path
             class="cls-17"
             d="m 142.2,110.44 c 1.03,-0.21 1.76,-1.12 1.74,-2.17 0,-1.96 -1.67,-2.7 -3.56,-2.7 -1.89,0 -3.34,0.75 -3.34,2.7 0,1.24 1,2.26 2.24,2.28 v 2.1 c -2.3,-0.06 -4.11,-1.96 -4.06,-4.26 0,-0.04 0,-0.08 0,-0.11 -0.11,-2.63 1.92,-4.85 4.55,-4.97 0.25,-0.01 0.5,0 0.75,0.03 2.66,-0.24 5.01,1.73 5.24,4.39 0.01,0.16 0.02,0.32 0.02,0.48 0.15,2.15 -1.41,4.04 -3.56,4.3 l -0.04,-2.06 z"
             id="path207"
             style="fill:#ffffff;fill-opacity:1" />
          <path
             class="cls-17"
             d="m 145.54,113.99 v 2.17 h -4.12 l 4.12,3.91 v 2.74 l -3.91,-3.91 -6.04,4.27 v -2.74 l 4.48,-2.88 -1.24,-1.28 h -3.24 v -2.28 h 9.96 z"
             id="path208"
             style="fill:#ffffff;fill-opacity:1" />
        </g>
        <path
           class="cls-17"
           d="m 239.73,98.94 c 0,-0.26 -0.22,-0.05 -0.3,0.02 l -2.21,1.94 c -0.1,0.09 -0.1,0.23 0,0.32 l 2.21,1.94 c 0.08,0.07 0.3,0.23 0.3,0.02 v -4.25 z"
           id="path209" />
      </g>
      <g
         id="slot-male-connector"
         transform="matrix(0,-2.1420906,2.1420906,0,-52.371487,522.57956)">
        <g
           class="cls-13"
           clip-path="url(#clippath)"
           id="g267">
          <g
             class="cls-9"
             clip-path="url(#clippath-1)"
             id="g266">
            <g
               id="g265">
              <path
                 class="cls-10"
                 d="m 214.52,44.47 v -0.89 c 0.02,-0.81 0.69,-1.47 1.5,-1.46 h 15.72 c 0.81,0 1.46,0.66 1.46,1.46 v 0.89 c 0.02,0.81 -0.62,1.48 -1.43,1.5 -0.01,0 -0.02,0 -0.04,0 h -15.72 c -0.83,0 -1.5,-0.67 -1.5,-1.5 v 0"
                 id="path210" />
              <path
                 class="cls-10"
                 d="m 214.52,107.18 v -0.89 c 0,-0.83 0.67,-1.5 1.5,-1.5 h 15.72 c 0.81,0 1.47,0.66 1.47,1.46 0,0.01 0,0.02 0,0.04 v 0.89 c 0,0.81 -0.66,1.46 -1.46,1.46 h -15.72 c -0.82,0 -1.48,-0.65 -1.5,-1.46"
                 id="path211" />
              <path
                 class="cls-4"
                 d="m 228.27,110.14 h 1.57 c 0.83,0 1.5,-0.67 1.5,-1.5 v 0 -3.04 c 0,-0.61 -0.36,-1.16 -0.93,-1.39 V 46.9 c 0.56,-0.22 0.93,-0.76 0.93,-1.36 v -3 c 0,-0.83 -0.67,-1.5 -1.5,-1.5 h -1.5 c -0.66,0 -1.24,0.44 -1.43,1.07 h -6 c -0.18,-0.62 -0.75,-1.05 -1.39,-1.07 h -1.54 c -0.83,0 -1.5,0.67 -1.5,1.5 v 0 3.07 c 0.05,0.59 0.44,1.09 1,1.29 v 57.17 c -0.6,0.2 -1,0.76 -1,1.39 v 3.04 c 0,0.83 0.67,1.5 1.5,1.5 h 1.54 c 0.6,0 1.14,-0.37 1.36,-0.93 h 6 c 0.23,0.56 0.78,0.93 1.39,0.93"
                 id="path212" />
              <path
                 class="cls-1"
                 d="m 218.84,102.68 v -54.1 c -0.02,-0.41 0.3,-0.77 0.71,-0.79 0.01,0 0.02,0 0.04,0 h 8.29 c 0.43,0 0.79,0.35 0.79,0.79 v 54.09 c -0.02,0.42 -0.37,0.75 -0.79,0.75 h -8.29 c -0.41,0 -0.75,-0.34 -0.75,-0.75"
                 id="path213" />
              <path
                 class="cls-10"
                 d="m 236.42,53.44 v -1.72 c 0.02,-0.24 -0.16,-0.44 -0.39,-0.46 -0.01,0 -0.02,0 -0.04,0 h -1.54 c -0.23,0.02 -0.41,0.2 -0.43,0.43 h -4.18 v 1.75 h 4.18 c -0.08,0.24 0.05,0.51 0.3,0.58 0.04,0.01 0.09,0.02 0.13,0.02 h 1.54 c 0.24,0 0.43,-0.19 0.43,-0.43 0,-0.01 0,-0.02 0,-0.04"
                 id="path214" />
              <path
                 class="cls-18"
                 d="m 228.49,53.23 v -2.25 c -0.06,-0.21 0.06,-0.43 0.27,-0.49 0.04,-0.01 0.08,-0.02 0.12,-0.01 h 0.96 c 0.22,0 0.39,0.18 0.39,0.39 v 0 2.25 c 0,0.2 -0.16,0.36 -0.36,0.36 -0.01,0 -0.03,0 -0.04,0 h -1.07 c -0.2,0.02 -0.37,-0.12 -0.39,-0.32 0,-0.01 0,-0.02 0,-0.04"
                 id="path215" />
              <path
                 class="cls-10"
                 d="m 211.05,53.44 v -1.72 c 0,-0.26 0.21,-0.46 0.46,-0.46 h 1.5 c 0.24,0 0.43,0.19 0.43,0.43 h 4.04 v 1.75 h -4.04 c 0.1,0.21 0,0.47 -0.21,0.57 -0.07,0.03 -0.14,0.05 -0.22,0.04 h -1.5 c -0.26,0 -0.46,-0.21 -0.46,-0.46 v 0"
                 id="path216" />
              <path
                 class="cls-18"
                 d="m 219.13,53.23 v -2.25 c 0,-0.2 -0.15,-0.37 -0.36,-0.39 h -1.11 c -0.2,0 -0.36,0.16 -0.36,0.36 0,0.01 0,0.03 0,0.04 v 2.25 c -0.02,0.18 0.1,0.34 0.28,0.36 0.03,0 0.05,0 0.08,0 h 0.96 c 0.2,0 0.36,-0.16 0.36,-0.36"
                 id="path217" />
              <path
                 class="cls-10"
                 d="m 236.42,57.62 v -1.75 c 0.02,-0.24 -0.16,-0.44 -0.39,-0.46 -0.01,0 -0.02,0 -0.04,0 h -1.54 c -0.24,0.02 -0.43,0.22 -0.43,0.46 h -4.18 v 1.75 h 4.18 c 0.02,0.23 0.2,0.41 0.43,0.43 h 1.54 c 0.24,0 0.43,-0.19 0.43,-0.43"
                 id="path218" />
              <path
                 class="cls-18"
                 d="m 228.49,57.37 v -2.25 c 0,-0.2 0.16,-0.36 0.36,-0.36 0.01,0 0.03,0 0.04,0 h 0.96 c 0.2,-0.02 0.37,0.12 0.39,0.32 0,0.01 0,0.02 0,0.04 v 2.25 c -0.05,0.17 -0.22,0.28 -0.39,0.25 h -1.07 c -0.2,0.02 -0.37,-0.12 -0.39,-0.32 0,-0.01 0,-0.02 0,-0.04"
                 id="path219" />
              <path
                 class="cls-10"
                 d="m 211.05,57.62 v -1.75 c 0,-0.26 0.21,-0.46 0.46,-0.46 h 1.5 c 0.24,0 0.43,0.19 0.43,0.43 0,0.01 0,0.02 0,0.04 h 4.04 v 1.75 h -4.04 c 0,0.24 -0.19,0.43 -0.43,0.43 h -1.5 c -0.24,0 -0.45,-0.19 -0.46,-0.43"
                 id="path220" />
              <path
                 class="cls-18"
                 d="m 219.13,57.37 v -2.25 c 0,-0.2 -0.16,-0.36 -0.36,-0.36 h -1.11 c -0.18,-0.02 -0.34,0.1 -0.36,0.28 0,0.03 0,0.05 0,0.08 v 2.25 c -0.02,0.18 0.1,0.34 0.28,0.36 0.03,0 0.05,0 0.08,0 h 0.96 c 0.2,0 0.36,-0.16 0.36,-0.36 v 0"
                 id="path221" />
              <path
                 class="cls-10"
                 d="m 236.42,61.98 v -1.72 c 0,-0.24 -0.19,-0.43 -0.43,-0.43 h -1.54 c -0.24,0 -0.43,0.19 -0.43,0.43 h -4.18 v 1.75 h 4.18 c 0.02,0.23 0.2,0.41 0.43,0.43 h 1.54 c 0.24,0 0.43,-0.19 0.43,-0.43 0,-0.01 0,-0.02 0,-0.04"
                 id="path222" />
              <path
                 class="cls-18"
                 d="m 228.49,61.77 v -2.25 c 0,-0.2 0.16,-0.36 0.36,-0.36 0.01,0 0.03,0 0.04,0 h 0.96 c 0.2,-0.02 0.37,0.12 0.39,0.32 0,0.01 0,0.02 0,0.04 v 2.25 c 0,0.2 -0.16,0.36 -0.36,0.36 -0.01,0 -0.03,0 -0.04,0 h -1.07 c -0.2,0.02 -0.37,-0.12 -0.39,-0.32 0,-0.01 0,-0.02 0,-0.04"
                 id="path223" />
              <path
                 class="cls-10"
                 d="m 211.05,61.98 v -1.72 c 0,-0.24 0.19,-0.43 0.43,-0.43 0.01,0 0.02,0 0.04,0 h 1.5 c 0.24,0 0.43,0.19 0.43,0.43 h 4.04 v 1.75 h -4.04 c 0,0.24 -0.19,0.43 -0.43,0.43 h -1.5 c -0.26,0 -0.46,-0.21 -0.46,-0.46 v 0"
                 id="path224" />
              <path
                 class="cls-18"
                 d="m 219.13,61.77 v -2.25 c 0,-0.2 -0.16,-0.36 -0.36,-0.36 h -1.11 c -0.18,-0.02 -0.34,0.1 -0.36,0.28 0,0.03 0,0.05 0,0.08 v 2.25 c -0.02,0.18 0.1,0.34 0.28,0.36 0.03,0 0.05,0 0.08,0 h 0.96 c 0.2,0 0.36,-0.16 0.36,-0.36 v 0"
                 id="path225" />
              <path
                 class="cls-10"
                 d="m 236.42,66.27 v -1.5 c 0.02,-0.24 -0.16,-0.44 -0.39,-0.46 -0.01,0 -0.02,0 -0.04,0 h -1.54 c -0.24,0 -0.43,0.19 -0.43,0.43 h -4.18 v 1.75 h 4.18 c 0,0.24 0.19,0.43 0.43,0.43 h 1.54 c 0.24,0 0.43,-0.19 0.43,-0.43 0,-0.01 0,-0.02 0,-0.04"
                 id="path226" />
              <path
                 class="cls-18"
                 d="M 228.49,66.09 V 63.8 c 0.02,-0.2 0.19,-0.36 0.39,-0.36 h 0.96 c 0.2,0 0.37,0.15 0.39,0.36 v 2.29 c -0.02,0.2 -0.19,0.36 -0.39,0.36 h -1.07 c -0.2,0 -0.37,-0.15 -0.39,-0.36"
                 id="path227" />
              <path
                 class="cls-10"
                 d="m 211.05,66.27 v -1.5 c 0,-0.26 0.21,-0.46 0.46,-0.46 h 1.5 c 0.24,0 0.43,0.19 0.43,0.43 h 4.04 v 1.75 h -4.04 c 0,0.24 -0.19,0.43 -0.43,0.43 h -1.5 c -0.26,0 -0.46,-0.21 -0.46,-0.46 v 0"
                 id="path228" />
              <path
                 class="cls-18"
                 d="M 219.13,66.09 V 63.8 c -0.02,-0.19 -0.17,-0.34 -0.36,-0.36 h -1.11 c -0.2,0 -0.36,0.16 -0.36,0.36 v 0 2.29 c 0,0.2 0.16,0.36 0.36,0.36 h 0.96 c 0.19,-0.02 0.34,-0.17 0.36,-0.36"
                 id="path229" />
              <path
                 class="cls-10"
                 d="m 236.42,70.48 v -1.71 c 0.02,-0.24 -0.16,-0.44 -0.39,-0.46 -0.01,0 -0.02,0 -0.04,0 h -1.54 c -0.24,0 -0.43,0.19 -0.43,0.43 h -4.18 v 1.75 h 4.18 c 0,0.24 0.19,0.43 0.43,0.43 h 1.54 c 0.24,0 0.43,-0.19 0.43,-0.43"
                 id="path230" />
              <path
                 class="cls-18"
                 d="m 228.49,70.27 v -2.29 c 0.02,-0.2 0.19,-0.36 0.39,-0.36 h 0.96 c 0.2,0 0.37,0.15 0.39,0.36 v 2.29 c -0.02,0.2 -0.19,0.36 -0.39,0.36 h -1.07 c -0.2,0 -0.37,-0.15 -0.39,-0.36"
                 id="path231" />
              <path
                 class="cls-10"
                 d="m 211.05,70.48 v -1.71 c 0.02,-0.24 0.22,-0.43 0.46,-0.43 h 1.5 c 0.24,0 0.43,0.19 0.43,0.43 h 4.04 v 1.75 h -4.04 c 0,0.24 -0.19,0.43 -0.43,0.43 h -1.5 c -0.24,0.02 -0.44,-0.16 -0.46,-0.39 0,-0.01 0,-0.02 0,-0.04"
                 id="path232" />
              <path
                 class="cls-18"
                 d="m 219.13,70.27 v -2.29 c -0.02,-0.19 -0.17,-0.34 -0.36,-0.36 h -1.11 c -0.2,0 -0.36,0.16 -0.36,0.36 v 0 2.29 c 0,0.2 0.16,0.36 0.36,0.36 h 0.96 c 0.19,-0.02 0.34,-0.17 0.36,-0.36"
                 id="path233" />
              <path
                 class="cls-10"
                 d="m 236.42,74.63 v -1.71 c 0.02,-0.24 -0.16,-0.44 -0.39,-0.46 -0.01,0 -0.02,0 -0.04,0 h -1.54 c -0.23,0.02 -0.41,0.2 -0.43,0.43 h -4.18 v 1.75 h 4.18 c 0,0.24 0.19,0.45 0.43,0.46 h 1.54 c 0.24,0 0.43,-0.19 0.43,-0.43 0,-0.01 0,-0.02 0,-0.04"
                 id="path234" />
              <path
                 class="cls-18"
                 d="m 228.49,74.41 v -2.25 c 0.06,-0.16 0.22,-0.26 0.39,-0.25 h 0.96 c 0.22,0 0.39,0.18 0.39,0.39 v 2.25 c 0,0.2 -0.16,0.36 -0.36,0.36 -0.01,0 -0.03,0 -0.04,0 h -1.07 c -0.2,0.02 -0.37,-0.12 -0.39,-0.32 0,-0.01 0,-0.02 0,-0.04"
                 id="path235" />
              <path
                 class="cls-10"
                 d="m 211.05,74.63 v -1.71 c 0,-0.26 0.21,-0.46 0.46,-0.46 h 1.5 c 0.24,0 0.43,0.19 0.43,0.43 h 4.04 v 1.75 h -4.04 c 0.02,0.24 -0.16,0.44 -0.39,0.46 -0.01,0 -0.02,0 -0.04,0 h -1.5 c -0.26,0 -0.46,-0.21 -0.46,-0.46 v 0"
                 id="path236" />
              <path
                 class="cls-18"
                 d="m 219.13,74.41 v -2.25 c 0,-0.2 -0.15,-0.37 -0.36,-0.39 h -1.11 c -0.2,0 -0.36,0.16 -0.36,0.36 0,0.01 0,0.03 0,0.04 v 2.25 c -0.02,0.18 0.1,0.34 0.28,0.36 0.03,0 0.05,0 0.08,0 h 0.96 c 0.2,0 0.36,-0.16 0.36,-0.36 v 0"
                 id="path237" />
              <path
                 class="cls-10"
                 d="m 236.42,78.81 v -1.68 c 0.02,-0.24 -0.16,-0.44 -0.39,-0.46 -0.01,0 -0.02,0 -0.04,0 h -1.54 c -0.24,0 -0.43,0.19 -0.43,0.43 h -4.18 v 1.75 h 4.18 c 0,0.24 0.19,0.43 0.43,0.43 h 1.54 c 0.24,0 0.43,-0.19 0.43,-0.43 0,-0.01 0,-0.02 0,-0.04"
                 id="path238" />
              <path
                 class="cls-18"
                 d="m 228.49,78.59 v -2.25 c 0,-0.2 0.16,-0.36 0.36,-0.36 0.01,0 0.03,0 0.04,0 h 0.96 c 0.2,-0.02 0.37,0.12 0.39,0.32 0,0.01 0,0.02 0,0.04 v 2.25 c 0.04,0.21 -0.1,0.42 -0.31,0.46 -0.03,0 -0.05,0 -0.08,0 h -1.07 c -0.22,0 -0.39,-0.18 -0.39,-0.39"
                 id="path239" />
              <path
                 class="cls-10"
                 d="m 211.05,78.81 v -1.68 c 0,-0.26 0.21,-0.46 0.46,-0.46 h 1.5 c 0.24,0 0.43,0.19 0.43,0.43 h 4.04 v 1.75 h -4.04 c 0,0.24 -0.19,0.43 -0.43,0.43 h -1.5 c -0.26,0 -0.46,-0.21 -0.46,-0.46 v 0"
                 id="path240" />
              <path
                 class="cls-18"
                 d="m 219.13,78.59 v -2.25 c 0,-0.2 -0.16,-0.36 -0.36,-0.36 h -1.11 c -0.18,-0.02 -0.34,0.1 -0.36,0.28 0,0.03 0,0.05 0,0.08 v 2.25 c -0.02,0.2 0.12,0.37 0.32,0.39 0.01,0 0.02,0 0.04,0 h 0.96 c 0.2,-0.02 0.36,-0.19 0.36,-0.39"
                 id="path241" />
              <path
                 class="cls-10"
                 d="m 236.42,83.06 v -1.68 c 0.02,-0.24 -0.16,-0.44 -0.39,-0.46 -0.01,0 -0.02,0 -0.04,0 h -1.54 c -0.24,0 -0.43,0.19 -0.43,0.43 h -4.18 v 1.75 h 4.18 c 0,0.24 0.19,0.43 0.43,0.43 h 1.54 c 0.24,0 0.43,-0.19 0.43,-0.43 0,-0.01 0,-0.02 0,-0.04"
                 id="path242" />
              <path
                 class="cls-18"
                 d="M 228.49,82.85 V 80.6 c 0,-0.2 0.16,-0.36 0.36,-0.36 0.01,0 0.03,0 0.04,0 h 0.96 c 0.2,-0.02 0.37,0.12 0.39,0.32 0,0.01 0,0.02 0,0.04 v 2.25 c 0,0.22 -0.18,0.39 -0.39,0.39 h -1.07 c -0.22,0 -0.39,-0.18 -0.39,-0.39 v 0"
                 id="path243" />
              <path
                 class="cls-10"
                 d="m 211.05,83.06 v -1.68 c -0.02,-0.24 0.15,-0.44 0.39,-0.46 0.02,0 0.05,0 0.07,0 h 1.5 c 0.24,0 0.43,0.19 0.43,0.43 h 4.04 v 1.75 h -4.04 c 0,0.24 -0.19,0.43 -0.43,0.43 h -1.5 c -0.26,0 -0.46,-0.21 -0.46,-0.46"
                 id="path244" />
              <path
                 class="cls-18"
                 d="M 219.13,82.85 V 80.6 c 0,-0.2 -0.16,-0.36 -0.36,-0.36 h -1.11 c -0.18,-0.02 -0.34,0.1 -0.36,0.28 0,0.03 0,0.05 0,0.08 v 2.25 c -0.02,0.2 0.12,0.37 0.32,0.39 0.01,0 0.02,0 0.04,0 h 0.96 c 0.2,-0.02 0.36,-0.19 0.36,-0.39"
                 id="path245" />
              <path
                 class="cls-10"
                 d="M 236.42,87.31 V 85.6 c 0,-0.24 -0.19,-0.43 -0.43,-0.43 h -1.54 c -0.24,0 -0.43,0.19 -0.43,0.43 h -4.18 v 1.75 h 4.18 c 0,0.24 0.19,0.43 0.43,0.43 h 1.54 c 0.24,0 0.43,-0.19 0.43,-0.43 0,-0.01 0,-0.02 0,-0.04"
                 id="path246" />
              <path
                 class="cls-18"
                 d="m 228.49,87.1 v -2.25 c 0,-0.2 0.16,-0.36 0.36,-0.36 0.01,0 0.03,0 0.04,0 h 0.96 c 0.2,-0.02 0.37,0.12 0.39,0.32 0,0.01 0,0.02 0,0.04 v 2.25 c 0,0.22 -0.18,0.39 -0.39,0.39 h -1.07 c -0.22,0 -0.39,-0.18 -0.39,-0.39 v 0"
                 id="path247" />
              <path
                 class="cls-10"
                 d="M 211.05,87.31 V 85.6 c 0,-0.24 0.19,-0.43 0.43,-0.43 0.01,0 0.02,0 0.04,0 h 1.5 c 0.24,0 0.43,0.19 0.43,0.43 h 4.04 v 1.75 h -4.04 c 0,0.24 -0.19,0.43 -0.43,0.43 h -1.5 c -0.26,0 -0.46,-0.21 -0.46,-0.46"
                 id="path248" />
              <path
                 class="cls-18"
                 d="m 219.13,87.1 v -2.25 c 0,-0.2 -0.16,-0.36 -0.36,-0.36 h -1.11 c -0.18,-0.02 -0.34,0.1 -0.36,0.28 0,0.03 0,0.05 0,0.08 v 2.25 c -0.02,0.2 0.12,0.37 0.32,0.39 0.01,0 0.02,0 0.04,0 h 0.96 c 0.2,-0.02 0.36,-0.19 0.36,-0.39"
                 id="path249" />
              <path
                 class="cls-10"
                 d="m 236.42,91.53 v -1.75 c 0.02,-0.24 -0.16,-0.44 -0.39,-0.46 -0.01,0 -0.02,0 -0.04,0 h -1.54 c -0.23,0.02 -0.41,0.2 -0.43,0.43 h -4.18 v 1.75 h 4.18 c 0,0.24 0.19,0.45 0.43,0.46 h 1.54 c 0.24,0 0.43,-0.19 0.43,-0.43 0,-0.01 0,-0.02 0,-0.04"
                 id="path250" />
              <path
                 class="cls-18"
                 d="m 228.49,91.31 v -2.25 c 0,-0.22 0.18,-0.39 0.39,-0.39 h 0.96 c 0.22,0 0.39,0.18 0.39,0.39 v 0 2.25 c 0,0.2 -0.16,0.36 -0.36,0.36 -0.01,0 -0.03,0 -0.04,0 h -1.07 c -0.2,0.02 -0.37,-0.12 -0.39,-0.32 0,-0.01 0,-0.02 0,-0.04"
                 id="path251" />
              <path
                 class="cls-10"
                 d="m 211.05,91.53 v -1.75 c 0,-0.26 0.21,-0.46 0.46,-0.46 h 1.5 c 0.24,0 0.43,0.19 0.43,0.43 0,0.01 0,0.02 0,0.04 h 4.04 v 1.75 h -4.04 c 0.02,0.24 -0.16,0.44 -0.39,0.46 -0.01,0 -0.02,0 -0.04,0 h -1.5 c -0.26,0 -0.46,-0.21 -0.46,-0.46"
                 id="path252" />
              <path
                 class="cls-18"
                 d="m 219.13,91.31 v -2.25 c 0,-0.2 -0.15,-0.37 -0.36,-0.39 h -1.11 c -0.2,0 -0.36,0.16 -0.36,0.36 0,0.01 0,0.03 0,0.04 v 2.25 c -0.02,0.18 0.1,0.34 0.28,0.36 0.03,0 0.05,0 0.08,0 h 0.96 c 0.2,0 0.36,-0.16 0.36,-0.36 v 0"
                 id="path253" />
              <path
                 class="cls-10"
                 d="m 236.42,95.85 v -1.68 c 0.02,-0.24 -0.16,-0.44 -0.39,-0.46 -0.01,0 -0.02,0 -0.04,0 h -1.54 c -0.24,0 -0.43,0.19 -0.43,0.43 h -4.18 v 1.75 h 4.18 c 0,0.24 0.19,0.43 0.43,0.43 h 1.54 c 0.24,0 0.43,-0.19 0.43,-0.43 0,-0.01 0,-0.02 0,-0.04"
                 id="path254" />
              <path
                 class="cls-18"
                 d="m 228.49,95.67 v -2.32 c 0.02,-0.2 0.19,-0.36 0.39,-0.36 h 0.96 c 0.2,0 0.37,0.15 0.39,0.36 v 2.29 c -0.02,0.2 -0.19,0.36 -0.39,0.36 h -1.07 c -0.2,0 -0.37,-0.15 -0.39,-0.36"
                 id="path255" />
              <path
                 class="cls-10"
                 d="m 211.05,95.85 v -1.68 c 0,-0.26 0.21,-0.46 0.46,-0.46 h 1.5 c 0.24,0 0.43,0.19 0.43,0.43 h 4.04 v 1.75 h -4.04 c 0,0.24 -0.19,0.43 -0.43,0.43 h -1.5 c -0.24,0.02 -0.44,-0.15 -0.46,-0.39 0,-0.02 0,-0.05 0,-0.07"
                 id="path256" />
              <path
                 class="cls-18"
                 d="m 219.13,95.67 v -2.32 c -0.02,-0.19 -0.17,-0.34 -0.36,-0.36 h -1.11 c -0.2,0 -0.36,0.16 -0.36,0.36 v 0 2.29 c 0,0.2 0.16,0.36 0.36,0.36 h 0.96 c 0.19,-0.02 0.34,-0.17 0.36,-0.36"
                 id="path257" />
              <path
                 class="cls-10"
                 d="m 236.42,100.1 v -1.68 c 0.02,-0.24 -0.16,-0.44 -0.39,-0.46 -0.01,0 -0.02,0 -0.04,0 h -1.54 c -0.24,0 -0.43,0.19 -0.43,0.43 h -4.18 v 1.75 h 4.18 c 0.04,0.21 0.22,0.36 0.43,0.36 h 1.54 c 0.24,0 0.43,-0.19 0.43,-0.43 0,-0.01 0,-0.02 0,-0.04"
                 id="path258" />
              <path
                 class="cls-18"
                 d="m 228.49,99.93 v -2.29 c 0.02,-0.2 0.19,-0.36 0.39,-0.36 h 0.96 c 0.2,0 0.37,0.15 0.39,0.36 v 2.29 c -0.02,0.2 -0.19,0.36 -0.39,0.36 h -1.07 c -0.2,0 -0.37,-0.15 -0.39,-0.36"
                 id="path259" />
              <path
                 class="cls-10"
                 d="m 211.05,100.1 v -1.68 c 0,-0.26 0.21,-0.46 0.46,-0.46 h 1.5 c 0.24,0 0.43,0.19 0.43,0.43 h 4.04 v 1.75 h -4.04 c 0,0.24 -0.19,0.43 -0.43,0.43 h -1.5 c -0.24,0.02 -0.44,-0.15 -0.46,-0.39 0,-0.02 0,-0.05 0,-0.07"
                 id="path260" />
              <path
                 class="cls-18"
                 d="m 219.13,99.93 v -2.29 c -0.02,-0.19 -0.17,-0.34 -0.36,-0.36 h -1.11 c -0.2,0 -0.36,0.16 -0.36,0.36 v 0 2.29 c 0,0.2 0.16,0.36 0.36,0.36 h 0.96 c 0.19,-0.02 0.34,-0.17 0.36,-0.36"
                 id="path261" />
              <path
                 class="cls-18"
                 d="m 229.42,42.12 c 0.5,0 0.93,0.71 0.93,1.57 0,0.86 -0.43,1.57 -0.93,1.57 -0.5,0 -0.93,-0.71 -0.93,-1.57 0,-0.86 0.43,-1.57 0.93,-1.57"
                 id="path262" />
              <path
                 class="cls-18"
                 d="m 218.2,42.12 c 0.54,0 0.93,0.71 0.93,1.57 0,0.86 -0.39,1.57 -0.93,1.57 -0.54,0 -0.89,-0.71 -0.89,-1.57 0,-0.86 0.39,-1.57 0.89,-1.57"
                 id="path263" />
              <path
                 class="cls-18"
                 d="m 229.42,105.57 c 0.5,0 0.93,0.68 0.93,1.57 0,0.89 -0.43,1.54 -0.93,1.54 -0.5,0 -0.93,-0.68 -0.93,-1.54 0,-0.86 0.43,-1.57 0.93,-1.57"
                 id="path264" />
              <path
                 class="cls-18"
                 d="m 218.2,105.57 c 0.54,0 0.93,0.68 0.93,1.57 0,0.89 -0.39,1.54 -0.93,1.54 -0.54,0 -0.89,-0.68 -0.89,-1.54 0,-0.86 0.39,-1.57 0.89,-1.57"
                 id="path265" />
            </g>
          </g>
        </g>
      </g>
    </g>
  </g>
</svg>
