<?xml version="1.0" encoding="UTF-8" standalone="no"?>
<svg
   viewBox="0 0 750 643.006"
   version="1.1"
   id="svg604"
   sodipodi:docname="RAK19003-Top.svg"
   width="750"
   height="643.00598"
   inkscape:version="1.4.2 (f4327f4, 2025-05-13)"
   xmlns:inkscape="http://www.inkscape.org/namespaces/inkscape"
   xmlns:sodipodi="http://sodipodi.sourceforge.net/DTD/sodipodi-0.dtd"
   xmlns="http://www.w3.org/2000/svg"
   xmlns:svg="http://www.w3.org/2000/svg">
  <sodipodi:namedview
     id="namedview604"
     pagecolor="#505050"
     bordercolor="#eeeeee"
     borderopacity="1"
     inkscape:showpageshadow="0"
     inkscape:pageopacity="0"
     inkscape:pagecheckerboard="0"
     inkscape:deskcolor="#505050"
     inkscape:zoom="1.2833374"
     inkscape:cx="680.25759"
     inkscape:cy="317.53147"
     inkscape:window-width="3440"
     inkscape:window-height="1369"
     inkscape:window-x="-8"
     inkscape:window-y="-8"
     inkscape:window-maximized="1"
     inkscape:current-layer="svg604" />
  <defs
     id="defs30">
    <style
       id="style1">.cls-1,.cls-3,.cls-4,.cls-6,.cls-7{fill:none;}.cls-2{fill:#242424;}.cls-3,.cls-4,.cls-6{stroke:#fff;}.cls-3,.cls-4,.cls-6,.cls-7{stroke-miterlimit:10;}.cls-3,.cls-4{stroke-width:3px;}.cls-4{stroke-linecap:round;}.cls-5{fill:#fff;}.cls-7{stroke:#000;}.cls-8{fill:#deaa53;}.cls-9{fill:#f2f3f6;}.cls-10{fill:#ffdb00;}.cls-11{fill:#f7f1e5;}.cls-12{fill:#f3e2c1;}.cls-13{fill:#e9d197;}.cls-14{fill:#283135;}.cls-15{fill:#fff5e6;}.cls-16{fill:#ddd1a2;}.cls-17{fill:#b6c2cc;}.cls-18{fill:#6f7985;}.cls-19{fill:#e4e9ad;}.cls-20{fill:#f3ede6;}.cls-21{fill:#fffffb;}.cls-22{fill:#cbd1cf;}.cls-23{fill:#cfc5b9;}.cls-24{fill:#796d64;}.cls-25{clip-path:url(#clip-path);}.cls-26{fill:#e5e5e5;}.cls-27{fill:#232323;}.cls-28{clip-path:url(#clip-path-3);}.cls-29{clip-path:url(#clip-path-5);}.cls-30{clip-path:url(#clip-path-7);}.cls-31{clip-path:url(#clip-path-9);}.cls-32{clip-path:url(#clip-path-10);}.cls-33{fill:#b9752b;}.cls-34{fill:#313c49;}.cls-35{fill:#e9f5ff;}.cls-36{fill:#242a38;}.cls-37{fill:#1f232d;}.cls-38{fill:#bf8e40;}.cls-39{fill:#7c5e49;}.cls-40{fill:#222630;}.cls-41{fill:#ca9a2c;}.cls-42{fill:#a5a8a6;}.cls-43{fill:#e2b12d;}.cls-44{fill:#fed10d;}.cls-45{fill:#feec4e;}.cls-46{fill:#0f0f0f;}.cls-47{clip-path:url(#clip-path-11);}.cls-48{clip-path:url(#clip-path-12);}.cls-49{clip-path:url(#clip-path-13);}.cls-50{clip-path:url(#clip-path-14);}.cls-51{clip-path:url(#clip-path-15);}.cls-52{clip-path:url(#clip-path-16);}.cls-53{clip-path:url(#clip-path-17);}.cls-54{clip-path:url(#clip-path-18);}.cls-55{clip-path:url(#clip-path-19);}.cls-56{clip-path:url(#clip-path-20);}.cls-57{clip-path:url(#clip-path-21);}.cls-58{clip-path:url(#clip-path-22);}.cls-59{fill:#70786a;}.cls-60{clip-path:url(#clip-path-23);}.cls-61{clip-path:url(#clip-path-24);}.cls-62{clip-path:url(#clip-path-25);}.cls-63{fill:#ca992c;}.cls-64{clip-path:url(#clip-path-27);}.cls-65{clip-path:url(#clip-path-29);}.cls-66{clip-path:url(#clip-path-30);}.cls-67{clip-path:url(#clip-path-31);}.cls-68{clip-path:url(#clip-path-33);}.cls-69{clip-path:url(#clip-path-35);}.cls-70{clip-path:url(#clip-path-37);}.cls-71{clip-path:url(#clip-path-39);}.cls-72{clip-path:url(#clip-path-41);}</style>
    <clipPath
       id="clip-path">
      <rect
         class="cls-1"
         x="166"
         y="521.50598"
         width="30.962799"
         height="14.8494"
         id="rect1" />
    </clipPath>
    <clipPath
       id="clip-path-3">
      <rect
         class="cls-1"
         x="117.00001"
         y="435.50601"
         width="14.8494"
         height="30.962799"
         id="rect2" />
    </clipPath>
    <clipPath
       id="clip-path-5">
      <rect
         class="cls-1"
         x="209"
         y="521.50598"
         width="30.962799"
         height="14.8494"
         id="rect3" />
    </clipPath>
    <clipPath
       id="clip-path-7">
      <rect
         class="cls-1"
         x="199.00002"
         y="195.506"
         width="14.8494"
         height="30.962799"
         id="rect4" />
    </clipPath>
    <clipPath
       id="clip-path-9">
      <rect
         class="cls-1"
         x="116.00001"
         y="379.50601"
         width="16.95013"
         height="32.99765"
         id="rect5" />
    </clipPath>
    <clipPath
       id="clip-path-10">
      <rect
         class="cls-1"
         x="116.00071"
         y="379.50601"
         width="16.949421"
         height="32.997082"
         id="rect6" />
    </clipPath>
    <clipPath
       id="clip-path-11">
      <rect
         class="cls-1"
         x="1250.3245"
         y="287.50058"
         width="32.99765"
         height="16.95013"
         id="rect7" />
    </clipPath>
    <clipPath
       id="clip-path-12">
      <rect
         class="cls-1"
         x="1250.3245"
         y="287.50058"
         width="32.997082"
         height="16.949421"
         id="rect8" />
    </clipPath>
    <clipPath
       id="clip-path-13">
      <rect
         class="cls-1"
         x="1250.3245"
         y="262.50058"
         width="32.99765"
         height="16.95013"
         id="rect9" />
    </clipPath>
    <clipPath
       id="clip-path-14">
      <rect
         class="cls-1"
         x="1250.3245"
         y="262.50058"
         width="32.997082"
         height="16.949421"
         id="rect10" />
    </clipPath>
    <clipPath
       id="clip-path-15">
      <rect
         class="cls-1"
         x="1250.3245"
         y="238.5006"
         width="32.99765"
         height="16.95013"
         id="rect11" />
    </clipPath>
    <clipPath
       id="clip-path-16">
      <rect
         class="cls-1"
         x="1250.3245"
         y="238.5006"
         width="32.997082"
         height="16.949421"
         id="rect12" />
    </clipPath>
    <clipPath
       id="clip-path-17">
      <rect
         class="cls-1"
         x="1250.3245"
         y="215.5006"
         width="32.99765"
         height="16.95013"
         id="rect13" />
    </clipPath>
    <clipPath
       id="clip-path-18">
      <rect
         class="cls-1"
         x="1250.3245"
         y="215.5006"
         width="32.997082"
         height="16.949421"
         id="rect14" />
    </clipPath>
    <clipPath
       id="clip-path-19">
      <rect
         class="cls-1"
         x="1298.3245"
         y="156.5006"
         width="16.95013"
         height="32.99765"
         id="rect15" />
    </clipPath>
    <clipPath
       id="clip-path-20">
      <rect
         class="cls-1"
         x="1298.3252"
         y="156.5006"
         width="16.949421"
         height="32.997082"
         id="rect16" />
    </clipPath>
    <clipPath
       id="clip-path-21">
      <rect
         class="cls-1"
         x="1298.3245"
         y="112.50059"
         width="16.95013"
         height="32.99765"
         id="rect17" />
    </clipPath>
    <clipPath
       id="clip-path-22">
      <rect
         class="cls-1"
         x="1298.3252"
         y="112.50059"
         width="16.949421"
         height="32.997082"
         id="rect18" />
    </clipPath>
    <clipPath
       id="clip-path-23">
      <rect
         class="cls-1"
         x="1174.3245"
         y="195.5006"
         width="16.95013"
         height="32.99765"
         id="rect19" />
    </clipPath>
    <clipPath
       id="clip-path-24">
      <rect
         class="cls-1"
         x="1174.3252"
         y="195.5006"
         width="16.949421"
         height="32.997082"
         id="rect20" />
    </clipPath>
    <clipPath
       id="clip-path-25">
      <rect
         class="cls-1"
         x="1250.3245"
         y="193.57162"
         width="33"
         height="14.98594"
         id="rect21" />
    </clipPath>
    <clipPath
       id="clip-path-27">
      <rect
         class="cls-1"
         x="1463.3245"
         y="289.50058"
         width="30.962799"
         height="14.8494"
         id="rect22" />
    </clipPath>
    <clipPath
       id="clip-path-29">
      <rect
         class="cls-1"
         x="1214.3245"
         y="196.5006"
         width="14.8494"
         height="30.962799"
         id="rect23" />
    </clipPath>
    <clipPath
       id="clip-path-30">
      <rect
         class="cls-1"
         x="1214.3248"
         y="196.5006"
         width="14.849"
         height="30.962999"
         id="rect24" />
    </clipPath>
    <clipPath
       id="clip-path-31">
      <rect
         class="cls-1"
         x="1198.3245"
         y="312.50061"
         width="30.962799"
         height="14.8494"
         id="rect25" />
    </clipPath>
    <clipPath
       id="clip-path-33">
      <rect
         class="cls-1"
         x="1218.3245"
         y="94.500603"
         width="30.962799"
         height="14.8494"
         id="rect26" />
    </clipPath>
    <clipPath
       id="clip-path-35">
      <rect
         class="cls-1"
         x="1218.3245"
         y="69.500603"
         width="30.962799"
         height="14.8494"
         id="rect27" />
    </clipPath>
    <clipPath
       id="clip-path-37">
      <rect
         class="cls-1"
         x="1218.3245"
         y="45.500599"
         width="30.962799"
         height="14.8494"
         id="rect28" />
    </clipPath>
    <clipPath
       id="clip-path-39">
      <rect
         class="cls-1"
         x="1114.3245"
         y="59.500599"
         width="30.962799"
         height="14.8494"
         id="rect29" />
    </clipPath>
    <clipPath
       id="clip-path-41">
      <rect
         class="cls-1"
         x="1114.3245"
         y="7.5005999"
         width="30.962799"
         height="14.8494"
         id="rect30" />
    </clipPath>
  </defs>
  <g
     id="Layer_1-2"
     data-name="Layer 1">
    <path
       class="cls-2"
       d="m 41,399.506 v 45 c 0,0 -3,10 -8,10 0,0 -8,1 -8,11 v 159 c 0,0 0,17 20,17 h 299.65955 v -156.5 c 0,0 2.84045,-13 18.84045,-13 h 233 c 0,0 20,0 20,18 v 151.5 h 130 V 384.52724 l -4.76062,-4.76062 v -27.2821 a 32.00818,32.00818 0 0 1 0.258,-61.04358 L 742,290.82509 V 267.974 l 4.5,-5.48926 V 1.51082 H 45.42554 c 0,0 -21.21033,2.42554 -21.21033,21.21033 V 378.506 c 0,0 -0.71521,7.5 5.78479,8 0,0 11,3 11,13 z m 668.5,177 a 11.5,11.5 0 1 1 11.5,11.5 11.5,11.5 0 0 1 -11.5,-11.5 z m 0,-53 a 11.5,11.5 0 1 1 11.5,11.5 11.5,11.5 0 0 1 -11.5,-11.5 z m 0,-56 a 11.5,11.5 0 1 1 11.5,11.5 11.5,11.5 0 0 1 -11.5,-11.5 z m 0,-53 a 11.5,11.5 0 1 1 11.5,11.5 11.5,11.5 0 0 1 -11.5,-11.5 z m 0,-203 a 11.5,11.5 0 1 1 11.5,11.5 11.5,11.5 0 0 1 -11.5,-11.5 z m 0,-56 a 11.5,11.5 0 1 1 11.5,11.5 11.5,11.5 0 0 1 -11.5,-11.5 z m 0,-53 a 11.5,11.5 0 1 1 11.5,11.5 11.5,11.5 0 0 1 -11.5,-11.5 z m 0,-56 a 11.5,11.5 0 1 1 11.5,11.5 11.5,11.5 0 0 1 -11.5,-11.5 z m -573,36.5 a 30,30 0 1 1 -30,-30 30,30 0 0 1 30,30 z m -60.5,473 a 30,30 0 1 1 30,30 30,30 0 0 1 -30,-30 z"
       id="path30" />
    <g
       id="Labels">
      <line
         class="cls-3"
         x1="266"
         y1="641.50598"
         x2="266"
         y2="1.5"
         id="line30" />
      <rect
         class="cls-3"
         x="162.5"
         y="517.00598"
         width="38"
         height="23"
         id="rect31" />
      <rect
         class="cls-3"
         x="103.5"
         y="439.00601"
         width="41"
         height="23"
         transform="rotate(90,124,450.506)"
         id="rect32" />
      <rect
         class="cls-3"
         x="103.5"
         y="385.00601"
         width="41"
         height="23"
         transform="rotate(90,124,396.506)"
         id="rect33" />
      <rect
         class="cls-3"
         x="205.5"
         y="517.00598"
         width="38"
         height="23"
         id="rect34" />
      <polyline
         class="cls-4"
         points="253.5 484.357 253.5 500.006 243.5 500.006"
         id="polyline34" />
      <polyline
         class="cls-4"
         points="214.5 484.357 214.5 500.006 224.5 500.006"
         id="polyline35" />
      <polyline
         class="cls-4"
         points="190.5 484.357 190.5 500.006 180.5 500.006"
         id="polyline36" />
      <polyline
         class="cls-4"
         points="151.5 484.357 151.5 500.006 161.5 500.006"
         id="polyline37" />
      <polyline
         class="cls-4"
         points="36.936 473.082 28.511 473.082 28.511 462.4"
         id="polyline38" />
      <polyline
         class="cls-4"
         points="36.936 372.4 28.511 372.4 28.511 383.082"
         id="polyline39" />
      <line
         class="cls-4"
         x1="69.5"
         y1="372.00601"
         x2="96.5"
         y2="372.00601"
         id="line39" />
      <line
         class="cls-4"
         x1="91.5"
         y1="152.006"
         x2="129"
         y2="152.006"
         id="line40" />
      <line
         class="cls-4"
         x1="27.5"
         y1="152.006"
         x2="32.5"
         y2="152.006"
         id="line41" />
      <line
         class="cls-4"
         x1="171.23404"
         y1="321.50299"
         x2="171.23404"
         y2="332.9689"
         id="line42" />
      <line
         class="cls-4"
         x1="171.5"
         y1="171.006"
         x2="171.5"
         y2="186.10175"
         id="line43" />
      <rect
         class="cls-4"
         x="195.5"
         y="190.006"
         width="21.69149"
         height="43"
         id="rect43" />
      <line
         class="cls-4"
         x1="152.5"
         y1="3.006"
         x2="152.5"
         y2="23.006001"
         id="line44" />
      <line
         class="cls-4"
         x1="152.5"
         y1="32.569832"
         x2="152.5"
         y2="45.846432"
         id="line45" />
      <polyline
         class="cls-4"
         points="259.574 3.006 259.574 136.485 162.5 136.485 153.5 136.485 153.5 117.006"
         id="polyline45" />
      <circle
         class="cls-4"
         cx="105"
         cy="84.505997"
         r="58.5"
         id="circle45" />
      <circle
         class="cls-4"
         cx="105"
         cy="559.50598"
         r="57.5"
         id="circle46" />
      <circle
         class="cls-4"
         cx="307"
         cy="41.506001"
         r="39.5"
         id="circle47" />
      <circle
         class="cls-4"
         cx="648.5"
         cy="42.006001"
         r="39"
         id="circle48" />
      <line
         class="cls-4"
         x1="685"
         y1="1.5"
         x2="685"
         y2="641.50598"
         id="line48" />
      <polyline
         class="cls-4"
         points="742 606.017 692.5 606.017 692.5 386.006 742 386.006"
         id="polyline48" />
      <line
         class="cls-4"
         x1="742"
         y1="550.18683"
         x2="692.5"
         y2="550.18683"
         id="line49" />
      <path
         class="cls-5"
         d="m 344,588.1874 a 39.5,39.5 0 1 0 0,27.6372 z m -37,50.3186 a 36.5,36.5 0 1 1 36.5,-36.5 36.54158,36.54158 0 0 1 -36.5,36.5 z"
         id="path49" />
      <line
         class="cls-4"
         x1="43.5"
         y1="567.00598"
         x2="27"
         y2="567.00598"
         id="line50" />
      <line
         class="cls-4"
         x1="115.25"
         y1="637.25598"
         x2="115.25"
         y2="620.75598"
         id="line51" />
      <line
         class="cls-4"
         x1="43.5"
         y1="551.00598"
         x2="27"
         y2="551.00598"
         id="line52" />
      <polyline
         class="cls-4"
         points="161.5 638.506 161.5 546.006 244.5 546.006 244.5 638.506"
         id="polyline52" />
      <polyline
         class="cls-4"
         points="742 239.634 690 239.634 690 21.006 742 21.006"
         id="polyline53" />
      <line
         class="cls-4"
         x1="742"
         y1="74.442169"
         x2="690"
         y2="74.442169"
         id="line53" />
      <polyline
         class="cls-4"
         points="592.34 3.006 592.34 79.006 359.319 79.006 359.319 3.006"
         id="polyline54" />
      <polygon
         class="cls-5"
         points="147,18.506 140,26.407 133,34.307 133,18.506 133,2.705 140,10.605 "
         id="polygon54" />
      <polygon
         class="cls-5"
         points="181.1,459.506 177.649,452.506 174.199,445.506 181.1,445.506 188,445.506 184.55,452.506 "
         id="polygon55" />
      <polygon
         class="cls-5"
         points="246.9,566.006 254.95,556.256 263,546.506 263,566.006 263,585.506 254.95,575.756 "
         id="polygon56" />
      <polygon
         class="cls-5"
         points="243.1,459.506 239.649,452.506 236.199,445.506 243.1,445.506 250,445.506 246.55,452.506 "
         id="polygon57" />
      <path
         class="cls-5"
         d="m 612.02418,94.86039 h 9.64062 a 4.91223,4.91223 0 0 1 5.2334,4.93262 4.36625,4.36625 0 0 1 -2.83008,4.48144 v 0.0508 c 1.92871,0.5254 2.47949,2.35352 2.60449,4.18165 0.0752,1.127 0.0254,3.25488 0.751,4.23144 h -3.93066 a 21.402,21.402 0 0 1 -0.626,-4.28223 c -0.27539,-1.87793 -1.00195,-2.7041 -2.98047,-2.7041 h -3.93066 v 6.98633 h -3.93164 z m 3.93164,8.08789 h 4.30664 c 1.77734,0 2.7041,-0.75195 2.7041,-2.55469 0,-1.72754 -0.92676,-2.47851 -2.7041,-2.47851 h -4.30664 z"
         id="path57" />
      <path
         class="cls-5"
         d="m 634.48511,103.37309 -5.75879,-8.5127 h 4.55762 l 3.50488,5.709 3.63086,-5.709 h 4.30664 l -5.73339,8.53809 6.23437,9.33984 h -4.68262 l -3.90625,-6.18457 -3.98047,6.18457 h -4.43261 z"
         id="path58" />
      <path
         class="cls-5"
         d="m 654.89234,112.73832 h -3.55566 v -11.36816 h -4.40723 v -2.67871 c 2.47949,0.07519 4.73242,-0.80176 5.13379,-3.48047 h 2.8291 z"
         id="path59" />
      <path
         class="cls-5"
         d="m 615.98023,132.16508 h -5.3584 v -3.30469 h 14.64844 v 3.30469 h -5.3584 v 14.57324 h -3.93164 z"
         id="path60" />
      <path
         class="cls-5"
         d="m 631.70582,137.37309 -5.75879,-8.5127 h 4.55761 l 3.50489,5.709 3.63086,-5.709 h 4.30661 l -5.7334,8.53809 6.23437,9.33984 h -4.68261 l -3.90625,-6.18457 -3.98047,6.18457 h -4.43262 z"
         id="path61" />
      <path
         class="cls-5"
         d="m 652.113,146.73832 h -3.55566 v -11.36816 h -4.40723 v -2.67871 c 2.47949,0.0752 4.73242,-0.80176 5.13379,-3.48047 h 2.8291 z"
         id="path62" />
      <path
         class="cls-5"
         d="m 624.94507,178.71 a 6.01459,6.01459 0 0 1 -4.9082,2.4541 c -5.50879,0 -8.78906,-4.13183 -8.78906,-9.29 0,-5.30859 3.28027,-9.43945 8.78906,-9.43945 3.65625,0 7.13672,2.22852 7.53711,6.30957 h -3.75586 a 3.64238,3.64238 0 0 0 -3.78125,-3.00488 c -3.53027,0 -4.85742,3.00488 -4.85742,6.13476 0,2.97949 1.32715,5.98438 4.85742,5.98438 a 3.84425,3.84425 0 0 0 4.25684,-3.85547 h -3.95606 v -2.92969 h 7.51172 v 9.665 h -2.50391 z"
         id="path63" />
      <path
         class="cls-5"
         d="m 631.02906,162.86039 h 3.90625 l 7.46191,11.99316 h 0.0498 v -11.99316 h 3.68164 v 17.87793 H 642.197 l -7.43653,-11.96875 h -0.0508 v 11.96875 h -3.68066 z"
         id="path64" />
      <path
         class="cls-5"
         d="m 649.58472,162.86039 h 7.71289 c 4.63184,0 8.11231,2.92969 8.11231,8.83887 0,5.18262 -2.6543,9.03906 -8.11231,9.03906 h -7.71289 z m 3.93164,14.57227 h 3.50489 c 2.27929,0 4.457,-1.40137 4.457,-5.3584 0,-3.60547 -1.27637,-5.90918 -5.15723,-5.90918 h -2.80469 z"
         id="path65" />
      <path
         class="cls-5"
         d="m 633.94507,506.71 a 6.01459,6.01459 0 0 1 -4.9082,2.4541 c -5.50879,0 -8.78906,-4.13183 -8.78906,-9.29 0,-5.30859 3.28027,-9.43945 8.78906,-9.43945 3.65625,0 7.13672,2.22852 7.53711,6.30957 h -3.75586 a 3.64238,3.64238 0 0 0 -3.78125,-3.00488 c -3.53027,0 -4.85742,3.00488 -4.85742,6.13476 0,2.97949 1.32715,5.98438 4.85742,5.98438 a 3.84425,3.84425 0 0 0 4.25684,-3.85547 h -3.95606 v -2.92969 h 7.51172 v 9.665 h -2.50391 z"
         id="path66" />
      <path
         class="cls-5"
         d="m 640.02906,490.86039 h 3.90625 l 7.46191,11.99316 h 0.0498 v -11.99316 h 3.68164 v 17.87793 H 651.197 l -7.43653,-11.96875 h -0.0508 v 11.96875 h -3.68066 z"
         id="path67" />
      <path
         class="cls-5"
         d="m 658.58472,490.86039 h 7.71289 c 4.63184,0 8.11231,2.92969 8.11231,8.83887 0,5.18262 -2.6543,9.03906 -8.11231,9.03906 h -7.71289 z m 3.93164,14.57227 h 3.50489 c 2.27929,0 4.457,-1.40137 4.457,-5.3584 0,-3.60547 -1.27637,-5.90918 -5.15723,-5.90918 h -2.80469 z"
         id="path68" />
      <path
         class="cls-5"
         d="m 623.70386,420.80375 c 0,2.37891 1.85254,3.30566 3.95606,3.30566 1.37695,0 3.48047,-0.40136 3.48047,-2.22851 0,-1.95313 -2.70411,-2.22852 -5.3086,-2.95508 -2.65429,-0.65137 -5.333,-1.77734 -5.333,-5.083 0,-3.68066 3.45508,-5.4082 6.68555,-5.4082 3.73047,0 7.16113,1.62695 7.16113,5.75879 h -3.80567 c -0.126,-2.12793 -1.62793,-2.7041 -3.53125,-2.7041 -1.25195,0 -2.7041,0.52539 -2.7041,2.02832 0,1.37695 0.85156,1.57715 5.334,2.7041 1.32715,0.30078 5.30762,1.17676 5.30762,5.208 0,3.28027 -2.55371,5.73437 -7.43652,5.73437 -3.95606,0 -7.6875,-1.95312 -7.61231,-6.36035 z"
         id="path69" />
      <path
         class="cls-5"
         d="m 637.27515,408.86039 h 7.71285 c 4.63184,0 8.11231,2.92969 8.11231,8.83887 0,5.18262 -2.6543,9.03906 -8.11231,9.03906 h -7.71289 z m 3.93164,14.57227 h 3.50489 c 2.27929,0 4.458,-1.40137 4.458,-5.3584 0,-3.60547 -1.27734,-5.90918 -5.1582,-5.90918 h -2.80469 z"
         id="path70" />
      <path
         class="cls-5"
         d="m 660.71265,408.86039 h 4.03125 l 6.68555,17.87793 h -4.08106 l -1.35254,-3.98144 h -6.68554 l -1.40235,3.98144 h -3.98046 z m -0.375,10.9668 h 4.63184 l -2.25391,-6.56055 h -0.0498 z"
         id="path71" />
      <path
         class="cls-5"
         d="m 623.70386,461.80375 c 0,2.37891 1.85254,3.30566 3.95606,3.30566 1.37695,0 3.48047,-0.40136 3.48047,-2.22851 0,-1.95313 -2.70411,-2.22852 -5.3086,-2.95508 -2.65429,-0.65137 -5.333,-1.77734 -5.333,-5.083 0,-3.68066 3.45508,-5.4082 6.68555,-5.4082 3.73047,0 7.16113,1.62695 7.16113,5.75879 h -3.80567 c -0.126,-2.12793 -1.62793,-2.7041 -3.53125,-2.7041 -1.25195,0 -2.7041,0.52539 -2.7041,2.02832 0,1.37695 0.85156,1.57715 5.334,2.7041 1.32715,0.30078 5.30762,1.17676 5.30762,5.208 0,3.28027 -2.55371,5.73437 -7.43652,5.73437 -3.95606,0 -7.6875,-1.95312 -7.61231,-6.36035 z"
         id="path72" />
      <path
         class="cls-5"
         d="m 649.1941,455.86918 a 3.90192,3.90192 0 0 0 -3.90625,-3.12988 c -3.53028,0 -4.85742,3.00488 -4.85742,6.13476 0,2.97949 1.32714,5.98438 4.85742,5.98438 2.40429,0 3.75586,-1.627 4.05664,-4.00586 h 3.80566 c -0.40039,4.48144 -3.45508,7.31152 -7.8623,7.31152 -5.50879,0 -8.78907,-4.13183 -8.78907,-9.29 0,-5.30859 3.28028,-9.43945 8.78907,-9.43945 3.90625,0 7.23633,2.30371 7.71289,6.43457 z"
         id="path73" />
      <path
         class="cls-5"
         d="m 655.82984,449.86039 h 3.93164 v 14.57227 h 8.71387 v 3.30566 h -12.64551 z"
         id="path74" />
      <path
         class="cls-5"
         d="M 629.33765,547.73832 H 624.906 l -5.80957,-17.87793 h 4.05664 l 3.98145,12.56934 h 0.0498 l 4.03125,-12.56934 h 4.05664 z"
         id="path75" />
      <path
         class="cls-5"
         d="m 636.79957,529.86039 h 7.71289 c 4.63183,0 8.1123,2.92969 8.1123,8.83887 0,5.18262 -2.6543,9.03906 -8.1123,9.03906 h -7.71289 z m 3.93164,14.57227 h 3.50488 c 2.2793,0 4.457,-1.40137 4.457,-5.3584 0,-3.60547 -1.27637,-5.90918 -5.15723,-5.90918 h -2.80468 z"
         id="path76" />
      <path
         class="cls-5"
         d="m 655.35425,529.86039 h 7.71289 c 4.63184,0 8.11231,2.92969 8.11231,8.83887 0,5.18262 -2.6543,9.03906 -8.11231,9.03906 h -7.71289 z m 3.93164,14.57227 h 3.50489 c 2.27929,0 4.457,-1.40137 4.457,-5.3584 0,-3.60547 -1.27637,-5.90918 -5.15723,-5.90918 h -2.80469 z"
         id="path77" />
      <path
         class="cls-5"
         d="m 612.02418,197.86039 h 8.41308 c 3.40625,0 5.71,1.10156 5.71,4.43164 a 3.88487,3.88487 0 0 1 -2.42969,3.73047 4.33972,4.33972 0 0 1 3.28028,4.53223 c 0,3.63086 -3.08008,5.18359 -6.30957,5.18359 h -8.66406 z m 3.93164,7.23633 h 3.98144 c 1.40234,0 2.40332,-0.626 2.40332,-2.12891 0,-1.67773 -1.30176,-2.05273 -2.7041,-2.05273 h -3.68066 z m 0,7.58691 h 4.20605 c 1.52734,0 2.90527,-0.501 2.90527,-2.35351 0,-1.82813 -1.12695,-2.55469 -2.83007,-2.55469 h -4.28125 z"
         id="path78" />
      <path
         class="cls-5"
         d="m 637.6648,197.43461 c 5.50879,0 8.78906,4.13086 8.78906,9.43945 0,5.15821 -3.28027,9.29 -8.78906,9.29 -5.50879,0 -8.78906,-4.13183 -8.78906,-9.29 0,-5.30859 3.28026,-9.43945 8.78906,-9.43945 z m 0,15.42383 c 3.53125,0 4.85742,-3.00489 4.85742,-5.98438 0,-3.12988 -1.32617,-6.13476 -4.85742,-6.13476 -3.53027,0 -4.85742,3.00488 -4.85742,6.13476 0,2.97949 1.32715,5.98438 4.85742,5.98438 z"
         id="path79" />
      <path
         class="cls-5"
         d="m 657.14625,197.43461 c 5.50878,0 8.78906,4.13086 8.78906,9.43945 0,5.15821 -3.28028,9.29 -8.78906,9.29 -5.50878,0 -8.78907,-4.13183 -8.78907,-9.29 0,-5.30859 3.28028,-9.43945 8.78907,-9.43945 z m 0,15.42383 c 3.53125,0 4.85742,-3.00489 4.85742,-5.98438 0,-3.12988 -1.32617,-6.13476 -4.85742,-6.13476 -3.53028,0 -4.85743,3.00488 -4.85743,6.13476 0,2.97949 1.32718,5.98438 4.85743,5.98438 z"
         id="path80" />
      <path
         class="cls-5"
         d="m 672.57105,201.16508 h -5.3584 v -3.30469 h 14.64844 v 3.30469 h -5.3584 v 14.57324 h -3.93164 z"
         id="path81" />
      <polygon
         class="cls-5"
         points="413.842,173.313 413.842,134.322 407.301,134.322 407.301,126.883 388.316,126.883 388.316,134.322 381.343,134.322 381.343,126.883 360.703,126.883 360.703,134.322 353.732,134.322 353.732,126.883 335.188,126.883 335.188,134.322 327.842,134.322 327.842,173.313 "
         id="polygon81" />
      <path
         class="cls-5"
         d="m 305.67017,181.20414 h 3.083 L 311.885,194.46 h 0.0488 l 3.4961,-13.25586 h 3.10742 L 321.9358,194.46 h 0.0488 l 3.22852,-13.25586 h 3.083 l -4.78223,17.334 h -3.083 l -3.47168,-13.25489 h -0.0488 l -3.54395,13.25489 h -3.13184 z"
         id="path82" />
      <path
         class="cls-5"
         d="m 329.97584,181.20414 h 2.76757 v 2.62207 h -2.76757 z m 0,4.7832 h 2.76757 v 12.55079 h -2.76757 z"
         id="path83" />
      <path
         class="cls-5"
         d="m 337.842,194.50785 c 0.16992,1.627 1.36035,2.18555 2.84082,2.18555 1.06836,0 2.86425,-0.21875 2.792,-1.65137 -0.0732,-1.45605 -2.08789,-1.626 -4.10254,-2.08789 -2.04,-0.43652 -4.03027,-1.165 -4.03027,-3.71387 0,-2.74316 2.96191,-3.59277 5.24414,-3.59277 2.57324,0 4.92773,1.04395 5.24316,3.85938 h -2.88867 c -0.26758,-1.335 -1.31055,-1.67481 -2.54883,-1.67481 -0.80176,0 -2.28223,0.19434 -2.28223,1.28711 0,1.35937 2.03907,1.57715 4.07813,2.01465 2.01562,0.46094 4.05469,1.18945 4.05469,3.666 0,2.98536 -3.01075,4.07813 -5.6084,4.07813 -3.17969,0 -5.48633,-1.4082 -5.5586,-4.37012 z"
         id="path84" />
      <path
         class="cls-5"
         d="m 351.78052,181.20512 h 8.15723 c 3.30176,0 5.53516,1.06836 5.53516,4.29785 a 3.76775,3.76775 0 0 1 -2.3545,3.61719 4.2075,4.2075 0 0 1 3.17969,4.39355 c 0,3.52051 -2.98633,5.02539 -6.11719,5.02539 h -8.40039 z m 3.81153,7.0166 h 3.86035 c 1.35937,0 2.33008,-0.60742 2.33008,-2.06348 0,-1.62695 -1.26172,-1.99121 -2.6211,-1.99121 H 355.592 Z m 0,7.35547 h 4.0791 c 1.48047,0 2.81543,-0.48535 2.81543,-2.28223 0,-1.77148 -1.0918,-2.47558 -2.74317,-2.47558 H 355.592 Z"
         id="path85" />
      <path
         class="cls-5"
         d="m 368.87427,181.20512 h 3.81153 V 195.335 h 8.4482 v 3.2041 h -12.25973 z"
         id="path86" />
      <path
         class="cls-5"
         d="m 391.04224,180.793 c 5.34082,0 8.52149,4.00586 8.52149,9.15234 0,5.001 -3.18067,9.00684 -8.52149,9.00684 -5.34082,0 -8.52051,-4.00586 -8.52051,-9.00684 0,-5.14647 3.17969,-9.15234 8.52051,-9.15234 z m 0,14.9541 c 3.42285,0 4.71,-2.91309 4.71,-5.80176 0,-3.03515 -1.28711,-5.94824 -4.71,-5.94824 -3.42289,0 -4.709,2.91309 -4.709,5.94824 2e-5,2.88866 1.28615,5.80177 4.709,5.80177 z"
         id="path87" />
      <path
         class="cls-5"
         d="m 413.72,187.03227 a 3.78333,3.78333 0 0 0 -3.78711,-3.03516 c -3.42286,0 -4.709,2.91309 -4.709,5.94824 0,2.88867 1.28613,5.80176 4.709,5.80176 2.33105,0 3.6416,-1.57813 3.93359,-3.88379 h 3.68945 c -0.38867,4.3457 -3.34961,7.08887 -7.623,7.08887 -5.34082,0 -8.52051,-4.00586 -8.52051,-9.00684 0,-5.14648 3.17969,-9.15234 8.52051,-9.15234 3.78711,0 7.0166,2.2334 7.47754,6.23926 z"
         id="path88" />
      <path
         class="cls-5"
         d="m 420.1565,181.20512 h 3.8115 v 7.18652 l 6.77344,-7.18652 h 4.75781 l -6.77246,6.84668 7.42871,10.4873 h -4.7832 l -5.21875,-7.793 -2.18555,2.209 v 5.584 h -3.8115 z"
         id="path89" />
      <path
         class="cls-5"
         d="m 352.81807,231.42983 61.77724,126.96842 H 291.042 Z m 0,-6.92383 -66.62018,136.92231 h 133.23919 z"
         id="path90" />
      <rect
         class="cls-5"
         x="361.81552"
         y="262.54843"
         width="3.0290301"
         height="87.709778"
         transform="rotate(-60.48366,363.33001,306.40331)"
         id="rect90" />
      <rect
         class="cls-5"
         x="362.9335"
         y="266.2229"
         width="3.02759"
         height="97.031387"
         transform="rotate(-60.4827,364.44733,314.7386)"
         id="rect91" />
      <path
         class="cls-5"
         d="m 335.20549,290.42759 -2.67894,-1.41378 a 161.146,161.146 0 0 1 8.83618,-14.80618 c 4.09157,-5.72772 26.41026,-10.5964 28.94291,-11.13594 l 0.62614,2.96452 c -9.1159,1.9346 -24.53768,6.33981 -27.10661,9.93281 a 160.98607,160.98607 0 0 0 -8.61968,14.45857"
         id="path91" />
      <path
         class="cls-5"
         d="m 373.58732,313.08954 -1.52146,-2.62158 c 3.12485,-1.81172 6.06127,-5.91733 5.63292,-10.25818 -0.5407,-5.45034 2.16165,-13.6089 2.27752,-13.95182 l 2.87205,0.962 c -0.0246,0.0772 -2.61341,7.88585 -2.13473,12.69134 0.584,5.87635 -3.2887,10.951 -7.1263,13.1782"
         id="path92" />
      <path
         class="cls-5"
         d="m 341.25272,329.26305 a 9.42156,9.42156 0 0 1 -1.1645,-0.0749 c -6.3,-0.78647 -14.29,-20.59475 -14.3708,-20.79371 -2.92589,-7.32059 3.63864,-13.61241 3.92186,-13.87809 l 2.07738,2.205 c -0.0527,0.0491 -5.34034,5.15893 -3.18571,10.54842 3.46309,8.656 9.29848,18.58292 11.933,18.91412 1.40795,0.17322 2.23421,-0.10533 2.42966,-0.45644 0.23875,-0.426 -0.0445,-1.55072 -1.223,-3.02654 -3.1307,-3.91484 -6.8419,-12.64453 -6.50835,-15.31294 0.28556,-2.27751 2.8662,-6.54814 3.38,-7.3826 l 2.57829,1.59168 c -1.13759,1.84215 -2.80417,4.96934 -2.9528,6.16426 -0.17439,1.44072 2.85215,9.27858 5.86933,13.04479 2.6017,3.25477 2.05748,5.40822 1.5004,6.39951 -0.74669,1.333 -2.27752,2.05748 -4.28468,2.05748"
         id="path93" />
      <path
         class="cls-5"
         d="m 353.098,335.2795 a 3.89383,3.89383 0 0 1 -1.841,-0.426 c -1.09545,-0.5758 -2.31613,-1.96267 -1.91821,-5.28765 0.81925,-6.80563 9.60043,-17.57524 9.97378,-18.03168 l 2.34305,1.92289 c -2.3887,2.91067 -8.71564,11.54907 -9.30785,16.47041 -0.16151,1.3506 0.0433,2.09963 0.31951,2.24475 0.76893,0.40261 3.36478,-0.61091 5.55218,-2.5303 2.51509,-2.21315 7.89638,-10.14114 9.75842,-13.01085 l 2.54084,1.649 c -0.28322,0.43654 -6.95425,10.69471 -10.29912,13.63582 -1.61159,1.41613 -4.57493,3.36359 -7.12163,3.36359"
         id="path94" />
      <path
         class="cls-5"
         d="m 352.1471,324.36054 c -4.08922,0 -11.02008,-4.129 -12.47833,-5.02668 l 1.58816,-2.57828 c 4.912,3.02186 10.33425,5.16946 11.36065,4.50586 a 2.5638,2.5638 0 0 0 0.261,-2.14993 c -0.55123,-1.77193 -2.858,-3.67843 -6.32928,-5.235 -2.71172,-1.21248 -4.37713,-2.79949 -4.95412,-4.70834 -0.81457,-2.70821 0.76541,-5.20224 1.61158,-6.54 l 2.5584,1.61861 c -0.8134,1.2909 -1.65371,2.7714 -1.26749,4.04593 0.31014,1.03341 1.41846,1.98024 3.2922,2.81938 4.39,1.96737 7.14971,4.42278 7.98066,7.09937 a 5.55047,5.55047 0 0 1 -0.60156,4.665 3.037,3.037 0 0 1 -1.95683,1.37165 4.6186,4.6186 0 0 1 -1.065,0.11235"
         id="path95" />
      <rect
         class="cls-5"
         x="347.04248"
         y="238.32263"
         width="12.17521"
         height="3.0288799"
         id="rect95" />
      <rect
         class="cls-5"
         x="343.43896"
         y="245.72865"
         width="18.758471"
         height="3.0300601"
         id="rect96" />
      <rect
         class="cls-5"
         x="339.83426"
         y="253.13817"
         width="25.9667"
         height="3.0288799"
         id="rect97" />
      <rect
         class="cls-5"
         x="336.23071"
         y="260.54535"
         width="33.17374"
         height="3.0288799"
         id="rect98" />
      <rect
         class="cls-5"
         x="333.24866"
         y="267.9549"
         width="19.657301"
         height="3.0288799"
         id="rect99" />
      <rect
         class="cls-5"
         x="329.02133"
         y="275.36209"
         width="12.34843"
         height="3.0288799"
         id="rect100" />
      <rect
         class="cls-5"
         x="326.08725"
         y="282.76926"
         width="10.48873"
         height="3.0288799"
         id="rect101" />
      <rect
         class="cls-5"
         x="318.20959"
         y="297.58597"
         width="9.8450403"
         height="3.0288799"
         id="rect102" />
      <rect
         class="cls-5"
         x="379.55966"
         y="297.58597"
         width="7.8683"
         height="3.0288799"
         id="rect103" />
      <rect
         class="cls-5"
         x="314.6037"
         y="304.99548"
         width="12.52164"
         height="3.0288799"
         id="rect104" />
      <rect
         class="cls-5"
         x="378.2196"
         y="304.99548"
         width="12.52047"
         height="3.0288799"
         id="rect105" />
      <rect
         class="cls-5"
         x="311.68835"
         y="312.40503"
         width="18.165091"
         height="3.0288799"
         id="rect106" />
      <rect
         class="cls-5"
         x="376.60333"
         y="312.40503"
         width="18.034019"
         height="3.0288799"
         id="rect107" />
      <rect
         class="cls-5"
         x="307.33698"
         y="319.81104"
         width="26.613899"
         height="3.0288799"
         id="rect108" />
      <rect
         class="cls-5"
         x="366.65063"
         y="319.81104"
         width="9.5267"
         height="3.0288799"
         id="rect109" />
      <rect
         class="cls-6"
         x="389.68909"
         y="319.81104"
         width="8.0976896"
         height="3.0288799"
         id="rect110" />
      <rect
         class="cls-5"
         x="303.7908"
         y="327.22171"
         width="46.985119"
         height="3.0288799"
         id="rect111" />
      <rect
         class="cls-5"
         x="361.14291"
         y="327.22171"
         width="28.567221"
         height="3.0288799"
         id="rect112" />
      <rect
         class="cls-5"
         x="301.34006"
         y="334.62891"
         width="100.55348"
         height="3.0288799"
         id="rect113" />
      <rect
         class="cls-5"
         x="296.57907"
         y="342.03491"
         width="112.4759"
         height="3.0288799"
         id="rect114" />
      <rect
         class="cls-5"
         x="292.64316"
         y="349.44443"
         width="119.88894"
         height="3.0288799"
         id="rect115" />
      <path
         class="cls-5"
         d="m 509.34316,297.564 c 0.74469,7.73991 1.50225,15.57362 2.2481,23.44135 l -14.60026,14.48535 2.10853,2.45331 12.89633,-12.79312 c 0.0903,0.98273 0.18059,1.95842 0.28028,2.94937 a 13.53084,13.53084 0 0 0 -8.82468,12.53161 c 0,7.47252 6.34438,13.53076 14.1699,13.53076 A 14.164,14.164 0 0 0 530.8777,345.406 h 28.52623 v 9.69013 h 8.34737 V 345.406 a 2.00042,2.00042 0 0 0 2.03231,-1.76846 c 0.71067,-7.54171 1.43071,-15.101 2.14959,-22.624 l 15.1831,15.06585 2.07337,-2.4803 -16.8601,-16.74281 q 0.9288,-9.71711 1.85171,-19.2923 c 1.22783,-12.68055 2.47677,-25.4338 3.73393,-38.1296 l 10.07594,-9.95984 -2.20471,-2.35364 -7.367,7.2509 c 0.33189,-3.33168 0.65908,-6.64577 0.98978,-9.961 h 5.98317 v -5.99609 h -5.37922 c 0.0469,-0.45735 0.0903,-0.90063 0.13369,-1.358 a 1.87394,1.87394 0 0 0 -0.57346,-1.54565 30.30446,30.30446 0 0 0 -8.81646,-5.40855 v -4.35075 h -9.52711 v 1.76375 A 90.366,90.366 0 0 0 549.5801,226.03438 V 223.506 h -21.86756 v 3.13349 a 72.33271,72.33271 0 0 0 -14.43728,3.27422 31.66276,31.66276 0 0 0 -6.91781,3.67176 5.86926,5.86926 0 0 0 -4.66741,-2.24926 5.68811,5.68811 0 0 0 -5.8108,5.55632 5.56189,5.56189 0 0 0 3.78553,5.20683 v 2.31142 h 4.454 c 0.15012,1.57143 0.3143,3.13349 0.46558,4.71666 a 1.1995,1.1995 0 0 1 0.0211,0.2146 l -0.2111,-0.2146 -4.72954,-4.71666 -4.48446,-4.41175 -2.28562,2.28444 6.93426,6.844 h -4.17016 v 14.49824 h 10.36794 c 1.11056,11.30963 2.227,22.66032 3.31643,33.93831 M 501.69,234.42045 a 2.63158,2.63158 0 0 1 2.2047,1.168 1.84761,1.84761 0 0 0 -0.51716,1.46826 c 0.0469,0.45735 0.0903,0.90063 0.1372,1.358 h -3.85 a 2.34124,2.34124 0 0 1 -0.55939,-1.52216 2.53433,2.53433 0 0 1 2.58466,-2.47208 m 3.41494,19.97246 c 0.20288,1.96548 0.40106,3.93915 0.59457,5.9093 h -6.31389 v -7.8513 h 3.76792 l 1.9514,1.942 m 40.753,-27.56461 v 2.84147 h -14.41149 v -2.84149 z m 15.37192,11.58639 h -53.61294 c -0.027,-0.25565 -0.0528,-0.51481 -0.0833,-0.774 a 27.71073,27.71073 0 0 1 7.14533,-4.07171 68.04169,68.04169 0 0 1 13.03353,-2.98924 v 2.42166 h 21.86758 v -3.0467 a 85.38228,85.38228 0 0 1 11.64973,1.55384 z m 5.79319,-9.336 v 6.0125 h -2.06279 v -6.0125 z m 8.96657,8.562 c -0.0246,0.25918 -0.0516,0.51834 -0.0762,0.774 h -5.1564 v -4.03531 a 28.57839,28.57839 0 0 1 5.23265,3.2613 m -0.6708,6.77008 q -0.73,7.2245 -1.43892,14.48886 l -29.83967,29.75525 -13.89781,-13.85561 h 20.41927 v -9.50014 h -28.966 v 0.97922 L 510.36812,255.079 v -5.95151 h -1.67933 c -0.16418,-1.575 -0.31546,-3.14523 -0.47847,-4.71666 h 67.10849 m -28.491,24.22355 v 2.84149 h -20.01474 l -1.4823,-1.47527 v -1.36622 z m 23.29595,28.56728 q -0.767,7.91407 -1.53275,15.936 L 546.32237,290.93353 573.385,263.954 c -1.09883,11.07979 -2.18828,22.19243 -3.2613,33.24758 m -7.44556,55.28286 v -4.726 h 1.80363 v 4.726 z m -30.89043,-11.8526 c 0,-7.47254 -6.33969,-13.52724 -14.16637,-13.52724 a 13.28964,13.28964 0 0 0 -1.33573,0.0575 q -0.27792,-2.87431 -0.54647,-5.74512 l 28.30107,-28.20843 24.15437,24.08284 c -0.77516,8.0495 -1.54212,16.14239 -2.30438,24.21651 h -34.13766 c 0.0258,-0.292 0.0352,-0.584 0.0352,-0.876 m -21.55328,0 a 6.90139,6.90139 0 0 1 2.71012,-5.45429 7.47388,7.47388 0 0 1 3.94853,-1.562 6.01976,6.01976 0 0 1 0.72826,-0.0375 7.22341,7.22341 0 0 1 7.38222,7.05387 7.35693,7.35693 0 0 1 -0.0516,0.876 6.9417,6.9417 0 0 1 -1.89861,3.8981 7.51,7.51 0 0 1 -5.432,2.27505 7.22818,7.22818 0 0 1 -7.38691,-7.04916 m 3.17453,-43.43026 c -1.07657,-11.15836 -2.17421,-22.38121 -3.28244,-33.57593 h 0.24159 v -3.98606 l 11.22754,11.1912 v 3.96846 h 3.97668 l 16.1811,16.1342 -26.41068,26.33325 q -0.96924,-10.097 -1.93379,-20.06512"
         id="path115" />
      <path
         class="cls-5"
         d="m 517.124,336.04457 a 4.802,4.802 0 0 0 -3.8594,2.59169 4.41073,4.41073 0 0 0 0.45267,4.70844 4.85407,4.85407 0 0 0 3.90163,1.90918 4.78823,4.78823 0 0 0 4.75065,-3.74682 3.93887,3.93887 0 0 0 0.0903,-0.876 4.72753,4.72753 0 0 0 -4.84094,-4.61112 c -0.17123,0 -0.33072,0.009 -0.4949,0.0246 m 0.4949,5.6595 a 1.10017,1.10017 0 0 1 -1.12347,-1.073 1.07539,1.07539 0 0 1 0.95927,-1.05662 0.53775,0.53775 0 0 1 0.1642,-0.0176 1.10145,1.10145 0 0 1 1.12463,1.07421 1.0613,1.0613 0 0 1 -0.47847,0.876 1.10178,1.10178 0 0 1 -0.64616,0.197"
         id="path116" />
      <path
         class="cls-5"
         d="M 230.48023,370.53227 V 359.1182 a 5.81615,5.81615 0 0 1 5.84082,-6.19629 c 2.49023,0 4.3584,0.97852 5.30762,3.34961 h 0.0586 c 0.623,-2.28222 2.78711,-2.93457 4.95117,-3.083 1.334,-0.0889 3.8545,-0.0293 5.01075,-0.88965 v 4.65527 c -1.334,0.5332 -3.37989,0.50391 -5.06934,0.74121 -2.22363,0.32617 -3.20215,1.18555 -3.20215,3.52735 v 4.6553 h 8.27149 v 4.6543 z m 9.57617,-4.6543 v -5.09961 c 0,-2.10547 -0.88867,-3.20215 -3.02344,-3.20215 -2.04589,0 -2.93554,1.09668 -2.93554,3.20215 v 5.09964 z"
         id="path117" />
      <path
         class="cls-5"
         d="m 230.48023,343.35063 v -4.77344 l 21.16895,-7.916 v 4.833 l -4.71387,1.60059 v 7.916 l 4.71387,1.66016 v 4.71484 z m 12.98633,0.44531 v -5.48535 l -7.76758,2.668 v 0.0596 z"
         id="path118" />
      <path
         class="cls-5"
         d="m 230.48023,328.82816 v -4.65429 h 8.77637 l -8.77637,-8.27149 v -5.81152 l 8.36133,8.27148 12.80762,-9.07226 v 5.84082 l -9.51661,6.374 2.69727,2.66895 h 6.81934 v 4.65429 z"
         id="path119" />
      <path
         class="cls-5"
         d="m 251.64918,297.8516 v 4.21 h -13.46 v 5.21778 h -3.17285 c 0.0889,-2.93457 -0.94824,-5.60352 -4.12109,-6.07715 v -3.35063 z"
         id="path120" />
      <path
         class="cls-5"
         d="m 246.31226,288.01273 a 2.97342,2.97342 0 0 0 2.58008,-2.7871 c 0,-3.084 -4.03223,-3.8252 -6.31543,-3.97266 l -0.0596,0.0586 a 5.21783,5.21783 0 0 1 2.3125,4.68457 6.62724,6.62724 0 0 1 -2.13477,4.77344 7.08406,7.08406 0 0 1 -4.625,1.60059 c -4.23925,0 -7.58984,-2.90528 -7.58984,-7.26368 0,-6.28515 5.48535,-7.9746 10.73242,-7.9746 5.09961,0 10.85156,2.25292 10.85156,8.15332 0,3.58691 -2.07519,6.25488 -5.75195,6.72949 z m -8.50879,-6.375 c -1.92676,0 -3.85449,1.21582 -3.85449,3.35059 0,2.01563 1.89746,3.17188 3.79492,3.17188 1.957,0 3.91406,-1.00782 3.91406,-3.17188 4e-5,-2.25293 -1.80859,-3.35059 -3.85449,-3.35059 z"
         id="path121" />
      <path
         class="cls-5"
         d="m 230.48023,268.29984 c 0,-4.15039 2.60937,-7.64843 10.70312,-7.64843 8.27149,0 10.88086,3.498 10.88086,7.64843 0,4.1211 -2.60937,7.58985 -10.88086,7.58985 -8.09375,0 -10.70312,-3.46875 -10.70312,-7.58985 z m 18.11523,0 c 0,-3.43847 -5.06933,-3.43847 -7.41211,-3.43847 -2.16406,0 -7.23437,0 -7.23437,3.43847 0,3.41016 5.07031,3.37989 7.23437,3.37989 2.34278,0 7.41211,0 7.41211,-3.37989 z"
         id="path122" />
      <path
         class="cls-5"
         d="m 230.48023,251.81938 c 0,-4.1504 2.60937,-7.64844 10.70312,-7.64844 8.27149,0 10.88086,3.498 10.88086,7.64844 0,4.12109 -2.60937,7.58984 -10.88086,7.58984 -8.09375,0 -10.70312,-3.46875 -10.70312,-7.58984 z m 18.11523,0 c 0,-3.43848 -5.06933,-3.43848 -7.41211,-3.43848 -2.16406,0 -7.23437,0 -7.23437,3.43848 0,3.41015 5.07031,3.37988 7.23437,3.37988 2.34278,0 7.41211,0 7.41211,-3.37988 z"
         id="path123" />
      <path
         class="cls-5"
         d="m 239.28589,236.792 c 0.14844,-1.80859 -0.207,-4.417 -2.5791,-4.417 a 2.73842,2.73842 0 0 0 -2.75781,2.93457 c 0,2.13477 1.57227,3.23144 3.70605,3.20215 v 4.00195 c -4.26855,-0.14746 -7.1748,-2.875 -7.1748,-7.1748 0,-3.32032 2.0459,-6.9668 5.75195,-6.9668 a 4.12754,4.12754 0 0 1 4.24024,2.90527 h 0.0586 a 4.61447,4.61447 0 0 1 4.71387,-3.67578 c 4.3584,0 6.81933,3.67578 6.81933,7.708 0,4.65527 -2.78711,7.79785 -7.56054,7.709 v -4.00293 c 2.2539,-0.0889 4.09179,-1.21582 4.09179,-3.64648 a 3.1917,3.1917 0 0 0 -3.26171,-3.37988 c -3.14258,0 -3.083,2.75683 -3.083,4.80273 z"
         id="path124" />
      <path
         class="cls-5"
         d="m 251.64918,206.94242 v 5.24707 l -21.16895,6.87891 v -4.80274 L 245.364,209.5518 v -0.0596 l -14.88379,-4.77344 v -4.80274 z"
         id="path125" />
      <path
         class="cls-5"
         d="m 245.00757,195.08793 c 2.69825,-0.11914 3.88477,-1.39355 3.88477,-3.76563 A 3.46541,3.46541 0 0 0 246.906,188.002 v -3.70605 c 3.64649,1.18554 5.1582,3.70605 5.1582,7.1748 0,4.832 -3.32031,7.82715 -8.06445,7.82715 -4.59473,0 -8.09375,-3.17285 -8.09375,-7.82715 0,-5.21875 4.3877,-7.76758 9.10156,-7.4414 z m -2.668,-6.84863 c -2.13476,0.38476 -3.26074,1.30371 -3.26074,3.34961 a 3.29885,3.29885 0 0 0 3.26074,3.499 z"
         id="path126" />
      <path
         class="cls-5"
         d="m 236.32105,181.543 v -4.00293 h 2.84668 v -0.0596 a 5.38545,5.38545 0 0 1 -3.26172,-4.8916 3.14263,3.14263 0 0 1 0.14844,-0.91895 h 3.91308 a 7.69342,7.69342 0 0 0 -0.14746,1.51172 c 0,3.11328 2.19336,4.15137 4.9209,4.15137 h 6.90821 v 4.21 z"
         id="path127" />
      <path
         class="cls-5"
         d="m 247.08375,169.834 v -4.65429 h 4.56543 v 4.65429 z"
         id="path128" />
      <path
         class="cls-5"
         d="m 230.48023,161.32719 v -9.96192 c 0,-4.03125 1.30469,-6.75879 5.24805,-6.75879 a 4.60223,4.60223 0 0 1 4.418,2.875 5.13944,5.13944 0 0 1 5.36621,-3.88378 c 4.29882,0 6.13672,3.64648 6.13672,7.47168 v 10.25781 z m 8.56836,-4.6543 V 151.959 c 0,-1.66015 -0.74121,-2.84668 -2.51953,-2.84668 -1.98633,0 -2.43164,1.542 -2.43164,3.20215 v 4.3584 z m 8.9834,0 v -4.98144 c 0,-1.8086 -0.59278,-3.43848 -2.78711,-3.43848 -2.16406,0 -3.02344,1.334 -3.02344,3.34961 v 5.07031 z"
         id="path129" />
    </g>
    <circle
       class="cls-7"
       cx="106"
       cy="556.00598"
       r="30"
       id="circle129" />
    <circle
       class="cls-7"
       cx="721"
       cy="46.506001"
       r="11.5"
       id="circle130" />
    <circle
       class="cls-7"
       cx="721"
       cy="576.50598"
       r="11.5"
       id="circle131" />
    <path
       class="cls-8"
       d="m 703.5,560.006 v 34 h 34 v -34 z m 6,16.5 a 11.5,11.5 0 1 1 11.5,11.5 11.5,11.5 0 0 1 -11.5,-11.5 z"
       id="path131" />
    <path
       class="cls-8"
       d="m 703.5,523.506 a 17.5,17.5 0 1 0 17.5,-17.5 17.5,17.5 0 0 0 -17.5,17.5 z m 6,0 a 11.5,11.5 0 1 1 11.5,11.5 11.5,11.5 0 0 1 -11.5,-11.5 z"
       id="path132" />
    <path
       class="cls-8"
       d="m 703.5,467.506 a 17.5,17.5 0 1 0 17.5,-17.5 17.5,17.5 0 0 0 -17.5,17.5 z m 6,0 a 11.5,11.5 0 1 1 11.5,11.5 11.5,11.5 0 0 1 -11.5,-11.5 z"
       id="path133" />
    <path
       class="cls-8"
       d="m 703.5,414.506 a 17.5,17.5 0 1 0 17.5,-17.5 17.5,17.5 0 0 0 -17.5,17.5 z m 6,0 a 11.5,11.5 0 1 1 11.5,11.5 11.5,11.5 0 0 1 -11.5,-11.5 z"
       id="path134" />
    <path
       class="cls-8"
       d="m 703.5,211.506 a 17.5,17.5 0 1 0 17.5,-17.5 17.5,17.5 0 0 0 -17.5,17.5 z m 6,0 a 11.5,11.5 0 1 1 11.5,11.5 11.5,11.5 0 0 1 -11.5,-11.5 z"
       id="path135" />
    <path
       class="cls-8"
       d="m 703.5,155.506 a 17.5,17.5 0 1 0 17.5,-17.5 17.5,17.5 0 0 0 -17.5,17.5 z m 6,0 a 11.5,11.5 0 1 1 11.5,11.5 11.5,11.5 0 0 1 -11.5,-11.5 z"
       id="path136" />
    <path
       class="cls-8"
       d="m 703.5,102.506 a 17.5,17.5 0 1 0 17.5,-17.5 17.5,17.5 0 0 0 -17.5,17.5 z m 6,0 a 11.5,11.5 0 1 1 11.5,11.5 11.5,11.5 0 0 1 -11.5,-11.5 z"
       id="path137" />
    <path
       class="cls-8"
       d="m 703.5,30.006 v 34 h 34 v -34 z m 6,16.5 a 11.5,11.5 0 1 1 11.5,11.5 11.5,11.5 0 0 1 -11.5,-11.5 z"
       id="path138" />
    <path
       class="cls-8"
       d="m 50.5,83.006 a 56,56 0 1 0 56,-56 56,56 0 0 0 -56,56 z m 26,0 a 30,30 0 1 1 30,30 30,30 0 0 1 -30,-30 z"
       id="path139" />
    <path
       class="cls-8"
       d="m 50.5,556.006 a 56,56 0 1 0 56,-56 56,56 0 0 0 -56,56 z m 25.5,0 a 30,30 0 1 1 30,30 30,30 0 0 1 -30,-30 z"
       id="path140" />
    <path
       class="cls-8"
       d="m 310,566.506 a 36.00754,36.00754 0 0 1 34,24.167 v 23.666 a 36.00012,36.00012 0 1 1 -34,-47.833 z"
       id="path141" />
    <path
       class="cls-8"
       d="m 742,267.506 v 25.73633 a 31.06008,31.06008 0 0 0 0,59.05664 v 26.98877 A 57.76675,57.76675 0 0 1 698.25,323.256 c 0,-27.32666 18.25348,-49.753 43.75,-55.75 z"
       id="path142" />
    <circle
       class="cls-9"
       cx="310"
       cy="602.50598"
       r="25"
       id="circle142" />
    <circle
       class="cls-10"
       cx="310.5"
       cy="603.00598"
       r="9"
       id="circle143" />
    <circle
       class="cls-9"
       cx="227"
       cy="413.50601"
       r="36"
       id="circle144" />
    <circle
       class="cls-8"
       cx="227"
       cy="413.50601"
       r="25"
       id="circle145" />
    <circle
       class="cls-10"
       cx="227.5"
       cy="414.00601"
       r="9"
       id="circle146" />
    <circle
       class="cls-9"
       cx="497"
       cy="413.50601"
       r="36"
       id="circle147" />
    <circle
       class="cls-8"
       cx="497"
       cy="413.50601"
       r="25"
       id="circle148" />
    <circle
       class="cls-10"
       cx="497.5"
       cy="414.00601"
       r="9"
       id="circle149" />
    <path
       class="cls-8"
       d="m 616,588.11489 a 36,36 0 1 1 0,28.78222 z"
       id="path149" />
    <circle
       class="cls-9"
       cx="649"
       cy="602.50598"
       r="25"
       id="circle150" />
    <circle
       class="cls-10"
       cx="649.5"
       cy="603.00598"
       r="9"
       id="circle151" />
    <circle
       class="cls-9"
       cx="497"
       cy="174.506"
       r="36"
       id="circle152" />
    <circle
       class="cls-8"
       cx="497"
       cy="174.506"
       r="25"
       id="circle153" />
    <circle
       class="cls-10"
       cx="497.5"
       cy="175.006"
       r="9"
       id="circle154" />
    <circle
       class="cls-8"
       cx="310"
       cy="42.506001"
       r="36"
       id="circle155" />
    <circle
       class="cls-9"
       cx="310"
       cy="42.506001"
       r="25"
       id="circle156" />
    <circle
       class="cls-10"
       cx="310.5"
       cy="43.006001"
       r="9"
       id="circle157" />
    <circle
       class="cls-8"
       cx="654"
       cy="42.506001"
       r="36"
       id="circle158" />
    <circle
       class="cls-9"
       cx="654"
       cy="42.506001"
       r="25"
       id="circle159" />
    <circle
       class="cls-10"
       cx="654.5"
       cy="43.006001"
       r="9"
       id="circle160" />
    <path
       class="cls-11"
       d="m 171.4756,548.506 h 63.0488 A 5.3704,5.3704 0 0 1 240,553.732 v 80.83411 a 5.3701,5.3701 0 0 1 -5.4756,5.22421 H 171.4756 A 5.3701,5.3701 0 0 1 166,634.56609 V 553.732 a 5.3704,5.3704 0 0 1 5.4756,-5.226"
       id="path160" />
    <path
       class="cls-12"
       d="m 177.15172,556.03805 h 50.83233 a 4.04377,4.04377 0 0 1 4.12333,3.934 v 68.90314 a 4.04232,4.04232 0 0 1 -4.12333,3.93228 h -50.83233 a 4.04114,4.04114 0 0 1 -4.12334,-3.93228 v -68.9031 a 4.04259,4.04259 0 0 1 4.12334,-3.934"
       id="path161" />
    <rect
       class="cls-13"
       x="201.25281"
       y="556.03772"
       width="5.5014801"
       height="76.799461"
       id="rect161" />
    <path
       class="cls-5"
       d="m 188.34023,609.09823 a 4.66767,4.66767 0 1 1 4.66349,4.4494 4.5598,4.5598 0 0 1 -4.66349,-4.4494"
       id="path162" />
    <path
       class="cls-5"
       d="m 188.34023,578.59959 a 4.66776,4.66776 0 1 1 4.66349,4.44764 4.5598,4.5598 0 0 1 -4.66349,-4.44764"
       id="path163" />
    <rect
       class="cls-12"
       x="184.50787"
       y="628.65247"
       width="14.35123"
       height="11.13852"
       id="rect163" />
    <rect
       class="cls-12"
       x="184.50787"
       y="548.50671"
       width="14.35123"
       height="11.13852"
       id="rect164" />
    <path
       class="cls-11"
       d="m 162.43441,6.506 h 86.13118 a 7.33652,7.33652 0 0 1 7.48024,7.13923 V 124.073 a 7.33611,7.33611 0 0 1 -7.48024,7.13682 H 162.43441 A 7.33611,7.33611 0 0 1 154.95417,124.073 V 13.64523 A 7.33652,7.33652 0 0 1 162.43441,6.506"
       id="path164" />
    <path
       class="cls-12"
       d="m 170.18858,16.79556 h 69.44222 a 5.52422,5.52422 0 0 1 5.6329,5.37431 v 94.12882 a 5.52223,5.52223 0 0 1 -5.6329,5.3719 h -69.44222 a 5.52061,5.52061 0 0 1 -5.63292,-5.3719 V 22.16987 a 5.5226,5.5226 0 0 1 5.63292,-5.37431"
       id="path165" />
    <rect
       class="cls-13"
       x="203.11316"
       y="16.795071"
       width="7.5156002"
       height="104.91602"
       id="rect165" />
    <path
       class="cls-5"
       d="m 185.47323,89.28125 a 6.37653,6.37653 0 1 1 6.37082,6.07835 6.22915,6.22915 0 0 1 -6.37082,-6.07835"
       id="path166" />
    <path
       class="cls-5"
       d="m 185.47323,47.617 a 6.37664,6.37664 0 1 1 6.37082,6.07593 6.22916,6.22916 0 0 1 -6.37082,-6.07593"
       id="path167" />
    <rect
       class="cls-12"
       x="180.23785"
       y="115.99441"
       width="19.605261"
       height="15.21637"
       id="rect167" />
    <rect
       class="cls-12"
       x="180.23785"
       y="6.5069699"
       width="19.605261"
       height="15.21637"
       id="rect168" />
    <rect
       class="cls-14"
       x="121"
       y="155.506"
       width="45"
       height="193"
       rx="14.62018"
       id="rect169" />
    <rect
       class="cls-8"
       x="148"
       y="188.506"
       width="31"
       height="9"
       rx="3.2621"
       id="rect170" />
    <rect
       class="cls-15"
       x="171"
       y="189.506"
       width="7"
       height="7"
       rx="1.4"
       id="rect171" />
    <rect
       class="cls-8"
       x="148"
       y="199.506"
       width="31"
       height="9"
       rx="3.2621"
       id="rect172" />
    <rect
       class="cls-15"
       x="171"
       y="200.506"
       width="7"
       height="7"
       rx="1.4"
       id="rect173" />
    <rect
       class="cls-8"
       x="148"
       y="210.506"
       width="31"
       height="9"
       rx="3.2621"
       id="rect174" />
    <rect
       class="cls-15"
       x="171"
       y="211.506"
       width="7"
       height="7"
       rx="1.4"
       id="rect175" />
    <rect
       class="cls-8"
       x="148"
       y="221.506"
       width="31"
       height="9"
       rx="3.2621"
       id="rect176" />
    <rect
       class="cls-15"
       x="171"
       y="222.506"
       width="7"
       height="7"
       rx="1.4"
       id="rect177" />
    <rect
       class="cls-8"
       x="148"
       y="243.506"
       width="31"
       height="9"
       rx="3.2621"
       id="rect178" />
    <rect
       class="cls-15"
       x="171"
       y="244.506"
       width="7"
       height="7"
       rx="1.4"
       id="rect179" />
    <rect
       class="cls-8"
       x="148"
       y="232.506"
       width="31"
       height="9"
       rx="3.2621"
       id="rect180" />
    <rect
       class="cls-15"
       x="171"
       y="233.506"
       width="7"
       height="7"
       rx="1.4"
       id="rect181" />
    <path
       class="cls-16"
       d="m 47.60922,395.2499 a 5.65463,5.65463 0 1 1 5.65464,-5.65462 5.65475,5.65475 0 0 1 -5.65464,5.65462"
       id="path181" />
    <path
       class="cls-16"
       d="m 47.60922,466.81476 a 5.65463,5.65463 0 1 1 5.65464,-5.65463 5.65476,5.65476 0 0 1 -5.65464,5.65463"
       id="path182" />
    <rect
       class="cls-17"
       x="40.096989"
       y="372.47681"
       width="27.57226"
       height="22.770981"
       id="rect182" />
    <rect
       class="cls-17"
       x="40.096989"
       y="458.06207"
       width="27.57226"
       height="22.77099"
       id="rect183" />
    <rect
       class="cls-17"
       x="79.441116"
       y="384.86899"
       width="25.55888"
       height="13.47684"
       id="rect184" />
    <rect
       class="cls-17"
       x="79.441116"
       y="453.33789"
       width="25.55888"
       height="13.47685"
       id="rect185" />
    <path
       class="cls-18"
       d="M 26,444.04342 V 409.0362 q 15.41313,-1.08552 30.82626,-2.16931 v 38.88152 Q 41.41313,444.89415 26,444.04342"
       id="path185" />
    <rect
       class="cls-19"
       x="56.671879"
       y="385.95541"
       width="32.683681"
       height="80.85936"
       id="rect186" />
    <rect
       class="cls-19"
       x="48.306461"
       y="381.92865"
       width="32.20356"
       height="87.519798"
       id="rect187" />
    <path
       class="cls-20"
       d="m 77.53077,454.87887 v -56.36936 a 1.76939,1.76939 0 0 1 1.76456,-1.76454 h 13.58374 a 1.76938,1.76938 0 0 1 1.76455,1.76454 v 56.36936 a 1.7679,1.7679 0 0 1 -1.76455,1.76281 H 79.29533 a 1.76791,1.76791 0 0 1 -1.76456,-1.76281"
       id="path187" />
    <rect
       class="cls-20"
       x="52.024811"
       y="380.53381"
       width="31.290621"
       height="90.915741"
       id="rect188" />
    <rect
       class="cls-8"
       x="148"
       y="254.506"
       width="31"
       height="9"
       rx="3.2621"
       id="rect189" />
    <rect
       class="cls-15"
       x="171"
       y="255.506"
       width="7"
       height="7"
       rx="1.4"
       id="rect190" />
    <rect
       class="cls-8"
       x="148"
       y="265.50601"
       width="31"
       height="9"
       rx="3.2621"
       id="rect191" />
    <rect
       class="cls-15"
       x="171"
       y="266.50601"
       width="7"
       height="7"
       rx="1.4"
       id="rect192" />
    <rect
       class="cls-8"
       x="148"
       y="276.50601"
       width="31"
       height="9"
       rx="3.2621"
       id="rect193" />
    <rect
       class="cls-15"
       x="171"
       y="277.50601"
       width="7"
       height="7"
       rx="1.4"
       id="rect194" />
    <rect
       class="cls-8"
       x="148"
       y="287.50601"
       width="31"
       height="9"
       rx="3.2621"
       id="rect195" />
    <rect
       class="cls-15"
       x="171"
       y="288.50601"
       width="7"
       height="7"
       rx="1.4"
       id="rect196" />
    <rect
       class="cls-8"
       x="148"
       y="298.50601"
       width="31"
       height="9"
       rx="3.2621"
       id="rect197" />
    <rect
       class="cls-15"
       x="171"
       y="299.50601"
       width="7"
       height="7"
       rx="1.4"
       id="rect198" />
    <rect
       class="cls-8"
       x="148"
       y="309.50601"
       width="31"
       height="9"
       rx="3.2621"
       id="rect199" />
    <rect
       class="cls-15"
       x="171"
       y="310.50601"
       width="7"
       height="7"
       rx="1.4"
       id="rect200" />
    <path
       class="cls-21"
       d="M 166.25755,356.6133 H 146.744 c -6.48509,0 -11.744,-4.23752 -11.744,-9.46578 v -1.54484 c 0,-5.227 5.25895,-9.46578 11.744,-9.46578 h 19.51351 c 6.48659,0 11.74245,4.23876 11.74245,9.46578 v 1.54484 c 0,5.22826 -5.25586,9.46578 -11.74245,9.46578"
       id="path200" />
    <path
       class="cls-22"
       d="m 164.09967,354.34906 h -15.1984 c -5.05018,0 -9.14594,-3.3 -9.14594,-7.37174 v -1.20348 c 0,-4.07177 4.09576,-7.373 9.14594,-7.373 h 15.1984 c 5.05177,0 9.14594,3.30122 9.14594,7.373 v 1.20348 c 0,4.07177 -4.09417,7.37174 -9.14594,7.37174"
       id="path201" />
    <path
       class="cls-21"
       d="m 163.79836,352.3754 h -14.59531 c -4.111,0 -7.44419,-2.68648 -7.44419,-6.00006 0,-3.31358 3.33316,-6.00006 7.44419,-6.00006 h 14.59531 c 4.111,0 7.44409,2.68648 7.44409,6.00006 0,3.31358 -3.33307,6.00006 -7.44409,6.00006"
       id="path202" />
    <path
       class="cls-21"
       d="M 72.07291,357.8751 H 48.929 C 41.23738,357.8751 35,353.11533 35,347.24272 v -1.73524 c 0,-5.87122 6.23736,-10.63238 13.929,-10.63238 H 72.07291 C 79.7663,334.8751 86,339.63626 86,345.50748 v 1.73524 c 0,5.87261 -6.2337,10.63238 -13.92709,10.63238"
       id="path203" />
    <path
       class="cls-22"
       d="m 69.51356,355.33181 h -18.026 c -5.98975,0 -10.84751,-3.70667 -10.84751,-8.28027 v -1.3518 c 0,-4.5736 4.85776,-8.28167 10.84751,-8.28167 h 18.026 c 5.99163,0 10.84751,3.70807 10.84751,8.28167 v 1.3518 c 0,4.5736 -4.85588,8.28027 -10.84751,8.28027"
       id="path204" />
    <path
       class="cls-21"
       d="M 69.15619,353.11491 H 51.84548 c -4.87587,0 -8.82916,-3.01758 -8.82916,-6.73954 0,-3.72196 3.95329,-6.73953 8.82916,-6.73953 h 17.31071 c 4.87587,0 8.829,3.01757 8.829,6.73953 0,3.72196 -3.95317,6.73954 -8.829,6.73954"
       id="path205" />
    <path
       class="cls-21"
       d="M 166.25755,165.6133 H 146.744 c -6.48509,0 -11.744,-4.23752 -11.744,-9.46578 v -1.54484 c 0,-5.227 5.25895,-9.46578 11.744,-9.46578 h 19.51351 c 6.48659,0 11.74245,4.23876 11.74245,9.46578 v 1.54484 c 0,5.22826 -5.25586,9.46578 -11.74245,9.46578"
       id="path206" />
    <path
       class="cls-22"
       d="m 164.09967,163.34906 h -15.1984 c -5.05018,0 -9.14594,-3.3 -9.14594,-7.37174 v -1.20348 c 0,-4.07177 4.09576,-7.373 9.14594,-7.373 h 15.1984 c 5.05177,0 9.14594,3.30122 9.14594,7.373 v 1.20348 c 0,4.07177 -4.09417,7.37174 -9.14594,7.37174"
       id="path207" />
    <path
       class="cls-21"
       d="m 163.79836,161.3754 h -14.59531 c -4.111,0 -7.44419,-2.68648 -7.44419,-6.00006 0,-3.31358 3.33316,-6.00006 7.44419,-6.00006 h 14.59531 c 4.111,0 7.44409,2.68648 7.44409,6.00006 0,3.31358 -3.33307,6.00006 -7.44409,6.00006"
       id="path208" />
    <path
       class="cls-21"
       d="M 72.07291,166.8751 H 48.929 C 41.23738,166.8751 35,162.11533 35,156.24272 v -1.73524 c 0,-5.87122 6.23736,-10.63238 13.929,-10.63238 H 72.07291 C 79.7663,143.8751 86,148.63626 86,154.50748 v 1.73524 c 0,5.87261 -6.2337,10.63238 -13.92709,10.63238"
       id="path209" />
    <path
       class="cls-22"
       d="m 69.51356,164.33181 h -18.026 c -5.98975,0 -10.84751,-3.70667 -10.84751,-8.28027 v -1.3518 c 0,-4.5736 4.85776,-8.28167 10.84751,-8.28167 h 18.026 c 5.99163,0 10.84751,3.70807 10.84751,8.28167 v 1.3518 c 0,4.5736 -4.85588,8.28027 -10.84751,8.28027"
       id="path210" />
    <path
       class="cls-21"
       d="M 69.15619,162.11491 H 51.84548 c -4.87587,0 -8.82916,-3.01758 -8.82916,-6.73954 0,-3.72196 3.95329,-6.73953 8.82916,-6.73953 h 17.31071 c 4.87587,0 8.829,3.01757 8.829,6.73953 0,3.72196 -3.95317,6.73954 -8.829,6.73954"
       id="path211" />
    <path
       class="cls-23"
       d="m 0,162.506 v 176 c 0,0 0,10 3,10 h 139.80851 c 0,0 4.59575,0.80851 4.59575,-4.59574 0,0 -0.59575,-4.5 4.5,-4.5 H 155 c 0,0 5.45213,1 5.45213,-5.45213 v -25.3883 c 0,0 -0.0638,-3.758 -3.758,-3.758 H 154.5 a 2.84309,2.84309 0 0 1 -2.90293,-2.90292 V 300.006 a 2.89063,2.89063 0 0 1 2.95147,-2.95146 H 158.5 c 0,0 5.52427,0 5.52427,-5.52427 V 287.006 c 0,0 0,-5.76213 -5.76214,-5.76213 H 154.5 a 3.05465,3.05465 0 0 1 -3.11893,-3.11894 V 276.006 a 2.99641,2.99641 0 0 1 3.05946,-3.05947 H 157.5 a 2.909,2.909 0 0 0 2.97027,-2.97026 V 235.006 a 3.4133,3.4133 0 0 0 -3.48514,-3.48513 H 154.5 a 3.19029,3.19029 0 0 1 -3.25743,-3.25744 V 226.006 a 2.57453,2.57453 0 0 1 2.62871,-2.62872 H 159.5 c 0,0 5.32544,0.72042 5.32544,-5.32543 V 211.506 c 0,0 0.5,-4.41272 -4.41272,-4.41272 H 153.5 a 2.49121,2.49121 0 0 1 -2.54364,-2.54364 V 202.006 a 2.71469,2.71469 0 0 1 2.77182,-2.77182 H 156.5 c 0,0 4,-0.22818 4,-6.22818 v -21 c 0,0 0,-6.5 -6.5,-6.5 h -3.5 a 3.183,3.183 0 0 1 -3.25,-3.25 v -2.25 c 0,0 0,-4.375 -4.375,-4.375 H 6.5 c 0,0 -6.5,-0.625 -6.5,6.875 z"
       id="path212" />
    <rect
       class="cls-14"
       x="131.5"
       y="188.006"
       width="8"
       height="14"
       rx="3.92553"
       id="rect212" />
    <rect
       class="cls-14"
       x="132"
       y="209.70599"
       width="8"
       height="14"
       rx="3.92553"
       id="rect213" />
    <rect
       class="cls-14"
       x="131.5"
       y="231.40601"
       width="8"
       height="14"
       rx="3.92553"
       id="rect214" />
    <rect
       class="cls-14"
       x="132"
       y="253.106"
       width="8"
       height="14"
       rx="3.92553"
       id="rect215" />
    <rect
       class="cls-14"
       x="131.5"
       y="274.806"
       width="8"
       height="14"
       rx="3.92553"
       id="rect216" />
    <rect
       class="cls-14"
       x="132"
       y="296.50601"
       width="8"
       height="14"
       rx="3.92553"
       id="rect217" />
    <rect
       class="cls-5"
       x="94"
       y="279.25601"
       width="14"
       height="24.5"
       rx="6.8696799"
       id="rect218" />
    <rect
       class="cls-5"
       x="94"
       y="202.256"
       width="14"
       height="24.5"
       rx="6.8696799"
       id="rect219" />
    <rect
       class="cls-24"
       x="0.5"
       y="161.006"
       width="147"
       height="3"
       rx="1.44191"
       id="rect220" />
    <rect
       class="cls-24"
       x="1"
       y="340.50601"
       width="147"
       height="3"
       rx="1.44191"
       id="rect221" />
    <path
       class="cls-24"
       d="m 1.136,158.08643 h 145.75879 c 0,0 -0.14479,-2.33043 -4.01979,-2.45543 H 6.5 c 0,0 -4.22792,0.0359 -5.364,2.45543 z"
       id="path221" />
    <path
       class="cls-24"
       d="m 1.136,346.631 h 145.75875 c 0,0 -0.14479,2.33043 -4.01979,2.45542 H 6.49996 c 0,0 -4.22788,-0.0359 -5.36396,-2.45542 z"
       id="path222" />
    <g
       id="r-01">
      <g
         class="cls-25"
         clip-path="url(#clip-path)"
         id="g224">
        <g
           class="cls-25"
           clip-path="url(#clip-path)"
           id="g223">
          <path
             class="cls-26"
             d="m 169.4353,521.517 h 24.093 a 3.43741,3.43741 0 0 1 3.434,3.435 v 7.929 a 3.43742,3.43742 0 0 1 -3.434,3.435 h -24.093 a 3.43891,3.43891 0 0 1 -3.435,-3.435 v -7.929 a 3.37725,3.37725 0 0 1 3.435,-3.435"
             id="path223" />
          <rect
             class="cls-27"
             x="174.36"
             y="521.50598"
             width="14.192"
             height="14.85"
             id="rect223" />
        </g>
      </g>
    </g>
    <g
       id="r-01-2"
       data-name="r-01">
      <g
         class="cls-28"
         clip-path="url(#clip-path-3)"
         id="g226">
        <g
           class="cls-28"
           clip-path="url(#clip-path-3)"
           id="g225">
          <path
             class="cls-26"
             d="m 131.8384,438.9413 v 24.093 a 3.43741,3.43741 0 0 1 -3.435,3.434 h -7.929 a 3.43742,3.43742 0 0 1 -3.435,-3.434 v -24.093 a 3.43891,3.43891 0 0 1 3.435,-3.435 h 7.929 a 3.37723,3.37723 0 0 1 3.435,3.435"
             id="path224" />
          <rect
             class="cls-27"
             x="116.9994"
             y="443.866"
             width="14.85"
             height="14.192"
             id="rect224" />
        </g>
      </g>
    </g>
    <g
       id="r-01-3"
       data-name="r-01">
      <g
         class="cls-29"
         clip-path="url(#clip-path-5)"
         id="g228">
        <g
           class="cls-29"
           clip-path="url(#clip-path-5)"
           id="g227">
          <path
             class="cls-26"
             d="m 212.4353,521.517 h 24.093 a 3.43741,3.43741 0 0 1 3.434,3.435 v 7.929 a 3.43742,3.43742 0 0 1 -3.434,3.435 h -24.093 a 3.43891,3.43891 0 0 1 -3.435,-3.435 v -7.929 a 3.37725,3.37725 0 0 1 3.435,-3.435"
             id="path226" />
          <rect
             class="cls-27"
             x="217.36"
             y="521.50598"
             width="14.192"
             height="14.85"
             id="rect226" />
        </g>
      </g>
    </g>
    <g
       id="r-01-4"
       data-name="r-01">
      <g
         class="cls-30"
         clip-path="url(#clip-path-7)"
         id="g230">
        <g
           class="cls-30"
           clip-path="url(#clip-path-7)"
           id="g229">
          <path
             class="cls-26"
             d="m 213.8384,198.9413 v 24.093 a 3.43741,3.43741 0 0 1 -3.435,3.434 h -7.929 a 3.43742,3.43742 0 0 1 -3.435,-3.434 v -24.093 a 3.43891,3.43891 0 0 1 3.435,-3.435 h 7.929 a 3.37723,3.37723 0 0 1 3.435,3.435"
             id="path228" />
          <rect
             class="cls-27"
             x="198.9994"
             y="203.866"
             width="14.85"
             height="14.192"
             id="rect228" />
        </g>
      </g>
    </g>
    <g
       id="Capacitor">
      <g
         class="cls-31"
         clip-path="url(#clip-path-9)"
         id="g233">
        <g
           class="cls-32"
           clip-path="url(#clip-path-10)"
           id="g232">
          <path
             class="cls-5"
             d="m 131.26447,392.418 h -13.57836 a 1.69048,1.69048 0 0 1 -1.68553,-1.68553 v -9.54011 a 1.69049,1.69049 0 0 1 1.68553,-1.68553 h 13.57836 a 1.69049,1.69049 0 0 1 1.68553,1.68553 v 9.54011 a 1.69049,1.69049 0 0 1 -1.68553,1.68553"
             id="path230" />
          <path
             class="cls-5"
             d="M 131.26446,412.50365 H 117.6861 a 1.69049,1.69049 0 0 1 -1.68553,-1.68553 V 401.278 a 1.69049,1.69049 0 0 1 1.68553,-1.68554 h 13.57836 A 1.69048,1.69048 0 0 1 132.95,401.278 v 9.54011 a 1.69049,1.69049 0 0 1 -1.68553,1.68553"
             id="path231" />
          <path
             class="cls-26"
             d="m 131.5291,384.17 v 22.92182 a 3.27147,3.27147 0 0 1 -3.26853,3.26853 h -7.54415 a 3.27117,3.27117 0 0 1 -3.26713,-3.26852 v -22.92182 a 3.27028,3.27028 0 0 1 3.26713,-3.26853 h 7.54415 a 3.2129,3.2129 0 0 1 3.26853,3.26852"
             id="path232" />
          <rect
             class="cls-33"
             x="117.41094"
             y="388.85507"
             width="14.12897"
             height="13.50251"
             id="rect232" />
        </g>
      </g>
    </g>
    <rect
       class="cls-34"
       x="583.10083"
       y="17.37286"
       width="7.2695599"
       height="12.88675"
       id="rect233" />
    <rect
       class="cls-34"
       x="583.10083"
       y="47.440868"
       width="7.2695599"
       height="12.88675"
       id="rect234" />
    <path
       class="cls-35"
       d="m 405.144,6.27688 h 1.318 a 2.09167,2.09167 0 0 1 1.84108,2.27337 v 63.44248 a 2.09167,2.09167 0 0 1 -1.84108,2.27336 h -1.318 a 2.09167,2.09167 0 0 1 -1.841,-2.27337 V 8.55024 a 2.09167,2.09167 0 0 1 1.841,-2.27336"
       id="path234" />
    <rect
       class="cls-35"
       x="565.00012"
       y="6.2776599"
       width="21.99995"
       height="67.989212"
       id="rect235" />
    <path
       class="cls-35"
       d="m 397.144,6.27688 h 1.318 a 2.09167,2.09167 0 0 1 1.84108,2.27337 v 63.44248 a 2.09167,2.09167 0 0 1 -1.84108,2.27336 h -1.318 a 2.09167,2.09167 0 0 1 -1.841,-2.27337 V 8.55024 a 2.09167,2.09167 0 0 1 1.841,-2.27336"
       id="path235" />
    <path
       class="cls-35"
       d="m 422.144,6.27688 h 1.318 a 2.09167,2.09167 0 0 1 1.84108,2.27337 v 63.44248 a 2.09167,2.09167 0 0 1 -1.84108,2.27336 h -1.318 a 2.09167,2.09167 0 0 1 -1.841,-2.27337 V 8.55024 a 2.09167,2.09167 0 0 1 1.841,-2.27336"
       id="path236" />
    <path
       class="cls-35"
       d="m 414.144,6.27688 h 1.318 a 2.09167,2.09167 0 0 1 1.84108,2.27337 v 63.44248 a 2.09167,2.09167 0 0 1 -1.84108,2.27336 h -1.318 a 2.09167,2.09167 0 0 1 -1.841,-2.27337 V 8.55024 a 2.09167,2.09167 0 0 1 1.841,-2.27336"
       id="path237" />
    <path
       class="cls-35"
       d="m 438.144,6.27688 h 1.318 a 2.09167,2.09167 0 0 1 1.84108,2.27337 v 63.44248 a 2.09167,2.09167 0 0 1 -1.84108,2.27336 h -1.318 a 2.09167,2.09167 0 0 1 -1.841,-2.27337 V 8.55024 a 2.09167,2.09167 0 0 1 1.841,-2.27336"
       id="path238" />
    <path
       class="cls-35"
       d="m 430.144,6.27688 h 1.318 a 2.09167,2.09167 0 0 1 1.84108,2.27337 v 63.44248 a 2.09167,2.09167 0 0 1 -1.84108,2.27336 h -1.318 a 2.09167,2.09167 0 0 1 -1.841,-2.27337 V 8.55024 a 2.09167,2.09167 0 0 1 1.841,-2.27336"
       id="path239" />
    <path
       class="cls-35"
       d="m 455.144,6.27688 h 1.318 a 2.09167,2.09167 0 0 1 1.84108,2.27337 v 63.44248 a 2.09167,2.09167 0 0 1 -1.84108,2.27336 h -1.318 a 2.09167,2.09167 0 0 1 -1.841,-2.27337 V 8.55024 a 2.09167,2.09167 0 0 1 1.841,-2.27336"
       id="path240" />
    <path
       class="cls-35"
       d="m 447.144,6.27688 h 1.318 a 2.09167,2.09167 0 0 1 1.84108,2.27337 v 63.44248 a 2.09167,2.09167 0 0 1 -1.84108,2.27336 h -1.318 a 2.09167,2.09167 0 0 1 -1.841,-2.27337 V 8.55024 a 2.09167,2.09167 0 0 1 1.841,-2.27336"
       id="path241" />
    <path
       class="cls-35"
       d="m 471.144,6.27688 h 1.318 a 2.09167,2.09167 0 0 1 1.84108,2.27337 v 63.44248 a 2.09167,2.09167 0 0 1 -1.84108,2.27336 h -1.318 a 2.09167,2.09167 0 0 1 -1.841,-2.27337 V 8.55024 a 2.09167,2.09167 0 0 1 1.841,-2.27336"
       id="path242" />
    <path
       class="cls-35"
       d="m 463.144,6.27688 h 1.318 a 2.09167,2.09167 0 0 1 1.84108,2.27337 v 63.44248 a 2.09167,2.09167 0 0 1 -1.84108,2.27336 h -1.318 a 2.09167,2.09167 0 0 1 -1.841,-2.27337 V 8.55024 a 2.09167,2.09167 0 0 1 1.841,-2.27336"
       id="path243" />
    <path
       class="cls-35"
       d="m 488.144,6.27688 h 1.318 a 2.09167,2.09167 0 0 1 1.84108,2.27337 v 63.44248 a 2.09167,2.09167 0 0 1 -1.84108,2.27336 h -1.318 a 2.09167,2.09167 0 0 1 -1.841,-2.27337 V 8.55024 a 2.09167,2.09167 0 0 1 1.841,-2.27336"
       id="path244" />
    <path
       class="cls-35"
       d="m 480.144,6.27688 h 1.318 a 2.09167,2.09167 0 0 1 1.84108,2.27337 v 63.44248 a 2.09167,2.09167 0 0 1 -1.84108,2.27336 h -1.318 a 2.09167,2.09167 0 0 1 -1.841,-2.27337 V 8.55024 a 2.09167,2.09167 0 0 1 1.841,-2.27336"
       id="path245" />
    <path
       class="cls-35"
       d="m 504.144,6.27688 h 1.318 a 2.09167,2.09167 0 0 1 1.84108,2.27337 v 63.44248 a 2.09167,2.09167 0 0 1 -1.84108,2.27336 h -1.318 a 2.09167,2.09167 0 0 1 -1.841,-2.27337 V 8.55024 a 2.09167,2.09167 0 0 1 1.841,-2.27336"
       id="path246" />
    <path
       class="cls-35"
       d="m 496.144,6.27688 h 1.318 a 2.09167,2.09167 0 0 1 1.84108,2.27337 v 63.44248 a 2.09167,2.09167 0 0 1 -1.84108,2.27336 h -1.318 a 2.09167,2.09167 0 0 1 -1.841,-2.27337 V 8.55024 a 2.09167,2.09167 0 0 1 1.841,-2.27336"
       id="path247" />
    <path
       class="cls-35"
       d="m 521.144,6.27688 h 1.318 a 2.09167,2.09167 0 0 1 1.84108,2.27337 v 63.44248 a 2.09167,2.09167 0 0 1 -1.84108,2.27336 h -1.318 a 2.09167,2.09167 0 0 1 -1.841,-2.27337 V 8.55024 a 2.09167,2.09167 0 0 1 1.841,-2.27336"
       id="path248" />
    <path
       class="cls-35"
       d="m 513.144,6.27688 h 1.318 a 2.09167,2.09167 0 0 1 1.84108,2.27337 v 63.44248 a 2.09167,2.09167 0 0 1 -1.84108,2.27336 h -1.318 a 2.09167,2.09167 0 0 1 -1.841,-2.27337 V 8.55024 a 2.09167,2.09167 0 0 1 1.841,-2.27336"
       id="path249" />
    <path
       class="cls-35"
       d="m 537.144,6.27688 h 1.318 a 2.09167,2.09167 0 0 1 1.84108,2.27337 v 63.44248 a 2.09167,2.09167 0 0 1 -1.84108,2.27336 h -1.318 a 2.09167,2.09167 0 0 1 -1.841,-2.27337 V 8.55024 a 2.09167,2.09167 0 0 1 1.841,-2.27336"
       id="path250" />
    <path
       class="cls-35"
       d="m 529.144,6.27688 h 1.318 a 2.09167,2.09167 0 0 1 1.84108,2.27337 v 63.44248 a 2.09167,2.09167 0 0 1 -1.84108,2.27336 h -1.318 a 2.09167,2.09167 0 0 1 -1.841,-2.27337 V 8.55024 a 2.09167,2.09167 0 0 1 1.841,-2.27336"
       id="path251" />
    <path
       class="cls-35"
       d="m 554.144,6.27688 h 1.318 a 2.09167,2.09167 0 0 1 1.84108,2.27337 v 63.44248 a 2.09167,2.09167 0 0 1 -1.84108,2.27336 h -1.318 a 2.09167,2.09167 0 0 1 -1.841,-2.27337 V 8.55024 a 2.09167,2.09167 0 0 1 1.841,-2.27336"
       id="path252" />
    <path
       class="cls-35"
       d="m 546.144,6.27688 h 1.318 a 2.09167,2.09167 0 0 1 1.84108,2.27337 v 63.44248 a 2.09167,2.09167 0 0 1 -1.84108,2.27336 h -1.318 a 2.09167,2.09167 0 0 1 -1.841,-2.27337 V 8.55024 a 2.09167,2.09167 0 0 1 1.841,-2.27336"
       id="path253" />
    <rect
       class="cls-35"
       x="364.13818"
       y="6.2775698"
       width="22.8619"
       height="67.989212"
       id="rect253" />
    <rect
       class="cls-36"
       x="365.48178"
       y="16.47793"
       width="224.8909"
       height="44.206329"
       id="rect254" />
    <rect
       class="cls-34"
       x="365.48175"
       y="53.883411"
       width="224.8909"
       height="6.8008499"
       id="rect255" />
    <rect
       class="cls-34"
       x="365.48178"
       y="16.47793"
       width="224.8909"
       height="7.3374701"
       id="rect256" />
    <rect
       class="cls-34"
       x="365.48178"
       y="17.37281"
       width="7.2695999"
       height="12.88675"
       id="rect257" />
    <rect
       class="cls-34"
       x="365.48175"
       y="47.440819"
       width="7.2695999"
       height="12.88675"
       id="rect258" />
    <rect
       class="cls-37"
       x="365.48178"
       y="31.51115"
       width="212.35481"
       height="15.0332"
       id="rect259" />
    <rect
       class="cls-38"
       x="395.29578"
       y="25.06855"
       width="5.01442"
       height="27.91997"
       id="rect260" />
    <rect
       class="cls-39"
       x="395.92261"
       y="52.98851"
       width="3.7607999"
       height="5.5476899"
       id="rect261" />
    <rect
       class="cls-39"
       x="395.92261"
       y="19.52088"
       width="3.7607999"
       height="5.5476899"
       id="rect262" />
    <rect
       class="cls-38"
       x="411.29578"
       y="25.06855"
       width="5.01442"
       height="27.91997"
       id="rect263" />
    <rect
       class="cls-39"
       x="411.92261"
       y="52.98851"
       width="3.7607999"
       height="5.5476899"
       id="rect264" />
    <rect
       class="cls-39"
       x="411.92261"
       y="19.52088"
       width="3.7607999"
       height="5.5476899"
       id="rect265" />
    <rect
       class="cls-38"
       x="403.29578"
       y="25.06855"
       width="5.01442"
       height="27.91997"
       id="rect266" />
    <rect
       class="cls-39"
       x="403.92261"
       y="52.98851"
       width="3.7607999"
       height="5.5476899"
       id="rect267" />
    <rect
       class="cls-39"
       x="403.92261"
       y="19.52088"
       width="3.7607999"
       height="5.5476899"
       id="rect268" />
    <rect
       class="cls-38"
       x="419.29578"
       y="25.06855"
       width="5.01442"
       height="27.91997"
       id="rect269" />
    <rect
       class="cls-39"
       x="419.92261"
       y="52.98851"
       width="3.7607999"
       height="5.5476899"
       id="rect270" />
    <rect
       class="cls-39"
       x="419.92261"
       y="19.52088"
       width="3.7607999"
       height="5.5476899"
       id="rect271" />
    <rect
       class="cls-38"
       x="436.29578"
       y="25.06855"
       width="5.01442"
       height="27.91997"
       id="rect272" />
    <rect
       class="cls-39"
       x="436.92261"
       y="52.98851"
       width="3.7607999"
       height="5.5476899"
       id="rect273" />
    <rect
       class="cls-39"
       x="436.92261"
       y="19.52088"
       width="3.7607999"
       height="5.5476899"
       id="rect274" />
    <rect
       class="cls-38"
       x="428.29578"
       y="25.06855"
       width="5.01442"
       height="27.91997"
       id="rect275" />
    <rect
       class="cls-39"
       x="428.92261"
       y="52.98851"
       width="3.7607999"
       height="5.5476899"
       id="rect276" />
    <rect
       class="cls-39"
       x="428.92261"
       y="19.52088"
       width="3.7607999"
       height="5.5476899"
       id="rect277" />
    <rect
       class="cls-38"
       x="444.29578"
       y="25.06855"
       width="5.01442"
       height="27.91997"
       id="rect278" />
    <rect
       class="cls-39"
       x="444.92261"
       y="52.98851"
       width="3.7607999"
       height="5.5476899"
       id="rect279" />
    <rect
       class="cls-39"
       x="444.92261"
       y="19.52088"
       width="3.7607999"
       height="5.5476899"
       id="rect280" />
    <rect
       class="cls-38"
       x="461.29578"
       y="25.06855"
       width="5.01442"
       height="27.91997"
       id="rect281" />
    <rect
       class="cls-39"
       x="461.92261"
       y="52.98851"
       width="3.7607999"
       height="5.5476899"
       id="rect282" />
    <rect
       class="cls-39"
       x="461.92261"
       y="19.52088"
       width="3.7607999"
       height="5.5476899"
       id="rect283" />
    <rect
       class="cls-38"
       x="453.29578"
       y="25.06855"
       width="5.01442"
       height="27.91997"
       id="rect284" />
    <rect
       class="cls-39"
       x="453.92261"
       y="52.98851"
       width="3.7607999"
       height="5.5476899"
       id="rect285" />
    <rect
       class="cls-39"
       x="453.92261"
       y="19.52088"
       width="3.7607999"
       height="5.5476899"
       id="rect286" />
    <rect
       class="cls-38"
       x="469.29578"
       y="25.06855"
       width="5.01442"
       height="27.91997"
       id="rect287" />
    <rect
       class="cls-39"
       x="469.92261"
       y="52.98851"
       width="3.7607999"
       height="5.5476899"
       id="rect288" />
    <rect
       class="cls-39"
       x="469.92261"
       y="19.52088"
       width="3.7607999"
       height="5.5476899"
       id="rect289" />
    <rect
       class="cls-38"
       x="485.29578"
       y="25.06855"
       width="5.01442"
       height="27.91997"
       id="rect290" />
    <rect
       class="cls-39"
       x="485.92261"
       y="52.98851"
       width="3.7607999"
       height="5.5476899"
       id="rect291" />
    <rect
       class="cls-39"
       x="485.92261"
       y="19.52088"
       width="3.7607999"
       height="5.5476899"
       id="rect292" />
    <rect
       class="cls-38"
       x="477.29578"
       y="25.06855"
       width="5.01442"
       height="27.91997"
       id="rect293" />
    <rect
       class="cls-39"
       x="477.92261"
       y="52.98851"
       width="3.7607999"
       height="5.5476899"
       id="rect294" />
    <rect
       class="cls-39"
       x="477.92261"
       y="19.52088"
       width="3.7607999"
       height="5.5476899"
       id="rect295" />
    <rect
       class="cls-38"
       x="493.29578"
       y="25.06855"
       width="5.01442"
       height="27.91997"
       id="rect296" />
    <rect
       class="cls-39"
       x="493.92261"
       y="52.98851"
       width="3.7607999"
       height="5.5476899"
       id="rect297" />
    <rect
       class="cls-39"
       x="493.92261"
       y="19.52088"
       width="3.7607999"
       height="5.5476899"
       id="rect298" />
    <rect
       class="cls-38"
       x="510.29578"
       y="25.06855"
       width="5.01442"
       height="27.91997"
       id="rect299" />
    <rect
       class="cls-39"
       x="510.92261"
       y="52.98851"
       width="3.7607999"
       height="5.5476899"
       id="rect300" />
    <rect
       class="cls-39"
       x="510.92261"
       y="19.52088"
       width="3.7607999"
       height="5.5476899"
       id="rect301" />
    <rect
       class="cls-38"
       x="502.29578"
       y="25.06855"
       width="5.01442"
       height="27.91997"
       id="rect302" />
    <rect
       class="cls-39"
       x="502.92261"
       y="52.98851"
       width="3.7607999"
       height="5.5476899"
       id="rect303" />
    <rect
       class="cls-39"
       x="502.92261"
       y="19.52088"
       width="3.7607999"
       height="5.5476899"
       id="rect304" />
    <rect
       class="cls-38"
       x="518.29578"
       y="25.06855"
       width="5.01442"
       height="27.91997"
       id="rect305" />
    <rect
       class="cls-39"
       x="518.92261"
       y="52.98851"
       width="3.7607999"
       height="5.5476899"
       id="rect306" />
    <rect
       class="cls-39"
       x="518.92261"
       y="19.52088"
       width="3.7607999"
       height="5.5476899"
       id="rect307" />
    <rect
       class="cls-38"
       x="535.29578"
       y="25.06855"
       width="5.01442"
       height="27.91997"
       id="rect308" />
    <rect
       class="cls-39"
       x="535.92261"
       y="52.98851"
       width="3.7607999"
       height="5.5476899"
       id="rect309" />
    <rect
       class="cls-39"
       x="535.92261"
       y="19.52088"
       width="3.7607999"
       height="5.5476899"
       id="rect310" />
    <rect
       class="cls-38"
       x="527.29578"
       y="25.06855"
       width="5.01442"
       height="27.91997"
       id="rect311" />
    <rect
       class="cls-39"
       x="527.92261"
       y="52.98851"
       width="3.7607999"
       height="5.5476899"
       id="rect312" />
    <rect
       class="cls-39"
       x="527.92261"
       y="19.52088"
       width="3.7607999"
       height="5.5476899"
       id="rect313" />
    <rect
       class="cls-38"
       x="543.29578"
       y="25.06855"
       width="5.01442"
       height="27.91997"
       id="rect314" />
    <rect
       class="cls-39"
       x="543.92261"
       y="52.98851"
       width="3.7607999"
       height="5.5476899"
       id="rect315" />
    <rect
       class="cls-39"
       x="543.92261"
       y="19.52088"
       width="3.7607999"
       height="5.5476899"
       id="rect316" />
    <rect
       class="cls-38"
       x="552.29578"
       y="25.06855"
       width="5.01442"
       height="27.91997"
       id="rect317" />
    <rect
       class="cls-39"
       x="552.92261"
       y="52.98851"
       width="3.7607999"
       height="5.5476899"
       id="rect318" />
    <rect
       class="cls-39"
       x="552.92261"
       y="19.52088"
       width="3.7607999"
       height="5.5476899"
       id="rect319" />
    <rect
       class="cls-40"
       x="393.99997"
       y="31.51112"
       width="166.00002"
       height="15.0332"
       id="rect320" />
    <path
       class="cls-41"
       d="m 33.49992,495.90062 h -4.77151 v 48.45171 h 4.77729 c 0.0328,-2.02257 1.36025,-3.652 2.99449,-3.652 1.63616,0 2.95976,1.62943 2.99449,3.652 H 44.272 v -48.45171 h -4.77154 c 0,2.0581 -1.34288,3.72542 -3.00027,3.72542 -1.65739,0 -3.00027,-1.66732 -3.00027,-3.72542"
       id="path320" />
    <rect
       class="cls-42"
       x="26.00193"
       y="495.89825"
       width="2.7263"
       height="48.454079"
       id="rect321" />
    <rect
       class="cls-42"
       x="44.271778"
       y="495.89825"
       width="2.72822"
       height="48.454079"
       id="rect322" />
    <rect
       class="cls-43"
       x="26"
       y="500.28445"
       width="21"
       height="39.681709"
       id="rect323" />
    <path
       class="cls-44"
       d="m 33.32472,506.912 h -5.05127 v 26.42842 h 5.05706 c 0.03473,-1.10365 1.43936,-1.99178 3.17007,-1.99178 1.73071,0 3.1334,0.88813 3.17006,1.99178 h 5.05513 V 506.912 h -5.04934 c 0,1.1226 -1.422,2.032 -3.17585,2.032 -1.75385,0 -3.17586,-0.90945 -3.17586,-2.032"
       id="path323" />
    <path
       class="cls-43"
       d="m 36.50058,513.40652 c 2.98676,0 5.41014,3.01018 5.41014,6.719 0,3.71358 -2.42338,6.72138 -5.41014,6.72138 -2.98676,0 -5.40822,-3.0078 -5.40822,-6.72138 0,-3.70883 2.42144,-6.719 5.40822,-6.719"
       id="path324" />
    <path
       class="cls-45"
       d="m 36.50058,515.02552 c 2.26515,0 4.10391,2.2831 4.10391,5.10143 0,2.816 -1.83876,5.09906 -4.10391,5.09906 -2.2671,0 -4.10392,-2.28309 -4.10392,-5.09906 0,-2.81833 1.83682,-5.10143 4.10392,-5.10143"
       id="path325" />
    <path
       class="cls-41"
       d="m 33.49992,575.90062 h -4.77151 v 48.45171 h 4.77729 c 0.0328,-2.02257 1.36025,-3.652 2.99449,-3.652 1.63616,0 2.95976,1.62943 2.99449,3.652 H 44.272 v -48.45171 h -4.77154 c 0,2.0581 -1.34288,3.72542 -3.00027,3.72542 -1.65739,0 -3.00027,-1.66732 -3.00027,-3.72542"
       id="path326" />
    <rect
       class="cls-42"
       x="26.00193"
       y="575.89825"
       width="2.7263"
       height="48.454079"
       id="rect326" />
    <rect
       class="cls-42"
       x="44.271778"
       y="575.89825"
       width="2.72822"
       height="48.454079"
       id="rect327" />
    <rect
       class="cls-43"
       x="26"
       y="580.28442"
       width="21"
       height="39.681709"
       id="rect328" />
    <path
       class="cls-44"
       d="m 33.32472,586.912 h -5.05127 v 26.42842 h 5.05706 c 0.03473,-1.10365 1.43936,-1.99178 3.17007,-1.99178 1.73071,0 3.1334,0.88813 3.17006,1.99178 h 5.05513 V 586.912 h -5.04934 c 0,1.1226 -1.422,2.03205 -3.17585,2.03205 -1.75385,0 -3.17586,-0.90945 -3.17586,-2.03205"
       id="path328" />
    <path
       class="cls-43"
       d="m 36.50058,593.40652 c 2.98676,0 5.41014,3.01018 5.41014,6.719 0,3.71358 -2.42338,6.72138 -5.41014,6.72138 -2.98676,0 -5.40822,-3.0078 -5.40822,-6.72138 0,-3.70883 2.42144,-6.719 5.40822,-6.719"
       id="path329" />
    <path
       class="cls-45"
       d="m 36.50058,595.02552 c 2.26515,0 4.10391,2.2831 4.10391,5.10143 0,2.816 -1.83876,5.09906 -4.10391,5.09906 -2.2671,0 -4.10392,-2.28309 -4.10392,-5.09906 0,-2.81833 1.83682,-5.10143 4.10392,-5.10143"
       id="path330" />
    <path
       class="cls-41"
       d="m 110.37823,625.98235 v -4.99872 H 59.61929 v 5.00478 c 2.11889,0.0344 3.8259,1.425 3.8259,3.13708 0,1.71408 -1.707,3.1007 -3.8259,3.13708 v 5.00478 h 50.75894 v -4.99871 c -2.15611,0 -3.90282,-1.40684 -3.90282,-3.14315 0,-1.73631 1.74671,-3.14314 3.90282,-3.14314"
       id="path331" />
    <rect
       class="cls-42"
       x="59.619289"
       y="618.12732"
       width="50.76141"
       height="2.8561201"
       id="rect331" />
    <rect
       class="cls-42"
       x="59.619289"
       y="637.26715"
       width="50.76141"
       height="2.85814"
       id="rect332" />
    <rect
       class="cls-43"
       x="64.21434"
       y="618.12531"
       width="41.571308"
       height="22"
       id="rect333" />
    <path
       class="cls-44"
       d="M 98.84247,625.79881 V 620.507 H 71.15555 v 5.29787 c 1.15621,0.0364 2.08663,1.5079 2.08663,3.321 0,1.8131 -0.93042,3.28262 -2.08663,3.321 v 5.29584 H 98.84247 V 632.453 c -1.17606,0 -2.12882,-1.48971 -2.12882,-3.32709 0,-1.83738 0.95276,-3.32708 2.12882,-3.32708"
       id="path333" />
    <path
       class="cls-43"
       d="m 92.03871,629.12589 c 0,3.129 -3.15352,5.66777 -7.039,5.66777 -3.89041,0 -7.04144,-2.53877 -7.04144,-5.66777 0,-3.129 3.151,-5.66575 7.04144,-5.66575 3.88544,0 7.039,2.53676 7.039,5.66575"
       id="path334" />
    <path
       class="cls-45"
       d="m 90.34261,629.12589 c 0,2.373 -2.39181,4.29934 -5.34435,4.29934 -2.95006,0 -5.34187,-1.92631 -5.34187,-4.29934 0,-2.375 2.39181,-4.29934 5.34187,-4.29934 2.95254,0 5.34435,1.9243 5.34435,4.29934"
       id="path335" />
    <path
       class="cls-5"
       d="M 166.24108,512.43537 V 498.029 a 1.06907,1.06907 0 0 1 1.07063,-1.07063 h 6.13253 a 1.06907,1.06907 0 0 1 1.07063,1.07063 v 14.40636 a 1.07007,1.07007 0 0 1 -1.07063,1.07063 h -6.13253 a 1.07007,1.07007 0 0 1 -1.07063,-1.07063"
       id="path336" />
    <path
       class="cls-5"
       d="m 155.92193,480.6028 v -14.4079 a 1.07006,1.07006 0 0 1 1.07064,-1.07063 h 6.13252 a 1.07005,1.07005 0 0 1 1.07063,1.07063 v 14.4079 a 1.07008,1.07008 0 0 1 -1.07063,1.07063 h -6.13252 a 1.07009,1.07009 0 0 1 -1.07064,-1.07063"
       id="path337" />
    <path
       class="cls-5"
       d="m 177.04658,480.6028 v -14.4079 a 1.07006,1.07006 0 0 1 1.07064,-1.07063 h 6.13252 a 1.07005,1.07005 0 0 1 1.07063,1.07063 v 14.4079 a 1.07008,1.07008 0 0 1 -1.07063,1.07063 h -6.13252 a 1.07009,1.07009 0 0 1 -1.07064,-1.07063"
       id="path338" />
    <rect
       class="cls-46"
       x="154.1694"
       y="481.38165"
       width="32.12524"
       height="16.16024"
       id="rect338" />
    <path
       class="cls-5"
       d="M 230.24108,512.43537 V 498.029 a 1.06907,1.06907 0 0 1 1.07063,-1.07063 h 6.13253 a 1.06907,1.06907 0 0 1 1.07063,1.07063 v 14.40636 a 1.07007,1.07007 0 0 1 -1.07063,1.07063 h -6.13253 a 1.07007,1.07007 0 0 1 -1.07063,-1.07063"
       id="path339" />
    <path
       class="cls-5"
       d="m 219.92193,480.6028 v -14.4079 a 1.07006,1.07006 0 0 1 1.07064,-1.07063 h 6.13252 a 1.07005,1.07005 0 0 1 1.07063,1.07063 v 14.4079 a 1.07008,1.07008 0 0 1 -1.07063,1.07063 h -6.13252 a 1.07009,1.07009 0 0 1 -1.07064,-1.07063"
       id="path340" />
    <path
       class="cls-5"
       d="m 241.04658,480.6028 v -14.4079 a 1.07006,1.07006 0 0 1 1.07064,-1.07063 h 6.13252 a 1.07005,1.07005 0 0 1 1.07063,1.07063 v 14.4079 a 1.07008,1.07008 0 0 1 -1.07063,1.07063 h -6.13252 a 1.07009,1.07009 0 0 1 -1.07064,-1.07063"
       id="path341" />
    <rect
       class="cls-46"
       x="218.1694"
       y="481.38165"
       width="32.12524"
       height="16.16024"
       id="rect341" />
  </g>
</svg>
