<?xml version="1.0" encoding="UTF-8" standalone="no"?>
<svg
   viewBox="0 0 234.99999 235"
   version="1.1"
   id="svg263"
   sodipodi:docname="RAK12002_Bottom.svg"
   inkscape:version="1.4.2 (f4327f4, 2025-05-13)"
   width="235"
   height="235"
   xmlns:inkscape="http://www.inkscape.org/namespaces/inkscape"
   xmlns:sodipodi="http://sodipodi.sourceforge.net/DTD/sodipodi-0.dtd"
   xmlns="http://www.w3.org/2000/svg"
   xmlns:svg="http://www.w3.org/2000/svg">
  <sodipodi:namedview
     id="namedview263"
     pagecolor="#505050"
     bordercolor="#eeeeee"
     borderopacity="1"
     inkscape:showpageshadow="0"
     inkscape:pageopacity="0"
     inkscape:pagecheckerboard="0"
     inkscape:deskcolor="#505050"
     inkscape:zoom="4.871431"
     inkscape:cx="94.428105"
     inkscape:cy="170.99698"
     inkscape:window-width="1718"
     inkscape:window-height="1360"
     inkscape:window-x="1713"
     inkscape:window-y="0"
     inkscape:window-maximized="0"
     inkscape:current-layer="RAK12002_Pinouts" />
  <defs
     id="defs3">
    <style
       id="style1">.cls-1,.cls-12,.cls-20{fill:none;}.cls-2{fill:#7f8080;}.cls-3{fill:#ed1c24;}.cls-4{fill:#333;}.cls-5{fill:#b3b3b3;}.cls-6{fill:#fed401;}.cls-7{fill:#895aa5;}.cls-8{fill:#42a095;}.cls-16,.cls-9{fill:#fff;}.cls-10{fill:#242424;}.cls-10,.cls-12,.cls-13,.cls-16,.cls-17,.cls-18,.cls-19,.cls-20{opacity:0.4;}.cls-11{fill:#cbbb99;}.cls-14{clip-path:url(#clip-path);}.cls-15{clip-path:url(#clip-path-3);}.cls-17{fill:#a4abba;}.cls-18{fill:#eeefeb;}.cls-19{fill:#c8ac8c;}.cls-20{stroke:#fff;stroke-miterlimit:10;stroke-width:0.5px;}.cls-21{clip-path:url(#clip-path-5);}.cls-22{fill:#ebf4fb;}.cls-23{fill:#333e49;}.cls-24{fill:#222630;}.cls-25{fill:#be8e3e;}.cls-26{fill:#ee3224;}</style>
    <clipPath
       id="clip-path">
      <rect
         class="cls-1"
         x="9.8000002"
         y="17.91"
         width="1.64"
         height="1.83"
         id="rect1" />
    </clipPath>
    <clipPath
       id="clip-path-3">
      <rect
         class="cls-1"
         x="9.8000002"
         y="20.459999"
         width="1.64"
         height="1.83"
         id="rect2" />
    </clipPath>
    <clipPath
       id="clip-path-5">
      <rect
         class="cls-1"
         x="20.09"
         y="20.129999"
         width="7.1100001"
         height="19.34"
         id="rect3" />
    </clipPath>
    <clipPath
       id="clip-path-2">
      <rect
         class="cls-1"
         x="9.8000002"
         y="17.91"
         width="1.64"
         height="1.83"
         id="rect1-2" />
    </clipPath>
    <clipPath
       id="clipPath2">
      <rect
         class="cls-1"
         x="9.8000002"
         y="17.91"
         width="1.64"
         height="1.83"
         id="rect2-1" />
    </clipPath>
    <clipPath
       id="clip-path-3-6">
      <rect
         class="cls-1"
         x="9.8000002"
         y="20.459999"
         width="1.64"
         height="1.83"
         id="rect3-8" />
    </clipPath>
    <clipPath
       id="clipPath4">
      <rect
         class="cls-1"
         x="9.8000002"
         y="20.459999"
         width="1.64"
         height="1.83"
         id="rect4" />
    </clipPath>
    <clipPath
       id="clip-path-5-5">
      <rect
         class="cls-1"
         x="20.09"
         y="20.129999"
         width="7.1100001"
         height="19.34"
         id="rect5" />
    </clipPath>
    <clipPath
       id="clipPath6">
      <rect
         class="cls-1"
         x="20.09"
         y="20.129999"
         width="7.1100001"
         height="19.34"
         id="rect6" />
    </clipPath>
  </defs>
  <g
     id="RAK12002_Pinouts"
     transform="rotate(-90,6.5494828,22.085675)">
    <path
       class="cls-10"
       d="M 25.999297,17.771465 V 247.70567 H -204.01601 V 123.7764 h 14.92343 c 17.35232,0.54639 31.86913,-13.06311 32.44221,-30.414574 v -2.108743 c -0.57308,-17.351462 -15.08989,-30.960971 -32.44221,-30.414577 h -14.92343 V 17.771465 Z"
       id="path159"
       style="opacity:1;fill:#242424;stroke-width:8.11056"
       sodipodi:nodetypes="ccccccccccc" />
    <path
       class="cls-11"
       d="m -156.73147,91.4964 v 2.108743 a 31.306738,31.306738 0 0 1 -32.44222,30.171257 h -14.84232 v -12.73357 h 13.78795 a 19.708646,19.708646 0 1 0 0,-39.255076 h -13.78795 v -10.54372 h 14.92343 a 31.468949,31.468949 0 0 1 32.44221,30.252366"
       id="path160"
       style="fill:#ffb232;fill-opacity:1;stroke-width:8.11056" />
    <rect
       class="cls-12"
       x="-161.03006"
       y="79.492775"
       width="89.297203"
       height="150.45076"
       id="rect160"
       style="opacity:1;fill:none;stroke-width:8.11056" />
    <g
       id="square"
       class="cls-13"
       style="opacity:1"
       transform="matrix(8.1105538,0,0,8.1105538,-204.01601,-110.13197)">
      <g
         class="cls-14"
         clip-path="url(#clip-path)"
         id="g162">
        <g
           class="cls-14"
           clip-path="url(#clip-path)"
           id="g161">
          <path
             class="cls-9"
             d="m 11.44,18.15 v 1.34 a 0.25,0.25 0 0 1 -0.25,0.25 H 10 A 0.26,0.26 0 0 1 9.76,19.49 V 18.15 A 0.24,0.24 0 0 1 10,17.91 h 1.15 a 0.26,0.26 0 0 1 0.25,0.24"
             id="path161"
             style="fill:#ffffff" />
        </g>
      </g>
    </g>
    <g
       id="square-2"
       class="cls-13"
       style="opacity:1"
       transform="matrix(8.1105538,0,0,8.1105538,-204.01601,-110.13197)">
      <g
         class="cls-15"
         clip-path="url(#clip-path-3)"
         id="g164">
        <g
           class="cls-15"
           clip-path="url(#clip-path-3)"
           id="g163">
          <path
             class="cls-9"
             d="M 11.44,20.71 V 22 a 0.25,0.25 0 0 1 -0.25,0.25 H 10 A 0.26,0.26 0 0 1 9.8,22 v -1.29 a 0.26,0.26 0 0 1 0.24,-0.25 h 1.15 a 0.25,0.25 0 0 1 0.25,0.25"
             id="path162"
             style="fill:#ffffff" />
        </g>
      </g>
    </g>
    <path
       class="cls-16"
       d="m -145.78223,32.857095 h 5.10965 a 3.2442216,3.2442216 0 0 1 3.16312,3.244221 v 31.306738 a 3.2442216,3.2442216 0 0 1 -3.16312,3.244222 h -5.10965 a 3.2442216,3.2442216 0 0 1 -3.24421,-3.244222 V 35.858 a 3.2442216,3.2442216 0 0 1 3.24421,-3.244221"
       id="path164"
       style="opacity:1;fill:#ffffff;stroke-width:8.11056" />
    <path
       class="cls-17"
       d="m -146.26886,36.912372 h 6.00181 a 2.7575883,2.7575883 0 0 1 2.75759,2.757589 v 0 22.790655 a 2.7575883,2.7575883 0 0 1 -2.75759,2.757589 h -6.00181 a 2.7575883,2.7575883 0 0 1 -2.75758,-2.757589 v 0 -22.790655 a 2.7575883,2.7575883 0 0 1 2.75758,-2.757589 v 0"
       id="path165"
       style="opacity:1;fill:#a4abba;stroke-width:8.11056" />
    <path
       class="cls-18"
       d="m -147.24213,38.7778 h 9.08382 a 1.946533,1.946533 0 0 1 1.94654,1.865427 v 21.249651 a 1.8654274,1.8654274 0 0 1 -1.86543,1.865427 h -9.16493 a 1.8654274,1.8654274 0 0 1 -1.86542,-1.865427 V 40.643227 a 1.8654274,1.8654274 0 0 1 1.86542,-1.865427"
       id="path166"
       style="opacity:1;fill:#eeefeb;stroke-width:8.11056" />
    <rect
       class="cls-19"
       x="-149.02644"
       y="44.536293"
       width="12.73357"
       height="14.35568"
       id="rect166"
       style="opacity:1;fill:#c8ac8c;stroke-width:8.11056" />
    <polygon
       class="cls-16"
       points="15.01,38.56 15.01,37.65 16.05,37.65 16.05,34.99 15.01,34.99 15.01,34.01 16.05,34.01 16.05,31.13 15.01,31.13 15.01,30.15 16.05,30.15 16.05,27.55 15.01,27.55 15.01,26.53 9.56,26.53 9.56,38.56 "
       id="polygon166"
       style="opacity:1;fill:#ffffff;fill-opacity:1"
       transform="matrix(8.1105538,0,0,8.1105538,-204.01601,-110.13197)" />
    <path
       class="cls-16"
       d="m -134.18413,79.736096 v 3.64975 l -15.73448,3.649748 v 0 l 15.73448,4.136383 v 3.649749 l -15.73448,4.055277 v 0 l 15.73448,3.811967 v 3.64975 l -20.5197,-5.59629 v -3.487537 l 15.57226,-4.217488 v 0 l -15.65337,-4.217489 v -3.730855 z"
       id="path167"
       style="opacity:1;fill:#ffffff;stroke-width:8.11056" />
    <path
       class="cls-16"
       d="m -134.18413,108.36635 v 3.32533 h -3.16312 v -3.32533 z m -5.6774,0 v 3.32533 h -14.8423 v -3.32533 z"
       id="path168"
       style="opacity:1;fill:#ffffff;stroke-width:8.11056" />
    <path
       class="cls-16"
       d="m -149.91861,117.69349 c -1.94653,0 -2.59538,1.62211 -2.59538,3.32532 0,1.70322 0,3.40644 1.94654,3.32534 1.94653,-0.0811 1.86542,-2.43317 2.43317,-4.86633 0.56773,-2.43318 1.37879,-4.37971 4.37969,-4.37971 3.00091,0 4.2986,3.48754 4.2986,6.16402 a 5.6773876,5.6773876 0 0 1 -4.62302,6.24513 v -3.48754 c 1.62211,0 2.02764,-1.54101 2.02764,-3.00091 0,-1.45989 0,-2.67648 -1.54101,-2.67648 -1.541,0 -1.86542,2.43317 -2.35206,4.78523 -0.48663,2.35206 -1.4599,4.86633 -4.37969,4.86633 -2.9198,0 -5.02855,-3.56864 -5.02855,-6.65065 a 5.9207043,5.9207043 0 0 1 5.19075,-6.56955 z"
       id="path169"
       style="opacity:1;fill:#ffffff;stroke-width:8.11056" />
    <path
       class="cls-16"
       d="m -134.18413,130.34595 v 9.65157 c 0,3.89306 -1.29769,6.56955 -5.10965,6.56955 a 4.5419102,4.5419102 0 0 1 -4.2986,-2.75759 4.9474378,4.9474378 0 0 1 -5.19075,3.73085 c -4.13638,0 -5.9207,-3.56864 -5.9207,-7.2184 v -9.97598 z m -8.11056,4.54192 v 4.5419 c 0,1.62212 0.72995,2.75759 2.43316,2.75759 1.70322,0 2.35207,-1.4599 2.35207,-3.08201 v -4.21748 z m -8.67829,0 v 4.5419 c 0,1.78433 0.56774,3.32533 2.67648,3.32533 2.10874,0 2.9198,-1.29768 2.9198,-3.24422 v -4.86633 z"
       id="path170"
       style="opacity:1;fill:#ffffff;stroke-width:8.11056" />
    <path
       class="cls-16"
       d="m -134.18413,150.54123 v 4.54191 h -16.78885 v 9.97598 h -3.73085 v -14.51789 z"
       id="path171"
       style="opacity:1;fill:#ffffff;stroke-width:8.11056" />
    <path
       class="cls-16"
       d="m -133.6975,176.73832 a 9.8948756,9.8948756 0 0 1 -9.89488,10.05709 h -0.72994 a 10.057087,10.057087 0 1 1 0,-20.11417 v 0 a 10.057087,10.057087 0 0 1 10.62482,9.32714 z m -17.76212,0 c 0,4.05528 3.48755,5.59629 6.89398,5.59629 3.40643,0 7.05618,-1.54101 7.05618,-5.59629 0,-4.05528 -3.48754,-5.59628 -7.05618,-5.59628 -3.56864,0 -6.89398,1.541 -6.89398,5.59628 z"
       id="path172"
       style="opacity:1;fill:#ffffff;stroke-width:8.11056" />
    <path
       class="cls-16"
       d="m -141.07811,203.50315 a 4.379699,4.379699 0 0 0 3.56865,-4.4608 c 0,-4.05528 -3.48754,-5.59629 -7.05618,-5.59629 -3.56864,0 -6.89398,1.54101 -6.89398,5.59629 a 4.5419102,4.5419102 0 0 0 4.46081,4.62301 v 0 4.3797 a 8.597187,8.597187 0 0 1 -8.11056,-9.00271 9.8948756,9.8948756 0 0 1 9.73267,-10.05709 h 0.89216 a 10.057087,10.057087 0 0 1 11.03035,9.08381 v 1.05438 a 8.1105538,8.1105538 0 0 1 -7.29949,8.84051 v 0 z"
       id="path173"
       style="opacity:1;fill:#ffffff;stroke-width:8.11056" />
    <path
       class="cls-16"
       d="m -134.18413,211.12707 v 4.46081 h -8.11056 l 8.11056,8.11055 v 5.59628 l -8.11056,-8.11055 -12.40914,8.7594 v -5.67739 l 9.16492,-6.16402 -2.59537,-2.59538 h -6.56955 v -4.46081 z"
       id="path174"
       style="opacity:1;fill:#ffffff;stroke-width:8.11056" />
    <path
       class="cls-16"
       d="m -88.278406,29.531768 v 7.056182 a 3.6497492,3.6497492 0 0 1 -3.487538,3.81196 v 0 a 3.2442216,3.2442216 0 0 1 -3.325327,-2.027638 v 0 c 0,1.378794 -1.784322,1.784322 -3.163117,1.865427 a 7.0561818,7.0561818 0 0 0 -3.163112,0.567739 v -2.838694 a 10.868142,10.868142 0 0 1 3.244218,-0.486633 c 1.378794,0 2.027639,-0.72995 2.027639,-2.18985 v -2.838693 h -5.271857 v -2.9198 z m -6.082916,2.9198 V 35.858 c 0,1.297688 0.567739,2.027639 1.946533,2.027639 1.378794,0 1.946533,-1.054372 1.946533,-2.027639 v -3.082011 z"
       id="path175"
       style="opacity:1;fill:#ffffff;stroke-width:8.11056" />
    <path
       class="cls-16"
       d="m -91.928156,48.672675 a 1.7843218,1.7843218 0 0 0 1.622112,-1.703216 c 0,-1.865428 -2.514272,-2.433166 -3.974173,-2.514272 v 0 a 3.2442216,3.2442216 0 0 1 1.459901,2.9198 4.2985936,4.2985936 0 0 1 -1.378794,2.919799 4.7041212,4.7041212 0 0 1 -2.9198,0.973266 4.5419102,4.5419102 0 0 1 -4.78522,-4.136382 v 0 c 0,-3.893066 3.487532,-4.947438 6.731753,-4.947438 3.244221,0 6.893971,1.378794 6.893971,5.028543 a 3.8930658,3.8930658 0 0 1 -3.64975,4.136383 v 0 z m -5.352965,-3.974171 a 2.270955,2.270955 0 0 0 -2.433161,2.108743 v 0 a 2.270955,2.270955 0 0 0 2.352055,1.946534 c 1.297689,0 2.514272,-0.648845 2.514272,-1.946534 a 2.108744,2.108744 0 0 0 -2.270955,-2.108743 z"
       id="path176"
       style="opacity:1;fill:#ffffff;stroke-width:8.11056" />
    <path
       class="cls-16"
       d="m -50.807648,77.30293 v 8.110554 a 4.217488,4.217488 0 0 1 -3.974171,4.460804 v 0 a 3.7308548,3.7308548 0 0 1 -3.893065,-2.433166 v 0 c 0,1.703217 -2.02764,2.18985 -3.64975,2.270956 a 8.1105538,8.1105538 0 0 0 -3.81196,1.054371 V 87.1167 a 14.923419,14.923419 0 0 1 3.81196,-0.486634 c 1.62211,0 2.352061,-0.89216 2.352061,-2.595376 v -3.406433 h -6.164021 V 77.30293 Z m -7.056182,3.325327 v 3.893066 c 0,1.541005 0.648845,2.352061 2.270956,2.352061 1.62211,0 2.108743,-0.811056 2.108743,-2.352061 v -3.730855 z"
       id="path177"
       style="opacity:1;fill:#ffffff;stroke-width:8.11056" />
    <path
       class="cls-16"
       d="m -50.807648,98.877003 v 3.406437 l -15.328946,5.75849 v -3.48754 l 3.244221,-1.05437 v -5.758494 l -3.487538,-1.216583 V 93.11851 Z m -9.570453,0 v 3.974177 l 5.758493,-1.94654 v 0 z"
       id="path178"
       style="opacity:1;fill:#ffffff;stroke-width:8.11056" />
    <path
       class="cls-16"
       d="m -50.807648,110.96173 v 3.40644 h -6.488442 l 6.488442,6.0018 v 4.21749 l -6.164021,-6.00181 -9.164925,6.48844 v -4.21748 l 7.056182,-4.62302 -1.946533,-1.94653 h -5.109649 v -3.40644 z"
       id="path179"
       style="opacity:1;fill:#ffffff;stroke-width:8.11056" />
    <path
       class="cls-16"
       d="m -66.136594,135.37449 v -3.082 h 9.975981 v -3.81196 h 2.352061 c 0,2.18985 0.729949,4.13638 3.08201,4.4608 v 2.43316 z"
       id="path180"
       style="opacity:1;fill:#ffffff;stroke-width:8.11056" />
    <path
       class="cls-16"
       d="m -56.971669,141.29521 a 5.434071,5.434071 0 0 1 6.082916,4.62301 3.0820104,3.0820104 0 0 1 0,0.81105 4.8663323,4.8663323 0 0 1 -4.541911,5.19075 v 0 c -4.623015,0 -5.028543,-4.86633 -8.110553,-7.05617 v 7.13728 h -2.595377 v -10.70592 c 3.649749,0 5.109649,2.10874 6.89397,4.70411 1.784322,2.59538 1.865427,3.16312 3.730855,3.16312 a 2.1898496,2.1898496 0 0 0 2.352061,-1.86543 v 0 c 0,-1.86543 -1.865428,-2.43316 -3.487538,-2.43316 z"
       id="path181"
       style="opacity:1;fill:#ffffff;stroke-width:8.11056" />
    <path
       class="cls-16"
       d="m -50.807648,160.67943 c 0,3.0009 -1.865427,5.51517 -8.110554,5.51517 -6.245126,0 -8.110554,-2.51427 -8.110554,-5.51517 0,-3.00091 1.865428,-5.51518 8.110554,-5.51518 6.245127,0 8.110554,2.35206 8.110554,5.51518 z m -13.382414,0 c 0,2.51427 3.811961,2.51427 5.515178,2.51427 1.703215,0 5.352965,0 5.352965,-2.51427 0,-2.51427 -3.730855,-2.43318 -5.352965,-2.43318 -1.622112,0 -5.515178,0 -5.515178,2.43318 z"
       id="path182"
       style="opacity:1;fill:#ffffff;stroke-width:8.11056" />
    <path
       class="cls-16"
       d="m -50.807648,174.54847 c 0,3.0009 -1.865427,5.59628 -8.110554,5.59628 -6.245126,0 -8.110554,-2.59538 -8.110554,-5.59628 0,-3.0009 1.865428,-5.51517 8.110554,-5.51517 6.245127,0 8.110554,2.83869 8.110554,5.51517 z m -13.382414,0 c 0,2.51428 3.811961,2.51428 5.515178,2.51428 1.703215,0 5.352965,0 5.352965,-2.51428 0,-2.51427 -3.730855,-2.43316 -5.352965,-2.43316 -1.622112,0 -5.515178,-0.24332 -5.515178,2.43316 z"
       id="path183"
       style="opacity:1;fill:#ffffff;stroke-width:8.11056" />
    <path
       class="cls-16"
       d="m -56.971669,184.11892 a 5.434071,5.434071 0 0 1 6.082916,4.62302 3.325327,3.325327 0 0 1 0,0.89216 4.8663323,4.8663323 0 0 1 -4.541911,5.19076 v 0 c -4.623015,0 -5.028543,-4.86633 -8.110553,-7.05619 v 7.13729 h -2.595377 v -11.11145 c 3.649749,0 5.109649,2.18984 6.89397,4.78522 0.973266,1.29769 1.865427,3.16311 3.730855,3.16311 a 2.1898496,2.1898496 0 0 0 2.352061,-2.02763 v 0 c 0,-1.78433 -1.865428,-2.35206 -3.487538,-2.35206 z"
       id="path184"
       style="opacity:1;fill:#ffffff;stroke-width:8.11056" />
    <path
       class="cls-16"
       d="m -66.136594,217.69662 v -3.40643 l 15.653369,-4.94744 v 3.48754 l -10.949248,3.40643 v 0 l 10.949248,3.48754 v 3.48754 z"
       id="path185"
       style="opacity:1;fill:#ffffff;stroke-width:8.11056" />
    <path
       class="cls-16"
       d="m -50.807648,226.05049 v 7.21839 c 0,2.9198 -0.973266,4.94744 -3.81196,4.94744 a 3.4875382,3.4875382 0 0 1 -3.325327,-2.10874 3.8119603,3.8119603 0 0 1 -3.974171,2.83869 c -3.163117,0 -4.541911,-2.67648 -4.541911,-5.43407 v -7.46171 z m -6.326231,3.40643 v 3.40643 c 0,1.21658 0.567738,2.02764 1.865427,2.02764 1.297688,0 1.784321,-1.13547 1.784321,-2.27095 v -3.16312 z m -6.650655,0 v 3.56864 c 0,1.29769 0.486633,2.51427 2.108744,2.51427 1.622111,0 2.18985,-0.97326 2.18985,-2.43316 v -3.64975 z"
       id="path186"
       style="opacity:1;fill:#ffffff;stroke-width:8.11056" />
    <rect
       class="cls-16"
       x="-70.029663"
       y="196.60918"
       width="4.1363826"
       height="11.760303"
       rx="0.72994989"
       id="rect186"
       style="opacity:1;fill:#ffffff;stroke-width:8.11056" />
    <path
       class="cls-16"
       d="m -164.27429,38.047849 a 3.325327,3.325327 0 0 0 2.75759,-3.325327 c 0,-3.08201 -2.59538,-4.217487 -5.35297,-4.217487 -2.75758,0 -5.27185,1.135477 -5.27185,4.217487 a 3.6497492,3.6497492 0 0 0 3.48753,3.487539 v 3.244221 a 6.4073375,6.4073375 0 0 1 -6.40733,-6.407337 v 0 a 7.380604,7.380604 0 0 1 7.3806,-7.542816 h 0.72995 a 7.542815,7.542815 0 0 1 8.11055,6.975077 v 0.567739 a 6.326232,6.326232 0 0 1 -5.67738,6.650654 z"
       id="path187"
       style="opacity:1;fill:#ffffff;stroke-width:8.11056" />
    <path
       class="cls-16"
       d="m -174.6558,49.32152 v -3.082011 h 9.97599 v -3.730854 h 2.35206 c 0,2.108743 0.72994,4.055276 3.0009,4.379699 v 2.433166 z"
       id="path188"
       style="opacity:1;fill:#ffffff;stroke-width:8.11056" />
    <path
       class="cls-16"
       d="m -19.095382,234.07993 a 5.1154389,5.1154389 0 0 1 -0.486634,-10.21929 h 1.378795 v 3.08201 h -0.729951 c -1.459899,0 -2.595376,0 -2.595376,1.94654 0,1.94653 1.459899,1.78431 2.595376,1.78431 h 10.5437209 v 3.40643 z"
       id="path189"
       style="opacity:1;fill:#ffffff;stroke-width:8.11056" />
    <path
       class="cls-16"
       d="m -24.04282,242.59602 v -3.08201 h 9.975982 v -3.73086 h 2.352059 c 0,2.10875 0.648845,4.05528 3.0009058,4.37971 v 2.43316 z"
       id="path190"
       style="opacity:1;fill:#ffffff;stroke-width:8.11056" />
    <path
       class="cls-16"
       d="m -169.62725,137.72655 a 4.4608046,4.4608046 0 0 1 -3.81196,5.02855 v 0 a 3.2442216,3.2442216 0 0 1 -3.24423,-2.18985 v 0 a 3.4875382,3.4875382 0 0 1 -3.73085,2.75759 4.9474378,4.9474378 0 0 1 -4.78522,-5.27186 v 0 c 0,-2.9198 1.4599,-5.75849 4.78522,-5.75849 a 3.5686436,3.5686436 0 0 1 3.73085,2.83869 v 0 a 3.0009049,3.0009049 0 0 1 3.16312,-2.18985 4.4608046,4.4608046 0 0 1 4.13638,4.86633 z m -13.54463,0 a 2.5142716,2.5142716 0 0 0 2.43317,2.59538 v 0 a 2.6764828,2.6764828 0 0 0 0,-5.27186 2.5142716,2.5142716 0 0 0 -2.59538,2.43318 z m 7.05619,0 a 2.108744,2.108744 0 0 0 4.21748,0 2.1898496,2.1898496 0 0 0 -2.02764,-2.35206 v 0 a 2.0276384,2.0276384 0 0 0 -2.02763,2.18986 z"
       id="path191"
       style="opacity:1;fill:#ffffff;stroke-width:8.11056" />
    <path
       class="cls-16"
       d="m -175.79128,146.56707 a 5.434071,5.434071 0 0 1 6.08292,4.62301 3.0820104,3.0820104 0 0 1 0,0.81105 4.8663323,4.8663323 0 0 1 -4.54191,5.19075 v 0 c -4.62301,0 -5.02854,-4.86633 -8.11056,-7.05617 v 7.3806 h -2.51427 v -11.27367 c 3.56865,0 5.02855,2.10874 6.81287,4.70412 1.78432,2.59538 1.86543,3.24423 3.73085,3.24423 a 2.3520606,2.3520606 0 0 0 2.43317,-2.10875 v 0 c 0,-1.86543 -1.94653,-2.43317 -3.56864,-2.43317 z"
       id="path192"
       style="opacity:1;fill:#ffffff;stroke-width:8.11056" />
    <path
       class="cls-16"
       d="m -173.84474,168.22224 a 2.1898496,2.1898496 0 0 0 2.27095,-2.02764 c 0,-2.18985 -3.00091,-2.8387 -4.70412,-2.91979 v 0 a 3.6497492,3.6497492 0 0 1 1.78432,3.40643 4.8663323,4.8663323 0 0 1 -1.6221,3.48753 5.7584932,5.7584932 0 0 1 -3.56865,1.13548 5.27186,5.27186 0 0 1 -5.59628,-4.94744 v 0 c 0,-4.5419 4.05528,-5.83959 8.11055,-5.83959 4.05528,0 8.11055,1.70321 8.11055,5.9207 a 4.7041212,4.7041212 0 0 1 -4.21749,4.94743 z m -5.8396,-4.62302 a 2.6764828,2.6764828 0 0 0 -2.9198,2.43317 v 0 a 2.5953772,2.5953772 0 0 0 2.83869,2.27096 c 1.4599,0 2.9198,-0.72996 2.9198,-2.27096 a 2.5142716,2.5142716 0 0 0 -2.83869,-2.27096 v 0 z"
       id="path193"
       style="opacity:1;fill:#ffffff;stroke-width:8.11056" />
    <path
       class="cls-16"
       d="m -184.8751,182.41571 v -3.08201 h 9.57046 v -3.81196 h 2.35206 a 3.8119603,3.8119603 0 0 0 3.00091,4.46081 v 0 2.43316 z"
       id="path194"
       style="opacity:1;fill:#ffffff;stroke-width:8.11056" />
    <path
       class="cls-16"
       d="m -169.62725,194.01381 c 0,3.00089 -1.86543,5.51516 -8.11056,5.51516 -6.24512,0 -8.11055,-2.51427 -8.11055,-5.51516 0,-3.00091 1.94653,-5.51518 8.11055,-5.51518 6.16402,0 8.11056,2.51427 8.11056,5.51518 z m -13.38242,0 c 0,2.51427 3.81196,2.51427 5.51518,2.51427 1.70321,0 5.35297,0 5.35297,-2.51427 0,-2.51428 -3.73086,-2.51428 -5.35297,-2.51428 -1.62211,0 -5.51518,0 -5.51518,2.51428 z"
       id="path195"
       style="opacity:1;fill:#ffffff;stroke-width:8.11056" />
    <path
       class="cls-16"
       d="m -169.62725,208.04506 c 0,3.08201 -1.86543,5.59628 -8.11056,5.59628 -6.24512,0 -8.11055,-2.51427 -8.11055,-5.59628 0,-3.08201 1.94653,-5.51518 8.11055,-5.51518 6.16402,0 8.11056,2.51427 8.11056,5.51518 z m -13.38242,0 c 0,2.51427 3.81196,2.51427 5.51518,2.51427 1.70321,0 5.35297,0 5.35297,-2.51427 0,-2.51427 -3.73086,-2.43316 -5.35297,-2.43316 -1.62211,0 -5.51518,0 -5.51518,2.43316 z"
       id="path196"
       style="opacity:1;fill:#ffffff;stroke-width:8.11056" />
    <path
       class="cls-16"
       d="m -184.8751,224.6717 v -3.08202 h 9.57046 v -3.81196 h 2.35206 a 3.8930658,3.8930658 0 0 0 3.08201,4.46081 v 2.43317 z"
       id="path197"
       style="opacity:1;fill:#ffffff;stroke-width:8.11056" />
    <path
       class="cls-16"
       d="m -169.62725,231.72787 v 8.11056 a 4.217488,4.217488 0 0 1 -3.97417,4.46081 v 0 a 3.9741714,3.9741714 0 0 1 -3.89307,-2.43318 v 0 c 0,1.70322 -2.02764,2.10876 -3.64975,2.27097 a 8.1105538,8.1105538 0 0 0 -3.40643,0.72994 v -3.24421 a 18.816485,18.816485 0 0 1 3.73085,-0.56775 c 1.62211,0 2.35206,-0.81105 2.35206,-2.51427 v -3.40643 h -6.40734 v -3.40644 z m -7.05619,3.40644 v 3.48754 c 0,1.54101 0.64885,2.35206 2.27096,2.35206 1.62211,0 2.18985,-0.81105 2.18985,-2.35206 v -3.73086 z"
       id="path198"
       style="opacity:1;fill:#ffffff;stroke-width:8.11056" />
    <rect
       class="cls-20"
       x="-155.02826"
       y="30.748363"
       width="48.582214"
       height="48.582214"
       rx="1.6221107"
       id="rect198"
       style="opacity:1;fill:none;stroke:#ffffff;stroke-width:4.05528px;stroke-miterlimit:10" />
    <line
       class="cls-20"
       x1="-130.69659"
       y1="30.748363"
       x2="-130.69659"
       y2="79.330582"
       id="line198"
       style="opacity:1;fill:none;stroke:#ffffff;stroke-width:4.05528px;stroke-miterlimit:10" />
    <path
       class="cls-16"
       d="m 20.240804,186.06546 a 1.8654274,1.8654274 0 0 0 0,2.51427 l 2.433166,2.43317 c 0,0 1.541005,1.86543 2.514271,-0.81105 a 10.219298,10.219298 0 0 0 0,-5.83961 c 0,0 -0.811054,-2.43316 -2.514271,-0.97326 z"
       id="path199"
       style="opacity:1;fill:#ffffff;stroke-width:8.11056" />
    <path
       class="cls-9"
       d="M -43.994783,73.65318 V 46.969459 H 20.889648 V 73.65318 a 2.0276387,2.0276387 0 0 1 -4.055277,0 V 51.024735 H -39.939505 V 73.65318 a 2.027639,2.027639 0 0 1 -4.055278,0 z"
       id="path200"
       style="fill:#ffffff;stroke-width:8.11056" />
    <path
       class="cls-9"
       d="m -43.994783,194.25711 v 26.76484 h 64.884431 v -26.76484 a 2.0276387,2.0276387 0 0 0 -4.055277,0 v 22.70956 h -56.773876 v -22.70956 a 2.027639,2.027639 0 0 0 -4.055278,0 z"
       id="path201"
       style="fill:#ffffff;stroke-width:8.11056" />
    <g
       id="slot-male-connector"
       transform="matrix(8.1105538,0,0,8.1105538,-204.01601,-110.13197)">
      <g
         class="cls-21"
         clip-path="url(#clip-path-5)"
         id="g258">
        <g
           class="cls-21"
           clip-path="url(#clip-path-5)"
           id="g257">
          <path
             class="cls-22"
             d="m 21.07,21.09 v -0.25 a 0.42,0.42 0 0 1 0.42,-0.41 h 4.4 a 0.41,0.41 0 0 1 0.41,0.41 v 0.25 a 0.41,0.41 0 0 1 -0.4,0.42 h -4.41 a 0.42,0.42 0 0 1 -0.42,-0.42 v 0"
             id="path202"
             style="fill:#ebf4fb" />
          <path
             class="cls-22"
             d="m 21.07,38.64 v -0.25 a 0.42,0.42 0 0 1 0.42,-0.42 h 4.4 a 0.41,0.41 0 0 1 0.41,0.41 v 0 0.25 a 0.41,0.41 0 0 1 -0.41,0.41 h -4.4 a 0.42,0.42 0 0 1 -0.42,-0.41"
             id="path203"
             style="fill:#ebf4fb" />
          <path
             class="cls-23"
             d="m 24.92,39.47 h 0.44 a 0.42,0.42 0 0 0 0.42,-0.42 v 0 -0.85 a 0.41,0.41 0 0 0 -0.26,-0.39 v -16 a 0.4,0.4 0 0 0 0.26,-0.38 v -0.84 a 0.42,0.42 0 0 0 -0.42,-0.42 h -0.42 a 0.42,0.42 0 0 0 -0.4,0.3 h -1.68 a 0.43,0.43 0 0 0 -0.39,-0.3 H 22 a 0.42,0.42 0 0 0 -0.42,0.42 v 0 0.86 a 0.41,0.41 0 0 0 0.28,0.36 v 16 A 0.41,0.41 0 0 0 21.58,38.2 V 39 A 0.42,0.42 0 0 0 22,39.42 h 0.43 a 0.4,0.4 0 0 0 0.38,-0.26 h 1.68 a 0.42,0.42 0 0 0 0.39,0.26"
             id="path204"
             style="fill:#333e49" />
          <path
             class="cls-24"
             d="M 22.28,37.38 V 22.24 a 0.21,0.21 0 0 1 0.2,-0.22 h 2.33 a 0.22,0.22 0 0 1 0.22,0.22 v 15.14 a 0.22,0.22 0 0 1 -0.22,0.21 h -2.32 a 0.21,0.21 0 0 1 -0.21,-0.21"
             id="path205"
             style="fill:#222630" />
          <path
             class="cls-22"
             d="m 27.2,23.6 v -0.48 a 0.12,0.12 0 0 0 -0.11,-0.13 h -0.44 a 0.13,0.13 0 0 0 -0.12,0.12 h -1.17 v 0.49 h 1.17 a 0.13,0.13 0 0 0 0.08,0.16 h 0.47 a 0.12,0.12 0 0 0 0.12,-0.12 v 0"
             id="path206"
             style="fill:#ebf4fb" />
          <path
             class="cls-25"
             d="m 25,23.54 v -0.63 a 0.11,0.11 0 0 1 0.08,-0.14 h 0.3 a 0.11,0.11 0 0 1 0.11,0.11 v 0 0.63 a 0.1,0.1 0 0 1 -0.1,0.1 h -0.31 a 0.1,0.1 0 0 1 -0.11,-0.09 v 0"
             id="path207"
             style="fill:#be8e3e" />
          <path
             class="cls-22"
             d="m 20.1,23.6 v -0.48 a 0.13,0.13 0 0 1 0.13,-0.13 h 0.42 a 0.12,0.12 0 0 1 0.12,0.12 h 1.13 v 0.49 h -1.13 a 0.12,0.12 0 0 1 -0.06,0.16 H 20.23 A 0.13,0.13 0 0 1 20.1,23.63 v 0"
             id="path208"
             style="fill:#ebf4fb" />
          <path
             class="cls-25"
             d="M 22.36,23.54 V 22.91 A 0.1,0.1 0 0 0 22.26,22.8 H 22 a 0.09,0.09 0 0 0 -0.1,0.1 v 0 0.63 a 0.09,0.09 0 0 0 0.08,0.1 h 0.29 a 0.1,0.1 0 0 0 0.1,-0.1"
             id="path209"
             style="fill:#be8e3e" />
          <path
             class="cls-22"
             d="m 27.2,24.77 v -0.49 a 0.12,0.12 0 0 0 -0.11,-0.13 h -0.44 a 0.12,0.12 0 0 0 -0.12,0.13 h -1.17 v 0.49 h 1.17 a 0.14,0.14 0 0 0 0.12,0.12 h 0.43 a 0.12,0.12 0 0 0 0.12,-0.12"
             id="path210"
             style="fill:#ebf4fb" />
          <path
             class="cls-25"
             d="m 25,24.7 v -0.63 a 0.09,0.09 0 0 1 0.1,-0.1 h 0.28 a 0.1,0.1 0 0 1 0.11,0.09 v 0 0.63 a 0.09,0.09 0 0 1 -0.11,0.07 h -0.3 a 0.1,0.1 0 0 1 -0.11,-0.09 v 0"
             id="path211"
             style="fill:#be8e3e" />
          <path
             class="cls-22"
             d="m 20.1,24.77 v -0.49 a 0.13,0.13 0 0 1 0.13,-0.13 h 0.42 a 0.12,0.12 0 0 1 0.12,0.12 h 1.13 v 0.49 h -1.13 a 0.12,0.12 0 0 1 -0.12,0.12 H 20.23 A 0.13,0.13 0 0 1 20.1,24.76"
             id="path212"
             style="fill:#ebf4fb" />
          <path
             class="cls-25"
             d="m 22.36,24.7 v -0.63 a 0.09,0.09 0 0 0 -0.1,-0.1 H 22 a 0.09,0.09 0 0 0 -0.1,0.08 v 0.65 a 0.09,0.09 0 0 0 0.08,0.1 h 0.29 a 0.1,0.1 0 0 0 0.1,-0.1 v 0"
             id="path213"
             style="fill:#be8e3e" />
          <path
             class="cls-22"
             d="M 27.2,26 V 25.52 A 0.12,0.12 0 0 0 27.08,25.4 h -0.43 a 0.12,0.12 0 0 0 -0.12,0.12 H 25.36 V 26 h 1.17 a 0.14,0.14 0 0 0 0.12,0.12 h 0.43 A 0.12,0.12 0 0 0 27.2,26 v 0"
             id="path214"
             style="fill:#ebf4fb" />
          <path
             class="cls-25"
             d="M 25,25.93 V 25.3 a 0.09,0.09 0 0 1 0.1,-0.1 h 0.28 a 0.1,0.1 0 0 1 0.11,0.09 v 0 0.63 a 0.1,0.1 0 0 1 -0.1,0.1 h -0.31 a 0.1,0.1 0 0 1 -0.11,-0.09 v 0"
             id="path215"
             style="fill:#be8e3e" />
          <path
             class="cls-22"
             d="m 20.1,26 v -0.48 a 0.12,0.12 0 0 1 0.12,-0.12 h 0.43 a 0.12,0.12 0 0 1 0.12,0.12 H 21.9 V 26 h -1.13 a 0.12,0.12 0 0 1 -0.12,0.12 H 20.23 A 0.13,0.13 0 0 1 20.1,26 v 0"
             id="path216"
             style="fill:#ebf4fb" />
          <path
             class="cls-25"
             d="M 22.36,25.93 V 25.3 a 0.09,0.09 0 0 0 -0.1,-0.1 H 22 a 0.09,0.09 0 0 0 -0.1,0.08 v 0.65 a 0.09,0.09 0 0 0 0.08,0.1 h 0.29 a 0.1,0.1 0 0 0 0.1,-0.1 v 0"
             id="path217"
             style="fill:#be8e3e" />
          <path
             class="cls-22"
             d="m 27.2,27.19 v -0.42 a 0.12,0.12 0 0 0 -0.11,-0.13 h -0.44 a 0.12,0.12 0 0 0 -0.12,0.12 h -1.17 v 0.49 h 1.17 a 0.12,0.12 0 0 0 0.12,0.12 h 0.43 a 0.12,0.12 0 0 0 0.12,-0.12 v 0"
             id="path218"
             style="fill:#ebf4fb" />
          <path
             class="cls-25"
             d="M 25,27.14 V 26.5 a 0.11,0.11 0 0 1 0.11,-0.1 h 0.27 a 0.11,0.11 0 0 1 0.11,0.1 v 0.64 a 0.11,0.11 0 0 1 -0.11,0.1 h -0.3 a 0.11,0.11 0 0 1 -0.11,-0.1"
             id="path219"
             style="fill:#be8e3e" />
          <path
             class="cls-22"
             d="m 20.1,27.19 v -0.42 a 0.13,0.13 0 0 1 0.13,-0.13 h 0.42 a 0.12,0.12 0 0 1 0.12,0.12 h 1.13 v 0.49 h -1.13 a 0.12,0.12 0 0 1 -0.12,0.12 H 20.23 A 0.13,0.13 0 0 1 20.1,27.24 v 0"
             id="path220"
             style="fill:#ebf4fb" />
          <path
             class="cls-25"
             d="M 22.36,27.14 V 26.5 a 0.11,0.11 0 0 0 -0.1,-0.1 H 22 a 0.09,0.09 0 0 0 -0.1,0.1 v 0 0.64 a 0.1,0.1 0 0 0 0.1,0.1 h 0.27 a 0.11,0.11 0 0 0 0.1,-0.1"
             id="path221"
             style="fill:#be8e3e" />
          <path
             class="cls-22"
             d="m 27.2,28.37 v -0.48 a 0.12,0.12 0 0 0 -0.11,-0.13 h -0.44 a 0.12,0.12 0 0 0 -0.12,0.12 h -1.17 v 0.49 h 1.17 a 0.12,0.12 0 0 0 0.12,0.12 h 0.43 a 0.12,0.12 0 0 0 0.12,-0.12"
             id="path222"
             style="fill:#ebf4fb" />
          <path
             class="cls-25"
             d="m 25,28.31 v -0.64 a 0.11,0.11 0 0 1 0.11,-0.1 h 0.27 a 0.11,0.11 0 0 1 0.11,0.1 v 0.64 a 0.11,0.11 0 0 1 -0.11,0.1 h -0.3 a 0.11,0.11 0 0 1 -0.11,-0.1"
             id="path223"
             style="fill:#be8e3e" />
          <path
             class="cls-22"
             d="m 20.1,28.37 v -0.48 a 0.13,0.13 0 0 1 0.13,-0.12 h 0.42 a 0.12,0.12 0 0 1 0.12,0.12 h 1.13 v 0.49 H 20.77 A 0.12,0.12 0 0 1 20.65,28.5 H 20.23 A 0.12,0.12 0 0 1 20.1,28.39 v 0"
             id="path224"
             style="fill:#ebf4fb" />
          <path
             class="cls-25"
             d="m 22.36,28.31 v -0.64 a 0.11,0.11 0 0 0 -0.1,-0.1 H 22 a 0.09,0.09 0 0 0 -0.1,0.1 v 0 0.64 a 0.1,0.1 0 0 0 0.1,0.1 h 0.27 a 0.11,0.11 0 0 0 0.1,-0.1"
             id="path225"
             style="fill:#be8e3e" />
          <path
             class="cls-22"
             d="m 27.2,29.53 v -0.48 a 0.12,0.12 0 0 0 -0.11,-0.13 h -0.44 a 0.13,0.13 0 0 0 -0.12,0.12 h -1.17 v 0.49 h 1.17 a 0.13,0.13 0 0 0 0.12,0.13 h 0.43 a 0.12,0.12 0 0 0 0.12,-0.12 v 0"
             id="path226"
             style="fill:#ebf4fb" />
          <path
             class="cls-25"
             d="m 25,29.47 v -0.63 a 0.11,0.11 0 0 1 0.11,-0.07 h 0.27 a 0.11,0.11 0 0 1 0.11,0.11 v 0.63 a 0.1,0.1 0 0 1 -0.1,0.1 h -0.31 a 0.1,0.1 0 0 1 -0.11,-0.09 v 0"
             id="path227"
             style="fill:#be8e3e" />
          <path
             class="cls-22"
             d="m 20.1,29.53 v -0.48 a 0.13,0.13 0 0 1 0.13,-0.13 h 0.42 a 0.12,0.12 0 0 1 0.12,0.12 h 1.13 v 0.49 h -1.13 a 0.12,0.12 0 0 1 -0.11,0.13 H 20.23 A 0.13,0.13 0 0 1 20.1,29.53 v 0"
             id="path228"
             style="fill:#ebf4fb" />
          <path
             class="cls-25"
             d="m 22.36,29.47 v -0.63 a 0.1,0.1 0 0 0 -0.1,-0.11 H 22 a 0.09,0.09 0 0 0 -0.1,0.1 v 0 0.63 a 0.09,0.09 0 0 0 0.08,0.1 h 0.29 a 0.1,0.1 0 0 0 0.1,-0.1 v 0"
             id="path229"
             style="fill:#be8e3e" />
          <path
             class="cls-22"
             d="M 27.2,30.7 V 30.23 A 0.12,0.12 0 0 0 27.09,30.1 h -0.44 a 0.12,0.12 0 0 0 -0.12,0.12 h -1.17 v 0.49 h 1.17 a 0.12,0.12 0 0 0 0.12,0.12 h 0.43 a 0.12,0.12 0 0 0 0.12,-0.12 v 0"
             id="path230"
             style="fill:#ebf4fb" />
          <path
             class="cls-25"
             d="M 25,30.64 V 30 a 0.09,0.09 0 0 1 0.1,-0.1 h 0.28 a 0.1,0.1 0 0 1 0.11,0.09 v 0 0.63 a 0.11,0.11 0 0 1 -0.09,0.13 h -0.32 a 0.11,0.11 0 0 1 -0.11,-0.11"
             id="path231"
             style="fill:#be8e3e" />
          <path
             class="cls-22"
             d="m 20.1,30.7 v -0.47 a 0.13,0.13 0 0 1 0.13,-0.13 h 0.42 a 0.12,0.12 0 0 1 0.12,0.12 h 1.13 v 0.49 h -1.13 a 0.12,0.12 0 0 1 -0.12,0.12 H 20.23 A 0.13,0.13 0 0 1 20.1,30.7 v 0"
             id="path232"
             style="fill:#ebf4fb" />
          <path
             class="cls-25"
             d="M 22.36,30.64 V 30 a 0.09,0.09 0 0 0 -0.1,-0.1 H 22 a 0.09,0.09 0 0 0 -0.1,0.08 v 0.65 a 0.1,0.1 0 0 0 0.09,0.11 h 0.28 a 0.11,0.11 0 0 0 0.1,-0.11"
             id="path233"
             style="fill:#be8e3e" />
          <path
             class="cls-22"
             d="m 27.2,31.89 v -0.47 a 0.12,0.12 0 0 0 -0.11,-0.13 h -0.44 a 0.12,0.12 0 0 0 -0.12,0.12 h -1.17 v 0.49 h 1.17 a 0.12,0.12 0 0 0 0.12,0.12 h 0.43 A 0.12,0.12 0 0 0 27.2,31.9 v 0"
             id="path234"
             style="fill:#ebf4fb" />
          <path
             class="cls-25"
             d="M 25,31.83 V 31.2 a 0.09,0.09 0 0 1 0.1,-0.1 h 0.28 a 0.1,0.1 0 0 1 0.11,0.09 v 0 0.63 a 0.11,0.11 0 0 1 -0.11,0.11 h -0.3 a 0.11,0.11 0 0 1 -0.11,-0.11 v 0"
             id="path235"
             style="fill:#be8e3e" />
          <path
             class="cls-22"
             d="m 20.1,31.89 v -0.47 a 0.12,0.12 0 0 1 0.11,-0.13 h 0.44 a 0.12,0.12 0 0 1 0.12,0.12 h 1.13 v 0.49 h -1.13 a 0.12,0.12 0 0 1 -0.12,0.12 H 20.23 A 0.13,0.13 0 0 1 20.1,31.89"
             id="path236"
             style="fill:#ebf4fb" />
          <path
             class="cls-25"
             d="M 22.36,31.83 V 31.2 a 0.09,0.09 0 0 0 -0.1,-0.1 H 22 a 0.09,0.09 0 0 0 -0.1,0.08 v 0.65 a 0.1,0.1 0 0 0 0.09,0.11 h 0.28 a 0.11,0.11 0 0 0 0.1,-0.11"
             id="path237"
             style="fill:#be8e3e" />
          <path
             class="cls-22"
             d="M 27.2,33.08 V 32.6 a 0.12,0.12 0 0 0 -0.12,-0.12 h -0.43 a 0.12,0.12 0 0 0 -0.12,0.12 h -1.17 v 0.49 h 1.17 a 0.12,0.12 0 0 0 0.12,0.12 h 0.43 a 0.12,0.12 0 0 0 0.12,-0.12 v 0"
             id="path238"
             style="fill:#ebf4fb" />
          <path
             class="cls-25"
             d="m 25,33 v -0.63 a 0.09,0.09 0 0 1 0.1,-0.1 h 0.28 a 0.1,0.1 0 0 1 0.11,0.09 v 0 0.64 a 0.11,0.11 0 0 1 -0.11,0.11 h -0.3 A 0.11,0.11 0 0 1 25,33 v 0"
             id="path239"
             style="fill:#be8e3e" />
          <path
             class="cls-22"
             d="M 20.1,33.08 V 32.6 a 0.12,0.12 0 0 1 0.12,-0.12 h 0.43 a 0.12,0.12 0 0 1 0.12,0.12 h 1.13 v 0.49 h -1.13 a 0.12,0.12 0 0 1 -0.12,0.12 H 20.23 A 0.13,0.13 0 0 1 20.1,33.08"
             id="path240"
             style="fill:#ebf4fb" />
          <path
             class="cls-25"
             d="m 22.36,33 v -0.63 a 0.09,0.09 0 0 0 -0.1,-0.1 H 22 a 0.09,0.09 0 0 0 -0.1,0.08 V 33 a 0.1,0.1 0 0 0 0.09,0.11 h 0.28 A 0.11,0.11 0 0 0 22.37,33"
             id="path241"
             style="fill:#be8e3e" />
          <path
             class="cls-22"
             d="m 27.2,34.26 v -0.49 a 0.12,0.12 0 0 0 -0.11,-0.13 h -0.44 a 0.13,0.13 0 0 0 -0.12,0.12 h -1.17 v 0.49 h 1.17 a 0.13,0.13 0 0 0 0.12,0.13 h 0.43 a 0.12,0.12 0 0 0 0.12,-0.12 v 0"
             id="path242"
             style="fill:#ebf4fb" />
          <path
             class="cls-25"
             d="m 25,34.2 v -0.63 a 0.11,0.11 0 0 1 0.11,-0.11 h 0.27 a 0.11,0.11 0 0 1 0.11,0.11 v 0 0.63 a 0.1,0.1 0 0 1 -0.1,0.1 h -0.31 a 0.1,0.1 0 0 1 -0.11,-0.09 v 0"
             id="path243"
             style="fill:#be8e3e" />
          <path
             class="cls-22"
             d="m 20.1,34.26 v -0.49 a 0.13,0.13 0 0 1 0.13,-0.13 h 0.42 a 0.12,0.12 0 0 1 0.12,0.12 h 1.13 v 0.49 h -1.13 a 0.12,0.12 0 0 1 -0.11,0.13 H 20.23 A 0.13,0.13 0 0 1 20.1,34.25"
             id="path244"
             style="fill:#ebf4fb" />
          <path
             class="cls-25"
             d="m 22.36,34.2 v -0.63 a 0.1,0.1 0 0 0 -0.1,-0.11 H 22 a 0.09,0.09 0 0 0 -0.1,0.1 v 0 0.63 a 0.09,0.09 0 0 0 0.08,0.1 h 0.29 a 0.1,0.1 0 0 0 0.1,-0.1 v 0"
             id="path245"
             style="fill:#be8e3e" />
          <path
             class="cls-22"
             d="M 27.2,35.47 V 35 a 0.12,0.12 0 0 0 -0.11,-0.13 h -0.44 a 0.12,0.12 0 0 0 -0.12,0.12 h -1.17 v 0.49 h 1.17 a 0.12,0.12 0 0 0 0.12,0.12 h 0.43 a 0.12,0.12 0 0 0 0.12,-0.12 v 0"
             id="path246"
             style="fill:#ebf4fb" />
          <path
             class="cls-25"
             d="m 25,35.42 v -0.65 a 0.11,0.11 0 0 1 0.11,-0.1 h 0.27 a 0.11,0.11 0 0 1 0.11,0.1 v 0.64 a 0.11,0.11 0 0 1 -0.11,0.1 h -0.3 a 0.11,0.11 0 0 1 -0.11,-0.1"
             id="path247"
             style="fill:#be8e3e" />
          <path
             class="cls-22"
             d="M 20.1,35.47 V 35 a 0.13,0.13 0 0 1 0.13,-0.13 h 0.42 a 0.12,0.12 0 0 1 0.12,0.12 h 1.13 v 0.49 H 20.77 A 0.12,0.12 0 0 1 20.65,35.6 H 20.23 A 0.12,0.12 0 0 1 20.1,35.49 v 0"
             id="path248"
             style="fill:#ebf4fb" />
          <path
             class="cls-25"
             d="m 22.36,35.42 v -0.65 a 0.11,0.11 0 0 0 -0.1,-0.1 H 22 a 0.09,0.09 0 0 0 -0.1,0.1 v 0 0.64 a 0.1,0.1 0 0 0 0.1,0.1 h 0.27 a 0.11,0.11 0 0 0 0.1,-0.1"
             id="path249"
             style="fill:#be8e3e" />
          <path
             class="cls-22"
             d="m 27.2,36.66 v -0.47 a 0.12,0.12 0 0 0 -0.11,-0.13 h -0.44 a 0.12,0.12 0 0 0 -0.12,0.12 h -1.17 v 0.49 h 1.17 a 0.12,0.12 0 0 0 0.12,0.1 h 0.43 a 0.12,0.12 0 0 0 0.12,-0.12 v 0"
             id="path250"
             style="fill:#ebf4fb" />
          <path
             class="cls-25"
             d="M 25,36.61 V 36 a 0.11,0.11 0 0 1 0.11,-0.1 h 0.27 a 0.11,0.11 0 0 1 0.11,0.1 v 0.64 a 0.11,0.11 0 0 1 -0.11,0.1 h -0.3 a 0.11,0.11 0 0 1 -0.11,-0.1"
             id="path251"
             style="fill:#be8e3e" />
          <path
             class="cls-22"
             d="m 20.1,36.66 v -0.47 a 0.13,0.13 0 0 1 0.13,-0.13 h 0.42 a 0.12,0.12 0 0 1 0.12,0.12 h 1.13 v 0.49 h -1.13 a 0.12,0.12 0 0 1 -0.12,0.12 H 20.23 A 0.12,0.12 0 0 1 20.1,36.68 v 0"
             id="path252"
             style="fill:#ebf4fb" />
          <path
             class="cls-25"
             d="M 22.36,36.61 V 36 a 0.11,0.11 0 0 0 -0.1,-0.1 H 22 A 0.09,0.09 0 0 0 21.9,36 v 0 0.64 a 0.1,0.1 0 0 0 0.1,0.1 h 0.27 a 0.11,0.11 0 0 0 0.1,-0.1"
             id="path253"
             style="fill:#be8e3e" />
          <path
             class="cls-25"
             d="m 25.24,20.43 c 0.14,0 0.26,0.2 0.26,0.44 0,0.24 -0.12,0.44 -0.26,0.44 -0.14,0 -0.26,-0.2 -0.26,-0.44 0,-0.24 0.12,-0.44 0.26,-0.44"
             id="path254"
             style="fill:#be8e3e" />
          <path
             class="cls-25"
             d="m 22.1,20.43 c 0.15,0 0.26,0.2 0.26,0.44 0,0.24 -0.11,0.44 -0.26,0.44 -0.15,0 -0.25,-0.2 -0.25,-0.44 0,-0.24 0.11,-0.44 0.25,-0.44"
             id="path255"
             style="fill:#be8e3e" />
          <path
             class="cls-25"
             d="m 25.24,38.19 c 0.14,0 0.26,0.19 0.26,0.44 0,0.25 -0.12,0.43 -0.26,0.43 -0.14,0 -0.26,-0.19 -0.26,-0.43 0,-0.24 0.12,-0.44 0.26,-0.44"
             id="path256"
             style="fill:#be8e3e" />
          <path
             class="cls-25"
             d="m 22.1,38.19 c 0.15,0 0.26,0.19 0.26,0.44 0,0.25 -0.11,0.43 -0.26,0.43 -0.15,0 -0.25,-0.19 -0.25,-0.43 0,-0.24 0.11,-0.44 0.25,-0.44"
             id="path257"
             style="fill:#be8e3e" />
        </g>
      </g>
    </g>
  </g>
</svg>
