<?xml version="1.0" encoding="UTF-8" standalone="no"?>
<svg
   id="_9012"
   viewBox="0 0 620 870"
   version="1.1"
   sodipodi:docname="RAK19012_Top.svg"
   width="620"
   height="870"
   inkscape:version="1.4.2 (f4327f4, 2025-05-13)"
   xmlns:inkscape="http://www.inkscape.org/namespaces/inkscape"
   xmlns:sodipodi="http://sodipodi.sourceforge.net/DTD/sodipodi-0.dtd"
   xmlns="http://www.w3.org/2000/svg"
   xmlns:svg="http://www.w3.org/2000/svg">
  <sodipodi:namedview
     id="namedview258"
     pagecolor="#505050"
     bordercolor="#eeeeee"
     borderopacity="1"
     inkscape:showpageshadow="0"
     inkscape:pageopacity="0"
     inkscape:pagecheckerboard="0"
     inkscape:deskcolor="#505050"
     inkscape:zoom="0.82519361"
     inkscape:cx="305.38288"
     inkscape:cy="505.94187"
     inkscape:window-width="3440"
     inkscape:window-height="1369"
     inkscape:window-x="-8"
     inkscape:window-y="-8"
     inkscape:window-maximized="1"
     inkscape:current-layer="_9012" />
  <defs
     id="defs1">
    <style
       id="style1">.cls-1{fill:#6f7985;}.cls-2,.cls-3{fill:#fff;}.cls-4{fill:#e9d197;}.cls-5{fill:#e4e9ad;}.cls-6{fill:#343235;}.cls-7{fill:#dbdbdb;}.cls-8{fill:#ca9a2c;}.cls-9{fill:#b6c2cc;}.cls-10{fill:#323134;}.cls-11{fill:#fed10d;}.cls-12{fill:#deaa53;}.cls-13{stroke-width:.83px;}.cls-13,.cls-14,.cls-15,.cls-16,.cls-17{stroke:#fff;stroke-linecap:round;stroke-linejoin:round;}.cls-13,.cls-14,.cls-15,.cls-16,.cls-17,.cls-18{fill:none;}.cls-19{fill:#f3e2c1;}.cls-20{fill:#131313;}.cls-21{fill:#f4ede6;}.cls-22{fill:#0a0a0a;}.cls-23{fill:#e0e0e0;}.cls-24{fill:#ccd3cf;}.cls-3{font-family:NHaasGroteskDSPro-75Bd, 'Neue Haas Grotesk Display Pro';font-size:31.05px;}.cls-25{fill:#f7f1e5;}.cls-26{fill:#a5a8a6;}.cls-27{fill:#feec4e;}.cls-28{fill:#a3988f;}.cls-29{fill:#dcd1a2;}.cls-30{fill:#eaeaea;}.cls-31{fill:#a4a9b8;}.cls-32{fill:#cecbc2;}.cls-14{stroke-width:.62px;}.cls-15{stroke-width:1.05px;}.cls-33{fill:#292929;}.cls-34{fill:#ed1c24;}.cls-35{fill:#78695e;}.cls-36{fill:#bcc1d2;}.cls-16{stroke-width:1.01px;}.cls-37{fill:#e2b12d;}.cls-17{stroke-width:.5px;}.cls-38{fill:#ba8436;}.cls-39{fill:#baaea6;}.cls-40{fill:#eeefeb;}.cls-41{fill:#a09c9f;}.cls-42{fill:#fffefe;}.cls-18{stroke:#ed1c24;stroke-miterlimit:10;stroke-width:2px;}.cls-43{fill:#9b8e83;}.cls-44{fill:#f2f2f2;}</style>
  </defs>
  <g
     id="g216"
     transform="translate(-361.61097,-63.410454)">
    <g
       id="g5">
      <path
         class="cls-33"
         d="M 700.41,73.97 H 429.02 c -15.18,0 -27.49,12.31 -27.49,27.49 v 478.29 c 0.08,1.19 0.78,3.95 5.26,5.57 0,0 19.17,8.67 19.17,23.84 v 53.14 c 0,0 -0.73,15.09 -14.94,18.66 0,0 -8.92,1.53 -9.49,13.05 v 201.95 c 0,15.18 12.31,27.49 27.49,27.49 h 271.39 c 15.18,0 27.49,-12.31 27.49,-27.49 V 766.15 c 0,-15.18 12.31,-27.49 27.49,-27.49 h 186.52 c 15.18,0 27.49,-12.31 27.49,-27.49 V 286.24 c 0,-15.18 -12.31,-27.49 -27.49,-27.49 H 755.39 c -15.18,0 -27.49,-12.31 -27.49,-27.49 v -129.8 c 0,-15.18 -12.31,-27.49 -27.49,-27.49 z m 41.85,603.26 c 12.3,0 22.28,9.97 22.28,22.28 0,12.3 -9.97,22.28 -22.28,22.28 -12.3,0 -22.28,-9.97 -22.28,-22.28 0,-12.3 9.97,-22.28 22.28,-22.28 z m 170.44,0 c 12.3,0 22.28,9.97 22.28,22.28 0,12.3 -9.97,22.28 -22.28,22.28 -12.3,0 -22.28,-9.97 -22.28,-22.28 0,-12.3 9.97,-22.28 22.28,-22.28 z M 742.26,278.45 c 12.3,0 22.28,9.97 22.28,22.28 0,12.3 -9.97,22.28 -22.28,22.28 -12.31,0 -22.28,-9.97 -22.28,-22.28 0,-12.3 9.97,-22.28 22.28,-22.28 z m 170.44,0 c 12.3,0 22.28,9.97 22.28,22.28 0,12.31 -9.97,22.28 -22.28,22.28 -12.3,0 -22.28,-9.97 -22.28,-22.28 0,-12.3 9.97,-22.28 22.28,-22.28 z"
         id="path1" />
      <path
         class="cls-12"
         d="m 912.7,662.27 c -20.57,0 -37.24,16.67 -37.24,37.24 0,20.57 16.67,37.24 37.24,37.24 20.57,0 37.24,-16.67 37.24,-37.24 0,-20.57 -16.67,-37.24 -37.24,-37.24 z m 0,14.96 c 12.3,0 22.28,9.97 22.28,22.28 0,12.3 -9.97,22.28 -22.28,22.28 -12.3,0 -22.28,-9.97 -22.28,-22.28 0,-12.3 9.97,-22.28 22.28,-22.28 z"
         id="path2" />
      <path
         class="cls-12"
         d="m 912.7,263.68 c -20.46,0 -37.05,16.59 -37.05,37.05 0,20.46 16.59,37.05 37.05,37.05 20.46,0 37.05,-16.59 37.05,-37.05 0,-20.46 -16.59,-37.05 -37.05,-37.05 z m 0,14.77 c 12.3,0 22.28,9.97 22.28,22.28 0,12.31 -9.97,22.28 -22.28,22.28 -12.3,0 -22.28,-9.97 -22.28,-22.28 0,-12.3 9.97,-22.28 22.28,-22.28 z"
         id="path3" />
      <path
         class="cls-12"
         d="m 742.26,662.58 c -20.39,0 -36.93,16.53 -36.93,36.93 0,20.39 16.53,36.93 36.93,36.93 20.39,0 36.93,-16.53 36.93,-36.93 0,-20.39 -16.53,-36.93 -36.93,-36.93 z m 0,14.65 c 12.3,0 22.28,9.97 22.28,22.28 0,12.3 -9.97,22.28 -22.28,22.28 -12.3,0 -22.28,-9.97 -22.28,-22.28 0,-12.31 9.97,-22.28 22.28,-22.28 z"
         id="path4" />
      <path
         class="cls-12"
         d="m 742.26,263.99 c -20.29,0 -36.73,16.45 -36.73,36.73 0,20.29 16.45,36.73 36.73,36.73 20.29,0 36.73,-16.45 36.73,-36.73 0,-20.29 -16.45,-36.73 -36.73,-36.73 z m 0,14.46 c 12.3,0 22.28,9.97 22.28,22.28 0,12.3 -9.97,22.28 -22.28,22.28 -12.3,0 -22.28,-9.97 -22.28,-22.28 0,-12.3 9.97,-22.28 22.28,-22.28 z"
         id="path5" />
    </g>
    <g
       id="g53">
      <rect
         class="cls-17"
         x="430.85999"
         y="113.86"
         width="56.93"
         height="32.529999"
         rx="0.89999998"
         ry="0.89999998"
         transform="rotate(90,459.315,130.125)"
         id="rect5" />
      <rect
         class="cls-17"
         x="477.13"
         y="178.05"
         width="56.93"
         height="32.529999"
         rx="0.89999998"
         ry="0.89999998"
         transform="rotate(90,505.595,194.315)"
         id="rect6" />
      <rect
         class="cls-17"
         x="628.53998"
         y="287.54999"
         width="56.93"
         height="32.529999"
         rx="0.89999998"
         ry="0.89999998"
         transform="rotate(180,657,303.815)"
         id="rect7" />
      <rect
         class="cls-17"
         x="569.69"
         y="557.27002"
         width="54.200001"
         height="29.24"
         rx="0.83999997"
         ry="0.83999997"
         transform="rotate(180,596.79,571.89)"
         id="rect8" />
      <rect
         class="cls-17"
         x="793.65997"
         y="371.44"
         width="55.23"
         height="28.92"
         rx="0.51999998"
         ry="0.51999998"
         transform="rotate(90,821.275,385.895)"
         id="rect9" />
      <rect
         class="cls-17"
         x="879.12"
         y="363.63"
         width="55.23"
         height="28.92"
         rx="0.51999998"
         ry="0.51999998"
         transform="rotate(90,906.73,378.09)"
         id="rect10" />
      <rect
         class="cls-17"
         x="890.41998"
         y="445.87"
         width="55.23"
         height="28.92"
         rx="0.51999998"
         ry="0.51999998"
         id="rect11" />
      <rect
         class="cls-17"
         x="868.27002"
         y="474.79001"
         width="81.480003"
         height="37.369999"
         rx="0.72000003"
         ry="0.72000003"
         id="rect12" />
      <rect
         class="cls-17"
         x="805.34003"
         y="434.56"
         width="55.23"
         height="28.92"
         rx="0.51999998"
         ry="0.51999998"
         transform="rotate(90,832.96,449.02)"
         id="rect13" />
      <rect
         class="cls-17"
         x="735.07001"
         y="358.28"
         width="55.23"
         height="55.23"
         rx="0.72000003"
         ry="0.72000003"
         transform="rotate(90,762.68,385.9)"
         id="rect14" />
      <path
         class="cls-17"
         d="m 823.53,476.63 h -33.86 c -1.65,0 -2.99,-1.34 -2.99,-2.99 v -50.79 h 26.58"
         id="path14" />
      <rect
         class="cls-17"
         x="799.52002"
         y="463.79999"
         width="33.200001"
         height="58.860001"
         rx="0.41999999"
         ry="0.41999999"
         transform="rotate(90,816.12,493.23)"
         id="rect15" />
      <polyline
         class="cls-17"
         points="786.69 505.2 735.07 505.2 735.07 400.57"
         id="polyline15" />
      <path
         class="cls-17"
         d="M 648.82,595.8 V 488.92 h 86.25 v 104.15 c 0,0 1.13,10.55 -10.55,10.55"
         id="path15" />
      <polyline
         class="cls-17"
         points="651.4 603.61 704.07 603.61 704.07 632.46 651.4 632.46"
         id="polyline16" />
      <rect
         class="cls-17"
         x="718.03998"
         y="589.63"
         width="28.85"
         height="56.810001"
         rx="0.58999997"
         ry="0.58999997"
         transform="rotate(90,732.475,618.035)"
         id="rect16" />
      <rect
         class="cls-17"
         x="775.87"
         y="589.63"
         width="28.85"
         height="56.810001"
         rx="0.58999997"
         ry="0.58999997"
         transform="rotate(90,790.295,618.035)"
         id="rect17" />
      <rect
         class="cls-17"
         x="893.04999"
         y="545.39001"
         width="28.85"
         height="53.25"
         rx="0.56999999"
         ry="0.56999999"
         id="rect18" />
      <line
         class="cls-17"
         x1="864.65002"
         y1="598.64001"
         x2="781"
         y2="598.64001"
         id="line18" />
      <line
         class="cls-17"
         x1="869.42999"
         y1="509.82999"
         x2="840.12"
         y2="509.82999"
         id="line19" />
      <line
         class="cls-17"
         x1="628.54999"
         y1="593.06"
         x2="546.06"
         y2="593.06"
         id="line20" />
      <rect
         class="cls-17"
         x="576.16998"
         y="614.28998"
         width="49.959999"
         height="128.38"
         rx="0.54000002"
         ry="0.54000002"
         transform="rotate(90,601.15,678.48)"
         id="rect20" />
      <rect
         class="cls-2"
         x="650.52002"
         y="670.26001"
         width="54.459999"
         height="15.42"
         rx="0.34999999"
         ry="0.34999999"
         transform="rotate(90,677.75,677.97)"
         id="rect21" />
      <line
         class="cls-13"
         x1="718.78998"
         y1="825.83002"
         x2="685.46002"
         y2="825.83002"
         id="line21" />
      <line
         class="cls-13"
         x1="718.78998"
         y1="879.78998"
         x2="685.46002"
         y2="879.78998"
         id="line22" />
      <line
         class="cls-16"
         x1="505.60001"
         y1="98.169998"
         x2="554.22998"
         y2="98.169998"
         id="line23" />
      <line
         class="cls-16"
         x1="411.82001"
         y1="96.190002"
         x2="439.60999"
         y2="96.190002"
         id="line24" />
      <line
         class="cls-13"
         x1="648.82001"
         y1="715.46002"
         x2="569.69"
         y2="715.46002"
         id="line25" />
      <line
         class="cls-13"
         x1="702.13"
         y1="842.5"
         x2="702.13"
         y2="809.16998"
         id="line26" />
      <line
         class="cls-15"
         x1="550.94"
         y1="238.59"
         x2="508.89001"
         y2="238.59"
         id="line27" />
      <line
         class="cls-15"
         x1="529.91998"
         y1="259.62"
         x2="529.91998"
         y2="217.56"
         id="line28" />
      <line
         class="cls-14"
         x1="536.96002"
         y1="741.13"
         x2="512.08002"
         y2="741.13"
         id="line29" />
      <line
         class="cls-14"
         x1="524.52002"
         y1="753.57001"
         x2="524.52002"
         y2="728.67999"
         id="line30" />
      <line
         class="cls-14"
         x1="516.29999"
         y1="618.03998"
         x2="491.41"
         y2="618.03998"
         id="line31" />
      <line
         class="cls-14"
         x1="503.85001"
         y1="630.47998"
         x2="503.85001"
         y2="605.59003"
         id="line32" />
      <rect
         class="cls-17"
         x="557.42999"
         y="793.83002"
         width="129.59"
         height="111.01"
         rx="1.01"
         ry="1.01"
         transform="rotate(90,622.225,849.335)"
         id="rect32" />
      <rect
         class="cls-17"
         x="544.62"
         y="91.57"
         width="169.28"
         height="145.74001"
         rx="1.3200001"
         ry="1.3200001"
         transform="rotate(90,629.26,164.44)"
         id="rect33" />
      <path
         class="cls-2"
         d="m 541.54,851.52 c 0,2.39 1.64,0.47 2.26,-0.2 l 16.68,-17.81 c 0.75,-0.8 0.75,-2.09 0,-2.89 L 543.8,812.81 c -0.62,-0.67 -2.26,-2.12 -2.26,-0.2 z"
         id="path33" />
      <path
         class="cls-2"
         d="m 527.08,154 c 0,2.39 1.64,0.47 2.26,-0.2 l 16.68,-17.81 c 0.75,-0.8 0.75,-2.09 0,-2.89 l -16.68,-17.81 c -0.62,-0.67 -2.26,-2.12 -2.26,-0.2 z"
         id="path34" />
      <line
         class="cls-17"
         x1="728.46002"
         y1="393.64999"
         x2="728.46002"
         y2="439.01001"
         id="line34" />
      <line
         class="cls-17"
         x1="638.42999"
         y1="393.64999"
         x2="638.42999"
         y2="410.31"
         id="line35" />
      <line
         class="cls-17"
         x1="638.42999"
         y1="424.63"
         x2="638.42999"
         y2="441.29001"
         id="line36" />
      <polyline
         class="cls-14"
         points="497.66 560.95 497.66 546.26 414.78 546.26 414.78 571.89"
         id="polyline36" />
      <polyline
         class="cls-14"
         points="497.66 697.65 497.66 712.33 414.78 712.33 414.78 686.71"
         id="polyline37" />
      <line
         class="cls-14"
         x1="444.09"
         y1="730.82001"
         x2="444.09"
         y2="778.59003"
         id="line37" />
      <line
         class="cls-14"
         x1="444.09"
         y1="835.63"
         x2="444.09"
         y2="883.40997"
         id="line38" />
      <rect
         class="cls-2"
         x="422.54001"
         y="800.15002"
         width="8.7600002"
         height="31.76"
         rx="0.16"
         ry="0.16"
         transform="rotate(90,426.92,816.03)"
         id="rect38" />
      <circle
         class="cls-2"
         cx="632.81"
         cy="457.75"
         r="10.14"
         id="circle38" />
      <circle
         class="cls-2"
         cx="721.69"
         cy="480.98001"
         r="6.4899998"
         id="circle39" />
      <circle
         class="cls-2"
         cx="744.53003"
         cy="511.13"
         r="6.0500002"
         id="circle40" />
      <circle
         class="cls-2"
         cx="538.13"
         cy="578.77002"
         r="14.3"
         id="circle41" />
      <line
         class="cls-17"
         x1="698.70001"
         y1="596.32001"
         x2="680.15002"
         y2="596.32001"
         id="line41" />
      <line
         class="cls-17"
         x1="550.94"
         y1="275.63"
         x2="497.66"
         y2="275.63"
         id="line42" />
      <line
         class="cls-17"
         x1="416.98001"
         y1="275.63"
         x2="407.17001"
         y2="275.63"
         id="line43" />
      <line
         class="cls-17"
         x1="608.40997"
         y1="303.82001"
         x2="608.40997"
         y2="319.42999"
         id="line44" />
      <line
         class="cls-17"
         x1="550.94"
         y1="536.71002"
         x2="497.66"
         y2="536.71002"
         id="line45" />
      <line
         class="cls-17"
         x1="416.98001"
         y1="536.71002"
         x2="407.17001"
         y2="536.71002"
         id="line46" />
      <line
         class="cls-17"
         x1="608.40997"
         y1="498.70999"
         x2="608.40997"
         y2="483.10001"
         id="line47" />
      <text
         class="cls-3"
         transform="rotate(-90,567.82,-243.71)"
         id="text47"><tspan
           x="0"
           y="0"
           id="tspan47">M1</tspan></text>
      <text
         class="cls-3"
         transform="rotate(-90,592.7,-268.59)"
         id="text48"><tspan
           x="0"
           y="0"
           id="tspan48">M4</tspan></text>
      <text
         class="cls-3"
         transform="rotate(-90,765.255,-46.275)"
         id="text49"><tspan
           x="0"
           y="0"
           id="tspan49">M2</tspan></text>
      <text
         class="cls-3"
         transform="rotate(-90,790.135,-71.155)"
         id="text50"><tspan
           x="0"
           y="0"
           id="tspan50">M3</tspan></text>
      <path
         class="cls-2"
         d="m 959.1,297.91 c 0,-16.47 -8.64,-30.92 -21.6,-39.16 h -8.45 c 15.31,6.42 26.09,21.55 26.09,39.16 0,23.4 -19.04,42.45 -42.45,42.45 -23.41,0 -42.45,-19.04 -42.45,-42.45 0,-17.61 10.79,-32.74 26.09,-39.16 h -8.45 c -12.96,8.24 -21.6,22.69 -21.6,39.16 0,25.59 20.81,46.41 46.41,46.41 25.6,0 46.41,-20.82 46.41,-46.41 z"
         id="path50" />
      <path
         class="cls-2"
         d="m 788.67,297.91 c 0,-16.47 -8.64,-30.92 -21.6,-39.16 h -8.45 c 15.31,6.42 26.09,21.55 26.09,39.16 0,23.4 -19.04,42.45 -42.45,42.45 -23.41,0 -42.45,-19.04 -42.45,-42.45 0,-23.41 19.04,-42.45 42.45,-42.45 0.21,0 0.41,0.06 0.62,0.06 -1.99,-1.04 -3.83,-2.29 -5.5,-3.76 -23.31,2.45 -41.53,22.2 -41.53,46.15 0,25.59 20.82,46.41 46.41,46.41 25.59,0 46.41,-20.82 46.41,-46.41 z"
         id="path51" />
      <path
         class="cls-2"
         d="m 755.7,738.56 h 6.46 c 15.65,-7.47 26.51,-23.4 26.51,-41.87 0,-25.59 -20.81,-46.41 -46.41,-46.41 -25.6,0 -46.41,20.82 -46.41,46.41 0,25.59 19.98,45.5 44.85,46.33 4.33,-2.8 9.46,-4.47 15,-4.47 z m -55.89,-41.87 c 0,-23.41 19.04,-42.45 42.45,-42.45 23.41,0 42.45,19.04 42.45,42.45 0,23.41 -19.04,42.45 -42.45,42.45 -23.41,0 -42.45,-19.04 -42.45,-42.45 z"
         id="path52" />
      <path
         class="cls-2"
         d="m 907.9,738.66 c -21.12,-2.42 -37.65,-20.2 -37.65,-41.97 0,-23.41 19.04,-42.45 42.45,-42.45 23.41,0 42.45,19.04 42.45,42.45 0,21.76 -16.52,39.55 -37.65,41.97 h 14.89 c 15.76,-7.43 26.72,-23.42 26.72,-41.97 0,-25.59 -20.81,-46.41 -46.41,-46.41 -25.6,0 -46.41,20.82 -46.41,46.41 0,18.55 10.96,34.54 26.72,41.97 z"
         id="path53" />
    </g>
    <g
       id="g56">
      <path
         class="cls-36"
         d="m 897.25,463.97 v -7.28 c 0,-2.51 1.58,-4.55 3.52,-4.55 h 34.52 c 1.95,0 3.52,2.04 3.52,4.55 v 7.28 c 0,2.51 -1.58,4.55 -3.52,4.55 h -34.52 c -1.95,0 -3.52,-2.04 -3.52,-4.55"
         id="path54" />
      <path
         class="cls-31"
         d="m 901.67,464.57 v -8.49 c 0,-2.18 1.37,-3.94 3.05,-3.94 h 25.12 c 1.69,0 3.05,1.76 3.05,3.94 v 8.49 c 0,2.18 -1.37,3.94 -3.05,3.94 h -25.12 c -1.69,0 -3.05,-1.77 -3.05,-3.94"
         id="path55" />
      <path
         class="cls-40"
         d="m 903.78,466.69 v -12.73 c 0,-1.47 0.92,-2.66 2.06,-2.66 h 23.35 c 1.14,0 2.06,1.19 2.06,2.66 v 12.73 c 0,1.47 -0.92,2.66 -2.06,2.66 h -23.35 c -1.14,0 -2.06,-1.19 -2.06,-2.66"
         id="path56" />
      <rect
         class="cls-12"
         x="910.09998"
         y="451.31"
         width="15.8"
         height="18.040001"
         id="rect56" />
    </g>
    <g
       id="g59">
      <path
         class="cls-36"
         d="m 651.82,621.67 v -7.28 c 0,-2.51 1.58,-4.55 3.52,-4.55 h 34.52 c 1.95,0 3.52,2.04 3.52,4.55 v 7.28 c 0,2.51 -1.58,4.55 -3.52,4.55 h -34.52 c -1.95,0 -3.52,-2.04 -3.52,-4.55"
         id="path57" />
      <path
         class="cls-31"
         d="m 656.24,622.28 v -8.49 c 0,-2.18 1.37,-3.94 3.05,-3.94 h 25.12 c 1.69,0 3.05,1.76 3.05,3.94 v 8.49 c 0,2.18 -1.37,3.94 -3.05,3.94 h -25.12 c -1.69,0 -3.05,-1.77 -3.05,-3.94"
         id="path58" />
      <path
         class="cls-40"
         d="m 658.35,624.4 v -12.73 c 0,-1.47 0.92,-2.66 2.06,-2.66 h 23.35 c 1.14,0 2.06,1.19 2.06,2.66 v 12.73 c 0,1.47 -0.92,2.66 -2.06,2.66 h -23.35 c -1.14,0 -2.06,-1.19 -2.06,-2.66"
         id="path59" />
      <rect
         class="cls-12"
         x="664.66998"
         y="609.02002"
         width="15.8"
         height="18.040001"
         id="rect59" />
    </g>
    <g
       id="g62">
      <path
         class="cls-36"
         d="m 576.01,575.53 v -7.28 c 0,-2.51 1.58,-4.55 3.52,-4.55 h 34.52 c 1.95,0 3.52,2.04 3.52,4.55 v 7.28 c 0,2.51 -1.58,4.55 -3.52,4.55 h -34.52 c -1.95,0 -3.52,-2.04 -3.52,-4.55"
         id="path60" />
      <path
         class="cls-31"
         d="m 580.43,576.13 v -8.49 c 0,-2.18 1.37,-3.94 3.05,-3.94 h 25.12 c 1.69,0 3.05,1.76 3.05,3.94 v 8.49 c 0,2.18 -1.37,3.94 -3.05,3.94 h -25.12 c -1.69,0 -3.05,-1.77 -3.05,-3.94"
         id="path61" />
      <path
         class="cls-40"
         d="m 582.54,578.25 v -12.73 c 0,-1.47 0.92,-2.66 2.06,-2.66 h 23.35 c 1.14,0 2.06,1.19 2.06,2.66 v 12.73 c 0,1.47 -0.92,2.66 -2.06,2.66 H 584.6 c -1.14,0 -2.06,-1.19 -2.06,-2.66"
         id="path62" />
      <rect
         class="cls-12"
         x="588.85999"
         y="562.87"
         width="15.8"
         height="18.040001"
         id="rect62" />
    </g>
    <g
       id="g65">
      <path
         class="cls-36"
         d="m 911.12,398.87 h -7.28 c -2.51,0 -4.55,-1.58 -4.55,-3.52 v -34.52 c 0,-1.95 2.04,-3.52 4.55,-3.52 h 7.28 c 2.51,0 4.55,1.58 4.55,3.52 v 34.52 c 0,1.95 -2.04,3.52 -4.55,3.52"
         id="path63" />
      <path
         class="cls-31"
         d="m 911.72,394.45 h -8.49 c -2.18,0 -3.94,-1.37 -3.94,-3.05 v -25.12 c 0,-1.69 1.76,-3.05 3.94,-3.05 h 8.49 c 2.18,0 3.94,1.37 3.94,3.05 v 25.12 c 0,1.69 -1.77,3.05 -3.94,3.05"
         id="path64" />
      <path
         class="cls-40"
         d="m 913.84,392.34 h -12.73 c -1.47,0 -2.66,-0.92 -2.66,-2.06 v -23.35 c 0,-1.14 1.19,-2.06 2.66,-2.06 h 12.73 c 1.47,0 2.66,0.92 2.66,2.06 v 23.35 c 0,1.14 -1.19,2.06 -2.66,2.06"
         id="path65" />
      <rect
         class="cls-12"
         x="898.46002"
         y="370.22"
         width="18.040001"
         height="15.8"
         id="rect65" />
    </g>
    <g
       id="g68">
      <path
         class="cls-36"
         d="m 824.91,406.68 h -7.28 c -2.51,0 -4.55,-1.58 -4.55,-3.52 v -34.52 c 0,-1.95 2.04,-3.52 4.55,-3.52 h 7.28 c 2.51,0 4.55,1.58 4.55,3.52 v 34.52 c 0,1.95 -2.04,3.52 -4.55,3.52"
         id="path66" />
      <path
         class="cls-31"
         d="m 825.52,402.26 h -8.49 c -2.18,0 -3.94,-1.37 -3.94,-3.05 v -25.12 c 0,-1.69 1.76,-3.05 3.94,-3.05 h 8.49 c 2.18,0 3.94,1.37 3.94,3.05 v 25.12 c 0,1.69 -1.77,3.05 -3.94,3.05"
         id="path67" />
      <path
         class="cls-40"
         d="m 827.64,400.15 h -12.73 c -1.47,0 -2.66,-0.92 -2.66,-2.06 v -23.35 c 0,-1.14 1.19,-2.06 2.66,-2.06 h 12.73 c 1.47,0 2.66,0.92 2.66,2.06 v 23.35 c 0,1.14 -1.19,2.06 -2.66,2.06"
         id="path68" />
      <rect
         class="cls-12"
         x="812.25"
         y="378.03"
         width="18.040001"
         height="15.8"
         id="rect68" />
    </g>
    <g
       id="g71">
      <path
         class="cls-36"
         d="m 779.6,406.68 h -7.28 c -2.51,0 -4.55,-1.58 -4.55,-3.52 v -34.52 c 0,-1.95 2.04,-3.52 4.55,-3.52 h 7.28 c 2.51,0 4.55,1.58 4.55,3.52 v 34.52 c 0,1.95 -2.04,3.52 -4.55,3.52"
         id="path69" />
      <path
         class="cls-31"
         d="m 780.21,402.26 h -8.49 c -2.18,0 -3.94,-1.37 -3.94,-3.05 v -25.12 c 0,-1.69 1.76,-3.05 3.94,-3.05 h 8.49 c 2.18,0 3.94,1.37 3.94,3.05 v 25.12 c 0,1.69 -1.77,3.05 -3.94,3.05"
         id="path70" />
      <path
         class="cls-40"
         d="M 782.33,400.15 H 769.6 c -1.47,0 -2.66,-0.92 -2.66,-2.06 v -23.35 c 0,-1.14 1.19,-2.06 2.66,-2.06 h 12.73 c 1.47,0 2.66,0.92 2.66,2.06 v 23.35 c 0,1.14 -1.19,2.06 -2.66,2.06"
         id="path71" />
      <rect
         class="cls-12"
         x="766.95001"
         y="378.03"
         width="18.040001"
         height="15.8"
         id="rect71" />
    </g>
    <g
       id="g74">
      <path
         class="cls-36"
         d="m 754.23,406.68 h -7.28 c -2.51,0 -4.55,-1.58 -4.55,-3.52 v -34.52 c 0,-1.95 2.04,-3.52 4.55,-3.52 h 7.28 c 2.51,0 4.55,1.58 4.55,3.52 v 34.52 c 0,1.95 -2.04,3.52 -4.55,3.52"
         id="path72" />
      <path
         class="cls-31"
         d="m 754.83,402.26 h -8.49 c -2.18,0 -3.94,-1.37 -3.94,-3.05 v -25.12 c 0,-1.69 1.76,-3.05 3.94,-3.05 h 8.49 c 2.18,0 3.94,1.37 3.94,3.05 v 25.12 c 0,1.69 -1.77,3.05 -3.94,3.05"
         id="path73" />
      <path
         class="cls-40"
         d="m 756.95,400.15 h -12.73 c -1.47,0 -2.66,-0.92 -2.66,-2.06 v -23.35 c 0,-1.14 1.19,-2.06 2.66,-2.06 h 12.73 c 1.47,0 2.66,0.92 2.66,2.06 v 23.35 c 0,1.14 -1.19,2.06 -2.66,2.06"
         id="path74" />
      <rect
         class="cls-12"
         x="741.57001"
         y="378.03"
         width="18.040001"
         height="15.8"
         id="rect74" />
    </g>
    <g
       id="g77">
      <path
         class="cls-36"
         d="m 903.8,551.01 h 7.36 c 2.54,0 4.6,1.6 4.6,3.56 v 34.93 c 0,1.97 -2.06,3.56 -4.6,3.56 h -7.36 c -2.54,0 -4.6,-1.6 -4.6,-3.56 v -34.93 c 0,-1.97 2.06,-3.56 4.6,-3.56"
         id="path75" />
      <path
         class="cls-31"
         d="m 903.19,555.48 h 8.59 c 2.2,0 3.99,1.38 3.99,3.09 v 25.41 c 0,1.71 -1.78,3.09 -3.99,3.09 h -8.59 c -2.2,0 -3.99,-1.38 -3.99,-3.09 v -25.41 c 0,-1.71 1.79,-3.09 3.99,-3.09"
         id="path76" />
      <path
         class="cls-40"
         d="m 901.04,557.61 h 12.87 c 1.49,0 2.69,0.93 2.69,2.08 v 23.62 c 0,1.15 -1.2,2.08 -2.69,2.08 h -12.87 c -1.49,0 -2.69,-0.93 -2.69,-2.08 v -23.62 c 0,-1.15 1.2,-2.08 2.69,-2.08"
         id="path77" />
      <rect
         class="cls-22"
         x="898.34998"
         y="564.01001"
         width="18.25"
         height="15.99"
         id="rect77" />
    </g>
    <g
       id="g80">
      <path
         class="cls-36"
         d="m 829.05,428.72 h 7.36 c 2.54,0 4.6,1.6 4.6,3.56 v 34.93 c 0,1.97 -2.06,3.56 -4.6,3.56 h -7.36 c -2.54,0 -4.6,-1.6 -4.6,-3.56 v -34.93 c 0,-1.97 2.06,-3.56 4.6,-3.56"
         id="path78" />
      <path
         class="cls-31"
         d="m 828.44,433.19 h 8.59 c 2.2,0 3.99,1.38 3.99,3.09 v 25.41 c 0,1.71 -1.78,3.09 -3.99,3.09 h -8.59 c -2.2,0 -3.99,-1.38 -3.99,-3.09 v -25.41 c 0,-1.71 1.79,-3.09 3.99,-3.09"
         id="path79" />
      <path
         class="cls-40"
         d="m 826.3,435.32 h 12.87 c 1.49,0 2.69,0.93 2.69,2.08 v 23.62 c 0,1.15 -1.2,2.08 -2.69,2.08 H 826.3 c -1.49,0 -2.69,-0.93 -2.69,-2.08 V 437.4 c 0,-1.15 1.2,-2.08 2.69,-2.08"
         id="path80" />
      <rect
         class="cls-22"
         x="823.60999"
         y="441.72"
         width="18.25"
         height="15.99"
         id="rect80" />
    </g>
    <g
       id="g83">
      <path
         class="cls-36"
         d="m 798.6,428.72 h 7.36 c 2.54,0 4.6,1.6 4.6,3.56 v 34.93 c 0,1.97 -2.06,3.56 -4.6,3.56 h -7.36 c -2.54,0 -4.6,-1.6 -4.6,-3.56 v -34.93 c 0,-1.97 2.06,-3.56 4.6,-3.56"
         id="path81" />
      <path
         class="cls-31"
         d="m 797.99,433.19 h 8.59 c 2.2,0 3.99,1.38 3.99,3.09 v 25.41 c 0,1.71 -1.78,3.09 -3.99,3.09 h -8.59 c -2.2,0 -3.99,-1.38 -3.99,-3.09 v -25.41 c 0,-1.71 1.79,-3.09 3.99,-3.09"
         id="path82" />
      <path
         class="cls-40"
         d="m 795.84,435.32 h 12.87 c 1.49,0 2.69,0.93 2.69,2.08 v 23.62 c 0,1.15 -1.2,2.08 -2.69,2.08 h -12.87 c -1.49,0 -2.69,-0.93 -2.69,-2.08 V 437.4 c 0,-1.15 1.2,-2.08 2.69,-2.08"
         id="path83" />
      <rect
         class="cls-22"
         x="793.15997"
         y="441.72"
         width="18.25"
         height="15.99"
         id="rect83" />
    </g>
    <g
       id="g86">
      <path
         class="cls-36"
         d="m 501.92,173.29 h 7.36 c 2.54,0 4.6,1.6 4.6,3.56 v 34.93 c 0,1.97 -2.06,3.56 -4.6,3.56 h -7.36 c -2.54,0 -4.6,-1.6 -4.6,-3.56 v -34.93 c 0,-1.97 2.06,-3.56 4.6,-3.56"
         id="path84" />
      <path
         class="cls-31"
         d="m 501.3,177.76 h 8.59 c 2.2,0 3.99,1.38 3.99,3.09 v 25.41 c 0,1.71 -1.78,3.09 -3.99,3.09 h -8.59 c -2.2,0 -3.99,-1.38 -3.99,-3.09 v -25.41 c 0,-1.71 1.79,-3.09 3.99,-3.09"
         id="path85" />
      <path
         class="cls-40"
         d="m 499.16,179.89 h 12.87 c 1.49,0 2.69,0.93 2.69,2.08 v 23.62 c 0,1.15 -1.2,2.08 -2.69,2.08 h -12.87 c -1.49,0 -2.69,-0.93 -2.69,-2.08 v -23.62 c 0,-1.15 1.2,-2.08 2.69,-2.08"
         id="path86" />
      <rect
         class="cls-22"
         x="496.47"
         y="186.28"
         width="18.25"
         height="15.99"
         id="rect86" />
    </g>
    <g
       id="g89">
      <path
         class="cls-36"
         d="M 455.64,109.1 H 463 c 2.54,0 4.6,1.6 4.6,3.56 v 34.93 c 0,1.97 -2.06,3.56 -4.6,3.56 h -7.36 c -2.54,0 -4.6,-1.6 -4.6,-3.56 v -34.93 c 0,-1.97 2.06,-3.56 4.6,-3.56"
         id="path87" />
      <path
         class="cls-31"
         d="m 455.02,113.57 h 8.59 c 2.2,0 3.99,1.38 3.99,3.09 v 25.41 c 0,1.71 -1.78,3.09 -3.99,3.09 h -8.59 c -2.2,0 -3.99,-1.38 -3.99,-3.09 v -25.41 c 0,-1.71 1.79,-3.09 3.99,-3.09"
         id="path88" />
      <path
         class="cls-40"
         d="m 452.88,115.7 h 12.87 c 1.49,0 2.69,0.93 2.69,2.08 v 23.62 c 0,1.15 -1.2,2.08 -2.69,2.08 h -12.87 c -1.49,0 -2.69,-0.93 -2.69,-2.08 v -23.62 c 0,-1.15 1.2,-2.08 2.69,-2.08"
         id="path89" />
      <rect
         class="cls-22"
         x="450.19"
         y="122.1"
         width="18.25"
         height="15.99"
         id="rect89" />
    </g>
    <g
       id="g92">
      <path
         class="cls-36"
         d="m 796.29,496.11 v -7.36 c 0,-2.54 1.6,-4.6 3.56,-4.6 h 34.93 c 1.97,0 3.56,2.06 3.56,4.6 v 7.36 c 0,2.54 -1.6,4.6 -3.56,4.6 h -34.93 c -1.97,0 -3.56,-2.06 -3.56,-4.6"
         id="path90" />
      <path
         class="cls-31"
         d="m 800.76,496.72 v -8.59 c 0,-2.2 1.38,-3.99 3.09,-3.99 h 25.41 c 1.71,0 3.09,1.78 3.09,3.99 v 8.59 c 0,2.2 -1.38,3.99 -3.09,3.99 h -25.41 c -1.71,0 -3.09,-1.79 -3.09,-3.99"
         id="path91" />
      <path
         class="cls-40"
         d="m 802.89,498.86 v -12.87 c 0,-1.49 0.93,-2.69 2.08,-2.69 h 23.62 c 1.15,0 2.08,1.2 2.08,2.69 v 12.87 c 0,1.49 -0.93,2.69 -2.08,2.69 h -23.62 c -1.15,0 -2.08,-1.2 -2.08,-2.69"
         id="path92" />
      <rect
         class="cls-22"
         x="809.28998"
         y="483.29999"
         width="15.99"
         height="18.25"
         id="rect92" />
    </g>
    <g
       id="g95">
      <path
         class="cls-36"
         d="m 768.3,621.72 v -7.36 c 0,-2.54 1.6,-4.6 3.56,-4.6 h 34.93 c 1.97,0 3.56,2.06 3.56,4.6 v 7.36 c 0,2.54 -1.6,4.6 -3.56,4.6 h -34.93 c -1.97,0 -3.56,-2.06 -3.56,-4.6"
         id="path93" />
      <path
         class="cls-31"
         d="m 772.77,622.33 v -8.59 c 0,-2.2 1.38,-3.99 3.09,-3.99 h 25.41 c 1.71,0 3.09,1.78 3.09,3.99 v 8.59 c 0,2.2 -1.38,3.99 -3.09,3.99 h -25.41 c -1.71,0 -3.09,-1.79 -3.09,-3.99"
         id="path94" />
      <path
         class="cls-40"
         d="M 774.91,624.47 V 611.6 c 0,-1.49 0.93,-2.69 2.08,-2.69 h 23.62 c 1.15,0 2.08,1.2 2.08,2.69 v 12.87 c 0,1.49 -0.93,2.69 -2.08,2.69 h -23.62 c -1.15,0 -2.08,-1.2 -2.08,-2.69"
         id="path95" />
      <rect
         class="cls-22"
         x="781.29999"
         y="608.90997"
         width="15.99"
         height="18.25"
         id="rect95" />
    </g>
    <g
       id="g98">
      <path
         class="cls-36"
         d="m 711.44,621.72 v -7.36 c 0,-2.54 1.6,-4.6 3.56,-4.6 h 34.93 c 1.97,0 3.56,2.06 3.56,4.6 v 7.36 c 0,2.54 -1.6,4.6 -3.56,4.6 H 715 c -1.97,0 -3.56,-2.06 -3.56,-4.6"
         id="path96" />
      <path
         class="cls-31"
         d="m 715.91,622.33 v -8.59 c 0,-2.2 1.38,-3.99 3.09,-3.99 h 25.41 c 1.71,0 3.09,1.78 3.09,3.99 v 8.59 c 0,2.2 -1.38,3.99 -3.09,3.99 H 719 c -1.71,0 -3.09,-1.79 -3.09,-3.99"
         id="path97" />
      <path
         class="cls-40"
         d="M 718.05,624.47 V 611.6 c 0,-1.49 0.93,-2.69 2.08,-2.69 h 23.62 c 1.15,0 2.08,1.2 2.08,2.69 v 12.87 c 0,1.49 -0.93,2.69 -2.08,2.69 h -23.62 c -1.15,0 -2.08,-1.2 -2.08,-2.69"
         id="path98" />
      <rect
         class="cls-22"
         x="724.44"
         y="608.90997"
         width="15.99"
         height="18.25"
         id="rect98" />
    </g>
    <g
       id="g101">
      <path
         class="cls-36"
         d="m 634.89,307.5 v -7.36 c 0,-2.54 1.6,-4.6 3.56,-4.6 h 34.93 c 1.97,0 3.56,2.06 3.56,4.6 v 7.36 c 0,2.54 -1.6,4.6 -3.56,4.6 h -34.93 c -1.97,0 -3.56,-2.06 -3.56,-4.6"
         id="path99" />
      <path
         class="cls-31"
         d="m 639.36,308.11 v -8.59 c 0,-2.2 1.38,-3.99 3.09,-3.99 h 25.41 c 1.71,0 3.09,1.78 3.09,3.99 v 8.59 c 0,2.2 -1.38,3.99 -3.09,3.99 h -25.41 c -1.71,0 -3.09,-1.79 -3.09,-3.99"
         id="path100" />
      <path
         class="cls-40"
         d="m 641.49,310.25 v -12.87 c 0,-1.49 0.93,-2.69 2.08,-2.69 h 23.62 c 1.15,0 2.08,1.2 2.08,2.69 v 12.87 c 0,1.49 -0.93,2.69 -2.08,2.69 h -23.62 c -1.15,0 -2.08,-1.2 -2.08,-2.69"
         id="path101" />
      <rect
         class="cls-22"
         x="647.89001"
         y="294.69"
         width="15.99"
         height="18.25"
         id="rect101" />
    </g>
    <g
       id="g105">
      <rect
         class="cls-30"
         x="896.83002"
         y="458.39999"
         width="24.35"
         height="70.150002"
         rx="0.5"
         ry="0.5"
         transform="rotate(90,909.01,493.47)"
         id="rect102" />
      <g
         id="g104">
        <rect
           class="cls-38"
           x="894.42999"
           y="467.70001"
           width="29.15"
           height="51.540001"
           rx="0.44"
           ry="0.44"
           transform="rotate(90,909.01,493.47)"
           id="rect103" />
        <rect
           class="cls-12"
           x="894.95001"
           y="468.60999"
           width="28.120001"
           height="49.720001"
           rx="0.41999999"
           ry="0.41999999"
           transform="rotate(90,909.01,493.47)"
           id="rect104" />
      </g>
    </g>
    <g
       id="g108">
      <rect
         class="cls-2"
         x="581.44"
         y="619.58002"
         width="38.57"
         height="118.38"
         rx="0.36000001"
         ry="0.36000001"
         transform="rotate(90,600.725,678.765)"
         id="rect105" />
      <rect
         class="cls-22"
         x="582.02002"
         y="639.35999"
         width="42.130001"
         height="78.809998"
         rx="0.34"
         ry="0.34"
         transform="rotate(90,603.085,678.765)"
         id="rect106" />
      <rect
         class="cls-6"
         x="583.22998"
         y="639.35999"
         width="39.720001"
         height="78.809998"
         rx="0.33000001"
         ry="0.33000001"
         transform="rotate(90,603.085,678.765)"
         id="rect107" />
      <path
         class="cls-23"
         d="m 548.19,672.57 h 18.59 v 12.02 c 0,0.21 -0.17,0.37 -0.37,0.37 h -17.84 c -0.21,0 -0.37,-0.17 -0.37,-0.37 v -12.02 0 z"
         transform="rotate(90,557.485,678.765)"
         id="path107" />
      <path
         class="cls-23"
         d="m 639.52,672.57 h 18.59 v 12.02 c 0,0.21 -0.17,0.37 -0.37,0.37 H 639.9 c -0.21,0 -0.37,-0.17 -0.37,-0.37 v -12.02 0 z"
         transform="rotate(-90,648.815,678.765)"
         id="path108" />
    </g>
    <g
       id="g110">
      <rect
         class="cls-2"
         x="589.79999"
         y="686.38"
         width="38.57"
         height="118.38"
         rx="0.36000001"
         ry="0.36000001"
         transform="rotate(90,609.09,745.57)"
         id="rect108" />
      <rect
         class="cls-22"
         x="590.39001"
         y="706.16998"
         width="42.130001"
         height="78.809998"
         rx="0.34"
         ry="0.34"
         transform="rotate(90,611.45,745.57)"
         id="rect109" />
      <rect
         class="cls-6"
         x="591.59003"
         y="706.16998"
         width="39.720001"
         height="78.809998"
         rx="0.33000001"
         ry="0.33000001"
         transform="rotate(90,611.45,745.57)"
         id="rect110" />
    </g>
    <g
       id="g113">
      <rect
         class="cls-2"
         x="568.02002"
         y="563.88"
         width="38.57"
         height="118.38"
         rx="0.36000001"
         ry="0.36000001"
         transform="rotate(90,587.31,623.07)"
         id="rect111" />
      <rect
         class="cls-22"
         x="568.59998"
         y="583.66998"
         width="42.130001"
         height="78.809998"
         rx="0.34"
         ry="0.34"
         transform="rotate(90,589.67,623.07)"
         id="rect112" />
      <rect
         class="cls-6"
         x="569.81"
         y="583.66998"
         width="39.720001"
         height="78.809998"
         rx="0.33000001"
         ry="0.33000001"
         transform="rotate(90,589.67,623.07)"
         id="rect113" />
    </g>
    <g
       id="g118">
      <g
         id="g115">
        <rect
           class="cls-2"
           x="667.73999"
           y="537.64001"
           width="101.36"
           height="20.65"
           rx="0.51999998"
           ry="0.51999998"
           transform="rotate(90,718.42,547.96)"
           id="rect114" />
        <rect
           class="cls-2"
           x="614.82001"
           y="537.64001"
           width="101.36"
           height="20.65"
           rx="0.51999998"
           ry="0.51999998"
           transform="rotate(90,665.495,547.965)"
           id="rect115" />
        <path
           class="cls-2"
           d="m 702.28,532.29 v -30.93 c 0,-2.25 -1.83,-4.08 -4.08,-4.08 h -12.5 c -2.25,0 -4.08,1.83 -4.08,4.08 v 30.93 h 20.65 z"
           id="path115" />
      </g>
      <g
         id="g117">
        <rect
           class="cls-22"
           x="666.79999"
           y="506.75"
           width="50.32"
           height="79.959999"
           rx="0.60000002"
           ry="0.60000002"
           transform="rotate(90,691.96,546.73)"
           id="rect116" />
        <rect
           class="cls-6"
           x="669.09003"
           y="506.75"
           width="45.740002"
           height="79.959999"
           rx="0.56999999"
           ry="0.56999999"
           transform="rotate(90,691.96,546.73)"
           id="rect117" />
      </g>
    </g>
    <g
       id="g122">
      <g
         id="g120">
        <rect
           class="cls-2"
           x="658.71997"
           y="411.07999"
           width="101.36"
           height="20.65"
           rx="0.51999998"
           ry="0.51999998"
           transform="rotate(90,709.395,421.405)"
           id="rect118" />
        <rect
           class="cls-2"
           x="605.78998"
           y="411.07999"
           width="101.36"
           height="20.65"
           rx="0.51999998"
           ry="0.51999998"
           transform="rotate(90,656.47,421.41)"
           id="rect119" />
        <path
           class="cls-2"
           d="m 693.26,405.74 v -30.93 c 0,-2.25 -1.83,-4.08 -4.08,-4.08 h -12.5 c -2.25,0 -4.08,1.83 -4.08,4.08 v 30.93 h 20.65 z"
           id="path119" />
        <path
           class="cls-2"
           d="m 672.61,437.16 v 30.93 c 0,2.25 1.83,4.08 4.08,4.08 h 12.5 c 2.25,0 4.08,-1.83 4.08,-4.08 v -30.93 h -20.65 z"
           id="path120" />
      </g>
      <g
         id="g121">
        <rect
           class="cls-22"
           x="657.77002"
           y="380.19"
           width="50.32"
           height="79.959999"
           rx="0.60000002"
           ry="0.60000002"
           transform="rotate(90,682.935,420.175)"
           id="rect120" />
        <rect
           class="cls-6"
           x="660.06"
           y="380.19"
           width="45.740002"
           height="79.959999"
           rx="0.56999999"
           ry="0.56999999"
           transform="rotate(90,682.935,420.175)"
           id="rect121" />
      </g>
    </g>
    <g
       id="g129">
      <ellipse
         class="cls-29"
         cx="434.60001"
         cy="586.89001"
         rx="6.1500001"
         ry="6.8600001"
         id="ellipse122" />
      <ellipse
         class="cls-29"
         cx="434.60001"
         cy="672.69"
         rx="6.1500001"
         ry="6.8600001"
         id="ellipse123" />
      <rect
         class="cls-9"
         x="426.51001"
         y="566.15002"
         width="30.07"
         height="27.25"
         id="rect123" />
      <rect
         class="cls-9"
         x="426.34"
         y="668.83002"
         width="30.07"
         height="27.25"
         id="rect124" />
      <rect
         class="cls-9"
         x="469.41"
         y="581.09003"
         width="45.189999"
         height="16.18"
         id="rect125" />
      <rect
         class="cls-9"
         x="469.41"
         y="663.20001"
         width="45.189999"
         height="16.18"
         id="rect126" />
      <path
         class="cls-1"
         d="M 411.04,652.12 V 610.1 c 11.25,-0.88 22.33,-1.76 33.58,-2.64 v 46.59 c -11.08,-0.53 -22.33,-1.23 -33.58,-1.93 z"
         id="path126" />
      <rect
         class="cls-5"
         x="444.62"
         y="582.32001"
         width="35.689999"
         height="96.879997"
         id="rect127" />
      <rect
         class="cls-5"
         x="435.29999"
         y="577.57001"
         width="35.16"
         height="104.97"
         id="rect128" />
      <path
         class="cls-21"
         d="M 467.3,664.08 V 598.5 c 0,-1.76 1.41,-3.16 3.16,-3.16 h 12.48 c 1.76,0 3.16,1.41 3.16,3.16 v 65.58 c 0,1.76 -1.41,3.16 -3.16,3.16 h -12.48 c -1.76,0 -3.16,-1.41 -3.16,-3.16 z"
         id="path128" />
      <rect
         class="cls-21"
         x="439.51999"
         y="575.98999"
         width="34.110001"
         height="109.01"
         id="rect129" />
    </g>
    <g
       id="g133">
      <g
         id="g131">
        <rect
           class="cls-36"
           x="824.28998"
           y="533.02002"
           width="72.389999"
           height="40.73"
           rx="0.27000001"
           ry="0.27000001"
           transform="rotate(90,860.485,553.385)"
           id="rect130" />
        <rect
           class="cls-36"
           x="748.51001"
           y="533.02002"
           width="72.389999"
           height="40.73"
           rx="0.27000001"
           ry="0.27000001"
           transform="rotate(90,784.705,553.385)"
           id="rect131" />
      </g>
      <g
         id="g132">
        <path
           class="cls-40"
           d="m 775.86,574.33 v -41.9 c 0,-4.83 3.04,-8.75 6.78,-8.75 h 76.87 c 3.75,0 6.78,3.92 6.78,8.75 v 41.9 c 0,4.83 -3.03,8.75 -6.78,8.75 h -76.87 c -3.74,0 -6.78,-3.92 -6.78,-8.75"
           id="path131" />
        <rect
           class="cls-22"
           x="796.66998"
           y="523.67999"
           width="52.02"
           height="59.400002"
           id="rect132" />
      </g>
    </g>
    <g
       id="g136">
      <path
         class="cls-25"
         d="m 664.29,909.87 h -83.73 c -2.74,0 -4.98,-2.24 -4.98,-4.98 V 793.72 c 0,-2.74 2.24,-4.98 4.98,-4.98 h 83.73 c 2.74,0 4.98,2.24 4.98,4.98 v 111.17 c 0,2.74 -2.24,4.98 -4.98,4.98"
         id="path133" />
      <path
         class="cls-19"
         d="m 656.07,899.87 h -67.3 c -2.06,0 -3.75,-1.69 -3.75,-3.75 v -94.38 c 0,-2.06 1.69,-3.75 3.75,-3.75 h 67.3 c 2.07,0 3.75,1.69 3.75,3.75 v 94.38 c 0,2.06 -1.69,3.75 -3.75,3.75"
         id="path134" />
      <rect
         class="cls-4"
         x="617.12"
         y="797.96002"
         width="6.9699998"
         height="101.92"
         id="rect134" />
      <path
         class="cls-2"
         d="m 640.99,829.46 c 0,3.26 -2.64,5.9 -5.9,5.9 -3.26,0 -5.91,-2.64 -5.91,-5.9 0,-3.26 2.64,-5.9 5.91,-5.9 3.27,0 5.9,2.64 5.9,5.9"
         id="path135" />
      <path
         class="cls-2"
         d="m 640.99,869.93 c 0,3.26 -2.64,5.9 -5.9,5.9 -3.26,0 -5.91,-2.64 -5.91,-5.9 0,-3.26 2.64,-5.9 5.91,-5.9 3.27,0 5.9,2.64 5.9,5.9"
         id="path136" />
      <rect
         class="cls-19"
         x="627.65997"
         y="788.72998"
         width="18.17"
         height="14.78"
         id="rect136" />
    </g>
    <g
       id="g138">
      <path
         class="cls-12"
         d="m 591.86,296.23 h 11.39 c 9.7,0 17.64,-7.94 17.64,-17.64 0,-9.7 -7.94,-17.64 -17.64,-17.64 h -29 c -9.7,0 -17.64,7.94 -17.64,17.64 0,0.82 0.13,1.61 0.24,2.4 -0.11,0.79 -0.24,1.58 -0.24,2.4 v 12.54 c 0,9.7 7.94,17.64 17.64,17.64 9.7,0 17.45,-7.78 17.61,-17.34 z"
         id="path137" />
      <path
         class="cls-2"
         d="m 590.56,294.01 h 10.15 c 8.65,0 15.73,-7.08 15.73,-15.73 0,-8.65 -7.08,-15.73 -15.73,-15.73 h -25.86 c -8.65,0 -15.73,7.08 -15.73,15.73 0,0.73 0.12,1.43 0.22,2.14 -0.1,0.71 -0.22,1.41 -0.22,2.14 v 11.18 c 0,8.65 7.08,15.73 15.73,15.73 8.65,0 15.55,-6.93 15.7,-15.46 z"
         id="path138" />
    </g>
    <g
       id="g140">
      <path
         class="cls-12"
         d="m 591.86,506.29 h 11.39 c 9.7,0 17.64,7.94 17.64,17.64 0,9.7 -7.94,17.64 -17.64,17.64 h -29 c -9.7,0 -17.64,-7.94 -17.64,-17.64 0,-0.82 0.13,-1.61 0.24,-2.4 -0.11,-0.79 -0.24,-1.58 -0.24,-2.4 v -12.54 c 0,-9.7 7.94,-17.64 17.64,-17.64 9.6,0 17.45,7.78 17.61,17.34 z"
         id="path139" />
      <path
         class="cls-2"
         d="m 590.56,508.52 h 10.15 c 8.65,0 15.73,7.08 15.73,15.73 0,8.65 -7.08,15.73 -15.73,15.73 h -25.86 c -8.65,0 -15.73,-7.08 -15.73,-15.73 0,-0.73 0.12,-1.43 0.22,-2.14 -0.1,-0.71 -0.22,-1.41 -0.22,-2.14 v -11.18 c 0,-8.65 7.08,-15.73 15.73,-15.73 8.56,0 15.55,6.93 15.7,15.46 z"
         id="path140" />
    </g>
    <g
       id="g141">
      <rect
         class="cls-12"
         x="440.19"
         y="243.59"
         width="35.279999"
         height="70.010002"
         rx="2.23"
         ry="2.23"
         transform="rotate(90,457.83,278.59)"
         id="rect140" />
      <rect
         class="cls-2"
         x="442.19"
         y="247.57001"
         width="31.27"
         height="62.049999"
         rx="1.98"
         ry="1.98"
         transform="rotate(90,457.83,278.59)"
         id="rect141" />
    </g>
    <g
       id="g143">
      <rect
         class="cls-12"
         x="440.19"
         y="490.09"
         width="35.279999"
         height="70.010002"
         rx="2.23"
         ry="2.23"
         transform="rotate(90,457.825,525.095)"
         id="rect142" />
      <rect
         class="cls-2"
         x="442.19"
         y="494.07001"
         width="31.27"
         height="62.049999"
         rx="1.98"
         ry="1.98"
         transform="rotate(90,457.825,525.095)"
         id="rect143" />
    </g>
    <rect
       class="cls-39"
       x="507.67999"
       y="348.42001"
       width="7.8400002"
       height="13.55"
       transform="rotate(90,511.595,355.195)"
       id="rect144" />
    <rect
       class="cls-39"
       x="507.67999"
       y="447.88"
       width="7.8400002"
       height="13.55"
       transform="rotate(90,511.6,454.66)"
       id="rect145" />
    <g
       id="g154">
      <rect
         class="cls-44"
         x="548.31"
         y="96.150002"
         width="161.50999"
         height="136.57001"
         rx="1.63"
         ry="1.63"
         transform="rotate(90,629.065,164.435)"
         id="rect146" />
      <g
         id="g149">
        <g
           id="g148">
          <rect
             class="cls-23"
             x="562.65997"
             y="108.28"
             width="132.81"
             height="112.3"
             rx="1.34"
             ry="1.34"
             transform="rotate(90,629.065,164.435)"
             id="rect147" />
          <rect
             class="cls-23"
             x="552.15002"
             y="158.37"
             width="29.4"
             height="12.13"
             transform="rotate(90,566.845,164.435)"
             id="rect148" />
        </g>
        <rect
           class="cls-32"
           x="557.65002"
           y="158.37"
           width="132.81"
           height="12.13"
           transform="rotate(90,624.06,164.44)"
           id="rect149" />
      </g>
      <g
         id="g151">
        <rect
           class="cls-41"
           x="596.53998"
           y="128.86"
           width="12.52"
           height="10.97"
           rx="0.23"
           ry="0.23"
           transform="rotate(90,602.8,134.35)"
           id="rect150" />
        <rect
           class="cls-7"
           x="597.15002"
           y="129.39999"
           width="11.3"
           height="9.8999996"
           rx="0.20999999"
           ry="0.20999999"
           transform="rotate(90,602.8,134.35)"
           id="rect151" />
      </g>
      <g
         id="g153">
        <rect
           class="cls-41"
           x="596.53998"
           y="185.28999"
           width="12.52"
           height="10.97"
           rx="0.23"
           ry="0.23"
           transform="rotate(90,602.795,190.775)"
           id="rect152" />
        <rect
           class="cls-7"
           x="597.15002"
           y="185.82001"
           width="11.3"
           height="9.8999996"
           rx="0.20999999"
           ry="0.20999999"
           transform="rotate(90,602.795,190.775)"
           id="rect153" />
      </g>
    </g>
    <g
       id="g157">
      <path
         class="cls-8"
         d="m 419.97,105.93 h -6.94 v 57.43 h 6.95 c 0.05,-2.4 1.98,-4.33 4.36,-4.33 2.38,0 4.31,1.93 4.36,4.33 h 6.95 v -57.43 h -6.94 c 0,2.44 -1.95,4.42 -4.36,4.42 -2.41,0 -4.36,-1.98 -4.36,-4.42"
         id="path154" />
      <rect
         class="cls-26"
         x="409.06"
         y="105.93"
         width="3.97"
         height="57.43"
         id="rect154" />
      <rect
         class="cls-37"
         x="409.04999"
         y="111.13"
         width="30.549999"
         height="47.029999"
         id="rect155" />
      <path
         class="cls-11"
         d="m 419.71,118.98 h -7.35 v 31.32 h 7.36 c 0.05,-1.31 2.09,-2.36 4.61,-2.36 2.52,0 4.56,1.05 4.61,2.36 h 7.35 v -31.32 h -7.35 c 0,1.33 -2.07,2.41 -4.62,2.41 -2.55,0 -4.62,-1.08 -4.62,-2.41"
         id="path155" />
      <path
         class="cls-37"
         d="m 424.33,126.68 c 4.35,0 7.87,3.57 7.87,7.96 0,4.39 -3.53,7.97 -7.87,7.97 -4.34,0 -7.87,-3.57 -7.87,-7.97 0,-4.4 3.52,-7.96 7.87,-7.96"
         id="path156" />
      <path
         class="cls-27"
         d="m 424.33,128.6 c 3.3,0 5.97,2.71 5.97,6.05 0,3.34 -2.68,6.04 -5.97,6.04 -3.29,0 -5.97,-2.71 -5.97,-6.04 0,-3.33 2.67,-6.05 5.97,-6.05"
         id="path157" />
    </g>
    <g
       id="g161">
      <path
         class="cls-8"
         d="m 419.97,728.68 h -6.94 v 57.43 h 6.95 c 0.05,-2.4 1.98,-4.33 4.36,-4.33 2.38,0 4.31,1.93 4.36,4.33 h 6.95 v -57.43 h -6.94 c 0,2.44 -1.95,4.42 -4.36,4.42 -2.41,0 -4.36,-1.98 -4.36,-4.42"
         id="path158" />
      <rect
         class="cls-26"
         x="409.06"
         y="728.67999"
         width="3.97"
         height="57.43"
         id="rect158" />
      <rect
         class="cls-37"
         x="409.04999"
         y="733.88"
         width="30.549999"
         height="47.029999"
         id="rect159" />
      <path
         class="cls-11"
         d="m 419.71,741.74 h -7.35 v 31.32 h 7.36 c 0.05,-1.31 2.09,-2.36 4.61,-2.36 2.52,0 4.56,1.05 4.61,2.36 h 7.35 v -31.32 h -7.35 c 0,1.33 -2.07,2.41 -4.62,2.41 -2.55,0 -4.62,-1.08 -4.62,-2.41"
         id="path159" />
      <path
         class="cls-37"
         d="m 424.33,749.43 c 4.35,0 7.87,3.57 7.87,7.96 0,4.39 -3.53,7.97 -7.87,7.97 -4.34,0 -7.87,-3.57 -7.87,-7.97 0,-4.4 3.52,-7.96 7.87,-7.96"
         id="path160" />
      <path
         class="cls-27"
         d="m 424.33,751.35 c 3.3,0 5.97,2.71 5.97,6.05 0,3.34 -2.68,6.04 -5.97,6.04 -3.29,0 -5.97,-2.71 -5.97,-6.04 0,-3.33 2.67,-6.05 5.97,-6.05"
         id="path161" />
    </g>
    <g
       id="g165">
      <path
         class="cls-8"
         d="m 419.97,830.81 h -6.94 v 57.43 h 6.95 c 0.05,-2.4 1.98,-4.33 4.36,-4.33 2.38,0 4.31,1.93 4.36,4.33 h 6.95 v -57.43 h -6.94 c 0,2.44 -1.95,4.42 -4.36,4.42 -2.41,0 -4.36,-1.98 -4.36,-4.42"
         id="path162" />
      <rect
         class="cls-26"
         x="409.06"
         y="830.79999"
         width="3.97"
         height="57.43"
         id="rect162" />
      <rect
         class="cls-37"
         x="409.04999"
         y="836"
         width="30.549999"
         height="47.029999"
         id="rect163" />
      <path
         class="cls-11"
         d="m 419.71,843.86 h -7.35 v 31.32 h 7.36 c 0.05,-1.31 2.09,-2.36 4.61,-2.36 2.52,0 4.56,1.05 4.61,2.36 h 7.35 v -31.32 h -7.35 c 0,1.33 -2.07,2.41 -4.62,2.41 -2.55,0 -4.62,-1.08 -4.62,-2.41"
         id="path163" />
      <path
         class="cls-37"
         d="m 424.33,851.56 c 4.35,0 7.87,3.57 7.87,7.96 0,4.39 -3.53,7.97 -7.87,7.97 -4.34,0 -7.87,-3.57 -7.87,-7.97 0,-4.4 3.52,-7.96 7.87,-7.96"
         id="path164" />
      <path
         class="cls-27"
         d="m 424.33,853.48 c 3.3,0 5.97,2.71 5.97,6.05 0,3.34 -2.68,6.04 -5.97,6.04 -3.29,0 -5.97,-2.71 -5.97,-6.04 0,-3.33 2.67,-6.05 5.97,-6.05"
         id="path165" />
    </g>
    <g
       id="g198">
      <g
         id="g171">
        <g
           id="g167">
          <rect
             class="cls-6"
             x="576.15002"
             y="288.67001"
             width="20.620001"
             height="36.389999"
             rx="0.56999999"
             ry="0.56999999"
             transform="rotate(90,586.465,306.865)"
             id="rect165" />
          <rect
             class="cls-6"
             x="576.15002"
             y="477.59"
             width="20.620001"
             height="36.389999"
             rx="0.56999999"
             ry="0.56999999"
             transform="rotate(90,586.46,495.79)"
             id="rect166" />
          <rect
             class="cls-6"
             x="487.98001"
             y="387.14999"
             width="188.92"
             height="28.360001"
             transform="rotate(90,582.445,401.325)"
             id="rect167" />
        </g>
        <g
           id="g170">
          <rect
             class="cls-20"
             x="578.77002"
             y="292.10999"
             width="15.38"
             height="34.709999"
             rx="0.47999999"
             ry="0.47999999"
             transform="rotate(90,586.46,309.47)"
             id="rect168" />
          <rect
             class="cls-20"
             x="578.77002"
             y="475.81"
             width="15.38"
             height="34.709999"
             rx="0.47999999"
             ry="0.47999999"
             transform="rotate(90,586.46,493.17)"
             id="rect169" />
          <rect
             class="cls-20"
             x="496.35001"
             y="387.79999"
             width="172.57001"
             height="27.049999"
             transform="rotate(90,582.63,401.33)"
             id="rect170" />
        </g>
      </g>
      <g
         id="g172">
        <rect
           class="cls-42"
           x="597.06"
           y="324.92001"
           width="10.51"
           height="32.52"
           rx="0.16"
           ry="0.16"
           transform="rotate(90,602.32,341.18)"
           id="rect171" />
        <rect
           class="cls-24"
           x="591"
           y="327.45999"
           width="9"
           height="27.43"
           rx="0.56"
           ry="0.56"
           transform="rotate(90,595.505,341.175)"
           id="rect172" />
      </g>
      <g
         id="g174">
        <rect
           class="cls-42"
           x="597.06"
           y="311.79001"
           width="10.51"
           height="32.52"
           rx="0.16"
           ry="0.16"
           transform="rotate(90,602.325,328.055)"
           id="rect173" />
        <rect
           class="cls-24"
           x="591.16998"
           y="314.17999"
           width="9"
           height="27.76"
           rx="0.56999999"
           ry="0.56999999"
           transform="rotate(90,595.665,328.055)"
           id="rect174" />
      </g>
      <g
         id="g176">
        <rect
           class="cls-42"
           x="597.06"
           y="338.29999"
           width="10.51"
           height="32.52"
           rx="0.16"
           ry="0.16"
           transform="rotate(90,602.32,354.56)"
           id="rect175" />
        <rect
           class="cls-24"
           x="591.16998"
           y="340.67999"
           width="9"
           height="27.76"
           rx="0.56999999"
           ry="0.56999999"
           transform="rotate(90,595.67,354.56)"
           id="rect176" />
      </g>
      <g
         id="g178">
        <rect
           class="cls-42"
           x="597.06"
           y="351.54999"
           width="10.51"
           height="32.52"
           rx="0.16"
           ry="0.16"
           transform="rotate(90,602.32,367.81)"
           id="rect177" />
        <rect
           class="cls-24"
           x="591.16998"
           y="353.92999"
           width="9"
           height="27.76"
           rx="0.56999999"
           ry="0.56999999"
           transform="rotate(90,595.67,367.81)"
           id="rect178" />
      </g>
      <g
         id="g180">
        <rect
           class="cls-42"
           x="597.06"
           y="364.67999"
           width="10.51"
           height="32.52"
           rx="0.16"
           ry="0.16"
           transform="rotate(90,602.325,380.935)"
           id="rect179" />
        <rect
           class="cls-24"
           x="591.16998"
           y="367.06"
           width="9"
           height="27.76"
           rx="0.56999999"
           ry="0.56999999"
           transform="rotate(90,595.665,380.935)"
           id="rect180" />
      </g>
      <g
         id="g182">
        <rect
           class="cls-42"
           x="597.06"
           y="378.06"
           width="10.51"
           height="32.52"
           rx="0.16"
           ry="0.16"
           transform="rotate(90,602.32,394.32)"
           id="rect181" />
        <rect
           class="cls-24"
           x="591.16998"
           y="380.44"
           width="9"
           height="27.76"
           rx="0.56999999"
           ry="0.56999999"
           transform="rotate(90,595.67,394.32)"
           id="rect182" />
      </g>
      <g
         id="g184">
        <rect
           class="cls-42"
           x="597.06"
           y="391.92999"
           width="10.51"
           height="32.52"
           rx="0.16"
           ry="0.16"
           transform="rotate(90,602.32,408.19)"
           id="rect183" />
        <rect
           class="cls-24"
           x="591.16998"
           y="394.31"
           width="9"
           height="27.76"
           rx="0.56999999"
           ry="0.56999999"
           transform="rotate(90,595.67,408.19)"
           id="rect184" />
      </g>
      <g
         id="g186">
        <rect
           class="cls-42"
           x="597.06"
           y="405.04999"
           width="10.51"
           height="32.52"
           rx="0.16"
           ry="0.16"
           transform="rotate(90,602.32,421.31)"
           id="rect185" />
        <rect
           class="cls-24"
           x="591.16998"
           y="407.42999"
           width="9"
           height="27.76"
           rx="0.56999999"
           ry="0.56999999"
           transform="rotate(90,595.67,421.31)"
           id="rect186" />
      </g>
      <g
         id="g188">
        <rect
           class="cls-42"
           x="597.06"
           y="418.44"
           width="10.51"
           height="32.52"
           rx="0.16"
           ry="0.16"
           transform="rotate(90,602.32,434.7)"
           id="rect187" />
        <rect
           class="cls-24"
           x="591.16998"
           y="420.82001"
           width="9"
           height="27.76"
           rx="0.56999999"
           ry="0.56999999"
           transform="rotate(90,595.67,434.7)"
           id="rect188" />
      </g>
      <g
         id="g190">
        <rect
           class="cls-42"
           x="597.06"
           y="431.82999"
           width="10.51"
           height="32.52"
           rx="0.16"
           ry="0.16"
           transform="rotate(90,602.32,448.09)"
           id="rect189" />
        <rect
           class="cls-24"
           x="591.16998"
           y="434.20999"
           width="9"
           height="27.76"
           rx="0.56999999"
           ry="0.56999999"
           transform="rotate(90,595.67,448.09)"
           id="rect190" />
      </g>
      <g
         id="g192">
        <rect
           class="cls-42"
           x="597.06"
           y="444.95001"
           width="10.51"
           height="32.52"
           rx="0.16"
           ry="0.16"
           transform="rotate(90,602.32,461.21)"
           id="rect191" />
        <rect
           class="cls-24"
           x="591.16998"
           y="447.32999"
           width="9"
           height="27.76"
           rx="0.56999999"
           ry="0.56999999"
           transform="rotate(90,595.67,461.21)"
           id="rect192" />
      </g>
      <g
         id="g194">
        <rect
           class="cls-42"
           x="597.06"
           y="458.34"
           width="10.51"
           height="32.52"
           rx="0.16"
           ry="0.16"
           transform="rotate(90,602.32,474.6)"
           id="rect193" />
        <rect
           class="cls-24"
           x="591.16998"
           y="460.72"
           width="9"
           height="27.76"
           rx="0.56999999"
           ry="0.56999999"
           transform="rotate(90,595.67,474.6)"
           id="rect194" />
      </g>
      <g
         id="g197">
        <rect
           class="cls-20"
           x="578.77002"
           y="292.10999"
           width="15.38"
           height="34.709999"
           rx="0.47999999"
           ry="0.47999999"
           transform="rotate(90,586.46,309.47)"
           id="rect195" />
        <rect
           class="cls-20"
           x="578.77002"
           y="475.81"
           width="15.38"
           height="34.709999"
           rx="0.47999999"
           ry="0.47999999"
           transform="rotate(90,586.46,493.17)"
           id="rect196" />
        <rect
           class="cls-20"
           x="496.35001"
           y="387.79999"
           width="172.57001"
           height="27.049999"
           transform="rotate(90,582.63,401.33)"
           id="rect197" />
      </g>
    </g>
    <g
       id="g211">
      <path
         class="cls-28"
         d="m 595.83,521.27 v -48.95 h -7.02 c -2.37,0 -4.31,-1.94 -4.31,-4.31 0,-2.37 1.94,-4.31 4.31,-4.31 h 7.02 c 6.71,-4.65 6.45,-17.51 0,-21.93 h -7.02 c -2.37,0 -4.31,-1.94 -4.31,-4.31 0,-2.37 1.94,-4.31 4.31,-4.31 h 7.02 v -61.47 h -7.02 c -2.37,0 -4.31,-1.94 -4.31,-4.31 0,-2.37 1.94,-4.31 4.31,-4.31 h 7.02 c 6.84,-2.2 7.1,-18.72 0,-21.93 h -7.02 c -2.37,0 -4.31,-1.94 -4.31,-4.31 0,-2.37 1.94,-4.31 4.31,-4.31 h 7.02 v -48.95 c 0,-3.85 -3.15,-7 -7,-7 H 383.65 c -3.85,0 -7,3.15 -7,7 v 237.71 c 0,3.85 3.15,7 7,7 h 205.18 c 3.85,0 7,-3.15 7,-7 z"
         id="path198" />
      <g
         id="g203">
        <rect
           class="cls-10"
           x="551.37"
           y="325.45999"
           width="21.01"
           height="13.71"
           rx="0.43000001"
           ry="0.43000001"
           transform="rotate(90,561.87,332.32)"
           id="rect198" />
        <rect
           class="cls-10"
           x="551.37"
           y="354.17999"
           width="21.01"
           height="13.71"
           rx="0.43000001"
           ry="0.43000001"
           transform="rotate(90,561.875,361.035)"
           id="rect199" />
        <rect
           class="cls-10"
           x="551.37"
           y="382.89999"
           width="21.01"
           height="13.71"
           rx="0.43000001"
           ry="0.43000001"
           transform="rotate(90,561.87,389.75)"
           id="rect200" />
        <rect
           class="cls-10"
           x="551.37"
           y="411.60999"
           width="21.01"
           height="13.71"
           rx="0.43000001"
           ry="0.43000001"
           transform="rotate(90,561.87,418.47)"
           id="rect201" />
        <rect
           class="cls-10"
           x="551.37"
           y="440.32999"
           width="21.01"
           height="13.71"
           rx="0.43000001"
           ry="0.43000001"
           transform="rotate(90,561.875,447.185)"
           id="rect202" />
        <rect
           class="cls-10"
           x="551.37"
           y="469.04999"
           width="21.01"
           height="13.71"
           rx="0.43000001"
           ry="0.43000001"
           transform="rotate(90,561.87,475.9)"
           id="rect203" />
      </g>
      <rect
         class="cls-35"
         x="505.60001"
         y="348.42001"
         width="20.139999"
         height="13.55"
         rx="0.18000001"
         ry="0.18000001"
         transform="rotate(90,515.675,355.195)"
         id="rect204" />
      <rect
         class="cls-35"
         x="505.60001"
         y="447.88"
         width="20.139999"
         height="13.55"
         rx="0.18000001"
         ry="0.18000001"
         transform="rotate(90,515.67,454.66)"
         id="rect205" />
      <g
         id="g210">
        <path
           class="cls-43"
           d="m 584.5,369.79 c 0,2.21 1.94,4.01 4.31,4.01 h 7.02 v -2.12 h -7.02 c -1.93,0 -3.51,-1.31 -4.05,-3.06 -0.12,0.37 -0.25,0.75 -0.25,1.16 z"
           id="path205" />
        <path
           class="cls-43"
           d="m 584.5,435.05 c 0,0.41 0.13,0.79 0.25,1.16 0.55,-1.75 2.13,-3.06 4.05,-3.06 h 7.02 v -2.12 h -7.02 c -2.37,0 -4.31,1.81 -4.31,4.01 z"
           id="path206" />
        <path
           class="cls-43"
           d="m 595.83,459.49 h -7.02 c -2.37,0 -4.31,1.81 -4.31,4.01 0,0.82 0.33,1.54 0.79,2.18 0.77,-1.16 2.03,-1.97 3.52,-1.97 h 7.02 c 3.79,-2.62 5.28,-7.85 4.77,-12.71 -0.39,3.42 -1.91,6.65 -4.77,8.49 z"
           id="path207" />
        <path
           class="cls-43"
           d="m 595.83,521.27 v -8.18 c 0,3.59 -3.15,6.52 -7,6.52 H 383.65 c -3.85,0 -7,-2.93 -7,-6.52 v 8.18 c 0,3.85 3.15,7 7,7 h 205.18 c 3.85,0 7,-3.15 7,-7 z"
           id="path208" />
        <path
           class="cls-43"
           d="m 383.65,285.22 h 205.18 c 3.85,0 7,2.93 7,6.52 v -8.18 c 0,-3.85 -3.15,-7 -7,-7 H 383.65 c -3.85,0 -7,3.15 -7,7 v 8.18 c 0,-3.59 3.15,-6.52 7,-6.52 z"
           id="path209" />
        <path
           class="cls-43"
           d="m 584.5,341.34 c 0,2.21 1.94,4.01 4.31,4.01 h 7.02 c 3.07,1.29 4.69,4.93 5.07,8.78 0.49,-5.28 -1.1,-11.2 -5.07,-13 h -7.02 c -1.49,0 -2.74,-0.81 -3.52,-1.97 -0.46,0.64 -0.79,1.36 -0.79,2.18 z"
           id="path210" />
      </g>
    </g>
    <g
       id="g215">
      <g
         id="g213">
        <rect
           class="cls-2"
           x="738.87"
           y="454.89999"
           width="73.75"
           height="8.3299999"
           rx="0.52999997"
           ry="0.52999997"
           transform="rotate(90,775.74,459.06)"
           id="rect211" />
        <rect
           class="cls-2"
           x="724.17999"
           y="454.89999"
           width="73.75"
           height="8.3299999"
           rx="0.52999997"
           ry="0.52999997"
           transform="rotate(90,761.05,459.06)"
           id="rect212" />
        <rect
           class="cls-2"
           x="709.48999"
           y="454.89999"
           width="73.75"
           height="8.3299999"
           rx="0.52999997"
           ry="0.52999997"
           transform="rotate(90,746.36,459.06)"
           id="rect213" />
      </g>
      <rect
         class="cls-22"
         x="731.34998"
         y="437.95001"
         width="59.400002"
         height="42.209999"
         rx="0.36000001"
         ry="0.36000001"
         transform="rotate(90,761.05,459.06)"
         id="rect214" />
      <rect
         class="cls-6"
         x="732.82001"
         y="437.95001"
         width="56.459999"
         height="42.209999"
         rx="0.36000001"
         ry="0.36000001"
         transform="rotate(90,761.05,459.06)"
         id="rect215" />
    </g>
  </g>
</svg>
